<?xml version="1.0" encoding="UTF-8" standalone="no"?>
<!-- Created with Inkscape (http://www.inkscape.org/) -->

<svg
   xmlns:dc="http://purl.org/dc/elements/1.1/"
   xmlns:cc="http://creativecommons.org/ns#"
   xmlns:rdf="http://www.w3.org/1999/02/22-rdf-syntax-ns#"
   xmlns:svg="http://www.w3.org/2000/svg"
   xmlns="http://www.w3.org/2000/svg"
   xmlns:xlink="http://www.w3.org/1999/xlink"
   xmlns:sodipodi="http://sodipodi.sourceforge.net/DTD/sodipodi-0.dtd"
   xmlns:inkscape="http://www.inkscape.org/namespaces/inkscape"
   width="224.25"
   height="312.78125"
   id="svg18947"
   version="1.1"
   inkscape:version="0.48.3.1 r9886"
   sodipodi:docname="23-Diamond05.svg">
  <sodipodi:namedview
     id="base"
     pagecolor="#ffffff"
     bordercolor="#666666"
     borderopacity="1.0"
     inkscape:pageopacity="0.0"
     inkscape:pageshadow="2"
     inkscape:zoom="9.8104273"
     inkscape:cx="94.898431"
     inkscape:cy="156.39062"
     inkscape:document-units="px"
     inkscape:current-layer="g11196"
     showgrid="false"
     fit-margin-top="0"
     fit-margin-left="0"
     fit-margin-right="0"
     fit-margin-bottom="0"
     inkscape:window-width="1121"
     inkscape:window-height="1108"
     inkscape:window-x="119"
     inkscape:window-y="119"
     inkscape:window-maximized="0"
     inkscape:snap-global="true"
     inkscape:snap-bbox="true"
     inkscape:bbox-paths="true"
     inkscape:bbox-nodes="true"
     inkscape:snap-bbox-edge-midpoints="true"
     inkscape:snap-bbox-midpoints="true"
     inkscape:snap-object-midpoints="true"
     inkscape:snap-center="true">
    <sodipodi:guide
       id="guide10835"
       orientation="312.7813,0"
       position="0.0,0" />
    <sodipodi:guide
       id="guide10837"
       orientation="312.7813,0"
       position="28.0313,0" />
    <sodipodi:guide
       id="guide10839"
       orientation="312.7813,0"
       position="56.0625,0" />
    <sodipodi:guide
       id="guide10841"
       orientation="312.7813,0"
       position="84.0938,0" />
    <sodipodi:guide
       id="guide10843"
       orientation="312.7813,0"
       position="112.125,0" />
    <sodipodi:guide
       id="guide10845"
       orientation="312.7813,0"
       position="140.1563,0" />
    <sodipodi:guide
       id="guide10847"
       orientation="312.7813,0"
       position="168.1875,0" />
    <sodipodi:guide
       id="guide10849"
       orientation="312.7813,0"
       position="196.2188,0" />
    <sodipodi:guide
       id="guide10851"
       orientation="312.7813,0"
       position="224.25,0" />
    <sodipodi:guide
       id="guide10853"
       orientation="0,224.25"
       position="0,0.0" />
    <sodipodi:guide
       id="guide10855"
       orientation="0,224.25"
       position="16.004248,156.39058" />
    <sodipodi:guide
       id="guide10857"
       orientation="0,224.25"
       position="0,312.7813" />
  </sodipodi:namedview>
  <defs
     id="defs18949">
    <radialGradient
       inkscape:collect="always"
       xlink:href="#linearGradient3933"
       id="radialGradient3939"
       cx="44.149761"
       cy="208.92761"
       fx="44.149761"
       fy="208.92761"
       r="74.726646"
       gradientTransform="matrix(0.97241988,-0.00350785,0.00204639,0.40929875,3227.7804,-373.19033)"
       gradientUnits="userSpaceOnUse" />
    <linearGradient
       inkscape:collect="always"
       id="linearGradient3933">
      <stop
         style="stop-color:#000000;stop-opacity:1;"
         offset="0"
         id="stop3935" />
      <stop
         style="stop-color:#000000;stop-opacity:0;"
         offset="1"
         id="stop3937" />
    </linearGradient>
    <linearGradient
       inkscape:collect="always"
       xlink:href="#linearGradient3006"
       id="linearGradient3012"
       x1="81.90625"
       y1="294.38422"
       x2="178.15625"
       y2="294.38422"
       gradientUnits="userSpaceOnUse"
       gradientTransform="translate(3141.9804,-362.76274)" />
    <linearGradient
       id="linearGradient3006">
      <stop
         style="stop-color:#ffffff;stop-opacity:1;"
         offset="0"
         id="stop3008" />
      <stop
         id="stop3014"
         offset="0.37675071"
         style="stop-color:#7f7f7f;stop-opacity:1;" />
      <stop
         style="stop-color:#ffffff;stop-opacity:1;"
         offset="0.80194807"
         id="stop3016" />
      <stop
         style="stop-color:#cccccc;stop-opacity:1"
         offset="1"
         id="stop3010" />
    </linearGradient>
    <linearGradient
       gradientTransform="translate(3141.9804,-483.76274)"
       inkscape:collect="always"
       xlink:href="#linearGradient3804"
       id="linearGradient3810"
       x1="65.223801"
       y1="394.69629"
       x2="156.7487"
       y2="394.69629"
       gradientUnits="userSpaceOnUse" />
    <linearGradient
       id="linearGradient3804">
      <stop
         style="stop-color:#000000;stop-opacity:1;"
         offset="0"
         id="stop3806" />
      <stop
         id="stop3812"
         offset="0.5"
         style="stop-color:#333333;stop-opacity:1" />
      <stop
         style="stop-color:#000000;stop-opacity:1;"
         offset="1"
         id="stop3808" />
    </linearGradient>
    <radialGradient
       inkscape:collect="always"
       xlink:href="#linearGradient3024"
       id="radialGradient3030"
       cx="114.59315"
       cy="428.49252"
       fx="114.59315"
       fy="428.49252"
       r="43.141743"
       gradientTransform="matrix(0.79138519,4.4166814e-8,0,0.48100739,3167.9951,-285.21099)"
       gradientUnits="userSpaceOnUse" />
    <linearGradient
       inkscape:collect="always"
       id="linearGradient3024">
      <stop
         id="stop3028"
         offset="0"
         style="stop-color:#000000;stop-opacity:1" />
      <stop
         id="stop3026"
         offset="1"
         style="stop-color:#242424;stop-opacity:1;" />
    </linearGradient>
    <linearGradient
       gradientTransform="translate(3141.9804,-483.76274)"
       inkscape:collect="always"
       xlink:href="#linearGradient3101"
       id="linearGradient3113"
       gradientUnits="userSpaceOnUse"
       x1="145.60164"
       y1="375.92633"
       x2="183.7796"
       y2="390.78296" />
    <linearGradient
       inkscape:collect="always"
       id="linearGradient3101">
      <stop
         style="stop-color:#000000;stop-opacity:1;"
         offset="0"
         id="stop3103" />
      <stop
         style="stop-color:#000000;stop-opacity:0;"
         offset="1"
         id="stop3105" />
    </linearGradient>
    <linearGradient
       gradientTransform="translate(3141.9804,-483.76274)"
       inkscape:collect="always"
       xlink:href="#linearGradient3101"
       id="linearGradient3107"
       x1="113.00574"
       y1="395.66125"
       x2="116.81388"
       y2="405.19611"
       gradientUnits="userSpaceOnUse" />
    <linearGradient
       inkscape:collect="always"
       xlink:href="#linearGradient3833"
       id="linearGradient3086"
       gradientUnits="userSpaceOnUse"
       gradientTransform="matrix(0.43846429,7.9081918e-4,-6.5324466e-4,0.53080568,573.42943,-3051.1909)"
       x1="-158.78125"
       y1="459.14062"
       x2="-128.625"
       y2="459.14062" />
    <linearGradient
       id="linearGradient3833">
      <stop
         style="stop-color:#000000;stop-opacity:1;"
         offset="0"
         id="stop3835" />
      <stop
         id="stop3841"
         offset="0.5"
         style="stop-color:#333333;stop-opacity:1" />
      <stop
         style="stop-color:#000000;stop-opacity:1"
         offset="1"
         id="stop3837" />
    </linearGradient>
    <linearGradient
       inkscape:collect="always"
       xlink:href="#linearGradient3851"
       id="linearGradient3088"
       gradientUnits="userSpaceOnUse"
       gradientTransform="matrix(0.43846429,7.9081918e-4,-6.5324466e-4,0.53080568,640.31048,-3052.3309)"
       x1="-311.3125"
       y1="463.51562"
       x2="-281.15625"
       y2="463.51562" />
    <linearGradient
       id="linearGradient3851">
      <stop
         style="stop-color:#808080;stop-opacity:1;"
         offset="0"
         id="stop3853" />
      <stop
         id="stop3859"
         offset="0.5"
         style="stop-color:#ffffff;stop-opacity:1;" />
      <stop
         style="stop-color:#808080;stop-opacity:1;"
         offset="1"
         id="stop3855" />
    </linearGradient>
  </defs>
  <metadata
     id="metadata18952">
    <rdf:RDF>
      <cc:Work
         rdf:about="">
        <dc:format>image/svg+xml</dc:format>
        <dc:type
           rdf:resource="http://purl.org/dc/dcmitype/StillImage" />
        <dc:title />
      </cc:Work>
    </rdf:RDF>
  </metadata>
  <g
     transform="translate(-247.87401,-381.68621)"
     id="layer1"
     inkscape:groupmode="layer"
     inkscape:label="Layer 1">
    <g
       inkscape:export-ydpi="70"
       inkscape:export-xdpi="70"
       inkscape:export-filename="C:\Users\MXY\Documents\SVG Deck(4-19-2011)\Finalized\Colorized - SVG_Vector_Playing_Cards_Version_1.3\COMBINED TEST.png"
       transform="translate(267.49798,-13271.204)"
       id="g11196"
       style="display:inline">
      <g
         id="g10341"
         transform="matrix(0.95,0,0,0.95,4.3377528,691.32902)">
        <path
           inkscape:connector-curvature="0"
           style="fill:#0000ff;fill-opacity:1"
           id="path3459"
           d="m 15.707105,13710.28 c 9.9207,-9.682 16.4361,-20.238 22.6671,-30.389 5.4644,11.17 13.3059,20.942 21.7862,30.389 -9.0732,9.368 -16.1051,19.386 -21.7591,29.917 -6.2676,-10.795 -12.866,-20.571 -22.6942,-29.917 z" />
        <path
           inkscape:connector-curvature="0"
           style="fill:#0000ff;fill-opacity:1"
           id="path3463"
           d="m 15.707105,13906.931 c 9.9207,-9.681 16.4361,-20.237 22.6671,-30.389 5.4644,11.17 13.3059,20.942 21.7862,30.389 -9.0732,9.369 -16.1051,19.386 -21.759,29.918 -6.2676,-10.796 -12.8661,-20.572 -22.6943,-29.918 z" />
        <path
           inkscape:connector-curvature="0"
           style="fill:#0000ff;fill-opacity:1"
           id="path3465"
           d="m 125.4464,13710.28 c 9.9207,-9.682 16.4362,-20.238 22.6672,-30.389 5.4643,11.17 13.3059,20.942 21.7862,30.389 -9.0732,9.368 -16.1052,19.386 -21.7591,29.917 -6.2676,-10.795 -12.866,-20.571 -22.6943,-29.917 z" />
        <path
           inkscape:connector-curvature="0"
           style="fill:#0000ff;fill-opacity:1"
           id="path3467"
           d="m 70.274338,13809.516 c 9.9207,-9.681 16.4361,-20.237 22.6671,-30.388 5.4644,11.17 13.305902,20.942 21.786202,30.388 -9.0732,9.369 -16.105102,19.387 -21.759002,29.918 -6.2676,-10.795 -12.8661,-20.571 -22.6943,-29.918 z" />
        <path
           inkscape:connector-curvature="0"
           style="fill:#0000ff;fill-opacity:1"
           id="path3469"
           d="m 125.4464,13906.931 c 9.9207,-9.681 16.4362,-20.237 22.6672,-30.389 5.4643,11.17 13.3059,20.942 21.7862,30.389 -9.0732,9.369 -16.1052,19.386 -21.7591,29.918 -6.2676,-10.796 -12.866,-20.572 -22.6943,-29.918 z" />
      </g>
      <path
         d="m 172.46507,13897.77 c 3.8607,-3.768 6.39625,-7.876 8.82113,-11.827 2.12648,4.347 5.17807,8.15 8.47827,11.827 -3.53096,3.645 -6.26743,7.544 -8.46773,11.642 -2.43912,-4.201 -5.00697,-8.006 -8.83167,-11.642 z"
         id="path3742"
         style="fill:#0000ff;fill-opacity:1"
         inkscape:connector-curvature="0" />
      <path
         d="m -4.9073407,13721.205 c 3.860705,-3.768 6.396255,-7.876 8.82113,-11.827 2.12648,4.347 5.178165,8.15 8.4783697,11.827 -3.5309597,3.646 -6.2675297,7.544 -8.4678247,11.643 -2.439125,-4.202 -5.006975,-8.006 -8.831675,-11.643 z"
         id="path3744"
         style="fill:#0000ff;fill-opacity:1"
         inkscape:connector-curvature="0" />
      <path
         d="m -5.7623407,13696.831 3.059095,-0.03 c 0.58178,1.847 1.87339995,3.73 3.62614995,4.25 4.95121005,1.162 8.13903005,-1.603 9.18887475,-4.794 1.27319,-3.871 -0.0285,-9.307 -3.4366247,-11.237 -2.826915,-1.602 -7.02525005,-0.251 -8.950995,3.172 l -2.14434,-1.311 1.15083,-12.751 13.9940697,0 0,3.013 -11.34090975,0 -0.177935,5.312 c 2.43703505,-1.712 6.19219505,-1.695 8.63113005,-0.494 4.6215597,2.203 6.7677997,7.213 5.8684347,13.12 -1.244975,5.874 -3.9875297,9.202 -10.1816247,9.681 -6.882465,0.06 -9.313515,-4.672 -9.286155,-7.934 z"
         id="path7106-71"
         style="fill:#0000ff;fill-opacity:1;display:inline"
         inkscape:connector-curvature="0" />
      <path
         d="m 190.76416,13921.73 -3.0591,0.03 c -0.58168,-1.846 -1.8734,-3.73 -3.62605,-4.249 -4.95131,-1.163 -8.13913,1.602 -9.18897,4.794 -1.2731,3.87 0.0285,9.306 3.43662,11.236 2.82692,1.602 7.02525,0.251 8.951,-3.171 l 2.14434,1.311 -1.15083,12.75 -13.99398,0 0,-3.013 11.34082,0 0.17793,-5.311 c -2.43703,1.712 -6.19219,1.695 -8.63113,0.493 -4.62156,-2.203 -6.7678,-7.212 -5.86834,-13.119 1.24488,-5.874 3.98753,-9.203 10.18163,-9.681 6.88237,-0.06 9.31351,4.672 9.28606,7.934 z"
         id="path7122-7"
         style="fill:#0000ff;fill-opacity:1;display:inline"
         inkscape:connector-curvature="0" />
      <path
         d="m 12.536844,13897.77 c -3.8607997,-3.768 -6.3962547,-7.876 -8.8212247,-11.827 -2.12648,4.347 -5.17807,8.15 -8.478275,11.827 3.53096,3.645 6.26753,7.544 8.467825,11.642 2.43903,-4.201 5.00688,-8.006 8.8316747,-11.642 z"
         id="path3742-8"
         style="fill:#0000ff;fill-opacity:1"
         inkscape:connector-curvature="0" />
      <path
         d="m 189.90916,13721.205 c -3.86071,-3.768 -6.39626,-7.876 -8.82113,-11.827 -2.12648,4.347 -5.17817,8.15 -8.47837,11.827 3.53105,3.646 6.26753,7.544 8.46782,11.643 2.43913,-4.202 5.00698,-8.006 8.83168,-11.643 z"
         id="path3744-0"
         style="fill:#0000ff;fill-opacity:1"
         inkscape:connector-curvature="0" />
      <path
         d="m 171.09555,13696.831 3.05909,-0.03 c 0.58178,1.847 1.8735,3.73 3.62615,4.25 4.95131,1.162 8.13903,-1.603 9.18897,-4.794 1.2731,-3.871 -0.0285,-9.307 -3.43672,-11.237 -2.82682,-1.602 -7.02515,-0.251 -8.9509,3.172 l -2.14434,-1.311 1.15083,-12.751 13.99398,0 0,3.013 -11.34082,0 -0.17793,5.312 c 2.43703,-1.712 6.19219,-1.695 8.63103,-0.494 4.62156,2.203 6.7679,7.213 5.86844,13.12 -1.24488,5.874 -3.98753,9.202 -10.18163,9.681 -6.88237,0.06 -9.31351,-4.672 -9.28615,-7.934 z"
         id="path7106-71-1"
         style="fill:#0000ff;fill-opacity:1;display:inline"
         inkscape:connector-curvature="0" />
      <path
         d="m 13.906269,13921.73 -3.059095,0.03 c -0.58178,-1.846 -1.8733997,-3.73 -3.6261497,-4.249 -4.951305,-1.163 -8.13903005,1.602 -9.188875,4.794 -1.27319,3.87 0.0285,9.306 3.436625,11.236 2.82682,1.602 7.02525,0.251 8.9508997,-3.171 l 2.14434,1.311 -1.150735,12.75 -13.9940697,0 0,-3.013 11.34091,0 0.17784,-5.311 c -2.43694,1.712 -6.1921,1.695 -8.63103505,0.493 -4.62155995,-2.203 -6.76779995,-7.212 -5.86843495,-13.119 1.24488,-5.874 3.98753,-9.203 10.181625,-9.681 6.8824647,-0.06 9.3135147,4.672 9.2861547,7.934 z"
         id="path7122-7-2"
         style="fill:#0000ff;fill-opacity:1;display:inline"
         inkscape:connector-curvature="0" />
    </g>
    <text
       sodipodi:linespacing="125%"
       id="text70860-7"
       y="-259.49521"
       x="522.38733"
       style="font-size:24.01966476px;font-style:normal;font-variant:normal;font-weight:normal;font-stretch:normal;text-align:start;line-height:125%;letter-spacing:0px;word-spacing:0px;writing-mode:lr-tb;text-anchor:start;fill:none;stroke:#000000;stroke-width:0.63635188;stroke-opacity:1;font-family:Card Characters;-inkscape-font-specification:Card Characters"
       xml:space="preserve"
       transform="matrix(0,1,-1,0,0,0)"
       inkscape:transform-center-x="15.204046"><tspan
         sodipodi:role="line"
         id="tspan11045"
         x="522.38733"
         y="-259.49521"
         style="stroke-width:0.63635188">25</tspan></text>
    <use
       x="0"
       y="0"
       xlink:href="#text70860-7"
       inkscape:transform-center-x="-19.735628"
       id="use49803"
       transform="matrix(-1,0,0,-1,719.99813,1076.1777)"
       width="224.25"
       height="312.78125"
       inkscape:transform-center-y="-0.0012482235" />
  </g>
</svg>
