<?xml version="1.0" encoding="UTF-8" standalone="no"?>
<!-- Created with Inkscape (http://www.inkscape.org/) -->

<svg
   xmlns:dc="http://purl.org/dc/elements/1.1/"
   xmlns:cc="http://creativecommons.org/ns#"
   xmlns:rdf="http://www.w3.org/1999/02/22-rdf-syntax-ns#"
   xmlns:svg="http://www.w3.org/2000/svg"
   xmlns="http://www.w3.org/2000/svg"
   xmlns:xlink="http://www.w3.org/1999/xlink"
   xmlns:sodipodi="http://sodipodi.sourceforge.net/DTD/sodipodi-0.dtd"
   xmlns:inkscape="http://www.inkscape.org/namespaces/inkscape"
   width="224.25"
   height="312.78125"
   id="svg18947"
   version="1.1"
   inkscape:version="0.48.3.1 r9886"
   sodipodi:docname="25-Diamond07.svg">
  <sodipodi:namedview
     id="base"
     pagecolor="#ffffff"
     bordercolor="#666666"
     borderopacity="1.0"
     inkscape:pageopacity="0.0"
     inkscape:pageshadow="2"
     inkscape:zoom="6.0748954"
     inkscape:cx="178.86639"
     inkscape:cy="177.1882"
     inkscape:document-units="px"
     inkscape:current-layer="g11231"
     showgrid="false"
     fit-margin-top="0"
     fit-margin-left="0"
     fit-margin-right="0"
     fit-margin-bottom="0"
     inkscape:window-width="1478"
     inkscape:window-height="1388"
     inkscape:window-x="119"
     inkscape:window-y="119"
     inkscape:window-maximized="0"
     inkscape:snap-global="true"
     inkscape:snap-bbox="true"
     inkscape:bbox-paths="true"
     inkscape:bbox-nodes="true"
     inkscape:snap-bbox-edge-midpoints="true"
     inkscape:snap-bbox-midpoints="true"
     inkscape:snap-object-midpoints="true"
     inkscape:snap-center="true">
    <sodipodi:guide
       id="guide10143"
       orientation="312.7813,0"
       position="0.0,0" />
    <sodipodi:guide
       id="guide10145"
       orientation="312.7813,0"
       position="28.0313,0" />
    <sodipodi:guide
       id="guide10147"
       orientation="312.7813,0"
       position="56.0625,0" />
    <sodipodi:guide
       id="guide10149"
       orientation="312.7813,0"
       position="84.0938,0" />
    <sodipodi:guide
       id="guide10151"
       orientation="312.7813,0"
       position="112.125,0" />
    <sodipodi:guide
       id="guide10153"
       orientation="312.7813,0"
       position="140.1563,0" />
    <sodipodi:guide
       id="guide10155"
       orientation="312.7813,0"
       position="168.1875,0" />
    <sodipodi:guide
       id="guide10157"
       orientation="312.7813,0"
       position="196.2188,0" />
    <sodipodi:guide
       id="guide10159"
       orientation="312.7813,0"
       position="224.25,0" />
    <sodipodi:guide
       id="guide10161"
       orientation="0,224.25"
       position="0,0.0" />
    <sodipodi:guide
       id="guide10163"
       orientation="0,224.25"
       position="0,156.3906" />
    <sodipodi:guide
       id="guide10165"
       orientation="0,224.25"
       position="0,312.7813" />
  </sodipodi:namedview>
  <defs
     id="defs18949">
    <radialGradient
       inkscape:collect="always"
       xlink:href="#linearGradient3933"
       id="radialGradient3939"
       cx="44.149761"
       cy="208.92761"
       fx="44.149761"
       fy="208.92761"
       r="74.726646"
       gradientTransform="matrix(0.97241988,-0.00350785,0.00204639,0.40929875,3227.7804,-373.19033)"
       gradientUnits="userSpaceOnUse" />
    <linearGradient
       inkscape:collect="always"
       id="linearGradient3933">
      <stop
         style="stop-color:#000000;stop-opacity:1;"
         offset="0"
         id="stop3935" />
      <stop
         style="stop-color:#000000;stop-opacity:0;"
         offset="1"
         id="stop3937" />
    </linearGradient>
    <linearGradient
       inkscape:collect="always"
       xlink:href="#linearGradient3006"
       id="linearGradient3012"
       x1="81.90625"
       y1="294.38422"
       x2="178.15625"
       y2="294.38422"
       gradientUnits="userSpaceOnUse"
       gradientTransform="translate(3141.9804,-362.76274)" />
    <linearGradient
       id="linearGradient3006">
      <stop
         style="stop-color:#ffffff;stop-opacity:1;"
         offset="0"
         id="stop3008" />
      <stop
         id="stop3014"
         offset="0.37675071"
         style="stop-color:#7f7f7f;stop-opacity:1;" />
      <stop
         style="stop-color:#ffffff;stop-opacity:1;"
         offset="0.80194807"
         id="stop3016" />
      <stop
         style="stop-color:#cccccc;stop-opacity:1"
         offset="1"
         id="stop3010" />
    </linearGradient>
    <linearGradient
       gradientTransform="translate(3141.9804,-483.76274)"
       inkscape:collect="always"
       xlink:href="#linearGradient3804"
       id="linearGradient3810"
       x1="65.223801"
       y1="394.69629"
       x2="156.7487"
       y2="394.69629"
       gradientUnits="userSpaceOnUse" />
    <linearGradient
       id="linearGradient3804">
      <stop
         style="stop-color:#000000;stop-opacity:1;"
         offset="0"
         id="stop3806" />
      <stop
         id="stop3812"
         offset="0.5"
         style="stop-color:#333333;stop-opacity:1" />
      <stop
         style="stop-color:#000000;stop-opacity:1;"
         offset="1"
         id="stop3808" />
    </linearGradient>
    <radialGradient
       inkscape:collect="always"
       xlink:href="#linearGradient3024"
       id="radialGradient3030"
       cx="114.59315"
       cy="428.49252"
       fx="114.59315"
       fy="428.49252"
       r="43.141743"
       gradientTransform="matrix(0.79138519,4.4166814e-8,0,0.48100739,3167.9951,-285.21099)"
       gradientUnits="userSpaceOnUse" />
    <linearGradient
       inkscape:collect="always"
       id="linearGradient3024">
      <stop
         id="stop3028"
         offset="0"
         style="stop-color:#000000;stop-opacity:1" />
      <stop
         id="stop3026"
         offset="1"
         style="stop-color:#242424;stop-opacity:1;" />
    </linearGradient>
    <linearGradient
       gradientTransform="translate(3141.9804,-483.76274)"
       inkscape:collect="always"
       xlink:href="#linearGradient3101"
       id="linearGradient3113"
       gradientUnits="userSpaceOnUse"
       x1="145.60164"
       y1="375.92633"
       x2="183.7796"
       y2="390.78296" />
    <linearGradient
       inkscape:collect="always"
       id="linearGradient3101">
      <stop
         style="stop-color:#000000;stop-opacity:1;"
         offset="0"
         id="stop3103" />
      <stop
         style="stop-color:#000000;stop-opacity:0;"
         offset="1"
         id="stop3105" />
    </linearGradient>
    <linearGradient
       gradientTransform="translate(3141.9804,-483.76274)"
       inkscape:collect="always"
       xlink:href="#linearGradient3101"
       id="linearGradient3107"
       x1="113.00574"
       y1="395.66125"
       x2="116.81388"
       y2="405.19611"
       gradientUnits="userSpaceOnUse" />
    <linearGradient
       inkscape:collect="always"
       xlink:href="#linearGradient3833"
       id="linearGradient3086"
       gradientUnits="userSpaceOnUse"
       gradientTransform="matrix(0.43846429,7.9081918e-4,-6.5324466e-4,0.53080568,573.42943,-3051.1909)"
       x1="-158.78125"
       y1="459.14062"
       x2="-128.625"
       y2="459.14062" />
    <linearGradient
       id="linearGradient3833">
      <stop
         style="stop-color:#000000;stop-opacity:1;"
         offset="0"
         id="stop3835" />
      <stop
         id="stop3841"
         offset="0.5"
         style="stop-color:#333333;stop-opacity:1" />
      <stop
         style="stop-color:#000000;stop-opacity:1"
         offset="1"
         id="stop3837" />
    </linearGradient>
    <linearGradient
       inkscape:collect="always"
       xlink:href="#linearGradient3851"
       id="linearGradient3088"
       gradientUnits="userSpaceOnUse"
       gradientTransform="matrix(0.43846429,7.9081918e-4,-6.5324466e-4,0.53080568,640.31048,-3052.3309)"
       x1="-311.3125"
       y1="463.51562"
       x2="-281.15625"
       y2="463.51562" />
    <linearGradient
       id="linearGradient3851">
      <stop
         style="stop-color:#808080;stop-opacity:1;"
         offset="0"
         id="stop3853" />
      <stop
         id="stop3859"
         offset="0.5"
         style="stop-color:#ffffff;stop-opacity:1;" />
      <stop
         style="stop-color:#808080;stop-opacity:1;"
         offset="1"
         id="stop3855" />
    </linearGradient>
  </defs>
  <metadata
     id="metadata18952">
    <rdf:RDF>
      <cc:Work
         rdf:about="">
        <dc:format>image/svg+xml</dc:format>
        <dc:type
           rdf:resource="http://purl.org/dc/dcmitype/StillImage" />
        <dc:title />
      </cc:Work>
    </rdf:RDF>
  </metadata>
  <g
     transform="translate(-247.87401,-381.68621)"
     id="layer1"
     inkscape:groupmode="layer"
     inkscape:label="Layer 1">
    <g
       inkscape:export-ydpi="70"
       inkscape:export-xdpi="70"
       inkscape:export-filename="C:\Users\MXY\Documents\SVG Deck(4-19-2011)\Finalized\Colorized - SVG_Vector_Playing_Cards_Version_1.3\COMBINED TEST.png"
       transform="translate(267.498,-13916.819)"
       id="g11231"
       style="display:inline">
      <g
         id="g10356"
         transform="matrix(0.95,0,0,0.95,4.3456461,720.77614)">
        <path
           inkscape:connector-curvature="0"
           style="fill:#0000ff;fill-opacity:1"
           id="path3397-3"
           d="m 15.707105,14357.78 c 9.9207,-9.681 16.4362,-20.237 22.6672,-30.389 5.4643,11.17 13.3059,20.942 21.7861,30.389 -9.0731,9.368 -16.1051,19.386 -21.759,29.918 -6.2676,-10.796 -12.8661,-20.572 -22.6943,-29.918 z" />
        <path
           inkscape:connector-curvature="0"
           style="fill:#0000ff;fill-opacity:1"
           id="path3399-5"
           d="m 15.707055,14457.203 c 9.9207,-9.681 16.4362,-20.237 22.6672,-30.388 5.4643,11.169 13.3059,20.942 21.7862,30.388 -9.0732,9.369 -16.1052,19.387 -21.7591,29.918 -6.2676,-10.795 -12.866,-20.571 -22.6943,-29.918 z" />
        <path
           inkscape:connector-curvature="0"
           style="fill:#0000ff;fill-opacity:1"
           id="path3401-9"
           d="m 15.707055,14556.627 c 9.9207,-9.682 16.4362,-20.238 22.6672,-30.389 5.4643,11.17 13.3059,20.942 21.7862,30.389 -9.0732,9.368 -16.1052,19.386 -21.7591,29.918 -6.2676,-10.796 -12.866,-20.572 -22.6943,-29.918 z" />
        <path
           inkscape:connector-curvature="0"
           style="fill:#0000ff;fill-opacity:1"
           id="path3403-9"
           d="m 70.274338,14407.904 c 9.9207,-9.681 16.4361,-20.237 22.6671,-30.389 5.4644,11.17 13.305902,20.942 21.786202,30.389 -9.0732,9.369 -16.105102,19.386 -21.759002,29.918 -6.2676,-10.796 -12.8661,-20.572 -22.6943,-29.918 z" />
        <path
           inkscape:connector-curvature="0"
           style="fill:#0000ff;fill-opacity:1"
           id="path3407-8"
           d="m 125.4299,14357.78 c 9.9207,-9.681 16.4361,-20.237 22.6671,-30.389 5.4644,11.17 13.306,20.942 21.7862,30.389 -9.0732,9.368 -16.1051,19.386 -21.759,29.918 -6.2676,-10.796 -12.866,-20.572 -22.6943,-29.918 z" />
        <path
           inkscape:connector-curvature="0"
           style="fill:#0000ff;fill-opacity:1"
           id="path3409"
           d="m 125.4299,14457.203 c 9.9207,-9.681 16.4361,-20.237 22.6671,-30.388 5.4644,11.169 13.306,20.942 21.7862,30.388 -9.0732,9.369 -16.1051,19.387 -21.759,29.918 -6.2676,-10.795 -12.866,-20.571 -22.6943,-29.918 z" />
        <path
           inkscape:connector-curvature="0"
           style="fill:#0000ff;fill-opacity:1"
           id="path3411"
           d="m 125.4299,14556.627 c 9.9207,-9.682 16.4361,-20.238 22.6671,-30.389 5.4644,11.17 13.306,20.942 21.7862,30.389 -9.0732,9.368 -16.1051,19.386 -21.759,29.918 -6.2676,-10.796 -12.866,-20.572 -22.6943,-29.918 z" />
      </g>
      <path
         d="m 173.81787,14544.68 c 3.8608,-3.768 6.39625,-7.876 8.82122,-11.827 2.12648,4.347 5.17807,8.15 8.47828,11.827 -3.53096,3.645 -6.26753,7.543 -8.46783,11.642 -2.43903,-4.201 -5.00688,-8.006 -8.83167,-11.642 z"
         id="path3718"
         style="fill:#0000ff;fill-opacity:1"
         inkscape:connector-curvature="0" />
      <path
         d="m -5.5565717,14368.114 c 3.8608,-3.767 6.39625495,-7.875 8.821225,-11.826 2.12648,4.347 5.17807,8.15 8.4782747,11.826 -3.5309597,3.647 -6.2675297,7.544 -8.4678247,11.644 -2.43903005,-4.202 -5.00688,-8.006 -8.831675,-11.644 z"
         id="path3720"
         style="fill:#0000ff;fill-opacity:1"
         inkscape:connector-curvature="0" />
      <path
         d="m -1.8070167,14350.971 c 2.02558995,-10.536 4.18855,-18.441 9.86119,-27.026 l -11.52806,0 0,3.696 -3.06432,0 0,-6.965 16.8664897,0 2.079075,3.269 c -6.0244247,6.457 -11.54069475,27.33 -10.5634297,27.026 z"
         id="path7110-1"
         style="fill:#0000ff;fill-opacity:1;display:inline"
         inkscape:connector-curvature="0" />
      <path
         d="m 186.8095,14558.821 c -2.02559,10.536 -4.18855,18.44 -9.86119,27.026 l 11.52806,0 0,-3.696 3.06432,0 0,6.964 -16.86649,0 -2.07908,-3.268 c 6.02443,-6.457 11.5407,-27.331 10.56343,-27.026 z"
         id="path7126-8"
         style="fill:#0000ff;fill-opacity:1;display:inline"
         inkscape:connector-curvature="0" />
      <path
         d="m 11.184613,14544.68 c -3.8607997,-3.768 -6.3962547,-7.876 -8.8212247,-11.827 -2.12648005,4.347 -5.17807,8.15 -8.478275,11.827 3.53096,3.645 6.26752995,7.543 8.467825,11.642 2.439125,-4.201 5.00688,-8.006 8.8316747,-11.642 z"
         id="path3718-8"
         style="fill:#0000ff;fill-opacity:1"
         inkscape:connector-curvature="0" />
      <path
         d="m 190.55905,14368.114 c -3.8608,-3.767 -6.39625,-7.875 -8.82122,-11.826 -2.12639,4.347 -5.17807,8.15 -8.47828,11.826 3.53096,3.647 6.26753,7.544 8.46783,11.644 2.43912,-4.202 5.00688,-8.006 8.83167,-11.644 z"
         id="path3720-4"
         style="fill:#0000ff;fill-opacity:1"
         inkscape:connector-curvature="0" />
      <path
         d="m 177.32641,14350.971 c 2.02559,-10.536 4.18855,-18.441 9.86109,-27.026 l -11.52796,0 0,3.696 -3.06442,0 0,-6.965 16.86649,0 2.07908,3.269 c -6.02443,6.457 -11.5406,27.33 -10.56334,27.026 z"
         id="path7110-1-1"
         style="fill:#0000ff;fill-opacity:1;display:inline"
         inkscape:connector-curvature="0" />
      <path
         d="m 7.6760733,14558.821 c -2.025495,10.536 -4.18855,18.44 -9.861095,27.026 l 11.527965,0 0,-3.696 3.0644147,0 0,6.964 -16.8664897,0 -2.079075,-3.268 c 6.02442495,-6.457 11.5406,-27.331 10.563335,-27.026 z"
         id="path7126-8-4"
         style="fill:#0000ff;fill-opacity:1;display:inline"
         inkscape:connector-curvature="0" />
    </g>
    <text
       sodipodi:linespacing="125%"
       id="text70860-7"
       y="-259.49521"
       x="522.38733"
       style="font-size:24.01966476px;font-style:normal;font-variant:normal;font-weight:normal;font-stretch:normal;text-align:start;line-height:125%;letter-spacing:0px;word-spacing:0px;writing-mode:lr-tb;text-anchor:start;fill:none;stroke:#000000;stroke-width:0.63635188;stroke-opacity:1;font-family:Card Characters;-inkscape-font-specification:Card Characters"
       xml:space="preserve"
       transform="matrix(0,1,-1,0,0,0)"
       inkscape:transform-center-x="15.204046"><tspan
         sodipodi:role="line"
         id="tspan10357"
         x="522.38733"
         y="-259.49521"
         style="stroke-width:0.63635188">27</tspan></text>
    <use
       x="0"
       y="0"
       xlink:href="#text70860-7"
       inkscape:transform-center-x="-19.724225"
       id="use50350"
       transform="matrix(-1,0,0,-1,719.99813,1076.1537)"
       width="224.25"
       height="312.78125"
       inkscape:transform-center-y="1.7088662e-05" />
  </g>
</svg>
