<?xml version="1.0" encoding="UTF-8" standalone="no"?>
<!-- Created with Inkscape (http://www.inkscape.org/) -->

<svg
   xmlns:dc="http://purl.org/dc/elements/1.1/"
   xmlns:cc="http://creativecommons.org/ns#"
   xmlns:rdf="http://www.w3.org/1999/02/22-rdf-syntax-ns#"
   xmlns:svg="http://www.w3.org/2000/svg"
   xmlns="http://www.w3.org/2000/svg"
   xmlns:sodipodi="http://sodipodi.sourceforge.net/DTD/sodipodi-0.dtd"
   xmlns:inkscape="http://www.inkscape.org/namespaces/inkscape"
   width="224.25"
   height="312.78125"
   id="svg18947"
   version="1.1"
   inkscape:version="0.48+devel r"
   sodipodi:docname="3-Club03.svg">
  <sodipodi:namedview
     id="base"
     pagecolor="#ffffff"
     bordercolor="#666666"
     borderopacity="1.0"
     inkscape:pageopacity="0.0"
     inkscape:pageshadow="2"
     inkscape:zoom="10.945312"
     inkscape:cx="105.13084"
     inkscape:cy="156.39062"
     inkscape:document-units="px"
     inkscape:current-layer="layer1"
     showgrid="false"
     fit-margin-top="0"
     fit-margin-left="0"
     fit-margin-right="0"
     fit-margin-bottom="0"
     inkscape:window-width="2560"
     inkscape:window-height="1606"
     inkscape:window-x="0"
     inkscape:window-y="31"
     inkscape:window-maximized="1"
     inkscape:snap-global="true"
     inkscape:snap-bbox="true"
     inkscape:bbox-paths="true"
     inkscape:bbox-nodes="true"
     inkscape:snap-bbox-edge-midpoints="true"
     inkscape:snap-bbox-midpoints="true"
     inkscape:snap-object-midpoints="true"
     inkscape:snap-center="true">
    <sodipodi:guide
       id="guide42030"
       orientation="312.7813,0"
       position="0.0,0" />
    <sodipodi:guide
       id="guide42032"
       orientation="312.7813,0"
       position="28.0313,0" />
    <sodipodi:guide
       id="guide42034"
       orientation="312.7813,0"
       position="56.0625,0" />
    <sodipodi:guide
       id="guide42036"
       orientation="312.7813,0"
       position="84.0938,0" />
    <sodipodi:guide
       id="guide42038"
       orientation="312.7813,0"
       position="112.125,0" />
    <sodipodi:guide
       id="guide42040"
       orientation="312.7813,0"
       position="140.1563,0" />
    <sodipodi:guide
       id="guide42042"
       orientation="312.7813,0"
       position="168.1875,0" />
    <sodipodi:guide
       id="guide42044"
       orientation="312.7813,0"
       position="196.2188,0" />
    <sodipodi:guide
       id="guide42046"
       orientation="312.7813,0"
       position="224.25,0" />
    <sodipodi:guide
       id="guide42048"
       orientation="0,224.25"
       position="0,0.0" />
    <sodipodi:guide
       id="guide42050"
       orientation="0,224.25"
       position="0,156.3906" />
    <sodipodi:guide
       id="guide42052"
       orientation="0,224.25"
       position="0,312.7813" />
  </sodipodi:namedview>
  <defs
     id="defs18949" />
  <metadata
     id="metadata18952">
    <rdf:RDF>
      <cc:Work
         rdf:about="">
        <dc:format>image/svg+xml</dc:format>
        <dc:type
           rdf:resource="http://purl.org/dc/dcmitype/StillImage" />
        <dc:title />
      </cc:Work>
    </rdf:RDF>
  </metadata>
  <g
     transform="translate(-247.87401,-381.68621)"
     id="layer1"
     inkscape:groupmode="layer"
     inkscape:label="Layer 1">
    <g
       inkscape:export-ydpi="70"
       inkscape:export-xdpi="70"
       inkscape:export-filename="C:\Users\MXY\Documents\SVG Deck(4-19-2011)\Finalized\Colorized - SVG_Vector_Playing_Cards_Version_1.3\COMBINED TEST.png"
       transform="translate(267.49802,-36.085183)"
       id="g10462"
       style="display:inline">
      <path
         d="m -5.5057765,463.3045 2.4198305,-1.748 c 2.1032525,3.35711 4.451016,5.56995 8.0420255,5.18928 5.3899295,-0.36252 7.6217745,-5.90909 6.4935255,-10.09175 -1.089469,-3.74766 -5.553434,-5.57593 -9.099461,-3.57466 -0.8361805,0.47196 -1.803347,1.05469 -1.803347,1.05469 l -1.26236,-2.05761 8.325553,-9.68515 -9.03488,0 0,4.00862 -3.4669395,0 0,-7.18666 17.6597875,0 0,2.43922 c 0,0 -4.730126,4.81546 -6.295859,7.45503 3.852288,0.14013 6.95666,2.53536 8.067685,6.32539 0.652042,1.99348 0.358948,6.55595 -0.490903,8.5196 -1.419005,3.27854 -5.304838,5.93731 -8.8555485,6.09092 -5.957032,0.39349 -9.1217195,-3.7069 -10.699109,-6.73892 z"
         id="path7102-8"
         style="fill:#008000;fill-opacity:1;display:inline"
         inkscape:connector-curvature="0" />
      <path
         d="m 190.50789,685.0193 -2.41984,1.748 c -2.10325,-3.35701 -4.45101,-5.56985 -8.04202,-5.18928 -5.38993,0.36252 -7.62177,5.9091 -6.49353,10.09185 1.08947,3.74756 5.55345,5.57584 9.09946,3.57457 0.83619,-0.47187 1.80335,-0.9653 1.80335,-0.9653 l 1.49474,1.93249 -8.55793,9.72088 9.03488,0 0,-4.00862 3.46695,0 0,7.18665 -17.6598,0 0,-2.43922 c 0,0 4.73013,-4.81545 6.29586,-7.45503 -3.85229,-0.14003 -6.95666,-2.53536 -8.06769,-6.32529 -0.65204,-1.99348 -0.35893,-6.55604 0.49091,-8.5196 1.419,-3.27864 5.30484,-5.9374 8.85556,-6.09102 5.95702,-0.39349 9.12171,3.7069 10.6991,6.73892 z"
         id="path7118-5"
         style="fill:#008000;fill-opacity:1;display:inline"
         inkscape:connector-curvature="0" />
      <g
         id="g10149"
         transform="matrix(0.95,0,0,0.95,4.625052,28.708097)">
        <path
           inkscape:connector-curvature="0"
           style="fill:#008000;fill-opacity:1;display:inline"
           id="path3255"
           d="m 85.15006,602.7326 c 2.879,-5.7755 4.9759,-11.701 5.3481,-18.0373 0.3416,-2.3317 -1.0746,-2.3708 -1.2881,-0.7286 -4.0764,15.5928 -25.7627,11.3704 -25.0171,-3.2965 0.605,-11.8948 12.4195,-14.4538 18.5823,-10.5645 2.4336,1.4328 2.2961,0.5746 0.9679,-0.9118 -9.1548,-10.2114 -3.6101,-23.3617 8.7612,-23.6024 13.3796,0.7934 16.8512,14.8699 8.6442,23.1483 -1.0206,0.9946 -3.2835,4.1913 0.123,1.9563 8.2868,-5.888 19.7873,0.4429 19.5527,9.5208 -0.4327,16.7388 -20.8391,17.9872 -25.2032,4.0057 -0.4198,-1.5501 -1.6291,-2.3286 -1.295,0.3043 0.6049,4.7666 1.8565,11.9534 5.4374,18.2057 z" />
        <path
           inkscape:connector-curvature="0"
           style="fill:#008000;fill-opacity:1;display:inline"
           id="path3257"
           d="m 85.15006,503.5393 c 2.879,-5.7756 4.9759,-11.701 5.3481,-18.0373 0.3416,-2.3317 -1.0746,-2.3708 -1.2881,-0.7286 -4.0764,15.5928 -25.7627,11.3704 -25.0171,-3.2965 0.605,-11.8948 12.4195,-14.4538 18.5823,-10.5645 2.4336,1.4327 2.2961,0.5746 0.9679,-0.9118 -9.1548,-10.2115 -3.6101,-23.3618 8.7612,-23.6025 13.3796,0.7935 16.8512,14.8699 8.6442,23.1484 -1.0206,0.9946 -3.2835,4.1913 0.123,1.9563 8.2868,-5.888 19.7873,0.4428 19.5527,9.5207 -0.4327,16.7389 -20.8391,17.9873 -25.2032,4.0058 -0.4198,-1.5502 -1.6291,-2.3287 -1.295,0.3043 0.6049,4.7666 1.8565,11.9534 5.4374,18.2057 z" />
        <path
           inkscape:connector-curvature="0"
           style="fill:#008000;fill-opacity:1;display:inline"
           id="path3405"
           d="m 99.851918,645.2061 c -2.879,5.7756 -4.9759,11.701 -5.3481,18.0373 -0.3416,2.3318 1.0746,2.3709 1.2881,0.7286 4.0764,-15.5928 25.762702,-11.3703 25.017102,3.2965 -0.605,11.8948 -12.4195,14.4538 -18.5823,10.5645 -2.433602,-1.4328 -2.296102,-0.5746 -0.9679,0.9118 9.1548,10.2114 3.6101,23.3617 -8.761202,23.6024 -13.3796,-0.7934 -16.8512,-14.8699 -8.6442,-23.1483 1.0206,-0.9946 3.2835,-4.1912 -0.123,-1.9563 -8.2868,5.888 -19.7873,-0.4428 -19.5527,-9.5207 0.4327,-16.7388 20.8391,-17.9873 25.2032,-4.0058 0.4198,1.5503 1.6291,2.3286 1.295,-0.3042 -0.6049,-4.7666 -1.8565,-11.9534 -5.4374,-18.2057 z" />
      </g>
      <path
         d="m 0.119601,497.38879 c 1.132495,-2.32284 2.23459,-4.48476 2.835085,-7.03085 0.39824,-2.40122 -0.416385,-1.50908 -0.87894,0.0646 -0.68514,2.18253 -2.58647,3.17661 -4.351,3.20045 -3.202545,0.0428 -4.800065,-2.47408 -4.700505,-5.1812 -0.349695,-2.84867 2.53745,-4.86419 4.713615,-4.70896 1.636185,0.11675 3.0628,0.99949 3.926255,1.68644 0.566485,0.29953 1.1723,0.43187 0.327655,-0.34058 -1.59372,-1.74125 -2.92277,-2.81599 -2.8937,-5.42526 0.02755,-2.44976 2.121825,-5.00479 4.89763,-4.92461 3.468925,0.10023 5.0464,2.7456 5.038135,5.20648 -0.0095,1.79398 -0.90592,3.44498 -2.29083,4.46756 -0.89699,0.7278 -0.64543,1.27281 0.377815,0.58406 0.983155,-0.8474 2.153745,-1.21837 3.36756,-1.2444 3.315975,-0.0523 4.61225,2.81342 4.422345,5.47599 -0.17803,2.49441 -2.30166,5.06198 -5.10055,4.77118 -2.499165,-0.28642 -3.81235,-2.3844 -4.564845,-4.53805 -0.249185,-0.66035 -0.6422,-0.83866 -0.631275,0.14544 0.577315,4.80453 2.36702,7.79418 2.380035,7.79143 z"
         id="path3456"
         style="fill:#008000;fill-opacity:1;display:inline"
         inkscape:connector-curvature="0" />
      <path
         d="m 185.4419,651.62842 c -1.1325,2.32284 -2.23459,4.48476 -2.83509,7.03085 -0.39824,2.40122 0.41639,1.50908 0.87894,-0.0646 0.68514,-2.18253 2.58647,-3.17661 4.351,-3.20045 3.20255,-0.0437 4.80007,2.47408 4.70051,5.1812 0.34969,2.84867 -2.53745,4.86419 -4.71362,4.70896 -1.63618,-0.11675 -3.0628,-0.99949 -3.92625,-1.68644 -0.56649,-0.29953 -1.1723,-0.43187 -0.32766,0.34058 1.59372,1.74125 2.92277,2.81599 2.8937,5.42526 -0.0275,2.44976 -2.12182,5.00479 -4.89763,4.92461 -3.46892,-0.10023 -5.0464,-2.7456 -5.03813,-5.20648 0.01,-1.79398 0.90592,-3.44498 2.29083,-4.46756 0.89699,-0.7278 0.64543,-1.27281 -0.37782,-0.58406 -0.98315,0.8474 -2.15374,1.21837 -3.36756,1.2444 -3.31597,0.0523 -4.61225,-2.81342 -4.42234,-5.47599 0.17803,-2.49441 2.30166,-5.06198 5.10055,-4.77118 2.49916,0.28642 3.81235,2.3844 4.56484,4.53805 0.24919,0.66035 0.6422,0.83866 0.63128,-0.14544 -0.57732,-4.80453 -2.36702,-7.79418 -2.38004,-7.79143 z"
         id="path3484"
         style="fill:#008000;fill-opacity:1;display:inline"
         inkscape:connector-curvature="0" />
      <path
         d="m 170.38667,463.30454 2.41983,-1.74797 c 2.10325,3.35705 4.45101,5.56988 8.04202,5.18926 5.38993,-0.36249 7.62178,-5.90911 6.49353,-10.0918 -1.08947,-3.74757 -5.55344,-5.57586 -9.09946,-3.5746 -0.83618,0.47192 -1.80335,1.05467 -1.80335,1.05467 l -1.26236,-2.05761 8.32555,-9.68515 -9.03488,0 0,4.00864 -3.46694,0 0,-7.18669 17.65979,0 0,2.43926 c 0,0 -4.73012,4.81542 -6.29586,7.45502 3.85229,0.14009 6.95666,2.53533 8.06769,6.32535 0.65204,1.99348 0.35895,6.556 -0.49091,8.51958 -1.419,3.27863 -5.30483,5.93736 -8.85554,6.09098 -5.95704,0.39347 -9.12172,-3.7069 -10.69911,-6.73894 z"
         id="path7102-8-6"
         style="fill:#008000;fill-opacity:1;display:inline"
         inkscape:connector-curvature="0" />
      <path
         d="m 15.174717,685.01938 -2.41984,1.74797 c -2.103253,-3.35706 -4.4510165,-5.56988 -8.042026,-5.18926 -5.3899295,0.36249 -7.621774,5.90911 -6.4935255,10.0918 1.0894695,3.74757 5.5534435,5.57586 9.099461,3.57459 0.8361805,-0.47191 1.803347,-0.96528 1.803347,-0.96528 l 1.4947395,1.93248 -8.5579325,9.7209 9.0348805,0 0,-4.00865 3.466949,0 0,7.1867 -17.6597975,0 0,-2.43926 c 0,0 4.730126,-4.81542 6.295859,-7.45502 -3.852288,-0.14009 -6.95666,-2.53533 -8.067685,-6.32535 -0.652042,-1.99348 -0.3589385,-6.55601 0.490903,-8.51958 1.4190055,-3.27863 5.304838,-5.93738 8.855558,-6.09099 5.9570225,-0.39346 9.1217105,3.70691 10.6991095,6.73895 z"
         id="path7118-5-1"
         style="fill:#008000;fill-opacity:1;display:inline"
         inkscape:connector-curvature="0" />
      <path
         d="m 185.16215,497.38881 c -1.1325,-2.32282 -2.23459,-4.48474 -2.83509,-7.03083 -0.39824,-2.40119 0.41639,-1.5091 0.87894,0.0648 0.68514,2.18254 2.58647,3.17657 4.351,3.20043 3.20255,0.0432 4.80007,-2.47402 4.70051,-5.18119 0.34969,-2.84866 -2.53745,-4.86418 -4.71362,-4.70891 -1.63618,0.11676 -3.0628,0.99945 -3.92625,1.68637 -0.56649,0.29953 -1.1723,0.43188 -0.32766,-0.34056 1.59372,-1.74128 2.92277,-2.81594 2.8937,-5.42528 -0.0276,-2.44976 -2.12182,-5.00472 -4.89763,-4.92456 -3.46892,0.10019 -5.0464,2.74559 -5.03813,5.20649 0.01,1.79393 0.90592,3.44498 2.29083,4.46754 0.89699,0.72779 0.64543,1.27282 -0.37782,0.58409 -0.98315,-0.84741 -2.15374,-1.21844 -3.36756,-1.24446 -3.31597,-0.052 -4.61225,2.8134 -4.42234,5.47597 0.17803,2.49442 2.30166,5.06198 5.10055,4.77119 2.49916,-0.28642 3.81235,-2.38441 4.56484,-4.53802 0.24919,-0.66034 0.6422,-0.83867 0.63128,0.14541 -0.57732,4.80456 -2.36702,7.79422 -2.38004,7.79148 z"
         id="path3456-2"
         style="fill:#008000;fill-opacity:1;display:inline"
         inkscape:connector-curvature="0" />
      <path
         d="m -0.160155,651.62848 c 1.132495,2.32283 2.23459,4.48474 2.835085,7.03083 0.39824,2.40119 -0.416385,1.5091 -0.87894,-0.0648 -0.68514,-2.18254 -2.58647,-3.17656 -4.351,-3.20043 -3.202545,-0.0432 -4.800065,2.47402 -4.700505,5.1812 -0.349695,2.84866 2.53745,4.86417 4.713615,4.7089 1.636185,-0.11675 3.0628,-0.99945 3.926255,-1.68636 0.566485,-0.29954 1.1723,-0.43188 0.327655,0.34055 -1.59372,1.74129 -2.92277,2.81595 -2.8937,5.42528 0.02755,2.44977 2.121825,5.00473 4.89763,4.92457 3.468925,-0.10019 5.0464,-2.7456 5.038135,-5.2065 -0.0095,-1.79392 -0.90592,-3.44497 -2.29083,-4.46753 -0.89699,-0.72779 -0.64543,-1.27282 0.377815,-0.58409 0.983155,0.84741 2.153745,1.21844 3.36756,1.24446 3.315975,0.052 4.61225,-2.81341 4.422345,-5.47597 -0.17803,-2.49443 -2.30166,-5.06198 -5.10055,-4.7712 -2.499165,0.28643 -3.81235,2.38442 -4.564845,4.53803 -0.249185,0.66034 -0.6422,0.83867 -0.631275,-0.14542 0.577315,-4.80456 2.36702,-7.79421 2.380035,-7.79148 z"
         id="path3484-4"
         style="fill:#008000;fill-opacity:1;display:inline"
         inkscape:connector-curvature="0" />
    </g>
    <g
       transform="translate(-0.02084178,3.3503876e-5)"
       id="g73">
      <text
         inkscape:transform-center-y="-1.8280388e-05"
         inkscape:transform-center-x="15.803627"
         transform="matrix(0,1,-1,0,0,0)"
         xml:space="preserve"
         style="font-size:24.96722221px;font-style:normal;font-variant:normal;font-weight:normal;font-stretch:normal;text-align:start;line-height:125%;letter-spacing:0px;word-spacing:0px;writing-mode:lr-tb;text-anchor:start;fill:none;stroke:#000000;stroke-width:0.66144627;stroke-opacity:1;font-family:Card Characters;-inkscape-font-specification:'Card Characters, Normal'"
         x="521.39386"
         y="-260.38971"
         id="text70860-7"
         sodipodi:linespacing="125%"><tspan
           style="stroke-width:0.66144627"
           y="-260.38971"
           x="521.39386"
           id="tspan3766"
           sodipodi:role="line">13</tspan></text>
      <text
         inkscape:transform-center-y="-1.5008926e-05"
         sodipodi:linespacing="125%"
         id="text3768"
         y="459.64999"
         x="-554.75983"
         style="font-size:24.96725082px;font-style:normal;font-variant:normal;font-weight:normal;font-stretch:normal;text-align:start;line-height:125%;letter-spacing:0px;word-spacing:0px;writing-mode:lr-tb;text-anchor:start;fill:none;stroke:#000000;stroke-width:0.66144705;stroke-opacity:1;font-family:Card Characters;-inkscape-font-specification:'Card Characters, Normal'"
         xml:space="preserve"
         transform="matrix(0,-1,1,0,0,0)"
         inkscape:transform-center-x="-15.803641"><tspan
           style="stroke-width:0.66144705"
           sodipodi:role="line"
           id="tspan3770"
           x="-554.75983"
           y="459.64999">13</tspan></text>
    </g>
  </g>
</svg>
