<?xml version="1.0" encoding="UTF-8" standalone="no"?>
<!-- Created with Inkscape (http://www.inkscape.org/) -->

<svg
   xmlns:dc="http://purl.org/dc/elements/1.1/"
   xmlns:cc="http://creativecommons.org/ns#"
   xmlns:rdf="http://www.w3.org/1999/02/22-rdf-syntax-ns#"
   xmlns:svg="http://www.w3.org/2000/svg"
   xmlns="http://www.w3.org/2000/svg"
   xmlns:xlink="http://www.w3.org/1999/xlink"
   xmlns:sodipodi="http://sodipodi.sourceforge.net/DTD/sodipodi-0.dtd"
   xmlns:inkscape="http://www.inkscape.org/namespaces/inkscape"
   width="224.25"
   height="312.78125"
   id="svg18947"
   version="1.1"
   inkscape:version="0.48.3.1 r9886"
   sodipodi:docname="42-Heart06.svg">
  <defs
     id="defs18949">
    <linearGradient
       id="linearGradient3006">
      <stop
         id="stop3008"
         offset="0"
         style="stop-color:#ffffff;stop-opacity:1;" />
      <stop
         style="stop-color:#7f7f7f;stop-opacity:1;"
         offset="0.37675071"
         id="stop3014" />
      <stop
         id="stop3016"
         offset="0.80194807"
         style="stop-color:#ffffff;stop-opacity:1;" />
      <stop
         id="stop3010"
         offset="1"
         style="stop-color:#cccccc;stop-opacity:1" />
    </linearGradient>
    <linearGradient
       id="linearGradient3804">
      <stop
         id="stop3806"
         offset="0"
         style="stop-color:#000000;stop-opacity:1;" />
      <stop
         style="stop-color:#333333;stop-opacity:1"
         offset="0.5"
         id="stop3812" />
      <stop
         id="stop3808"
         offset="1"
         style="stop-color:#000000;stop-opacity:1;" />
    </linearGradient>
    <linearGradient
       id="linearGradient3833">
      <stop
         id="stop3835"
         offset="0"
         style="stop-color:#000000;stop-opacity:1;" />
      <stop
         style="stop-color:#333333;stop-opacity:1"
         offset="0.5"
         id="stop3841" />
      <stop
         id="stop3837"
         offset="1"
         style="stop-color:#000000;stop-opacity:1" />
    </linearGradient>
    <linearGradient
       id="linearGradient3851">
      <stop
         id="stop3853"
         offset="0"
         style="stop-color:#808080;stop-opacity:1;" />
      <stop
         style="stop-color:#ffffff;stop-opacity:1;"
         offset="0.5"
         id="stop3859" />
      <stop
         id="stop3855"
         offset="1"
         style="stop-color:#808080;stop-opacity:1;" />
    </linearGradient>
    <radialGradient
       gradientUnits="userSpaceOnUse"
       gradientTransform="matrix(0.97241988,-0.00350785,0.00204639,0.40929875,4026.4071,-290.65137)"
       r="74.726646"
       fy="208.92761"
       fx="44.149761"
       cy="208.92761"
       cx="44.149761"
       id="radialGradient3939-7-7"
       xlink:href="#linearGradient3933-4-3"
       inkscape:collect="always" />
    <linearGradient
       id="linearGradient3933-4-3"
       inkscape:collect="always">
      <stop
         id="stop3935-0-7"
         offset="0"
         style="stop-color:#000000;stop-opacity:1;" />
      <stop
         id="stop3937-9-2"
         offset="1"
         style="stop-color:#000000;stop-opacity:0;" />
    </linearGradient>
    <linearGradient
       gradientTransform="translate(3914.848,-255.2825)"
       gradientUnits="userSpaceOnUse"
       y2="294.38422"
       x2="178.15625"
       y1="294.38422"
       x1="81.90625"
       id="linearGradient3012-2-7"
       xlink:href="#linearGradient3006-1-5"
       inkscape:collect="always" />
    <linearGradient
       id="linearGradient3006-1-5">
      <stop
         id="stop3008-6-4"
         offset="0"
         style="stop-color:#ffffff;stop-opacity:1;" />
      <stop
         style="stop-color:#7f7f7f;stop-opacity:1;"
         offset="0.37675071"
         id="stop3014-8-12" />
      <stop
         id="stop3016-5-0"
         offset="0.80194807"
         style="stop-color:#ffffff;stop-opacity:1;" />
      <stop
         id="stop3010-7-0"
         offset="1"
         style="stop-color:#cccccc;stop-opacity:1" />
    </linearGradient>
    <linearGradient
       gradientUnits="userSpaceOnUse"
       y2="394.69629"
       x2="156.7487"
       y1="394.69629"
       x1="65.223801"
       id="linearGradient3810-9-1"
       xlink:href="#linearGradient3804-6-4"
       inkscape:collect="always"
       gradientTransform="translate(3914.848,-376.2825)" />
    <linearGradient
       id="linearGradient3804-6-4">
      <stop
         id="stop3806-1-6"
         offset="0"
         style="stop-color:#000000;stop-opacity:1;" />
      <stop
         style="stop-color:#333333;stop-opacity:1"
         offset="0.5"
         id="stop3812-4-0" />
      <stop
         id="stop3808-2-7"
         offset="1"
         style="stop-color:#000000;stop-opacity:1;" />
    </linearGradient>
    <radialGradient
       gradientUnits="userSpaceOnUse"
       gradientTransform="matrix(0.79138519,4.4166814e-8,0,0.48100739,3940.8627,-177.7307)"
       r="43.141743"
       fy="428.49252"
       fx="114.59315"
       cy="428.49252"
       cx="114.59315"
       id="radialGradient3030-7-1"
       xlink:href="#linearGradient3024-3-7"
       inkscape:collect="always" />
    <linearGradient
       id="linearGradient3024-3-7"
       inkscape:collect="always">
      <stop
         style="stop-color:#000000;stop-opacity:1"
         offset="0"
         id="stop3028-2-7" />
      <stop
         style="stop-color:#242424;stop-opacity:1;"
         offset="1"
         id="stop3026-2-7" />
    </linearGradient>
    <linearGradient
       y2="390.78296"
       x2="183.7796"
       y1="375.92633"
       x1="145.60164"
       gradientUnits="userSpaceOnUse"
       id="linearGradient3113-4-7"
       xlink:href="#linearGradient3101-2-3"
       inkscape:collect="always"
       gradientTransform="translate(3914.848,-376.2825)" />
    <linearGradient
       id="linearGradient3101-2-3"
       inkscape:collect="always">
      <stop
         id="stop3103-4-3"
         offset="0"
         style="stop-color:#000000;stop-opacity:1;" />
      <stop
         id="stop3105-5-5"
         offset="1"
         style="stop-color:#000000;stop-opacity:0;" />
    </linearGradient>
    <linearGradient
       gradientUnits="userSpaceOnUse"
       y2="405.19611"
       x2="116.81388"
       y1="395.66125"
       x1="113.00574"
       id="linearGradient3107-7-9"
       xlink:href="#linearGradient3101-2-3"
       inkscape:collect="always"
       gradientTransform="translate(3914.848,-376.2825)" />
    <linearGradient
       y2="459.14062"
       x2="-128.625"
       y1="459.14062"
       x1="-158.78125"
       gradientTransform="matrix(0.43846429,7.9081918e-4,-6.5324466e-4,0.53080568,903.27012,-3758.3554)"
       gradientUnits="userSpaceOnUse"
       id="linearGradient3086-3-9"
       xlink:href="#linearGradient3833-1-81"
       inkscape:collect="always" />
    <linearGradient
       id="linearGradient3833-1-81">
      <stop
         id="stop3835-5-82"
         offset="0"
         style="stop-color:#000000;stop-opacity:1;" />
      <stop
         style="stop-color:#333333;stop-opacity:1"
         offset="0.5"
         id="stop3841-2-6" />
      <stop
         id="stop3837-7-6"
         offset="1"
         style="stop-color:#000000;stop-opacity:1" />
    </linearGradient>
    <linearGradient
       y2="463.51562"
       x2="-281.15625"
       y1="463.51562"
       x1="-311.3125"
       gradientTransform="matrix(0.43846429,7.9081918e-4,-6.5324466e-4,0.53080568,970.15112,-3759.4954)"
       gradientUnits="userSpaceOnUse"
       id="linearGradient3088-8-0"
       xlink:href="#linearGradient3851-5-38"
       inkscape:collect="always" />
    <linearGradient
       id="linearGradient3851-5-38">
      <stop
         id="stop3853-1-0"
         offset="0"
         style="stop-color:#808080;stop-opacity:1;" />
      <stop
         style="stop-color:#ffffff;stop-opacity:1;"
         offset="0.5"
         id="stop3859-7-1" />
      <stop
         id="stop3855-1-2"
         offset="1"
         style="stop-color:#808080;stop-opacity:1;" />
    </linearGradient>
  </defs>
  <sodipodi:namedview
     id="base"
     pagecolor="#ffffff"
     bordercolor="#666666"
     borderopacity="1.0"
     inkscape:pageopacity="0.0"
     inkscape:pageshadow="2"
     inkscape:zoom="3.1842223"
     inkscape:cx="40.796163"
     inkscape:cy="186.0892"
     inkscape:document-units="px"
     inkscape:current-layer="g10739"
     showgrid="false"
     fit-margin-top="0"
     fit-margin-left="0"
     fit-margin-right="0"
     fit-margin-bottom="0"
     inkscape:window-width="775"
     inkscape:window-height="751"
     inkscape:window-x="6"
     inkscape:window-y="31"
     inkscape:window-maximized="0"
     inkscape:snap-global="true"
     inkscape:snap-bbox="true"
     inkscape:bbox-paths="true"
     inkscape:bbox-nodes="true"
     inkscape:snap-bbox-edge-midpoints="true"
     inkscape:snap-bbox-midpoints="true"
     inkscape:snap-object-midpoints="true"
     inkscape:snap-center="true" />
  <metadata
     id="metadata18952">
    <rdf:RDF>
      <cc:Work
         rdf:about="">
        <dc:format>image/svg+xml</dc:format>
        <dc:type
           rdf:resource="http://purl.org/dc/dcmitype/StillImage" />
        <dc:title />
      </cc:Work>
    </rdf:RDF>
  </metadata>
  <g
     inkscape:label="Layer 1"
     inkscape:groupmode="layer"
     id="layer1"
     transform="translate(-247.87401,-381.68621)">
    <g
       style="display:inline"
       id="g10739"
       transform="translate(267.49804,-5201.0093)"
       inkscape:export-filename="C:\Users\MXY\Documents\SVG Deck(4-19-2011)\Finalized\Colorized - SVG_Vector_Playing_Cards_Version_1.3\COMBINED TEST.png"
       inkscape:export-xdpi="70"
       inkscape:export-ydpi="70">
      <path
         inkscape:connector-curvature="0"
         style="fill:#d40000;fill-opacity:1;display:inline"
         id="path7108"
         d="m -5.701675,5625.7825 c -0.38798,-2.6099 -0.38171,-9.3531 -0.0627,-11.3454 0.977645,-6.1071 3.35559,-8.9003 7.336565,-9.8159 3.86517,-0.8888 9.299455,0.1006 10.491895,5.2079 l -3.236175,0.06 c -1.74781,-3.4517 -6.17063,-2.529 -8.659915,-1.028 -1.98854,1.1991 -2.88667,6.1937 -2.502395,6.5011 0,0 3.759245,-2.7333 6.72201,-2.5318 6.33479,0.6478 8.94653,6.0382 8.725845,11.1329 -0.200165,6.1271 -2.180155,11.0223 -8.893045,11.3491 -6.382195,-0.2408 -9.309715,-3.6576 -9.92199,-9.5297 z m 15.74188,-1.6197 c 0.03515,-4.2516 -1.932015,-7.4318 -5.652025,-7.7829 -3.72001,-0.3511 -7.470325,3.2127 -7.21069,7.5454 0.260585,4.3479 1.97467,8.0102 6.48508,7.99 4.8507,-0.022 6.352555,-4.7276 6.377635,-7.7525 z" />
      <path
         inkscape:connector-curvature="0"
         style="fill:#d40000;fill-opacity:1;display:inline"
         id="path7161"
         d="m 190.70949,5852.39 c 0.38798,2.6099 0.38181,9.3531 0.0627,11.3454 -0.97764,6.1071 -3.35549,8.9004 -7.33646,9.8159 -3.86527,0.8889 -9.29946,-0.1006 -10.4919,-5.2079 l 3.23617,-0.06 c 1.74781,3.4517 6.17054,2.5291 8.65992,1.0281 1.98844,-1.1991 2.88657,-6.1937 2.5023,-6.5011 0,0 -3.75915,2.7333 -6.72192,2.5317 -6.33488,-0.6478 -8.94662,-6.0381 -8.72594,-11.1328 0.20017,-6.1271 2.18016,-11.0223 8.89305,-11.3491 6.38229,0.2408 9.30981,3.6576 9.92199,9.5296 z m -15.74188,1.6198 c -0.0352,4.2516 1.93202,7.4317 5.65203,7.7828 3.72001,0.3511 7.47042,-3.2127 7.21069,-7.5454 -0.26059,-4.3478 -1.97467,-8.0102 -6.48499,-7.9899 -4.85079,0.022 -6.35265,4.7276 -6.37773,7.7525 z" />
      <path
         d="m -5.3117,5648.6926 c -1.50385,-3.2986 -1.668865,-8.9352 2.822545,-9.6976 3.383995,-0.4355 4.761115,1.1383 5.034905,3.5548 0.13509,0.7058 0.533615,0.749 0.66006,-0.055 0.19418,-2.479 2.64784,-3.926 4.56608,-3.5625 5.25027,0.8981 4.943705,6.677 3.228575,10.5978 -2.594355,5.2054 -5.32057,8.4907 -7.83275,13.7292 -2.88629,-5.454 -6.181935,-9.8848 -8.479415,-14.5663 z"
         id="path8642"
         style="fill:#d40000;fill-opacity:1;display:inline"
         inkscape:connector-curvature="0" />
      <g
         transform="matrix(0.95,0,0,0.95,3.9916634,287.00155)"
         id="g10174">
        <path
           inkscape:connector-curvature="0"
           style="fill:#d40000;fill-opacity:1;display:inline"
           id="path8530"
           d="m 25.884,5611.5437 c 7.144,-0.4744 10.8684,5.6274 11.5952,10.4364 0.4334,0.7639 0.6707,0.5487 0.8369,-0.042 0.3493,-6.1741 5.8749,-11.2201 10.9926,-10.5302 8.328,0.1083 13.3895,9.3754 11.9664,17.2188 -1.7385,9.5816 -6.8997,15.3511 -10.8078,21.2931 -4.4213,6.1524 -10.3727,15.0395 -12.2901,19.3168 0,0 -6.0483,-9.2045 -13.9172,-20.0295 -5.2618,-7.2386 -9.4731,-15.0824 -9.8651,-21.8354 -0.4479,-7.7155 2.7193,-14.6318 11.4891,-15.8277 z" />
        <path
           inkscape:connector-curvature="0"
           style="fill:#d40000;fill-opacity:1;display:inline"
           id="path8532"
           d="m 136.358,5611.5437 c 7.144,-0.4744 10.8684,5.6274 11.5952,10.4364 0.4334,0.7639 0.6707,0.5487 0.8369,-0.042 0.3493,-6.1741 5.8749,-11.2201 10.9926,-10.5302 8.328,0.1083 13.3895,9.3754 11.9664,17.2188 -1.7385,9.5816 -6.8997,15.3511 -10.8078,21.2931 -4.4213,6.1524 -10.3727,15.0395 -12.2901,19.3168 0,0 -6.0483,-9.2045 -13.9172,-20.0295 -5.2618,-7.2386 -9.4731,-15.0824 -9.8651,-21.8354 -0.4479,-7.7155 2.7193,-14.6318 11.4891,-15.8277 z" />
        <path
           inkscape:connector-curvature="0"
           style="fill:#d40000;fill-opacity:1;display:inline"
           id="path8534"
           d="m 136.358,5710.2894 c 7.144,-0.4744 10.8684,5.6274 11.5952,10.4365 0.4334,0.7639 0.6707,0.5486 0.8369,-0.042 0.3493,-6.1742 5.8749,-11.2202 10.9926,-10.5302 8.328,0.1083 13.3895,9.3754 11.9664,17.2188 -1.7385,9.5815 -6.8997,15.351 -10.8078,21.2931 -4.4213,6.1523 -10.3727,15.0395 -12.2901,19.3168 0,0 -6.0483,-9.2045 -13.9172,-20.0296 -5.2618,-7.2385 -9.4731,-15.0823 -9.8651,-21.8354 -0.4479,-7.7155 2.7193,-14.6317 11.4891,-15.8276 z" />
        <path
           inkscape:connector-curvature="0"
           style="fill:#d40000;fill-opacity:1;display:inline"
           id="path8536"
           d="m 25.884,5710.2894 c 7.144,-0.4744 10.8684,5.6274 11.5952,10.4365 0.4334,0.7639 0.6707,0.5486 0.8369,-0.042 0.3493,-6.1742 5.8749,-11.2202 10.9926,-10.5302 8.328,0.1083 13.3895,9.3754 11.9664,17.2188 -1.7385,9.5815 -6.8997,15.351 -10.8078,21.2931 -4.4213,6.1523 -10.3727,15.0395 -12.2901,19.3168 0,0 -6.0483,-9.2045 -13.9172,-20.0296 -5.2618,-7.2385 -9.4731,-15.0823 -9.8651,-21.8354 -0.4479,-7.7155 2.7193,-14.6317 11.4891,-15.8276 z" />
        <path
           inkscape:connector-curvature="0"
           style="fill:#d40000;fill-opacity:1;display:inline"
           id="path8592"
           d="m 25.884,5866.5293 c 7.144,0.4744 10.8684,-5.6274 11.5952,-10.4365 0.4334,-0.7639 0.6707,-0.5486 0.8369,0.042 0.3493,6.1742 5.8749,11.2202 10.9926,10.5302 8.328,-0.1083 13.3895,-9.3754 11.9664,-17.2188 -1.7385,-9.5815 -6.8997,-15.351 -10.8078,-21.2931 -4.4213,-6.1523 -10.3727,-15.0395 -12.2901,-19.3168 0,0 -6.0483,9.2045 -13.9172,20.0296 -5.2618,7.2385 -9.4731,15.0823 -9.8651,21.8354 -0.4479,7.7155 2.7193,14.6317 11.4891,15.8276 z" />
        <path
           inkscape:connector-curvature="0"
           style="fill:#d40000;fill-opacity:1;display:inline"
           id="path8594"
           d="m 136.358,5866.5293 c 7.144,0.4744 10.8684,-5.6274 11.5952,-10.4365 0.4334,-0.7639 0.6707,-0.5486 0.8369,0.042 0.3493,6.1742 5.8749,11.2202 10.9926,10.5302 8.328,-0.1083 13.3895,-9.3754 11.9664,-17.2188 -1.7385,-9.5815 -6.8997,-15.351 -10.8078,-21.2931 -4.4213,-6.1523 -10.3727,-15.0395 -12.2901,-19.3168 0,0 -6.0483,9.2045 -13.9172,20.0296 -5.2618,7.2385 -9.4731,15.0823 -9.8651,21.8354 -0.4479,7.7155 2.7193,14.6317 11.4891,15.8276 z" />
      </g>
      <path
         d="m 174.06274,5828.6961 c -1.50385,3.2986 -1.66887,8.9351 2.82254,9.6976 3.384,0.4355 4.76112,-1.1384 5.03491,-3.5548 0.13509,-0.7059 0.53361,-0.7491 0.66006,0.055 0.19418,2.4789 2.64784,3.926 4.56608,3.5625 5.25027,-0.8981 4.9437,-6.6771 3.22857,-10.5978 -2.59435,-5.2055 -5.32057,-8.4908 -7.83275,-13.7292 -2.88629,5.4539 -6.18193,9.8848 -8.47941,14.5662 z"
         id="path8658"
         style="fill:#d40000;fill-opacity:1;display:inline"
         inkscape:connector-curvature="0" />
      <path
         inkscape:connector-curvature="0"
         style="fill:#d40000;fill-opacity:1;display:inline"
         id="path7108-36"
         d="m 172.28899,5625.7825 c -0.38798,-2.6099 -0.38171,-9.3531 -0.0627,-11.3454 0.97765,-6.1071 3.35559,-8.9003 7.33657,-9.8159 3.86517,-0.8888 9.29945,0.1006 10.49189,5.2079 l -3.23617,0.06 c -1.74781,-3.4517 -6.17063,-2.529 -8.65991,-1.028 -1.98854,1.1991 -2.88668,6.1937 -2.5024,6.5011 0,0 3.75924,-2.7333 6.72201,-2.5318 6.33479,0.6478 8.94653,6.0382 8.72584,11.1329 -0.20016,6.1271 -2.18015,11.0223 -8.89304,11.3491 -6.38219,-0.2408 -9.30971,-3.6576 -9.92199,-9.5297 z m 15.74188,-1.6197 c 0.0352,-4.2516 -1.93201,-7.4318 -5.65202,-7.7829 -3.72001,-0.3511 -7.47033,3.2127 -7.21069,7.5454 0.26058,4.3479 1.97467,8.0102 6.48508,7.99 4.8507,-0.022 6.35255,-4.7276 6.37763,-7.7525 z" />
      <path
         inkscape:connector-curvature="0"
         style="fill:#d40000;fill-opacity:1;display:inline"
         id="path7161-4"
         d="m 12.939985,5852.39 c 0.38798,2.6099 0.381805,9.3531 0.0627,11.3454 -0.977645,6.1071 -3.355495,8.9004 -7.33647,9.8159 -3.865265,0.8889 -9.299455,-0.1006 -10.491895,-5.2079 l 3.236175,-0.06 c 1.74781,3.4517 6.170535,2.5291 8.659915,1.0281 1.988445,-1.1991 2.886575,-6.1937 2.5023,-6.5011 0,0 -3.75915,2.7333 -6.721915,2.5317 -6.334885,-0.6478 -8.946625,-6.0381 -8.72594,-11.1328 0.200165,-6.1271 2.180155,-11.0223 8.893045,-11.3491 6.38229,0.2408 9.30981,3.6576 9.92199,9.5296 z m -15.74188,1.6198 c -0.03515,4.2516 1.932015,7.4317 5.652025,7.7828 3.72001,0.3511 7.47042,-3.2127 7.21069,-7.5454 -0.260585,-4.3478 -1.97467,-8.0102 -6.484985,-7.9899 -4.850795,0.022 -6.35265,4.7276 -6.37773,7.7525 z" />
      <path
         d="m 190.4301,5648.6926 c 1.50385,-3.2986 1.66886,-8.9352 -2.82255,-9.6976 -3.38399,-0.4355 -4.76111,1.1383 -5.0349,3.5548 -0.13509,0.7058 -0.53362,0.749 -0.66006,-0.055 -0.19418,-2.479 -2.64784,-3.926 -4.56608,-3.5625 -5.25027,0.8981 -4.94371,6.677 -3.22858,10.5978 2.59436,5.2054 5.32057,8.4907 7.83275,13.7292 2.88629,-5.454 6.18194,-9.8848 8.47942,-14.5663 z"
         id="path8642-9"
         style="fill:#d40000;fill-opacity:1;display:inline"
         inkscape:connector-curvature="0" />
      <path
         d="m 11.05566,5828.696 c 1.50385,3.2987 1.668865,8.9351 -2.822545,9.6976 -3.383995,0.4356 -4.761115,-1.1384 -5.034905,-3.5547 -0.13509,-0.706 -0.533615,-0.7491 -0.66006,0.055 -0.19418,2.4789 -2.64784,3.926 -4.56608,3.5624 -5.25027,-0.8981 -4.943705,-6.677 -3.228575,-10.5977 2.594355,-5.2056 5.32057,-8.4908 7.83275,-13.7293 2.88629,5.4539 6.181935,9.8848 8.479415,14.5663 z"
         id="path8658-2"
         style="fill:#d40000;fill-opacity:1;display:inline"
         inkscape:connector-curvature="0" />
    </g>
  </g>
</svg>
