<?xml version="1.0" encoding="UTF-8" standalone="no"?>
<!-- Created with Inkscape (http://www.inkscape.org/) -->

<svg
   xmlns:dc="http://purl.org/dc/elements/1.1/"
   xmlns:cc="http://creativecommons.org/ns#"
   xmlns:rdf="http://www.w3.org/1999/02/22-rdf-syntax-ns#"
   xmlns:svg="http://www.w3.org/2000/svg"
   xmlns="http://www.w3.org/2000/svg"
   xmlns:xlink="http://www.w3.org/1999/xlink"
   xmlns:sodipodi="http://sodipodi.sourceforge.net/DTD/sodipodi-0.dtd"
   xmlns:inkscape="http://www.inkscape.org/namespaces/inkscape"
   width="224.25"
   height="312.78125"
   id="svg18947"
   version="1.1"
   inkscape:version="0.48.3.1 r9886"
   sodipodi:docname="45-Heart09.svg">
  <defs
     id="defs18949">
    <linearGradient
       id="linearGradient3006">
      <stop
         id="stop3008"
         offset="0"
         style="stop-color:#ffffff;stop-opacity:1;" />
      <stop
         style="stop-color:#7f7f7f;stop-opacity:1;"
         offset="0.37675071"
         id="stop3014" />
      <stop
         id="stop3016"
         offset="0.80194807"
         style="stop-color:#ffffff;stop-opacity:1;" />
      <stop
         id="stop3010"
         offset="1"
         style="stop-color:#cccccc;stop-opacity:1" />
    </linearGradient>
    <linearGradient
       id="linearGradient3804">
      <stop
         id="stop3806"
         offset="0"
         style="stop-color:#000000;stop-opacity:1;" />
      <stop
         style="stop-color:#333333;stop-opacity:1"
         offset="0.5"
         id="stop3812" />
      <stop
         id="stop3808"
         offset="1"
         style="stop-color:#000000;stop-opacity:1;" />
    </linearGradient>
    <linearGradient
       id="linearGradient3833">
      <stop
         id="stop3835"
         offset="0"
         style="stop-color:#000000;stop-opacity:1;" />
      <stop
         style="stop-color:#333333;stop-opacity:1"
         offset="0.5"
         id="stop3841" />
      <stop
         id="stop3837"
         offset="1"
         style="stop-color:#000000;stop-opacity:1" />
    </linearGradient>
    <linearGradient
       id="linearGradient3851">
      <stop
         id="stop3853"
         offset="0"
         style="stop-color:#808080;stop-opacity:1;" />
      <stop
         style="stop-color:#ffffff;stop-opacity:1;"
         offset="0.5"
         id="stop3859" />
      <stop
         id="stop3855"
         offset="1"
         style="stop-color:#808080;stop-opacity:1;" />
    </linearGradient>
    <radialGradient
       gradientUnits="userSpaceOnUse"
       gradientTransform="matrix(0.97241988,-0.00350785,0.00204639,0.40929875,4026.4071,-290.65137)"
       r="74.726646"
       fy="208.92761"
       fx="44.149761"
       cy="208.92761"
       cx="44.149761"
       id="radialGradient3939-7-7"
       xlink:href="#linearGradient3933-4-3"
       inkscape:collect="always" />
    <linearGradient
       id="linearGradient3933-4-3"
       inkscape:collect="always">
      <stop
         id="stop3935-0-7"
         offset="0"
         style="stop-color:#000000;stop-opacity:1;" />
      <stop
         id="stop3937-9-2"
         offset="1"
         style="stop-color:#000000;stop-opacity:0;" />
    </linearGradient>
    <linearGradient
       gradientTransform="translate(3914.848,-255.2825)"
       gradientUnits="userSpaceOnUse"
       y2="294.38422"
       x2="178.15625"
       y1="294.38422"
       x1="81.90625"
       id="linearGradient3012-2-7"
       xlink:href="#linearGradient3006-1-5"
       inkscape:collect="always" />
    <linearGradient
       id="linearGradient3006-1-5">
      <stop
         id="stop3008-6-4"
         offset="0"
         style="stop-color:#ffffff;stop-opacity:1;" />
      <stop
         style="stop-color:#7f7f7f;stop-opacity:1;"
         offset="0.37675071"
         id="stop3014-8-12" />
      <stop
         id="stop3016-5-0"
         offset="0.80194807"
         style="stop-color:#ffffff;stop-opacity:1;" />
      <stop
         id="stop3010-7-0"
         offset="1"
         style="stop-color:#cccccc;stop-opacity:1" />
    </linearGradient>
    <linearGradient
       gradientUnits="userSpaceOnUse"
       y2="394.69629"
       x2="156.7487"
       y1="394.69629"
       x1="65.223801"
       id="linearGradient3810-9-1"
       xlink:href="#linearGradient3804-6-4"
       inkscape:collect="always"
       gradientTransform="translate(3914.848,-376.2825)" />
    <linearGradient
       id="linearGradient3804-6-4">
      <stop
         id="stop3806-1-6"
         offset="0"
         style="stop-color:#000000;stop-opacity:1;" />
      <stop
         style="stop-color:#333333;stop-opacity:1"
         offset="0.5"
         id="stop3812-4-0" />
      <stop
         id="stop3808-2-7"
         offset="1"
         style="stop-color:#000000;stop-opacity:1;" />
    </linearGradient>
    <radialGradient
       gradientUnits="userSpaceOnUse"
       gradientTransform="matrix(0.79138519,4.4166814e-8,0,0.48100739,3940.8627,-177.7307)"
       r="43.141743"
       fy="428.49252"
       fx="114.59315"
       cy="428.49252"
       cx="114.59315"
       id="radialGradient3030-7-1"
       xlink:href="#linearGradient3024-3-7"
       inkscape:collect="always" />
    <linearGradient
       id="linearGradient3024-3-7"
       inkscape:collect="always">
      <stop
         style="stop-color:#000000;stop-opacity:1"
         offset="0"
         id="stop3028-2-7" />
      <stop
         style="stop-color:#242424;stop-opacity:1;"
         offset="1"
         id="stop3026-2-7" />
    </linearGradient>
    <linearGradient
       y2="390.78296"
       x2="183.7796"
       y1="375.92633"
       x1="145.60164"
       gradientUnits="userSpaceOnUse"
       id="linearGradient3113-4-7"
       xlink:href="#linearGradient3101-2-3"
       inkscape:collect="always"
       gradientTransform="translate(3914.848,-376.2825)" />
    <linearGradient
       id="linearGradient3101-2-3"
       inkscape:collect="always">
      <stop
         id="stop3103-4-3"
         offset="0"
         style="stop-color:#000000;stop-opacity:1;" />
      <stop
         id="stop3105-5-5"
         offset="1"
         style="stop-color:#000000;stop-opacity:0;" />
    </linearGradient>
    <linearGradient
       gradientUnits="userSpaceOnUse"
       y2="405.19611"
       x2="116.81388"
       y1="395.66125"
       x1="113.00574"
       id="linearGradient3107-7-9"
       xlink:href="#linearGradient3101-2-3"
       inkscape:collect="always"
       gradientTransform="translate(3914.848,-376.2825)" />
    <linearGradient
       y2="459.14062"
       x2="-128.625"
       y1="459.14062"
       x1="-158.78125"
       gradientTransform="matrix(0.43846429,7.9081918e-4,-6.5324466e-4,0.53080568,903.27012,-3758.3554)"
       gradientUnits="userSpaceOnUse"
       id="linearGradient3086-3-9"
       xlink:href="#linearGradient3833-1-81"
       inkscape:collect="always" />
    <linearGradient
       id="linearGradient3833-1-81">
      <stop
         id="stop3835-5-82"
         offset="0"
         style="stop-color:#000000;stop-opacity:1;" />
      <stop
         style="stop-color:#333333;stop-opacity:1"
         offset="0.5"
         id="stop3841-2-6" />
      <stop
         id="stop3837-7-6"
         offset="1"
         style="stop-color:#000000;stop-opacity:1" />
    </linearGradient>
    <linearGradient
       y2="463.51562"
       x2="-281.15625"
       y1="463.51562"
       x1="-311.3125"
       gradientTransform="matrix(0.43846429,7.9081918e-4,-6.5324466e-4,0.53080568,970.15112,-3759.4954)"
       gradientUnits="userSpaceOnUse"
       id="linearGradient3088-8-0"
       xlink:href="#linearGradient3851-5-38"
       inkscape:collect="always" />
    <linearGradient
       id="linearGradient3851-5-38">
      <stop
         id="stop3853-1-0"
         offset="0"
         style="stop-color:#808080;stop-opacity:1;" />
      <stop
         style="stop-color:#ffffff;stop-opacity:1;"
         offset="0.5"
         id="stop3859-7-1" />
      <stop
         id="stop3855-1-2"
         offset="1"
         style="stop-color:#808080;stop-opacity:1;" />
    </linearGradient>
  </defs>
  <sodipodi:namedview
     id="base"
     pagecolor="#ffffff"
     bordercolor="#666666"
     borderopacity="1.0"
     inkscape:pageopacity="0.0"
     inkscape:pageshadow="2"
     inkscape:zoom="3.1842223"
     inkscape:cx="40.796163"
     inkscape:cy="186.0892"
     inkscape:document-units="px"
     inkscape:current-layer="g106755"
     showgrid="false"
     fit-margin-top="0"
     fit-margin-left="0"
     fit-margin-right="0"
     fit-margin-bottom="0"
     inkscape:window-width="775"
     inkscape:window-height="751"
     inkscape:window-x="6"
     inkscape:window-y="31"
     inkscape:window-maximized="0"
     inkscape:snap-global="true"
     inkscape:snap-bbox="true"
     inkscape:bbox-paths="true"
     inkscape:bbox-nodes="true"
     inkscape:snap-bbox-edge-midpoints="true"
     inkscape:snap-bbox-midpoints="true"
     inkscape:snap-object-midpoints="true"
     inkscape:snap-center="true" />
  <metadata
     id="metadata18952">
    <rdf:RDF>
      <cc:Work
         rdf:about="">
        <dc:format>image/svg+xml</dc:format>
        <dc:type
           rdf:resource="http://purl.org/dc/dcmitype/StillImage" />
        <dc:title />
      </cc:Work>
    </rdf:RDF>
  </metadata>
  <g
     inkscape:label="Layer 1"
     inkscape:groupmode="layer"
     id="layer1"
     transform="translate(-247.87401,-381.68621)">
    <g
       style="display:inline"
       id="g106775"
       transform="translate(-1609.3025,27.722617)">
      <g
         id="g106755">
        <path
           inkscape:connector-curvature="0"
           style="fill:#d40000;fill-opacity:1;display:inline"
           id="path7114"
           d="m 1871.1313,400.51169 2.8753,-0.8949 c 1.0846,2.84563 3.2774,3.68486 5.5969,3.50455 4.163,-0.32376 5.5447,-4.89117 5.857,-8.92953 -1.6221,1.68549 -4.0604,2.54192 -6.1366,2.45832 -6.6332,-0.35084 -8.3311,-5.56178 -8.3928,-11.02124 -0.1843,-4.60398 1.7552,-7.93791 5.081,-9.46523 1.7595,-0.77558 5.7898,-0.77567 7.5614,0.14117 4.068,2.10549 5.5735,5.74636 5.3003,14.43145 0,7.14761 -1.5432,15.47294 -9.3455,15.65125 -4.5103,0.61199 -7.9349,-2.83071 -8.397,-5.87584 z m 11.2929,-7.83152 c 1.3536,-0.84132 2.1175,-1.63039 2.7243,-2.81399 0.498,-0.97147 0.6665,-1.47545 0.5246,-3.48698 -0.3658,-5.18253 -3.1343,-8.12031 -7.1484,-7.53663 -2.2387,0.32547 -3.4609,1.55648 -4.1635,3.8455 -1.2974,4.22674 0.3472,9.17444 3.4281,10.31406 1.3897,0.51395 3.529,0.36537 4.6349,-0.32196 z" />
        <path
           inkscape:connector-curvature="0"
           style="fill:#d40000;fill-opacity:1;display:inline"
           id="path7130"
           d="m 2066.8654,620.19681 -2.8753,0.8949 c -1.0846,-2.84553 -3.2774,-3.68486 -5.597,-3.50445 -4.163,0.32366 -5.5447,4.89107 -5.8569,8.92943 1.6221,-1.6854 4.0604,-2.54182 6.1365,-2.45832 6.6333,0.35084 8.3311,5.56187 8.3929,11.02124 0.1842,4.60408 -1.7553,7.93791 -5.081,9.46532 -1.7595,0.77549 -5.7898,0.77568 -7.5614,-0.14126 -4.068,-2.10539 -5.5735,-5.74627 -5.3004,-14.43145 0,-7.14761 1.5433,-15.47294 9.3456,-15.65125 4.5103,-0.6119 7.9348,2.83081 8.397,5.87584 z m -11.293,7.83161 c -1.3535,0.84123 -2.1174,1.63039 -2.7242,2.8139 -0.4981,0.97157 -0.6666,1.47554 -0.5246,3.48698 0.3658,5.18253 3.1343,8.12031 7.1483,7.53673 2.2388,-0.32557 3.461,-1.55648 4.1636,-3.84551 1.2973,-4.22674 -0.3473,-9.17443 -3.4282,-10.31405 -1.3896,-0.51405 -3.5289,-0.36547 -4.6349,0.32195 z" />
        <path
           inkscape:connector-curvature="0"
           style="fill:#d40000;fill-opacity:1;display:inline"
           id="path8636"
           d="m 1871.4236,419.96056 c -1.5039,-3.29859 -1.6689,-8.93513 2.8225,-9.6976 3.384,-0.43548 4.7611,1.13839 5.0349,3.55481 0.1351,0.70585 0.5336,0.74907 0.6601,-0.0551 0.1942,-2.47893 2.6478,-3.92597 4.5661,-3.5625 5.2502,0.89813 4.9437,6.67707 3.2285,10.59782 -2.5943,5.20543 -5.3205,8.49072 -7.8327,13.72921 -2.8863,-5.45395 -6.1819,-9.88485 -8.4794,-14.56626 z" />
        <g
           id="g10231"
           transform="matrix(0.95,0,0,0.95,1881.3068,-5861.9538)">
          <path
             d="m 25.884,6580.2795 c 7.144,-0.4744 10.8684,5.6274 11.5952,10.4365 0.4334,0.7639 0.6707,0.5486 0.8369,-0.042 0.3493,-6.1742 5.8749,-11.2202 10.9926,-10.5302 8.328,0.1083 13.3895,9.3754 11.9664,17.2187 -1.7385,9.5816 -6.8997,15.3511 -10.8078,21.2932 -4.4213,6.1523 -10.3727,15.0395 -12.2901,19.3168 0,0 -6.0483,-9.2045 -13.9172,-20.0296 -5.2618,-7.2385 -9.4731,-15.0823 -9.8651,-21.8354 -0.4479,-7.7155 2.7193,-14.6317 11.4891,-15.8276 z"
             id="path8558"
             style="fill:#d40000;fill-opacity:1;display:inline"
             inkscape:connector-curvature="0" />
          <path
             d="m 135.2713,6580.2795 c 7.144,-0.4744 10.8684,5.6274 11.5952,10.4365 0.4334,0.7639 0.6707,0.5486 0.8369,-0.042 0.3493,-6.1742 5.8749,-11.2202 10.9926,-10.5302 8.328,0.1083 13.3895,9.3754 11.9664,17.2187 -1.7385,9.5816 -6.8997,15.3511 -10.8078,21.2932 -4.4213,6.1523 -10.3727,15.0395 -12.2901,19.3168 0,0 -6.0483,-9.2045 -13.9172,-20.0296 -5.2618,-7.2385 -9.4731,-15.0823 -9.8651,-21.8354 -0.4479,-7.7155 2.7193,-14.6317 11.4891,-15.8276 z"
             id="path8560"
             style="fill:#d40000;fill-opacity:1;display:inline"
             inkscape:connector-curvature="0" />
          <path
             d="m 135.2713,6646.0569 c 7.144,-0.4744 10.8684,5.6274 11.5952,10.4365 0.4334,0.7639 0.6707,0.5486 0.8369,-0.042 0.3493,-6.1742 5.8749,-11.2202 10.9926,-10.5302 8.328,0.1083 13.3895,9.3754 11.9664,17.2187 -1.7385,9.5816 -6.8997,15.3511 -10.8078,21.2932 -4.4213,6.1523 -10.3727,15.0395 -12.2901,19.3168 0,0 -6.0483,-9.2045 -13.9172,-20.0296 -5.2618,-7.2385 -9.4731,-15.0823 -9.8651,-21.8354 -0.4479,-7.7155 2.7193,-14.6317 11.4891,-15.8276 z"
             id="path8562"
             style="fill:#d40000;fill-opacity:1;display:inline"
             inkscape:connector-curvature="0" />
          <path
             d="m 80.451237,6678.7626 c 7.144,-0.4744 10.8684,5.6274 11.5952,10.4365 0.4334,0.7638 0.6707,0.5486 0.8369,-0.042 0.3493,-6.1742 5.8749,-11.2202 10.992593,-10.5302 8.328,0.1083 13.3895,9.3754 11.9664,17.2187 -1.7385,9.5816 -6.8997,15.3511 -10.8078,21.2931 -4.4213,6.1524 -10.372693,15.0395 -12.290093,19.3169 0,0 -6.0483,-9.2045 -13.9172,-20.0296 -5.2618,-7.2385 -9.4731,-15.0823 -9.8651,-21.8354 -0.4479,-7.7155 2.7193,-14.6317 11.4891,-15.8276 z"
             id="path8564"
             style="fill:#d40000;fill-opacity:1;display:inline"
             inkscape:connector-curvature="0" />
          <path
             d="m 25.884,6646.0569 c 7.144,-0.4744 10.8684,5.6274 11.5952,10.4365 0.4334,0.7639 0.6707,0.5486 0.8369,-0.042 0.3493,-6.1742 5.8749,-11.2202 10.9926,-10.5302 8.328,0.1083 13.3895,9.3754 11.9664,17.2187 -1.7385,9.5816 -6.8997,15.3511 -10.8078,21.2932 -4.4213,6.1523 -10.3727,15.0395 -12.2901,19.3168 0,0 -6.0483,-9.2045 -13.9172,-20.0296 -5.2618,-7.2385 -9.4731,-15.0823 -9.8651,-21.8354 -0.4479,-7.7155 2.7193,-14.6317 11.4891,-15.8276 z"
             id="path8566"
             style="fill:#d40000;fill-opacity:1;display:inline"
             inkscape:connector-curvature="0" />
          <path
             d="m 135.2713,6769.3284 c 7.144,0.4744 10.8684,-5.6274 11.5952,-10.4365 0.4334,-0.7639 0.6707,-0.5486 0.8369,0.042 0.3493,6.1742 5.8749,11.2202 10.9926,10.5302 8.328,-0.1083 13.3895,-9.3754 11.9664,-17.2188 -1.7385,-9.5816 -6.8997,-15.3511 -10.8078,-21.2931 -4.4213,-6.1524 -10.3727,-15.0395 -12.2901,-19.3168 0,0 -6.0483,9.2045 -13.9172,20.0296 -5.2618,7.2385 -9.4731,15.0823 -9.8651,21.8354 -0.4479,7.7154 2.7193,14.6317 11.4891,15.8276 z"
             id="path8606"
             style="fill:#d40000;fill-opacity:1;display:inline"
             inkscape:connector-curvature="0" />
          <path
             d="m 135.2713,6835.1058 c 7.144,0.4744 10.8684,-5.6274 11.5952,-10.4364 0.4334,-0.7639 0.6707,-0.5487 0.8369,0.042 0.3493,6.1741 5.8749,11.2201 10.9926,10.5301 8.328,-0.1083 13.3895,-9.3754 11.9664,-17.2187 -1.7385,-9.5816 -6.8997,-15.3511 -10.8078,-21.2931 -4.4213,-6.1524 -10.3727,-15.0395 -12.2901,-19.3169 0,0 -6.0483,9.2046 -13.9172,20.0296 -5.2618,7.2385 -9.4731,15.0824 -9.8651,21.8354 -0.4479,7.7155 2.7193,14.6318 11.4891,15.8277 z"
             id="path8608"
             style="fill:#d40000;fill-opacity:1;display:inline"
             inkscape:connector-curvature="0" />
          <path
             d="m 25.884,6835.1058 c 7.144,0.4744 10.8684,-5.6274 11.5952,-10.4364 0.4334,-0.7639 0.6707,-0.5487 0.8369,0.042 0.3493,6.1741 5.8749,11.2201 10.9926,10.5301 8.328,-0.1083 13.3895,-9.3754 11.9664,-17.2187 -1.7385,-9.5816 -6.8997,-15.3511 -10.8078,-21.2931 -4.4213,-6.1524 -10.3727,-15.0395 -12.2901,-19.3169 0,0 -6.0483,9.2046 -13.9172,20.0296 -5.2618,7.2385 -9.4731,15.0824 -9.8651,21.8354 -0.4479,7.7155 2.7193,14.6318 11.4891,15.8277 z"
             id="path8610"
             style="fill:#d40000;fill-opacity:1;display:inline"
             inkscape:connector-curvature="0" />
          <path
             d="m 25.884,6769.3284 c 7.144,0.4744 10.8684,-5.6274 11.5952,-10.4365 0.4334,-0.7639 0.6707,-0.5486 0.8369,0.042 0.3493,6.1742 5.8749,11.2202 10.9926,10.5302 8.328,-0.1083 13.3895,-9.3754 11.9664,-17.2188 -1.7385,-9.5816 -6.8997,-15.3511 -10.8078,-21.2931 -4.4213,-6.1524 -10.3727,-15.0395 -12.2901,-19.3168 0,0 -6.0483,9.2045 -13.9172,20.0296 -5.2618,7.2385 -9.4731,15.0823 -9.8651,21.8354 -0.4479,7.7154 2.7193,14.6317 11.4891,15.8276 z"
             id="path8612"
             style="fill:#d40000;fill-opacity:1;display:inline"
             inkscape:connector-curvature="0" />
        </g>
        <path
           inkscape:connector-curvature="0"
           style="fill:#d40000;fill-opacity:1;display:inline"
           id="path8662"
           d="m 2050.798,598.96754 c -1.5038,3.29869 -1.6689,8.93513 2.8226,9.6976 3.384,0.43558 4.7611,-1.13838 5.0349,-3.55471 0.135,-0.70585 0.5336,-0.74907 0.66,0.0551 0.1942,2.47893 2.6479,3.92597 4.5661,3.5625 5.2503,-0.89813 4.9437,-6.67707 3.2286,-10.59782 -2.5944,-5.20543 -5.3206,-8.49072 -7.8328,-13.72921 -2.8863,5.45395 -6.1819,9.88485 -8.4794,14.56626 z" />
        <path
           inkscape:connector-curvature="0"
           style="fill:#d40000;fill-opacity:1;display:inline"
           id="path7114-56"
           d="m 2049.9596,400.51169 2.8754,-0.8949 c 1.0846,2.84553 3.2774,3.68486 5.5969,3.50445 4.163,-0.32376 5.5447,-4.89107 5.857,-8.92943 -1.6222,1.6854 -4.0604,2.54182 -6.1367,2.45832 -6.6331,-0.35093 -8.331,-5.56187 -8.3927,-11.02124 -0.1843,-4.60408 1.7552,-7.93791 5.0809,-9.46532 1.7595,-0.77549 5.7899,-0.77568 7.5615,0.14126 4.068,2.10539 5.5734,5.74627 5.3003,14.43145 0,7.14752 -1.5433,15.47284 -9.3455,15.65125 -4.5103,0.6119 -7.9349,-2.83081 -8.3971,-5.87584 z m 11.293,-7.83161 c 1.3535,-0.84123 2.1175,-1.63039 2.7243,-2.8139 0.498,-0.97157 0.6665,-1.47554 0.5246,-3.48698 -0.3658,-5.18253 -3.1344,-8.12031 -7.1484,-7.53673 -2.2388,0.32557 -3.4609,1.55648 -4.1636,3.84551 -1.2973,4.22674 0.3473,9.17443 3.4282,10.31405 1.3897,0.51405 3.529,0.36547 4.6349,-0.32195 z" />
        <path
           inkscape:connector-curvature="0"
           style="fill:#d40000;fill-opacity:1;display:inline"
           id="path7130-48"
           d="m 1889.3484,620.19681 -2.8753,0.8949 c -1.0846,-2.84563 -3.2774,-3.68486 -5.597,-3.50455 -4.163,0.32376 -5.5447,4.89108 -5.8569,8.92953 1.6221,-1.68549 4.0604,-2.54192 6.1366,-2.45832 6.6332,0.35084 8.331,5.56178 8.3928,11.02124 0.1842,4.60398 -1.7553,7.93791 -5.081,9.46523 -1.7595,0.77558 -5.7898,0.77567 -7.5614,-0.14117 -4.068,-2.10549 -5.5734,-5.74636 -5.3004,-14.43145 0,-7.14761 1.5433,-15.47294 9.3456,-15.65125 4.5103,-0.61199 7.9348,2.83071 8.397,5.87584 z m -11.293,7.83152 c -1.3535,0.84132 -2.1174,1.63039 -2.7242,2.81399 -0.4981,0.97147 -0.6666,1.47545 -0.5246,3.48698 0.3658,5.18253 3.1343,8.12031 7.1483,7.53663 2.2388,-0.32547 3.461,-1.55638 4.1636,-3.8455 1.2973,-4.22674 -0.3473,-9.17444 -3.4282,-10.31406 -1.3896,-0.51395 -3.5289,-0.36537 -4.6349,0.32196 z" />
        <path
           inkscape:connector-curvature="0"
           style="fill:#d40000;fill-opacity:1;display:inline"
           id="path8636-2"
           d="m 2067.2288,419.96056 c 1.5039,-3.29868 1.6689,-8.93513 -2.8225,-9.6976 -3.384,-0.43557 -4.7611,1.13839 -5.0349,3.55471 -0.1351,0.70595 -0.5336,0.74908 -0.6601,-0.0551 -0.1942,-2.47893 -2.6478,-3.92597 -4.5661,-3.5624 -5.2502,0.89813 -4.9437,6.67698 -3.2285,10.59772 2.5943,5.20553 5.3205,8.49072 7.8327,13.72931 2.8863,-5.45395 6.182,-9.88485 8.4794,-14.56635 z" />
        <path
           inkscape:connector-curvature="0"
           style="fill:#d40000;fill-opacity:1;display:inline"
           id="path8662-1"
           d="m 1887.8544,598.96754 c 1.5038,3.29869 1.6689,8.93513 -2.8226,9.6976 -3.3839,0.43548 -4.7611,-1.13838 -5.0349,-3.5548 -0.135,-0.70585 -0.5336,-0.74908 -0.66,0.0551 -0.1942,2.47893 -2.6479,3.92597 -4.5661,3.5625 -5.2503,-0.89813 -4.9437,-6.67698 -3.2286,-10.59773 2.5944,-5.20552 5.3206,-8.49072 7.8328,-13.7293 2.8863,5.45395 6.1819,9.88484 8.4794,14.56625 z" />
      </g>
    </g>
  </g>
</svg>
