<?xml version="1.0" encoding="UTF-8" standalone="no"?>
<!-- Created with Inkscape (http://www.inkscape.org/) -->

<svg
   xmlns:dc="http://purl.org/dc/elements/1.1/"
   xmlns:cc="http://creativecommons.org/ns#"
   xmlns:rdf="http://www.w3.org/1999/02/22-rdf-syntax-ns#"
   xmlns:svg="http://www.w3.org/2000/svg"
   xmlns="http://www.w3.org/2000/svg"
   xmlns:sodipodi="http://sodipodi.sourceforge.net/DTD/sodipodi-0.dtd"
   xmlns:inkscape="http://www.inkscape.org/namespaces/inkscape"
   width="224.25"
   height="312.78125"
   id="svg18947"
   version="1.1"
   inkscape:version="0.91 r13725"
   sodipodi:docname="7-Club07.svg">
  <sodipodi:namedview
     id="base"
     pagecolor="#ffffff"
     bordercolor="#666666"
     borderopacity="1.0"
     inkscape:pageopacity="0.0"
     inkscape:pageshadow="2"
     inkscape:zoom="2"
     inkscape:cx="97.859229"
     inkscape:cy="156.39062"
     inkscape:document-units="px"
     inkscape:current-layer="g73"
     showgrid="false"
     fit-margin-top="0"
     fit-margin-left="0"
     fit-margin-right="0"
     fit-margin-bottom="0"
     inkscape:window-width="1138"
     inkscape:window-height="856"
     inkscape:window-x="138"
     inkscape:window-y="116"
     inkscape:window-maximized="0"
     inkscape:snap-global="true"
     inkscape:snap-bbox="true"
     inkscape:bbox-paths="true"
     inkscape:bbox-nodes="true"
     inkscape:snap-bbox-edge-midpoints="true"
     inkscape:snap-bbox-midpoints="true"
     inkscape:snap-object-midpoints="true"
     inkscape:snap-center="true">
    <sodipodi:guide
       id="guide41663"
       orientation="312.7813,0"
       position="0.0,0" />
    <sodipodi:guide
       id="guide41665"
       orientation="312.7813,0"
       position="28.0313,0" />
    <sodipodi:guide
       id="guide41667"
       orientation="312.7813,0"
       position="56.0625,0" />
    <sodipodi:guide
       id="guide41669"
       orientation="312.7813,0"
       position="84.0938,0" />
    <sodipodi:guide
       id="guide41671"
       orientation="312.7813,0"
       position="112.125,0" />
    <sodipodi:guide
       id="guide41673"
       orientation="312.7813,0"
       position="140.1563,0" />
    <sodipodi:guide
       id="guide41675"
       orientation="312.7813,0"
       position="168.1875,0" />
    <sodipodi:guide
       id="guide41677"
       orientation="312.7813,0"
       position="196.2188,0" />
    <sodipodi:guide
       id="guide41679"
       orientation="312.7813,0"
       position="224.25,0" />
    <sodipodi:guide
       id="guide41681"
       orientation="0,224.25"
       position="0,0.0" />
    <sodipodi:guide
       id="guide41683"
       orientation="0,224.25"
       position="0,156.3906" />
    <sodipodi:guide
       id="guide41685"
       orientation="0,224.25"
       position="0,312.7813" />
  </sodipodi:namedview>
  <defs
     id="defs18949" />
  <metadata
     id="metadata18952">
    <rdf:RDF>
      <cc:Work
         rdf:about="">
        <dc:format>image/svg+xml</dc:format>
        <dc:type
           rdf:resource="http://purl.org/dc/dcmitype/StillImage" />
        <dc:title />
      </cc:Work>
    </rdf:RDF>
  </metadata>
  <g
     transform="translate(-247.87401,-381.68621)"
     id="layer1"
     inkscape:groupmode="layer"
     inkscape:label="Layer 1">
    <g
       inkscape:export-ydpi="70"
       inkscape:export-xdpi="70"
       inkscape:export-filename="C:\Users\MXY\Documents\SVG Deck(4-19-2011)\Finalized\Colorized - SVG_Vector_Playing_Cards_Version_1.3\COMBINED TEST.png"
       transform="translate(266.57213,-1327.3162)"
       id="g10528"
       style="display:inline">
      <path
         inkscape:connector-curvature="0"
         style="fill:#008000;fill-opacity:1;display:inline"
         id="path7110-2"
         d="m -2.053854,1761.4678 c 2.02558997,-10.5354 4.18855,-18.4398 9.861095,-27.0254 l -11.527965,0 0,3.6956 -3.064415,0 0,-6.9642 16.866585,0 2.07898,3.2686 c -6.02433,6.4571 -11.54060003,27.3298 -10.563335,27.0254 z" />
      <path
         inkscape:connector-curvature="0"
         style="fill:#008000;fill-opacity:1;display:inline"
         id="path7126-7"
         d="m 186.56266,1969.3184 c -2.02559,10.5354 -4.18864,18.4398 -9.86119,27.0254 l 11.52797,0 0,-3.6956 3.06441,0 0,6.9643 -16.86649,0 -2.07907,-3.2687 c 6.02442,-6.4571 11.54069,-27.3298 10.56343,-27.0254 z" />
      <g
         id="g8176"
         transform="matrix(0.95,0,0,0.95,5.3837909,93.069461)">
        <path
           d="m 136.145,1794.7703 c 2.879,-5.7755 4.9759,-11.701 5.3481,-18.0373 0.3416,-2.3317 -1.0746,-2.3708 -1.2881,-0.7285 -4.0764,15.5927 -25.7627,11.3703 -25.0171,-3.2965 0.605,-11.8948 12.4195,-14.4538 18.5823,-10.5645 2.4336,1.4328 2.2961,0.5746 0.9679,-0.9118 -9.1548,-10.2114 -3.6101,-23.3617 8.7612,-23.6024 13.3796,0.7934 16.8512,14.8699 8.6442,23.1482 -1.0206,0.9946 -3.2835,4.1913 0.123,1.9563 8.2868,-5.888 19.7873,0.4428 19.5527,9.5207 -0.4327,16.7389 -20.8391,17.9873 -25.2032,4.0058 -0.4198,-1.5502 -1.6291,-2.3286 -1.295,0.3043 0.6049,4.7666 1.8565,11.9534 5.4374,18.2057 z"
           id="path3319"
           style="fill:#008000;fill-opacity:1;display:inline"
           inkscape:connector-curvature="0" />
        <path
           d="m 136.145,1894.1743 c 2.879,-5.7755 4.9759,-11.701 5.3481,-18.0373 0.3416,-2.3317 -1.0746,-2.3708 -1.2881,-0.7286 -4.0764,15.5928 -25.7627,11.3704 -25.0171,-3.2965 0.605,-11.8948 12.4195,-14.4538 18.5823,-10.5645 2.4336,1.4328 2.2961,0.5746 0.9679,-0.9118 -9.1548,-10.2114 -3.6101,-23.3617 8.7612,-23.6024 13.3796,0.7934 16.8512,14.8699 8.6442,23.1483 -1.0206,0.9946 -3.2835,4.1913 0.123,1.9563 8.2868,-5.888 19.7873,0.4428 19.5527,9.5207 -0.4327,16.7389 -20.8391,17.9873 -25.2032,4.0058 -0.4198,-1.5502 -1.6291,-2.3286 -1.295,0.3043 0.6049,4.7666 1.8565,11.9534 5.4374,18.2057 z"
           id="path3321"
           style="fill:#008000;fill-opacity:1;display:inline"
           inkscape:connector-curvature="0" />
        <path
           d="m 34.4785,1894.1743 c 2.879,-5.7755 4.9759,-11.701 5.3481,-18.0373 0.3416,-2.3317 -1.0746,-2.3708 -1.2881,-0.7286 -4.0764,15.5928 -25.7627,11.3704 -25.0171,-3.2965 0.605,-11.8948 12.4195,-14.4538 18.5823,-10.5645 2.4336,1.4328 2.2961,0.5746 0.9679,-0.9118 -9.1548,-10.2114 -3.6101,-23.3617 8.7612,-23.6024 13.3796,0.7934 16.8512,14.8699 8.6442,23.1483 -1.0206,0.9946 -3.2835,4.1913 0.123,1.9563 8.2868,-5.888 19.7873,0.4428 19.5527,9.5207 -0.4327,16.7389 -20.8391,17.9873 -25.2032,4.0058 -0.4198,-1.5502 -1.6291,-2.3286 -1.295,0.3043 0.6049,4.7666 1.8565,11.9534 5.4374,18.2057 z"
           id="path3323"
           style="fill:#008000;fill-opacity:1;display:inline"
           inkscape:connector-curvature="0" />
        <path
           d="m 85.15006,1846.7363 c 2.879,-5.7755 4.9759,-11.701 5.3481,-18.0373 0.3416,-2.3317 -1.0746,-2.3708 -1.2881,-0.7286 -4.0764,15.5928 -25.7627,11.3704 -25.0171,-3.2965 0.605,-11.8948 12.4195,-14.4538 18.5823,-10.5645 2.4336,1.4328 2.2961,0.5746 0.9679,-0.9118 -9.1548,-10.2114 -3.6101,-23.3617 8.7612,-23.6024 13.3796,0.7934 16.8512,14.8699 8.6442,23.1483 -1.0206,0.9946 -3.2835,4.1913 0.123,1.9563 8.2868,-5.888 19.7873,0.4428 19.5527,9.5207 -0.4327,16.7389 -20.8391,17.9873 -25.2032,4.0058 -0.4198,-1.5502 -1.6291,-2.3286 -1.295,0.3043 0.6049,4.7666 1.8565,11.9534 5.4374,18.2057 z"
           id="path3325"
           style="fill:#008000;fill-opacity:1;display:inline"
           inkscape:connector-curvature="0" />
        <path
           d="m 34.4785,1794.7703 c 2.879,-5.7755 4.9759,-11.701 5.3481,-18.0373 0.3416,-2.3317 -1.0746,-2.3708 -1.2881,-0.7285 -4.0764,15.5927 -25.7627,11.3703 -25.0171,-3.2965 0.605,-11.8948 12.4195,-14.4538 18.5823,-10.5645 2.4336,1.4328 2.2961,0.5746 0.9679,-0.9118 -9.1548,-10.2114 -3.6101,-23.3617 8.7612,-23.6024 13.3796,0.7934 16.8512,14.8699 8.6442,23.1482 -1.0206,0.9946 -3.2835,4.1913 0.123,1.9563 8.2868,-5.888 19.7873,0.4428 19.5527,9.5207 -0.4327,16.7389 -20.8391,17.9873 -25.2032,4.0058 -0.4198,-1.5502 -1.6291,-2.3286 -1.295,0.3043 0.6049,4.7666 1.8565,11.9534 5.4374,18.2057 z"
           id="path3327"
           style="fill:#008000;fill-opacity:1;display:inline"
           inkscape:connector-curvature="0" />
        <path
           d="m 150.84686,1936.4372 c -2.879,5.7756 -4.9759,11.701 -5.3481,18.0373 -0.3416,2.3318 1.0746,2.3709 1.2881,0.7286 4.0764,-15.5928 25.7627,-11.3703 25.0171,3.2965 -0.605,11.8948 -12.4195,14.4538 -18.5823,10.5645 -2.4336,-1.4328 -2.2961,-0.5746 -0.9679,0.9118 9.1548,10.2114 3.6101,23.3617 -8.7612,23.6024 -13.3796,-0.7934 -16.8512,-14.8699 -8.6442,-23.1483 1.0206,-0.9946 3.2835,-4.1912 -0.123,-1.9563 -8.2868,5.888 -19.7873,-0.4428 -19.5527,-9.5207 0.4327,-16.7388 20.8391,-17.9873 25.2032,-4.0058 0.4198,1.5503 1.6291,2.3286 1.295,-0.3042 -0.6049,-4.7666 -1.8565,-11.9534 -5.4374,-18.2057 z"
           id="path3381"
           style="fill:#008000;fill-opacity:1;display:inline"
           inkscape:connector-curvature="0" />
        <path
           d="m 49.1805,1936.4372 c -2.879,5.7756 -4.9759,11.701 -5.3481,18.0373 -0.3416,2.3318 1.0746,2.3709 1.2881,0.7286 4.0764,-15.5928 25.7627,-11.3703 25.0171,3.2965 -0.605,11.8948 -12.4195,14.4538 -18.5823,10.5645 -2.4336,-1.4328 -2.2961,-0.5746 -0.9679,0.9118 9.1548,10.2114 3.6101,23.3617 -8.7612,23.6024 -13.3796,-0.7934 -16.8512,-14.8699 -8.6442,-23.1483 1.0206,-0.9946 3.2835,-4.1912 -0.123,-1.9563 -8.2868,5.888 -19.7873,-0.4428 -19.5527,-9.5207 0.4327,-16.7388 20.8391,-17.9873 25.2032,-4.0058 0.4198,1.5503 1.6291,2.3286 1.295,-0.3042 -0.6049,-4.7666 -1.8565,-11.9534 -5.4374,-18.2057 z"
           id="path3383"
           style="fill:#008000;fill-opacity:1;display:inline"
           inkscape:connector-curvature="0" />
      </g>
      <path
         inkscape:connector-curvature="0"
         style="fill:#008000;fill-opacity:1;display:inline"
         id="path3470"
         d="m -0.99602903,1789.8509 c 1.132495,-2.3228 2.23459003,-4.4848 2.83508503,-7.0308 0.39824,-2.4013 -0.416385,-1.5091 -0.87894003,0.065 -0.68514,2.1825 -2.58646997,3.1766 -4.35099997,3.2004 -3.202545,0.044 -4.800065,-2.4741 -4.700505,-5.1812 -0.349695,-2.8487 2.53745,-4.8642 4.713615,-4.709 1.636185,0.1168 3.06279997,0.9995 3.92625497,1.6865 0.56648503,0.2995 1.17230003,0.4319 0.327655,-0.3406 -1.59372,-1.7412 -2.92276997,-2.816 -2.89369997,-5.4253 0.02755,-2.4497 2.12182497,-5.0047 4.89763,-4.9246 3.468925,0.1003 5.0464,2.7456 5.038135,5.2065 -0.0095,1.794 -0.90592,3.445 -2.29083,4.4676 -0.89699,0.7278 -0.64543,1.2728 0.377815,0.584 0.983155,-0.8474 2.153745,-1.2183 3.36756,-1.2444 3.315975,-0.052 4.61225,2.8135 4.422345,5.476 -0.17803,2.4944 -2.30166,5.062 -5.10055,4.7712 -2.499165,-0.2864 -3.81235,-2.3844 -4.564845,-4.538 -0.249185,-0.6604 -0.6422,-0.8387 -0.631275,0.1454 0.577315,4.8045 2.36702,7.7942 2.380035,7.7914 z" />
      <path
         inkscape:connector-curvature="0"
         style="fill:#008000;fill-opacity:1;display:inline"
         id="path3494"
         d="m 186.06325,1943.7539 c -1.1325,2.3229 -2.23459,4.4848 -2.83509,7.0309 -0.39824,2.4012 0.41639,1.5091 0.87894,-0.065 0.68514,-2.1825 2.58647,-3.1766 4.351,-3.2005 3.20255,-0.044 4.80007,2.4741 4.70051,5.1813 0.34969,2.8486 -2.53745,4.8641 -4.71362,4.7089 -1.63618,-0.1167 -3.0628,-0.9995 -3.92625,-1.6864 -0.56649,-0.2996 -1.1723,-0.4319 -0.32766,0.3405 1.59372,1.7413 2.92277,2.816 2.8937,5.4253 -0.0275,2.4498 -2.12182,5.0048 -4.89763,4.9246 -3.46892,-0.1002 -5.0464,-2.7456 -5.03813,-5.2065 0.01,-1.7939 0.90592,-3.4449 2.29083,-4.4675 0.89699,-0.7278 0.64543,-1.2728 -0.37782,-0.5841 -0.98315,0.8474 -2.15374,1.2184 -3.36756,1.2444 -3.31597,0.052 -4.61225,-2.8134 -4.42234,-5.476 0.17803,-2.4944 2.30166,-5.0619 5.10055,-4.7712 2.49916,0.2865 3.81235,2.3845 4.56484,4.5381 0.24919,0.6603 0.6422,0.8387 0.63128,-0.1454 -0.57732,-4.8046 -2.36702,-7.7942 -2.38004,-7.7915 z" />
      <path
         inkscape:connector-curvature="0"
         style="fill:#008000;fill-opacity:1;display:inline"
         id="path7110-2-0"
         d="m 177.63817,1761.4679 c 2.02559,-10.5354 4.18855,-18.4399 9.8611,-27.0255 l -11.52797,0 0,3.6957 -3.06441,0 0,-6.9643 16.86658,0 2.07898,3.2686 c -6.02433,6.4572 -11.5406,27.3299 -10.56333,27.0255 z" />
      <path
         inkscape:connector-curvature="0"
         style="fill:#008000;fill-opacity:1;display:inline"
         id="path7126-7-0"
         d="m 7.987836,1969.3185 c -2.02559,10.5353 -4.188645,18.4398 -9.86119,27.0254 l 11.527965,0 0,-3.6957 3.064415,0 0,6.9643 -16.86649,0 -2.079075,-3.2686 c 6.02442497,-6.4571 11.540695,-27.3299 10.56343,-27.0254 z" />
      <path
         inkscape:connector-curvature="0"
         style="fill:#008000;fill-opacity:1;display:inline"
         id="path3470-3"
         d="m 186.06334,1789.8509 c -1.13249,-2.3227 -2.23459,-4.4847 -2.83508,-7.0308 -0.39824,-2.4012 0.41638,-1.5091 0.87894,0.065 0.68514,2.1826 2.58647,3.1766 4.351,3.2004 3.20254,0.043 4.80006,-2.474 4.7005,-5.1812 0.3497,-2.8486 -2.53745,-4.8641 -4.71361,-4.7089 -1.63619,0.1168 -3.0628,0.9995 -3.92626,1.6864 -0.56648,0.2995 -1.1723,0.4319 -0.32765,-0.3406 1.59372,-1.7412 2.92277,-2.8159 2.8937,-5.4253 -0.0275,-2.4497 -2.12183,-5.0046 -4.89763,-4.9245 -3.46893,0.1002 -5.0464,2.7456 -5.03814,5.2065 0.01,1.7939 0.90592,3.445 2.29083,4.4676 0.89699,0.7278 0.64543,1.2728 -0.37781,0.584 -0.98316,-0.8474 -2.15375,-1.2184 -3.36756,-1.2445 -3.31598,-0.052 -4.61225,2.8135 -4.42235,5.476 0.17803,2.4944 2.30166,5.062 5.10055,4.7712 2.49917,-0.2864 3.81235,-2.3844 4.56485,-4.538 0.24918,-0.6603 0.6422,-0.8387 0.63127,0.1454 -0.57731,4.8046 -2.36702,7.7943 -2.38003,7.7915 z" />
      <path
         inkscape:connector-curvature="0"
         style="fill:#008000;fill-opacity:1;display:inline"
         id="path3494-2"
         d="m -0.99593403,1943.754 c 1.132495,2.3229 2.23459003,4.4848 2.83508503,7.0309 0.39824,2.4011 -0.416385,1.5091 -0.87894003,-0.065 -0.68514,-2.1826 -2.58646997,-3.1766 -4.35099997,-3.2005 -3.202545,-0.044 -4.800065,2.474 -4.700505,5.1812 -0.349695,2.8487 2.53745,4.8642 4.713615,4.7089 1.636185,-0.1167 3.06279997,-0.9994 3.92625497,-1.6863 0.56648503,-0.2996 1.17230003,-0.4319 0.327655,0.3405 -1.59372,1.7413 -2.92276997,2.8159 -2.89369997,5.4253 0.02755,2.4498 2.12182497,5.0047 4.89763,4.9245 3.468925,-0.1001 5.0464,-2.7456 5.038135,-5.2065 -0.0095,-1.7938 -0.90592,-3.4449 -2.29083,-4.4674 -0.89699,-0.7278 -0.64543,-1.2729 0.377815,-0.5842 0.983155,0.8474 2.153745,1.2185 3.36756,1.2445 3.315975,0.052 4.61225,-2.8134 4.422345,-5.476 -0.17803,-2.4944 -2.30166,-5.062 -5.10055,-4.7712 -2.499165,0.2865 -3.81235,2.3844 -4.564845,4.5381 -0.249185,0.6603 -0.6422,0.8387 -0.631275,-0.1454 0.577315,-4.8046 2.36702,-7.7942 2.380035,-7.7916 z" />
    </g>
    <g
       transform="translate(-0.02084198,3.3503876e-5)"
       id="g73">
      <text
         inkscape:transform-center-y="15.803638"
         inkscape:transform-center-x="1.4523785e-05"
         xml:space="preserve"
         style="font-style:normal;font-variant:normal;font-weight:normal;font-stretch:normal;font-size:24.96722221px;line-height:125%;font-family:'Card Characters';-inkscape-font-specification:'Card Characters, Normal';text-align:start;letter-spacing:0px;word-spacing:0px;writing-mode:lr-tb;text-anchor:start;fill:none;stroke:#000000;stroke-width:0.66144627;stroke-opacity:1"
         x="251.48259"
         y="547.17743"
         id="text70860-7"
         sodipodi:linespacing="125%"><tspan
           style="stroke-width:0.66144627"
           y="547.17743"
           x="251.48259"
           id="tspan3766"
           sodipodi:role="line">17</tspan></text>
      <text
         inkscape:transform-center-y="-15.803643"
         sodipodi:linespacing="125%"
         id="text3768"
         y="-528.9762"
         x="-469.18768"
         style="font-style:normal;font-variant:normal;font-weight:normal;font-stretch:normal;font-size:24.96725082px;line-height:125%;font-family:'Card Characters';-inkscape-font-specification:'Card Characters, Normal';text-align:start;letter-spacing:0px;word-spacing:0px;writing-mode:lr-tb;text-anchor:start;fill:none;stroke:#000000;stroke-width:0.66144705;stroke-opacity:1"
         xml:space="preserve"
         transform="scale(-1,-1)"
         inkscape:transform-center-x="1.007581e-05"><tspan
           style="stroke-width:0.66144705"
           sodipodi:role="line"
           id="tspan3770"
           x="-469.18768"
           y="-528.9762">17</tspan></text>
    </g>
  </g>
</svg>
