<?xml version="1.0" encoding="UTF-8" standalone="no"?>
<!-- Created with Inkscape (http://www.inkscape.org/) -->

<svg
   xmlns:dc="http://purl.org/dc/elements/1.1/"
   xmlns:cc="http://creativecommons.org/ns#"
   xmlns:rdf="http://www.w3.org/1999/02/22-rdf-syntax-ns#"
   xmlns:svg="http://www.w3.org/2000/svg"
   xmlns="http://www.w3.org/2000/svg"
   xmlns:xlink="http://www.w3.org/1999/xlink"
   xmlns:sodipodi="http://sodipodi.sourceforge.net/DTD/sodipodi-0.dtd"
   xmlns:inkscape="http://www.inkscape.org/namespaces/inkscape"
   width="224.25"
   height="312.78125"
   id="svg18947"
   version="1.1"
   inkscape:version="0.48.3.1 r9886"
   sodipodi:docname="1-Club01.svg">
  <sodipodi:namedview
     id="base"
     pagecolor="#ffffff"
     bordercolor="#666666"
     borderopacity="1.0"
     inkscape:pageopacity="0.0"
     inkscape:pageshadow="2"
     inkscape:zoom="10.945312"
     inkscape:cx="-56.75554"
     inkscape:cy="140.27032"
     inkscape:document-units="px"
     inkscape:current-layer="g10436"
     showgrid="false"
     fit-margin-top="0"
     fit-margin-left="0"
     fit-margin-right="0"
     fit-margin-bottom="0"
     inkscape:window-width="2560"
     inkscape:window-height="1606"
     inkscape:window-x="0"
     inkscape:window-y="31"
     inkscape:window-maximized="1"
     inkscape:snap-bbox="true"
     inkscape:bbox-paths="true"
     inkscape:snap-bbox-edge-midpoints="true"
     inkscape:snap-bbox-midpoints="true"
     inkscape:bbox-nodes="true"
     showguides="false"
     inkscape:guide-bbox="true"
     inkscape:snap-global="true">
    <sodipodi:guide
       id="guide5055"
       orientation="312.7813,0"
       position="0.0,0" />
    <sodipodi:guide
       id="guide5057"
       orientation="312.7813,0"
       position="28.0313,0" />
    <sodipodi:guide
       id="guide5059"
       orientation="312.7813,0"
       position="56.0625,0" />
    <sodipodi:guide
       id="guide5061"
       orientation="312.7813,0"
       position="84.0938,0" />
    <sodipodi:guide
       id="guide5063"
       orientation="312.7813,0"
       position="112.125,0" />
    <sodipodi:guide
       id="guide5065"
       orientation="312.7813,0"
       position="140.1563,0" />
    <sodipodi:guide
       id="guide5067"
       orientation="312.7813,0"
       position="168.1875,0" />
    <sodipodi:guide
       id="guide5069"
       orientation="312.7813,0"
       position="196.2188,0" />
    <sodipodi:guide
       id="guide5071"
       orientation="312.7813,0"
       position="224.25,0" />
    <sodipodi:guide
       id="guide5073"
       orientation="0,224.25"
       position="0,0.0" />
    <sodipodi:guide
       id="guide5075"
       orientation="0,224.25"
       position="0,31.2781" />
    <sodipodi:guide
       id="guide5077"
       orientation="0,224.25"
       position="0,62.5562" />
    <sodipodi:guide
       id="guide5079"
       orientation="0,224.25"
       position="0,93.8344" />
    <sodipodi:guide
       id="guide5081"
       orientation="0,224.25"
       position="0,125.1125" />
    <sodipodi:guide
       id="guide5083"
       orientation="0,224.25"
       position="0,156.3906" />
    <sodipodi:guide
       id="guide5085"
       orientation="0,224.25"
       position="0,187.6687" />
    <sodipodi:guide
       id="guide5087"
       orientation="0,224.25"
       position="0,218.9469" />
    <sodipodi:guide
       id="guide5089"
       orientation="0,224.25"
       position="0,250.225" />
    <sodipodi:guide
       id="guide5091"
       orientation="0,224.25"
       position="0,281.5031" />
    <sodipodi:guide
       id="guide5093"
       orientation="0,224.25"
       position="0,312.7813" />
    <sodipodi:guide
       orientation="0,1"
       position="17.246005,14.5428"
       id="guide3096" />
    <sodipodi:guide
       orientation="1,0"
       position="102.01009,298.23931"
       id="guide3108" />
  </sodipodi:namedview>
  <defs
     id="defs18949">
    <linearGradient
       inkscape:collect="always"
       xlink:href="#linearGradient71722"
       id="linearGradient71728"
       x1="-19.611551"
       y1="-71.453491"
       x2="204.61353"
       y2="-71.453491"
       gradientUnits="userSpaceOnUse" />
    <linearGradient
       inkscape:collect="always"
       id="linearGradient71722">
      <stop
         style="stop-color:#ffffff;stop-opacity:1;"
         offset="0"
         id="stop71724" />
      <stop
         style="stop-color:#ffffff;stop-opacity:0;"
         offset="1"
         id="stop71726" />
    </linearGradient>
  </defs>
  <metadata
     id="metadata18952">
    <rdf:RDF>
      <cc:Work
         rdf:about="">
        <dc:format>image/svg+xml</dc:format>
        <dc:type
           rdf:resource="http://purl.org/dc/dcmitype/StillImage" />
        <dc:title />
      </cc:Work>
    </rdf:RDF>
  </metadata>
  <g
     transform="translate(-247.87401,-381.68621)"
     id="layer1"
     inkscape:groupmode="layer"
     inkscape:label="Layer 1">
    <g
       inkscape:export-ydpi="70"
       inkscape:export-xdpi="70"
       inkscape:export-filename="C:\Users\MXY\Documents\SVG Deck(4-19-2011)\Finalized\Colorized - SVG_Vector_Playing_Cards_Version_1.3\COMBINED TEST.png"
       transform="translate(267.49901,609.52996)"
       id="g10436"
       style="display:inline">
      <path
         inkscape:connector-curvature="0"
         style="fill:#008000;fill-opacity:1;display:inline"
         id="path7183-7"
         d="m -6.6590334,-175.80131 0,-2.60015 2.5279975,0 5.3809995,-27.80793 3.0617265,0 5.9306889,27.80793 2.040438,0 0,2.60015 -6.9519574,0 0,-2.60015 1.8779315,0 -0.7482295,-4.26151 -7.0163105,0 -0.5416995,4.26151 1.8779315,0 0,2.60015 z m 12.5192045,-9.8952 -3.0481035,-14.88679 -2.856403,14.88679 z" />
      <path
         inkscape:connector-curvature="0"
         style="fill:#008000;fill-opacity:1;display:inline"
         id="path7186-1"
         d="m 191.66097,32.894117 0,2.600245 -2.528,0 -5.381,27.80783 -3.06173,0 -5.93068,-27.80783 -2.04045,0 0,-2.600245 6.95197,0 0,2.600245 -1.87794,0 0.74823,4.261415 7.01632,0 0.5417,-4.261415 -1.87794,0 0,-2.600245 z m -12.51921,9.895295 3.04811,14.886785 2.85641,-14.886785 z" />
      <path
         inkscape:connector-curvature="0"
         style="fill:#008000;fill-opacity:1;display:inline"
         id="path3235"
         d="m 85.517606,-44.311433 c 2.73505,-5.486725 4.727105,-11.11595 5.080695,-17.135435 0.32452,-2.215115 -1.02087,-2.25226 -1.223695,-0.69217 -3.87258,14.81316 -24.474565,10.80188 -23.766245,-3.131675 0.574751,-11.30006 11.798525,-13.73111 17.653186,-10.036275 2.311919,1.36116 2.181294,0.54587 0.919504,-0.86621 -8.697059,-9.70083 -3.429594,-22.193615 8.323141,-22.42228 12.710618,0.75373 16.008638,14.126405 8.211988,21.990885 -0.969569,0.94487 -3.119324,3.981735 0.11685,1.858485 7.87246,-5.5936 18.79794,0.420755 18.57507,9.04476 -0.41107,15.90186 -19.797149,17.08784 -23.943043,3.805415 -0.39881,-1.472595 -1.547645,-2.21217 -1.23025,0.289085 0.574655,4.52827 1.763675,11.35573 5.16553,17.295415 z" />
      <path
         inkscape:connector-curvature="0"
         style="fill:#008000;fill-opacity:1;display:inline"
         id="path3430"
         d="m -1.2687904,-148.1414 c 1.132495,-2.32284 2.23459,-4.48476 2.835085,-7.03085 0.39824,-2.40122 -0.416385,-1.50908 -0.87894,0.0646 -0.68514,2.18253 -2.58647,3.17661 -4.351,3.20045 -3.202545,0.0437 -4.800065,-2.47408 -4.700505,-5.1812 -0.349695,-2.84867 2.53745,-4.86419 4.713615,-4.70896 1.636185,0.11675 3.0628,0.99949 3.926255,1.68644 0.566485,0.29953 1.1723,0.43187 0.327655,-0.34058 -1.59372,-1.74125 -2.92277,-2.81599 -2.8937,-5.42526 0.02755,-2.44976 2.121825,-5.00479 4.89763,-4.92461 3.468925,0.10023 5.0464,2.7456 5.038135,5.20648 -0.0095,1.79398 -0.90592,3.44498 -2.29083,4.46756 -0.89699,0.7278 -0.64543,1.27281 0.377815,0.58406 0.983155,-0.8474 2.153745,-1.21837 3.36756,-1.2444 3.3159374,-0.0523 4.6122124,2.81342 4.4223074,5.47599 -0.17803,2.49441 -2.301622,5.06198 -5.1005124,4.77118 -2.499165,-0.28642 -3.81235,-2.3844 -4.564845,-4.53805 -0.249185,-0.66035 -0.6422,-0.83866 -0.631275,0.14544 0.577315,4.80453 2.36702,7.79418 2.380035,7.79143 z" />
      <path
         inkscape:connector-curvature="0"
         style="fill:#008000;fill-opacity:1;display:inline"
         id="path3478"
         d="m 185.3769,5.5997623 c -1.13249,2.322845 -2.23459,4.4847597 -2.83508,7.0308547 -0.39824,2.40122 0.41638,1.509075 0.87894,-0.0646 0.68514,-2.18253 2.58647,-3.1766097 4.351,-3.2004547 3.20254,-0.0437 4.80006,2.4740847 4.7005,5.1812047 0.3497,2.84867 -2.53745,4.86419 -4.71361,4.70896 -1.63619,-0.116755 -3.0628,-0.999495 -3.92626,-1.68644 -0.56648,-0.299535 -1.1723,-0.43187 -0.32765,0.340575 1.59372,1.741255 2.92277,2.81599 2.8937,5.42526 -0.0275,2.449765 -2.12183,5.00479 -4.89763,4.92461 -3.46893,-0.100225 -5.0464,-2.745595 -5.03814,-5.206475 0.01,-1.79398 0.90592,-3.444985 2.29083,-4.467565 0.89699,-0.727795 0.64543,-1.27281 -0.37781,-0.58406 -0.98316,0.8474 -2.15375,1.218375 -3.36756,1.244405 -3.31598,0.05225 -4.61225,-2.813425 -4.42235,-5.47599 0.17803,-2.494415 2.30166,-5.0619797 5.10055,-4.7711847 2.49917,0.286425 3.81235,2.3844047 4.56485,4.5380547 0.24918,0.660345 0.6422,0.83866 0.63127,-0.145445 -0.57731,-4.8045297 -2.36702,-7.7941797 -2.38003,-7.7914247 z" />
      <path
         inkscape:connector-curvature="0"
         style="fill:#008000;fill-opacity:1;display:inline"
         id="path7183-7-8"
         d="m 172.27223,-175.80121 0,-2.60021 2.528,0 5.381,-27.80786 3.06173,0 5.93069,27.80786 2.04043,0 0,2.60021 -6.95195,0 0,-2.60021 1.87793,0 -0.74823,-4.26146 -7.01631,0 -0.5417,4.26146 1.87793,0 0,2.60021 z m 12.51921,-9.89525 -3.04811,-14.8868 -2.8564,14.8868 z" />
      <path
         inkscape:connector-curvature="0"
         style="fill:#008000;fill-opacity:1;display:inline"
         id="path7186-1-9"
         d="m 11.835934,32.894212 0,2.600226 -2.5280067,0 -5.3809995,27.807849 -3.06172655,0 -5.93067895,-27.807849 -2.040448,0 0,-2.600226 6.95196695,0 0,2.600226 -1.87794095,0 0.7482295,4.261444 7.01632,0 0.5416995,-4.261444 -1.877941,0 0,-2.600226 z M -0.68327975,42.789469 2.3648333,57.676264 5.2212363,42.789469 z" />
      <path
         inkscape:connector-curvature="0"
         style="fill:#008000;fill-opacity:1;display:inline"
         id="path3430-0"
         d="m 185.82384,-148.14134 c -1.13249,-2.32283 -2.23459,-4.48474 -2.83508,-7.03083 -0.39824,-2.40119 0.41638,-1.5091 0.87894,0.0648 0.68514,2.18254 2.58647,3.17657 4.351,3.20043 3.20254,0.0432 4.80006,-2.47402 4.7005,-5.1812 0.3497,-2.84866 -2.53745,-4.86417 -4.71361,-4.7089 -1.63619,0.11676 -3.0628,0.99945 -3.92626,1.68636 -0.56648,0.29954 -1.1723,0.43188 -0.32765,-0.34055 1.59372,-1.74128 2.92277,-2.81594 2.8937,-5.42528 -0.0276,-2.44977 -2.12183,-5.00472 -4.89763,-4.92456 -3.46893,0.10018 -5.0464,2.74559 -5.03814,5.20649 0.01,1.79392 0.90592,3.44498 2.29083,4.46754 0.89699,0.72778 0.64543,1.27282 -0.37781,0.58409 -0.98316,-0.84741 -2.15375,-1.21845 -3.36756,-1.24447 -3.31594,-0.052 -4.61222,2.81341 -4.42231,5.47598 0.17803,2.49442 2.30162,5.06198 5.10051,4.77119 2.49917,-0.28643 3.81235,-2.38441 4.56485,-4.53803 0.24918,-0.66033 0.6422,-0.83867 0.63127,0.14542 -0.57731,4.80456 -2.36702,7.79422 -2.38003,7.79148 z" />
      <path
         inkscape:connector-curvature="0"
         style="fill:#008000;fill-opacity:1;display:inline"
         id="path3478-7"
         d="m -0.82185625,5.5998668 c 1.132495,2.322826 2.23459005,4.4847412 2.83508505,7.0308262 0.39824,2.401192 -0.416385,1.509104 -0.87894,-0.06479 -0.68514005,-2.182539 -2.58647,-3.1765622 -4.351,-3.2004262 -3.202545,-0.043225 -4.800065,2.4740182 -4.700505,5.1811952 -0.349695,2.848661 2.53745,4.864171 4.713615,4.708903 1.636185,-0.116755 3.06279995,-0.999447 3.92625495,-1.686364 0.56648505,-0.299535 1.17230005,-0.431879 0.32765505,0.340556 -1.59372005,1.741284 -2.92277,2.815943 -2.8937,5.425279 0.02755,2.449765 2.12182495,5.004724 4.89763,4.924563 3.468925,-0.100187 5.0464,-2.745595 5.038135,-5.206494 -0.0095,-1.793923 -0.90592,-3.444976 -2.29083,-4.467537 -0.89699,-0.727785 -0.64543,-1.272819 0.377815,-0.584088 0.983155,0.847409 2.153745,1.218441 3.36756,1.244462 3.3159752,0.05197 4.6122402,-2.813406 4.4223352,-5.475971 -0.17803,-2.494425 -2.30165,-5.0619802 -5.1005402,-4.7711947 -2.499165,0.286425 -3.81235,2.3844147 -4.564845,4.5380267 -0.249185,0.660335 -0.6422,0.838669 -0.631275,-0.145417 0.577315,-4.8045582 2.36702,-7.7942177 2.380035,-7.7914817 z" />
    </g>
    <g
       id="g3098"
       transform="matrix(0.95,0,0,0.95,18,26.90382)">
      <g
         id="layer1-6"
         inkscape:label="Layer 1"
         transform="translate(1.3256073e-5,-2.125534e-5)"
         style="fill:#881feb;fill-opacity:1;stroke:none">
        <text
           sodipodi:linespacing="125%"
           id="text70860"
           y="428.12344"
           x="347.73257"
           style="font-size:37.74588394px;font-style:normal;font-variant:normal;font-weight:normal;font-stretch:normal;text-align:start;line-height:125%;letter-spacing:0px;word-spacing:0px;writing-mode:lr-tb;text-anchor:start;fill:#881feb;fill-opacity:1;stroke:none;font-family:Card Characters;-inkscape-font-specification:Card Characters"
           xml:space="preserve"><tspan
             y="428.12344"
             x="347.73257"
             id="tspan70862"
             sodipodi:role="line">2</tspan></text>
      </g>
      <g
         id="layer1-6-7"
         inkscape:label="Layer 1"
         transform="matrix(0.66984408,0,0,0.66984408,20.892161,261.9454)"
         style="fill:none;stroke:#000000;stroke-opacity:1">
        <text
           sodipodi:linespacing="125%"
           id="text70860-7"
           y="-348.30997"
           x="399.96503"
           style="font-size:37.74588394px;font-style:normal;font-variant:normal;font-weight:normal;font-stretch:normal;text-align:start;line-height:125%;letter-spacing:0px;word-spacing:0px;writing-mode:lr-tb;text-anchor:start;fill:none;stroke:#000000;stroke-opacity:1;font-family:Card Characters;-inkscape-font-specification:Card Characters"
           xml:space="preserve"
           transform="matrix(0,1,-1,0,0,0)"
           inkscape:transform-center-x="16.004255"><tspan
             y="-348.30997"
             x="399.96503"
             id="tspan70862-5"
             sodipodi:role="line">2</tspan></text>
      </g>
    </g>
    <use
       x="0"
       y="0"
       xlink:href="#g3098"
       id="use3106"
       width="224.25"
       height="312.78125"
       transform="matrix(-1,0,0,-1,720,1076.1528)" />
  </g>
</svg>
