<?xml version="1.0" encoding="UTF-8" standalone="no"?>
<!-- Created with Inkscape (http://www.inkscape.org/) -->

<svg
   xmlns:dc="http://purl.org/dc/elements/1.1/"
   xmlns:cc="http://creativecommons.org/ns#"
   xmlns:rdf="http://www.w3.org/1999/02/22-rdf-syntax-ns#"
   xmlns:svg="http://www.w3.org/2000/svg"
   xmlns="http://www.w3.org/2000/svg"
   xmlns:xlink="http://www.w3.org/1999/xlink"
   xmlns:sodipodi="http://sodipodi.sourceforge.net/DTD/sodipodi-0.dtd"
   xmlns:inkscape="http://www.inkscape.org/namespaces/inkscape"
   width="224.25"
   height="312.78125"
   id="svg18947"
   version="1.1"
   inkscape:version="0.91 r13725"
   sodipodi:docname="10-Club10.svg">
  <sodipodi:namedview
     id="base"
     pagecolor="#ffffff"
     bordercolor="#666666"
     borderopacity="1.0"
     inkscape:pageopacity="0.0"
     inkscape:pageshadow="2"
     inkscape:zoom="2"
     inkscape:cx="99.193241"
     inkscape:cy="156.39062"
     inkscape:document-units="px"
     inkscape:current-layer="layer1"
     showgrid="false"
     fit-margin-top="0"
     fit-margin-left="0"
     fit-margin-right="0"
     fit-margin-bottom="0"
     inkscape:window-width="1435"
     inkscape:window-height="856"
     inkscape:window-x="138"
     inkscape:window-y="116"
     inkscape:window-maximized="0"
     inkscape:snap-global="true"
     inkscape:snap-bbox="true"
     inkscape:bbox-paths="true"
     inkscape:bbox-nodes="true"
     inkscape:snap-bbox-edge-midpoints="true"
     inkscape:snap-bbox-midpoints="true"
     inkscape:snap-object-midpoints="true"
     inkscape:snap-center="true">
    <sodipodi:guide
       id="guide12221"
       orientation="312.7813,0"
       position="0.0,0" />
    <sodipodi:guide
       id="guide12223"
       orientation="312.7813,0"
       position="28.0313,0" />
    <sodipodi:guide
       id="guide12225"
       orientation="312.7813,0"
       position="56.0625,0" />
    <sodipodi:guide
       id="guide12227"
       orientation="312.7813,0"
       position="84.0938,0" />
    <sodipodi:guide
       id="guide12229"
       orientation="312.7813,0"
       position="112.125,0" />
    <sodipodi:guide
       id="guide12231"
       orientation="312.7813,0"
       position="140.1563,0" />
    <sodipodi:guide
       id="guide12233"
       orientation="312.7813,0"
       position="168.1875,0" />
    <sodipodi:guide
       id="guide12235"
       orientation="312.7813,0"
       position="196.2188,0" />
    <sodipodi:guide
       id="guide12237"
       orientation="312.7813,0"
       position="224.25,0" />
    <sodipodi:guide
       id="guide12239"
       orientation="0,224.25"
       position="0,0.0" />
    <sodipodi:guide
       id="guide12241"
       orientation="0,224.25"
       position="0,156.3906" />
    <sodipodi:guide
       id="guide12243"
       orientation="0,224.25"
       position="0,312.7813" />
  </sodipodi:namedview>
  <defs
     id="defs18949" />
  <metadata
     id="metadata18952">
    <rdf:RDF>
      <cc:Work
         rdf:about="">
        <dc:format>image/svg+xml</dc:format>
        <dc:type
           rdf:resource="http://purl.org/dc/dcmitype/StillImage" />
        <dc:title />
      </cc:Work>
    </rdf:RDF>
  </metadata>
  <g
     transform="translate(-247.87401,-381.68621)"
     id="layer1"
     inkscape:groupmode="layer"
     inkscape:label="Layer 1">
    <g
       inkscape:export-ydpi="70"
       inkscape:export-xdpi="70"
       inkscape:export-filename="C:\Users\MXY\Documents\SVG Deck(4-19-2011)\Finalized\Colorized - SVG_Vector_Playing_Cards_Version_1.3\COMBINED TEST.png"
       transform="translate(267.498,-2295.7396)"
       id="g10588"
       style="display:inline">
      <path
         inkscape:connector-curvature="0"
         style="fill:#008000;fill-opacity:1;display:inline"
         id="path7216-8"
         d="m 191.28761,2938.8494 0,29.9314 -2.95536,0 0,-29.9314 z" />
      <path
         inkscape:connector-curvature="0"
         style="fill:#008000;fill-opacity:1;stroke:none;display:inline"
         id="rect7235-9"
         d="m 179.57449,2968.7808 c 2.84449,0 5.13123,-2.5523 5.13123,-5.7214 l 0,-18.4886 c 0,-3.169 -2.28674,-5.7214 -5.13123,-5.7214 l -1.65785,0 c -2.84439,0 -5.1357,2.5524 -5.1357,5.7214 l 0,18.4886 c 0,3.1691 2.29131,5.7214 5.1357,5.7214 l 1.65785,0 z m -0.85586,-2.8291 c -1.68017,0 -3.03192,-1.2701 -3.03192,-2.8517 l 0,-18.7364 c 0,-1.5815 1.35175,-2.8562 3.03192,-2.8562 1.68008,0 3.03183,1.2747 3.03183,2.8562 l 0,18.7364 c 0,1.5816 -1.35175,2.8517 -3.03183,2.8517 z" />
      <path
         inkscape:connector-curvature="0"
         style="fill:#008000;fill-opacity:1;display:inline"
         id="path7986-7"
         d="m -6.2856017,2728.7833 0,-29.9313 2.95526,0 0,29.9313 z" />
      <path
         inkscape:connector-curvature="0"
         style="fill:#008000;fill-opacity:1;stroke:none;display:inline"
         id="path7988-9"
         d="m 5.4274233,2698.852 c -2.84449,0 -5.13123505,2.5523 -5.13123505,5.7214 l 0,18.4885 c 0,3.1691 2.28674505,5.7214 5.13123505,5.7214 l 1.657845,0 c 2.84449,0 5.1356997,-2.5523 5.1356997,-5.7214 l 0,-18.4885 c 0,-3.1691 -2.2912097,-5.7214 -5.1356997,-5.7214 l -1.657845,0 z m 0.85595,2.8291 c 1.680075,0 3.031925,1.2701 3.031925,2.8517 l 0,18.7364 c 0,1.5815 -1.35185,2.8561 -3.031925,2.8561 -1.680075,0 -3.03183,-1.2746 -3.03183,-2.8561 l 0,-18.7364 c 0,-1.5816 1.351755,-2.8517 3.03183,-2.8517 z" />
      <g
         id="g8143"
         transform="matrix(0.95,0,0,0.95,5.3578972,141.49066)">
        <path
           d="m 136.145,2829.463 c 2.879,-5.7755 4.9759,-11.701 5.3481,-18.0373 0.3416,-2.3317 -1.0746,-2.3708 -1.2881,-0.7286 -4.0764,15.5928 -25.7627,11.3704 -25.0171,-3.2965 0.605,-11.8948 12.4195,-14.4538 18.5823,-10.5645 2.4336,1.4328 2.2961,0.5746 0.9679,-0.9118 -9.1548,-10.2114 -3.6101,-23.3617 8.7612,-23.6024 13.3796,0.7934 16.8512,14.8699 8.6442,23.1483 -1.0206,0.9946 -3.2835,4.1913 0.123,1.9563 8.2868,-5.888 19.7873,0.4428 19.5527,9.5207 -0.4327,16.7389 -20.8391,17.9873 -25.2032,4.0058 -0.4198,-1.5502 -1.6291,-2.3286 -1.295,0.3043 0.6049,4.7666 1.8565,11.9534 5.4374,18.2057 z"
           id="path3289"
           style="fill:#008000;fill-opacity:1;display:inline"
           inkscape:connector-curvature="0" />
        <path
           d="m 32.6122,2829.463 c 2.879,-5.7755 4.9759,-11.701 5.3481,-18.0373 0.3416,-2.3317 -1.0746,-2.3708 -1.2881,-0.7286 -4.0764,15.5928 -25.7627,11.3704 -25.0171,-3.2965 0.605,-11.8948 12.4195,-14.4538 18.5823,-10.5645 2.4336,1.4328 2.2961,0.5746 0.9679,-0.9118 -9.1548,-10.2114 -3.6101,-23.3617 8.7612,-23.6024 13.3796,0.7934 16.8512,14.8699 8.6442,23.1483 -1.0206,0.9946 -3.2835,4.1913 0.123,1.9563 8.2868,-5.888 19.7873,0.4428 19.5527,9.5207 -0.4327,16.7389 -20.8391,17.9873 -25.2032,4.0058 -0.4198,-1.5502 -1.6291,-2.3286 -1.295,0.3043 0.6049,4.7666 1.8565,11.9534 5.4374,18.2057 z"
           id="path3291"
           style="fill:#008000;fill-opacity:1;display:inline"
           inkscape:connector-curvature="0" />
        <path
           d="m 85.15006,2796.2164 c 2.879,-5.7755 4.9759,-11.701 5.3481,-18.0373 0.3416,-2.3317 -1.0746,-2.3708 -1.2881,-0.7286 -4.0764,15.5928 -25.7627,11.3704 -25.0171,-3.2965 0.605,-11.8948 12.4195,-14.4538 18.5823,-10.5645 2.4336,1.4328 2.2961,0.5746 0.9679,-0.9118 -9.1548,-10.2114 -3.6101,-23.3617 8.7612,-23.6024 13.3796,0.7934 16.8512,14.8699 8.6442,23.1483 -1.0206,0.9946 -3.2835,4.1913 0.123,1.9563 8.2868,-5.888 19.7873,0.4428 19.5527,9.5207 -0.4327,16.7389 -20.8391,17.9873 -25.2032,4.0058 -0.4198,-1.5502 -1.6291,-2.3286 -1.295,0.3043 0.6049,4.7666 1.8565,11.9534 5.4374,18.2057 z"
           id="path3293"
           style="fill:#008000;fill-opacity:1;display:inline"
           inkscape:connector-curvature="0" />
        <path
           d="m 136.145,2763.1936 c 2.879,-5.7755 4.9759,-11.701 5.3481,-18.0373 0.3416,-2.3317 -1.0746,-2.3708 -1.2881,-0.7285 -4.0764,15.5927 -25.7627,11.3703 -25.0171,-3.2965 0.605,-11.8948 12.4195,-14.4538 18.5823,-10.5645 2.4336,1.4328 2.2961,0.5746 0.9679,-0.9118 -9.1548,-10.2114 -3.6101,-23.3617 8.7612,-23.6024 13.3796,0.7934 16.8512,14.8699 8.6442,23.1482 -1.0206,0.9946 -3.2835,4.1913 0.123,1.9563 8.2868,-5.888 19.7873,0.4428 19.5527,9.5207 -0.4327,16.7389 -20.8391,17.9873 -25.2032,4.0058 -0.4198,-1.5502 -1.6291,-2.3286 -1.295,0.3043 0.6049,4.7666 1.8565,11.9534 5.4374,18.2057 z"
           id="path3295"
           style="fill:#008000;fill-opacity:1;display:inline"
           inkscape:connector-curvature="0" />
        <path
           d="m 32.6122,2763.1936 c 2.879,-5.7755 4.9759,-11.701 5.3481,-18.0373 0.3416,-2.3317 -1.0746,-2.3708 -1.2881,-0.7285 -4.0764,15.5927 -25.7627,11.3703 -25.0171,-3.2965 0.605,-11.8948 12.4195,-14.4538 18.5823,-10.5645 2.4336,1.4328 2.2961,0.5746 0.9679,-0.9118 -9.1548,-10.2114 -3.6101,-23.3617 8.7612,-23.6024 13.3796,0.7934 16.8512,14.8699 8.6442,23.1482 -1.0206,0.9946 -3.2835,4.1913 0.123,1.9563 8.2868,-5.888 19.7873,0.4428 19.5527,9.5207 -0.4327,16.7389 -20.8391,17.9873 -25.2032,4.0058 -0.4198,-1.5502 -1.6291,-2.3286 -1.295,0.3043 0.6049,4.7666 1.8565,11.9534 5.4374,18.2057 z"
           id="path3297"
           style="fill:#008000;fill-opacity:1;display:inline"
           inkscape:connector-curvature="0" />
        <path
           d="m 47.3142,2838.5912 c -2.879,5.7755 -4.9759,11.701 -5.3481,18.0373 -0.3416,2.3317 1.0746,2.3708 1.2881,0.7286 4.0764,-15.5928 25.7627,-11.3704 25.0171,3.2965 -0.605,11.8948 -12.4195,14.4538 -18.5823,10.5645 -2.4336,-1.4328 -2.2961,-0.5746 -0.9679,0.9118 9.1548,10.2114 3.6101,23.3617 -8.7612,23.6024 -13.3796,-0.7934 -16.8512,-14.8699 -8.6442,-23.1483 1.0206,-0.9946 3.2835,-4.1913 -0.123,-1.9563 -8.2868,5.888 -19.7873,-0.4428 -19.5527,-9.5207 0.4327,-16.7389 20.8391,-17.9873 25.2032,-4.0058 0.4198,1.5502 1.6291,2.3286 1.295,-0.3043 -0.6049,-4.7666 -1.8565,-11.9534 -5.4374,-18.2057 z"
           id="path3363"
           style="fill:#008000;fill-opacity:1;display:inline"
           inkscape:connector-curvature="0" />
        <path
           d="m 47.3142,2904.8605 c -2.879,5.7756 -4.9759,11.701 -5.3481,18.0373 -0.3416,2.3318 1.0746,2.3709 1.2881,0.7286 4.0764,-15.5928 25.7627,-11.3703 25.0171,3.2965 -0.605,11.8948 -12.4195,14.4538 -18.5823,10.5645 -2.4336,-1.4328 -2.2961,-0.5746 -0.9679,0.9118 9.1548,10.2114 3.6101,23.3617 -8.7612,23.6024 -13.3796,-0.7934 -16.8512,-14.8699 -8.6442,-23.1483 1.0206,-0.9946 3.2835,-4.1912 -0.123,-1.9563 -8.2868,5.888 -19.7873,-0.4428 -19.5527,-9.5207 0.4327,-16.7388 20.8391,-17.9873 25.2032,-4.0058 0.4198,1.5503 1.6291,2.3286 1.295,-0.3042 -0.6049,-4.7666 -1.8565,-11.9534 -5.4374,-18.2057 z"
           id="path3365"
           style="fill:#008000;fill-opacity:1;display:inline"
           inkscape:connector-curvature="0" />
        <path
           d="m 150.847,2838.5911 c -2.879,5.7755 -4.9759,11.701 -5.3481,18.0373 -0.3416,2.3317 1.0746,2.3708 1.2881,0.7286 4.0764,-15.5928 25.7627,-11.3704 25.0171,3.2965 -0.605,11.8948 -12.4195,14.4538 -18.5823,10.5645 -2.4336,-1.4328 -2.2961,-0.5746 -0.9679,0.9118 9.1548,10.2114 3.6101,23.3617 -8.7612,23.6024 -13.3796,-0.7934 -16.8512,-14.8699 -8.6442,-23.1483 1.0206,-0.9946 3.2835,-4.1913 -0.123,-1.9563 -8.2868,5.888 -19.7873,-0.4428 -19.5527,-9.5207 0.4327,-16.7389 20.8391,-17.9873 25.2032,-4.0058 0.4198,1.5502 1.6291,2.3286 1.295,-0.3043 -0.6049,-4.7666 -1.8565,-11.9534 -5.4374,-18.2057 z"
           id="path3387"
           style="fill:#008000;fill-opacity:1;display:inline"
           inkscape:connector-curvature="0" />
        <path
           d="m 150.847,2904.8605 c -2.879,5.7756 -4.9759,11.701 -5.3481,18.0373 -0.3416,2.3318 1.0746,2.3709 1.2881,0.7286 4.0764,-15.5928 25.7627,-11.3703 25.0171,3.2965 -0.605,11.8948 -12.4195,14.4538 -18.5823,10.5645 -2.4336,-1.4328 -2.2961,-0.5746 -0.9679,0.9118 9.1548,10.2114 3.6101,23.3617 -8.7612,23.6024 -13.3796,-0.7934 -16.8512,-14.8699 -8.6442,-23.1483 1.0206,-0.9946 3.2835,-4.1912 -0.123,-1.9563 -8.2868,5.888 -19.7873,-0.4428 -19.5527,-9.5207 0.4327,-16.7388 20.8391,-17.9873 25.2032,-4.0058 0.4198,1.5503 1.6291,2.3286 1.295,-0.3042 -0.6049,-4.7666 -1.8565,-11.9534 -5.4374,-18.2057 z"
           id="path3389"
           style="fill:#008000;fill-opacity:1;display:inline"
           inkscape:connector-curvature="0" />
        <path
           d="m 99.851916,2871.416 c -2.879,5.7755 -4.9759,11.701 -5.3481,18.0373 -0.3416,2.3317 1.0746,2.3708 1.2881,0.7286 4.0764,-15.5928 25.762704,-11.3704 25.017104,3.2965 -0.605,11.8948 -12.4195,14.4538 -18.5823,10.5645 -2.433604,-1.4328 -2.296104,-0.5746 -0.9679,0.9118 9.1548,10.2114 3.6101,23.3617 -8.761204,23.6024 -13.3796,-0.7934 -16.8512,-14.8699 -8.6442,-23.1483 1.0206,-0.9946 3.2835,-4.1913 -0.123,-1.9563 -8.2868,5.888 -19.7873,-0.4428 -19.5527,-9.5207 0.4327,-16.7389 20.8391,-17.9873 25.2032,-4.0058 0.4198,1.5502 1.6291,2.3286 1.295,-0.3043 -0.6049,-4.7666 -1.8565,-11.9534 -5.4374,-18.2057 z"
           id="path3391"
           style="fill:#008000;fill-opacity:1;display:inline"
           inkscape:connector-curvature="0" />
      </g>
      <path
         inkscape:connector-curvature="0"
         style="fill:#008000;fill-opacity:1;display:inline"
         id="path3464"
         d="m -1.0191817,2757.1851 c 1.13249495,-2.3228 2.23459,-4.4847 2.835085,-7.0308 0.39824,-2.4013 -0.416385,-1.5091 -0.87894005,0.065 -0.68514,2.1825 -2.58646995,3.1766 -4.35099995,3.2004 -3.202545,0.044 -4.800065,-2.4741 -4.700505,-5.1812 -0.349695,-2.8487 2.53745,-4.8642 4.713615,-4.7089 1.636185,0.1167 3.06279995,0.9995 3.92625495,1.6864 0.56648505,0.2995 1.17230005,0.4319 0.327655,-0.3406 -1.59372,-1.7412 -2.92276995,-2.816 -2.89369995,-5.4252 0.02755,-2.4498 2.12182495,-5.0048 4.89763,-4.9246 3.468925,0.1002 5.0464,2.7455 5.038135,5.2064 -0.0095,1.794 -0.90592,3.445 -2.29083,4.4676 -0.89699,0.7278 -0.64543,1.2728 0.377815,0.5841 0.983155,-0.8474 2.153745,-1.2184 3.36756,-1.2445 3.3159747,-0.052 4.6122497,2.8135 4.4223447,5.476 -0.17803,2.4945 -2.30166,5.062 -5.1005497,4.7712 -2.499165,-0.2864 -3.81235,-2.3844 -4.564845,-4.538 -0.249185,-0.6604 -0.6422,-0.8387 -0.631275,0.1454 0.577315,4.8045 2.36702,7.7942 2.380035,7.7914 z" />
      <path
         inkscape:connector-curvature="0"
         style="fill:#008000;fill-opacity:1;display:inline"
         id="path3486"
         d="m 186.04009,2911.0883 c -1.13249,2.3228 -2.23459,4.4847 -2.83508,7.0308 -0.39824,2.4012 0.41638,1.5091 0.87894,-0.065 0.68514,-2.1825 2.58647,-3.1766 4.351,-3.2004 3.20254,-0.044 4.80006,2.474 4.7005,5.1812 0.3497,2.8486 -2.53745,4.8642 -4.71361,4.7089 -1.63619,-0.1167 -3.0628,-0.9995 -3.92626,-1.6864 -0.56648,-0.2996 -1.1723,-0.4319 -0.32765,0.3406 1.59372,1.7412 2.92277,2.8159 2.8937,5.4252 -0.0276,2.4498 -2.12183,5.0048 -4.89763,4.9246 -3.46893,-0.1002 -5.0464,-2.7456 -5.03814,-5.2064 0.01,-1.794 0.90592,-3.445 2.29083,-4.4676 0.89699,-0.7278 0.64543,-1.2728 -0.37781,-0.5841 -0.98316,0.8474 -2.15375,1.2184 -3.36756,1.2444 -3.31598,0.052 -4.61225,-2.8134 -4.42235,-5.476 0.17803,-2.4944 2.30166,-5.0619 5.10055,-4.7711 2.49917,0.2864 3.81235,2.3844 4.56485,4.538 0.24918,0.6604 0.6422,0.8387 0.63127,-0.1454 -0.57731,-4.8046 -2.36702,-7.7942 -2.38003,-7.7915 z" />
      <path
         inkscape:connector-curvature="0"
         style="fill:#008000;fill-opacity:1;display:inline"
         id="path7216-8-2"
         d="m 12.230658,2938.8494 0,29.9314 -2.9553547,0 0,-29.9314 z" />
      <path
         inkscape:connector-curvature="0"
         style="fill:#008000;fill-opacity:1;stroke:none;display:inline"
         id="rect7235-9-5"
         d="m 0.51753825,2968.7808 c 2.84449005,0 5.13123505,-2.5523 5.13123505,-5.7214 l 0,-18.4886 c 0,-3.1691 -2.286745,-5.7214 -5.13123505,-5.7214 l -1.65784495,0 c -2.844395,0 -5.1357,2.5523 -5.1357,5.7214 l 0,18.4886 c 0,3.1691 2.291305,5.7214 5.1357,5.7214 l 1.65784495,0 z m -0.855855,-2.8292 c -1.68016995,0 -3.03192495,-1.27 -3.03192495,-2.8516 l 0,-18.7364 c 0,-1.5815 1.351755,-2.8562 3.03192495,-2.8562 1.68007505,0 3.03183005,1.2747 3.03183005,2.8562 l 0,18.7364 c 0,1.5816 -1.351755,2.8516 -3.03183005,2.8516 z" />
      <path
         inkscape:connector-curvature="0"
         style="fill:#008000;fill-opacity:1;display:inline"
         id="path7986-7-5"
         d="m 172.79063,2728.7833 0,-29.9314 2.95526,0 0,29.9314 z" />
      <path
         inkscape:connector-curvature="0"
         style="fill:#008000;fill-opacity:1;stroke:none;display:inline"
         id="path7988-9-4"
         d="m 184.50366,2698.8519 c -2.84449,0 -5.13124,2.5523 -5.13124,5.7214 l 0,18.4886 c 0,3.1691 2.28675,5.7214 5.13124,5.7214 l 1.65784,0 c 2.84449,0 5.1357,-2.5523 5.1357,-5.7214 l 0,-18.4886 c 0,-3.1691 -2.29121,-5.7214 -5.1357,-5.7214 l -1.65784,0 z m 0.85595,2.8292 c 1.68007,0 3.03192,1.27 3.03192,2.8516 l 0,18.7364 c 0,1.5815 -1.35185,2.8562 -3.03192,2.8562 -1.68008,0 -3.03183,-1.2747 -3.03183,-2.8562 l 0,-18.7364 c 0,-1.5816 1.35175,-2.8516 3.03183,-2.8516 z" />
      <path
         inkscape:connector-curvature="0"
         style="fill:#008000;fill-opacity:1;display:inline"
         id="path3464-9"
         d="m 186.03078,2757.185 c -1.13249,-2.3227 -2.23459,-4.4846 -2.83508,-7.0307 -0.39824,-2.4013 0.41638,-1.5092 0.87894,0.065 0.68514,2.1825 2.58647,3.1765 4.351,3.2003 3.20254,0.043 4.80006,-2.474 4.7005,-5.1811 0.3497,-2.8487 -2.53745,-4.8642 -4.71361,-4.7089 -1.63619,0.1167 -3.0628,0.9995 -3.92626,1.6863 -0.56648,0.2995 -1.1723,0.4319 -0.32765,-0.3405 1.59372,-1.7413 2.92277,-2.816 2.8937,-5.4253 -0.0276,-2.4498 -2.12183,-5.0047 -4.89763,-4.9245 -3.46893,0.1001 -5.0464,2.7455 -5.03814,5.2064 0.01,1.7939 0.90592,3.445 2.29083,4.4676 0.89699,0.7278 0.64543,1.2728 -0.37781,0.5841 -0.98316,-0.8474 -2.15375,-1.2185 -3.36756,-1.2445 -3.31598,-0.052 -4.61225,2.8134 -4.42235,5.4759 0.17803,2.4945 2.30166,5.062 5.10055,4.7712 2.49917,-0.2864 3.81235,-2.3844 4.56485,-4.5379 0.24918,-0.6604 0.6422,-0.8387 0.63127,0.1453 -0.57731,4.8046 -2.36702,7.7943 -2.38003,7.7915 z" />
      <path
         inkscape:connector-curvature="0"
         style="fill:#008000;fill-opacity:1;display:inline"
         id="path3486-1"
         d="m -1.0284917,2911.0883 c 1.13249495,2.3228 2.23459,4.4847 2.835085,7.0308 0.39824,2.4011 -0.416385,1.5091 -0.87894005,-0.065 -0.68514,-2.1825 -2.58646995,-3.1766 -4.35099995,-3.2004 -3.202545,-0.044 -4.800065,2.4739 -4.700505,5.1812 -0.349695,2.8486 2.53745,4.8642 4.713615,4.7088 1.636185,-0.1167 3.06279995,-0.9994 3.92625495,-1.6863 0.56648505,-0.2996 1.17230005,-0.4319 0.327655,0.3406 -1.59372,1.7412 -2.92276995,2.8159 -2.89369995,5.4252 0.02755,2.4498 2.12182495,5.0047 4.89763,4.9246 3.468925,-0.1002 5.0464,-2.7456 5.038135,-5.2065 -0.0095,-1.7939 -0.90592,-3.445 -2.29083,-4.4675 -0.89699,-0.7278 -0.64543,-1.2728 0.377815,-0.5842 0.983155,0.8474 2.153745,1.2185 3.36756,1.2445 3.3159747,0.052 4.6122497,-2.8134 4.4223447,-5.476 -0.17803,-2.4944 -2.30166,-5.0619 -5.1005497,-4.7711 -2.499165,0.2864 -3.81235,2.3844 -4.564845,4.538 -0.249185,0.6604 -0.6422,0.8387 -0.631275,-0.1454 0.577315,-4.8046 2.36702,-7.7942 2.380035,-7.7916 z" />
    </g>
    <text
       sodipodi:linespacing="125%"
       id="text70860-7"
       y="546.82037"
       x="254.53531"
       style="font-style:normal;font-variant:normal;font-weight:normal;font-stretch:normal;font-size:24.01966476px;line-height:125%;font-family:'Card Characters';-inkscape-font-specification:'Card Characters';text-align:start;letter-spacing:0px;word-spacing:0px;writing-mode:lr-tb;text-anchor:start;fill:none;stroke:#000000;stroke-width:0.63635188;stroke-opacity:1"
       xml:space="preserve"
       inkscape:transform-center-x="1.2574922e-05"
       inkscape:transform-center-y="15.204061"><tspan
         sodipodi:role="line"
         id="tspan12321"
         x="254.53531"
         y="546.82037"
         style="stroke-width:0.63635188">20</tspan></text>
    <use
       x="0"
       y="0"
       xlink:href="#text70860-7"
       inkscape:transform-center-x="-19.735628"
       id="use3818"
       transform="matrix(-1,0,0,-1,719.99812,1076.1537)"
       width="224.25"
       height="312.78125"
       inkscape:transform-center-y="-0.00060556744" />
  </g>
</svg>
