<?xml version="1.0" encoding="UTF-8" standalone="no"?>
<!-- Created with Inkscape (http://www.inkscape.org/) -->

<svg
   xmlns:dc="http://purl.org/dc/elements/1.1/"
   xmlns:cc="http://creativecommons.org/ns#"
   xmlns:rdf="http://www.w3.org/1999/02/22-rdf-syntax-ns#"
   xmlns:svg="http://www.w3.org/2000/svg"
   xmlns="http://www.w3.org/2000/svg"
   xmlns:sodipodi="http://sodipodi.sourceforge.net/DTD/sodipodi-0.dtd"
   xmlns:inkscape="http://www.inkscape.org/namespaces/inkscape"
   width="224.25"
   height="312.78125"
   id="svg18947"
   version="1.1"
   inkscape:version="0.48+devel r"
   sodipodi:docname="2-Club02.svg">
  <sodipodi:namedview
     id="base"
     pagecolor="#ffffff"
     bordercolor="#666666"
     borderopacity="1.0"
     inkscape:pageopacity="0.0"
     inkscape:pageshadow="2"
     inkscape:zoom="2.7363281"
     inkscape:cx="175.61199"
     inkscape:cy="155.88948"
     inkscape:document-units="px"
     inkscape:current-layer="layer1"
     showgrid="false"
     fit-margin-top="0"
     fit-margin-left="0"
     fit-margin-right="0"
     fit-margin-bottom="0"
     inkscape:window-width="2560"
     inkscape:window-height="1606"
     inkscape:window-x="0"
     inkscape:window-y="31"
     inkscape:window-maximized="1"
     inkscape:snap-global="true"
     inkscape:snap-bbox="true"
     inkscape:bbox-paths="true"
     inkscape:bbox-nodes="true"
     inkscape:snap-bbox-edge-midpoints="true"
     inkscape:snap-bbox-midpoints="true"
     inkscape:snap-object-midpoints="true"
     inkscape:snap-center="true">
    <sodipodi:guide
       id="guide9364"
       orientation="312.7813,0"
       position="0.0,0" />
    <sodipodi:guide
       id="guide9366"
       orientation="312.7813,0"
       position="12.010205,240.41631" />
    <sodipodi:guide
       id="guide9368"
       orientation="312.7813,0"
       position="33.943738,256.22369" />
    <sodipodi:guide
       id="guide9370"
       orientation="312.7813,0"
       position="84.0938,0" />
    <sodipodi:guide
       id="guide9372"
       orientation="312.7813,0"
       position="112.125,0" />
    <sodipodi:guide
       id="guide9374"
       orientation="312.7813,0"
       position="140.1563,0" />
    <sodipodi:guide
       id="guide9376"
       orientation="312.7813,0"
       position="190.34792,244.89264" />
    <sodipodi:guide
       id="guide9378"
       orientation="312.7813,0"
       position="212.28146,239.375" />
    <sodipodi:guide
       id="guide9380"
       orientation="312.7813,0"
       position="224.25,0" />
    <sodipodi:guide
       id="guide9382"
       orientation="0,224.25"
       position="0,0.0" />
    <sodipodi:guide
       id="guide9384"
       orientation="0,224.25"
       position="22.560914,156.39061" />
    <sodipodi:guide
       id="guide9386"
       orientation="0,224.25"
       position="0,312.7813" />
  </sodipodi:namedview>
  <defs
     id="defs18949" />
  <metadata
     id="metadata18952">
    <rdf:RDF>
      <cc:Work
         rdf:about="">
        <dc:format>image/svg+xml</dc:format>
        <dc:type
           rdf:resource="http://purl.org/dc/dcmitype/StillImage" />
        <dc:title />
      </cc:Work>
    </rdf:RDF>
  </metadata>
  <g
     transform="translate(-247.87401,-381.68621)"
     id="layer1"
     inkscape:groupmode="layer"
     inkscape:label="Layer 1">
    <g
       inkscape:export-ydpi="70"
       inkscape:export-xdpi="70"
       inkscape:export-filename="C:\Users\MXY\Documents\SVG Deck(4-19-2011)\Finalized\Colorized - SVG_Vector_Playing_Cards_Version_1.3\COMBINED TEST.png"
       transform="translate(267.51048,286.73584)"
       id="g10448"
       style="display:inline">
      <path
         d="m -5.7590057,147.54893 0.1565885,-1.91776 c 0.483949,-5.92705 1.780661,-7.92908 9.140786,-14.11254 3.5717055,-3.00067 4.744319,-4.48153 4.909429,-6.19989 0.466336,-4.0469 -3.1835925,-5.31126 -5.5621835,-5.3332 -3.08000452,-0.0285 -6.5641675,1.81602 -4.903026,6.0933 l -3.4547035,1.01441 c -0.697604,-3.9901 0.016055,-7.73481 3.254092,-9.39778 4.318966,-2.16572 9.8610475,-1.31594 12.6572772,2.09646 1.879271,2.29339 2.306486,5.45879 1.299391,7.93791 -2.9456077,6.33793 -12.9400447,9.12608 -13.7661837,16.45343 l 11.049583,0 0,-4.08034 3.2544437,0 0,7.51174 z"
         id="path7100-2"
         style="fill:#008000;fill-opacity:1;display:inline"
         inkscape:connector-curvature="0" />
      <path
         d="m 190.51891,355.15937 -0.15659,1.91776 c -0.48396,5.92696 -1.78067,7.92899 -9.1408,14.11244 -3.5717,3.00067 -4.74432,4.48153 -4.90943,6.19989 -0.46633,4.04691 3.1836,5.31126 5.5622,5.33321 3.07999,0.0285 6.56416,-1.81602 4.90301,-6.09321 l 3.45471,-1.0145 c 0.6976,3.99019 -0.0161,7.7349 -3.25409,9.39778 -4.31897,2.16571 -9.86105,1.31594 -12.65727,-2.09646 -1.87928,-2.2934 -2.3065,-5.4588 -1.2994,-7.93792 2.94561,-6.33792 12.94004,-9.12598 13.76618,-16.45343 l -11.04958,0 0,4.08035 -3.25445,0 0,-7.51165 z"
         id="path7116-4"
         style="fill:#008000;fill-opacity:1;display:inline"
         inkscape:connector-curvature="0" />
      <g
         id="g10154"
         transform="matrix(0.95,0,0,0.95,4.6334338,12.567707)">
        <path
           inkscape:connector-curvature="0"
           style="fill:#008000;fill-opacity:1;display:inline"
           id="path3259"
           d="m 85.15006,180.7315 c 2.879,-5.7756 4.9759,-11.701 5.3481,-18.0373 0.3416,-2.3317 -1.0746,-2.3708 -1.2881,-0.7286 -4.0764,15.5927 -25.7627,11.3704 -25.0171,-3.2966 0.605,-11.8947 12.4195,-14.4537 18.5823,-10.5645 2.4336,1.4328 2.2961,0.5746 0.9679,-0.9117 -9.1548,-10.2115 -3.6101,-23.3618 8.7612,-23.6025 13.3796,0.7935 16.8512,14.8699 8.6442,23.1484 -1.0206,0.9946 -3.2835,4.1913 0.123,1.9563 8.2868,-5.888 19.7873,0.4428 19.5527,9.5207 -0.4327,16.7389 -20.8391,17.9873 -25.2032,4.0058 -0.4198,-1.5502 -1.6291,-2.3287 -1.295,0.3042 0.6049,4.7667 1.8565,11.9535 5.4374,18.2058 z" />
        <path
           inkscape:connector-curvature="0"
           style="fill:#008000;fill-opacity:1;display:inline"
           id="path3407"
           d="m 99.851918,322.3983 c -2.879,5.7755 -4.9759,11.701 -5.3481,18.0373 -0.3416,2.3317 1.0746,2.3708 1.2881,0.7286 4.0764,-15.5928 25.762702,-11.3704 25.017102,3.2965 -0.605,11.8948 -12.4195,14.4538 -18.5823,10.5645 -2.433602,-1.4328 -2.296102,-0.5746 -0.9679,0.9118 9.1548,10.2114 3.6101,23.3618 -8.761202,23.6025 -13.3796,-0.7935 -16.8512,-14.87 -8.6442,-23.1484 1.0206,-0.9946 3.2835,-4.1913 -0.123,-1.9563 -8.2868,5.888 -19.7873,-0.4428 -19.5527,-9.5207 0.4327,-16.7389 20.8391,-17.9873 25.2032,-4.0058 0.4198,1.5502 1.6291,2.3286 1.295,-0.3043 -0.6049,-4.7666 -1.8565,-11.9534 -5.4374,-18.2057 z" />
      </g>
      <path
         d="m -0.50191472,174.16974 c 1.132495,-2.32285 2.23459002,-4.48476 2.83508502,-7.03086 0.39824,-2.40122 -0.416385,-1.50907 -0.87894,0.0646 -0.68514002,2.18253 -2.58647,3.17652 -4.351,3.20046 -3.202545,0.0437 -4.800065,-2.47409 -4.700505,-5.18121 -0.349695,-2.84867 2.53745,-4.86419 4.713615,-4.70896 1.636185,0.11676 3.06279998,0.9995 3.926255,1.68635 0.566485,0.29953 1.1723,0.43196 0.327655,-0.34048 -1.59372002,-1.74135 -2.92277,-2.81599 -2.8937,-5.42536 0.02755,-2.44976 2.12182498,-5.00469 4.89763,-4.92451 3.468925,0.10022 5.0464,2.74559 5.038135,5.20647 -0.0095,1.79398 -0.90592,3.44499 -2.29083,4.46757 -0.89699,0.72779 -0.64543,1.27281 0.377815,0.58406 0.983155,-0.8474 2.153745,-1.21847 3.36756,-1.24441 3.3159747,-0.0522 4.6122497,2.81333 4.4223447,5.4759 -0.17803,2.49441 -2.30166,5.06198 -5.1005497,4.77118 -2.499165,-0.28642 -3.81235,-2.3844 -4.564845,-4.53796 -0.249185,-0.66034 -0.6422,-0.83866 -0.631275,0.14535 0.577315,4.80463 2.36702,7.79428 2.380035,7.79152 z"
         id="path3454"
         style="fill:#008000;fill-opacity:1;display:inline"
         inkscape:connector-curvature="0" />
      <path
         d="m 185.52063,328.46608 c -1.1325,2.32284 -2.23459,4.48476 -2.83509,7.03085 -0.39824,2.40113 0.41639,1.50908 0.87894,-0.0646 0.68514,-2.18253 2.58647,-3.17661 4.351,-3.20045 3.20255,-0.0437 4.80007,2.47399 4.70051,5.1812 0.34969,2.84867 -2.53745,4.86419 -4.71362,4.70887 -1.63618,-0.11676 -3.0628,-0.9994 -3.92625,-1.68635 -0.56649,-0.29953 -1.1723,-0.43187 -0.32766,0.34058 1.59372,1.74125 2.92277,2.81589 2.8937,5.42526 -0.0275,2.44976 -2.12182,5.00469 -4.89763,4.92461 -3.46892,-0.10023 -5.0464,-2.7456 -5.03813,-5.20657 0.01,-1.79389 0.90592,-3.44489 2.29083,-4.46747 0.89699,-0.7278 0.64543,-1.27281 -0.37782,-0.58416 -0.98315,0.8475 -2.15374,1.21847 -3.36756,1.2445 -3.31597,0.0523 -4.61225,-2.81342 -4.42234,-5.47599 0.17803,-2.49441 2.30166,-5.06198 5.10055,-4.77118 2.49916,0.28642 3.81235,2.3844 4.56484,4.53805 0.24919,0.66035 0.6422,0.83866 0.63128,-0.14544 -0.57732,-4.80453 -2.36702,-7.79418 -2.38004,-7.79143 z"
         id="path3476"
         style="fill:#008000;fill-opacity:1;display:inline"
         inkscape:connector-curvature="0" />
      <path
         d="m 172.74223,147.54898 0.15659,-1.91778 c 0.48395,-5.92703 1.78066,-7.929 9.14079,-14.11245 3.57171,-3.00072 4.74433,-4.48156 4.90944,-6.19993 0.46633,-4.04692 -3.1836,-5.31125 -5.5622,-5.33319 -3.08,-0.0283 -6.56417,1.81598 -4.90302,6.09325 l -3.45471,1.01448 c -0.6976,-3.99017 0.0161,-7.73489 3.25409,-9.3978 4.31897,-2.16572 9.86106,-1.31599 12.65729,2.09644 1.87927,2.2934 2.30649,5.45883 1.29939,7.9379 -2.94561,6.33795 -12.94005,9.12606 -13.76619,16.45344 l 11.04959,0 0,-4.08035 3.25445,0 0,7.51171 z"
         id="path7100-2-8"
         style="fill:#008000;fill-opacity:1;display:inline"
         inkscape:connector-curvature="0" />
      <path
         d="m 12.535315,355.1594 -0.156588,1.91777 c -0.483959,5.92702 -1.780671,7.92899 -9.1407957,14.11246 -3.57170552,3.00072 -4.744319,4.48156 -4.909429,6.19993 -0.466336,4.04691 3.1835925,5.31124 5.562193,5.33317 3.079995,0.0283 6.5641577,-1.81598 4.9030165,-6.09324 l 3.4547032,-1.01448 c 0.697604,3.99018 -0.01605,7.73489 -3.2540917,9.3978 -4.318966,2.16572 -9.86104752,1.31598 -12.657268,-2.09645 -1.8792805,-2.29338 -2.3064955,-5.45882 -1.2994005,-7.93788 2.945608,-6.33797 12.940045,-9.12606 13.766184,-16.45344 l -11.049583,0 0,4.08034 -3.2544435,0 0,-7.51171 z"
         id="path7116-4-1"
         style="fill:#008000;fill-opacity:1;display:inline"
         inkscape:connector-curvature="0" />
      <path
         d="m 185.52064,174.16977 c -1.13249,-2.32283 -2.23459,-4.48475 -2.83508,-7.03083 -0.39824,-2.40119 0.41638,-1.5091 0.87894,0.0648 0.68514,2.18254 2.58647,3.17656 4.351,3.20043 3.20254,0.0432 4.80006,-2.47402 4.7005,-5.1812 0.3497,-2.84866 -2.53745,-4.86417 -4.71361,-4.7089 -1.63619,0.11675 -3.0628,0.99944 -3.92626,1.68636 -0.56648,0.29954 -1.1723,0.43188 -0.32765,-0.34055 1.59372,-1.74129 2.92277,-2.81595 2.8937,-5.42528 -0.0275,-2.44977 -2.12183,-5.00473 -4.89763,-4.92457 -3.46894,0.10019 -5.04641,2.7456 -5.03815,5.2065 0.01,1.79392 0.90592,3.44497 2.29083,4.46753 0.89699,0.72779 0.64543,1.27282 -0.37781,0.58409 -0.98316,-0.84741 -2.15375,-1.21844 -3.36756,-1.24446 -3.31598,-0.052 -4.61225,2.81341 -4.42235,5.47597 0.17803,2.49443 2.30166,5.06198 5.10055,4.7712 2.49917,-0.28643 3.81235,-2.38442 4.56486,-4.53803 0.24918,-0.66034 0.6422,-0.83867 0.63127,0.14542 -0.57731,4.80455 -2.36703,7.79421 -2.38004,7.79148 z"
         id="path3454-5"
         style="fill:#008000;fill-opacity:1;display:inline"
         inkscape:connector-curvature="0" />
      <path
         d="m -0.50190522,328.46615 c 1.132495,2.32283 2.23459002,4.48474 2.83508502,7.03083 0.39824,2.40119 -0.416385,1.5091 -0.87894,-0.0648 -0.68514002,-2.18254 -2.58647,-3.17656 -4.351,-3.20043 -3.202545,-0.0432 -4.800065,2.47402 -4.700505,5.1812 -0.349695,2.84866 2.53745,4.86417 4.713615,4.7089 1.636185,-0.11675 3.06279998,-0.99945 3.926255,-1.68636 0.566485,-0.29954 1.1723,-0.43188 0.327655,0.34055 -1.59372002,1.74129 -2.92277,2.81595 -2.8937,5.42528 0.02755,2.44977 2.12182498,5.00473 4.89763,4.92457 3.468925,-0.10019 5.0464,-2.7456 5.038135,-5.2065 -0.0095,-1.79392 -0.90592,-3.44497 -2.29083,-4.46754 -0.89699,-0.72778 -0.64543,-1.27281 0.377815,-0.58408 0.983155,0.84741 2.153745,1.21844 3.36756,1.24446 3.3159752,0.052 4.6122502,-2.81341 4.4223452,-5.47597 -0.17803,-2.49443 -2.30166,-5.06198 -5.1005502,-4.7712 -2.499165,0.28643 -3.81235,2.38442 -4.564845,4.53803 -0.249185,0.66033 -0.6422,0.83867 -0.631275,-0.14542 0.577315,-4.80456 2.36702,-7.79422 2.380035,-7.79148 z"
         id="path3476-8"
         style="fill:#008000;fill-opacity:1;display:inline"
         inkscape:connector-curvature="0" />
    </g>
    <g
       id="g73">
      <text
         inkscape:transform-center-y="-1.8280388e-05"
         inkscape:transform-center-x="15.803627"
         transform="matrix(0,1,-1,0,0,0)"
         xml:space="preserve"
         style="font-size:24.96722221px;font-style:normal;font-variant:normal;font-weight:normal;font-stretch:normal;text-align:start;line-height:125%;letter-spacing:0px;word-spacing:0px;writing-mode:lr-tb;text-anchor:start;fill:none;stroke:#000000;stroke-width:0.66144627;stroke-opacity:1;font-family:Card Characters;-inkscape-font-specification:'Card Characters, Normal'"
         x="521.39386"
         y="-260.38971"
         id="text70860-7"
         sodipodi:linespacing="125%"><tspan
           style="stroke-width:0.66144627"
           y="-260.38971"
           x="521.39386"
           id="tspan3766"
           sodipodi:role="line">12</tspan></text>
      <text
         inkscape:transform-center-y="-1.5008926e-05"
         sodipodi:linespacing="125%"
         id="text3768"
         y="459.64999"
         x="-554.75983"
         style="font-size:24.96725082px;font-style:normal;font-variant:normal;font-weight:normal;font-stretch:normal;text-align:start;line-height:125%;letter-spacing:0px;word-spacing:0px;writing-mode:lr-tb;text-anchor:start;fill:none;stroke:#000000;stroke-width:0.66144705;stroke-opacity:1;font-family:Card Characters;-inkscape-font-specification:'Card Characters, Normal'"
         xml:space="preserve"
         transform="matrix(0,-1,1,0,0,0)"
         inkscape:transform-center-x="-15.803641"><tspan
           style="stroke-width:0.66144705"
           sodipodi:role="line"
           id="tspan3770"
           x="-554.75983"
           y="459.64999">12</tspan></text>
    </g>
  </g>
</svg>
