<?xml version="1.0" encoding="UTF-8" standalone="no"?>
<!-- Created with Inkscape (http://www.inkscape.org/) -->

<svg
   xmlns:dc="http://purl.org/dc/elements/1.1/"
   xmlns:cc="http://creativecommons.org/ns#"
   xmlns:rdf="http://www.w3.org/1999/02/22-rdf-syntax-ns#"
   xmlns:svg="http://www.w3.org/2000/svg"
   xmlns="http://www.w3.org/2000/svg"
   xmlns:xlink="http://www.w3.org/1999/xlink"
   xmlns:sodipodi="http://sodipodi.sourceforge.net/DTD/sodipodi-0.dtd"
   xmlns:inkscape="http://www.inkscape.org/namespaces/inkscape"
   width="224.25"
   height="312.78125"
   id="svg18947"
   version="1.1"
   inkscape:version="0.91 r13725"
   sodipodi:docname="20-Diamond02.svg">
  <sodipodi:namedview
     id="base"
     pagecolor="#ffffff"
     bordercolor="#666666"
     borderopacity="1.0"
     inkscape:pageopacity="0.0"
     inkscape:pageshadow="2"
     inkscape:zoom="2"
     inkscape:cx="105.13084"
     inkscape:cy="156.39062"
     inkscape:document-units="px"
     inkscape:current-layer="layer1"
     showgrid="false"
     fit-margin-top="0"
     fit-margin-left="0"
     fit-margin-right="0"
     fit-margin-bottom="0"
     inkscape:window-width="1440"
     inkscape:window-height="790"
     inkscape:window-x="0"
     inkscape:window-y="0"
     inkscape:window-maximized="1"
     inkscape:snap-global="true"
     inkscape:snap-bbox="true"
     inkscape:bbox-paths="true"
     inkscape:bbox-nodes="true"
     inkscape:snap-bbox-edge-midpoints="true"
     inkscape:snap-bbox-midpoints="true"
     inkscape:snap-object-midpoints="true"
     inkscape:snap-center="true">
    <sodipodi:guide
       id="guide11850"
       orientation="312.7813,0"
       position="0.0,0" />
    <sodipodi:guide
       id="guide11852"
       orientation="312.7813,0"
       position="28.0313,0" />
    <sodipodi:guide
       id="guide11854"
       orientation="312.7813,0"
       position="56.0625,0" />
    <sodipodi:guide
       id="guide11856"
       orientation="312.7813,0"
       position="84.0938,0" />
    <sodipodi:guide
       id="guide11858"
       orientation="312.7813,0"
       position="112.125,0" />
    <sodipodi:guide
       id="guide11860"
       orientation="312.7813,0"
       position="140.1563,0" />
    <sodipodi:guide
       id="guide11862"
       orientation="312.7813,0"
       position="168.1875,0" />
    <sodipodi:guide
       id="guide11864"
       orientation="312.7813,0"
       position="196.2188,0" />
    <sodipodi:guide
       id="guide11866"
       orientation="312.7813,0"
       position="224.25,0" />
    <sodipodi:guide
       id="guide11868"
       orientation="0,224.25"
       position="0,0.0" />
    <sodipodi:guide
       id="guide11870"
       orientation="0,224.25"
       position="0,156.3906" />
    <sodipodi:guide
       id="guide11872"
       orientation="0,224.25"
       position="0,312.7813" />
  </sodipodi:namedview>
  <defs
     id="defs18949">
    <radialGradient
       inkscape:collect="always"
       xlink:href="#linearGradient3933"
       id="radialGradient3939"
       cx="44.149761"
       cy="208.92761"
       fx="44.149761"
       fy="208.92761"
       r="74.726646"
       gradientTransform="matrix(0.97241988,-0.00350785,0.00204639,0.40929875,3227.7804,-373.19033)"
       gradientUnits="userSpaceOnUse" />
    <linearGradient
       inkscape:collect="always"
       id="linearGradient3933">
      <stop
         style="stop-color:#000000;stop-opacity:1;"
         offset="0"
         id="stop3935" />
      <stop
         style="stop-color:#000000;stop-opacity:0;"
         offset="1"
         id="stop3937" />
    </linearGradient>
    <linearGradient
       inkscape:collect="always"
       xlink:href="#linearGradient3006"
       id="linearGradient3012"
       x1="81.90625"
       y1="294.38422"
       x2="178.15625"
       y2="294.38422"
       gradientUnits="userSpaceOnUse"
       gradientTransform="translate(3141.9804,-362.76274)" />
    <linearGradient
       id="linearGradient3006">
      <stop
         style="stop-color:#ffffff;stop-opacity:1;"
         offset="0"
         id="stop3008" />
      <stop
         id="stop3014"
         offset="0.37675071"
         style="stop-color:#7f7f7f;stop-opacity:1;" />
      <stop
         style="stop-color:#ffffff;stop-opacity:1;"
         offset="0.80194807"
         id="stop3016" />
      <stop
         style="stop-color:#cccccc;stop-opacity:1"
         offset="1"
         id="stop3010" />
    </linearGradient>
    <linearGradient
       gradientTransform="translate(3141.9804,-483.76274)"
       inkscape:collect="always"
       xlink:href="#linearGradient3804"
       id="linearGradient3810"
       x1="65.223801"
       y1="394.69629"
       x2="156.7487"
       y2="394.69629"
       gradientUnits="userSpaceOnUse" />
    <linearGradient
       id="linearGradient3804">
      <stop
         style="stop-color:#000000;stop-opacity:1;"
         offset="0"
         id="stop3806" />
      <stop
         id="stop3812"
         offset="0.5"
         style="stop-color:#333333;stop-opacity:1" />
      <stop
         style="stop-color:#000000;stop-opacity:1;"
         offset="1"
         id="stop3808" />
    </linearGradient>
    <radialGradient
       inkscape:collect="always"
       xlink:href="#linearGradient3024"
       id="radialGradient3030"
       cx="114.59315"
       cy="428.49252"
       fx="114.59315"
       fy="428.49252"
       r="43.141743"
       gradientTransform="matrix(0.79138519,4.4166814e-8,0,0.48100739,3167.9951,-285.21099)"
       gradientUnits="userSpaceOnUse" />
    <linearGradient
       inkscape:collect="always"
       id="linearGradient3024">
      <stop
         id="stop3028"
         offset="0"
         style="stop-color:#000000;stop-opacity:1" />
      <stop
         id="stop3026"
         offset="1"
         style="stop-color:#242424;stop-opacity:1;" />
    </linearGradient>
    <linearGradient
       gradientTransform="translate(3141.9804,-483.76274)"
       inkscape:collect="always"
       xlink:href="#linearGradient3101"
       id="linearGradient3113"
       gradientUnits="userSpaceOnUse"
       x1="145.60164"
       y1="375.92633"
       x2="183.7796"
       y2="390.78296" />
    <linearGradient
       inkscape:collect="always"
       id="linearGradient3101">
      <stop
         style="stop-color:#000000;stop-opacity:1;"
         offset="0"
         id="stop3103" />
      <stop
         style="stop-color:#000000;stop-opacity:0;"
         offset="1"
         id="stop3105" />
    </linearGradient>
    <linearGradient
       gradientTransform="translate(3141.9804,-483.76274)"
       inkscape:collect="always"
       xlink:href="#linearGradient3101"
       id="linearGradient3107"
       x1="113.00574"
       y1="395.66125"
       x2="116.81388"
       y2="405.19611"
       gradientUnits="userSpaceOnUse" />
    <linearGradient
       inkscape:collect="always"
       xlink:href="#linearGradient3833"
       id="linearGradient3086"
       gradientUnits="userSpaceOnUse"
       gradientTransform="matrix(0.43846429,7.9081918e-4,-6.5324466e-4,0.53080568,573.42943,-3051.1909)"
       x1="-158.78125"
       y1="459.14062"
       x2="-128.625"
       y2="459.14062" />
    <linearGradient
       id="linearGradient3833">
      <stop
         style="stop-color:#000000;stop-opacity:1;"
         offset="0"
         id="stop3835" />
      <stop
         id="stop3841"
         offset="0.5"
         style="stop-color:#333333;stop-opacity:1" />
      <stop
         style="stop-color:#000000;stop-opacity:1"
         offset="1"
         id="stop3837" />
    </linearGradient>
    <linearGradient
       inkscape:collect="always"
       xlink:href="#linearGradient3851"
       id="linearGradient3088"
       gradientUnits="userSpaceOnUse"
       gradientTransform="matrix(0.43846429,7.9081918e-4,-6.5324466e-4,0.53080568,640.31048,-3052.3309)"
       x1="-311.3125"
       y1="463.51562"
       x2="-281.15625"
       y2="463.51562" />
    <linearGradient
       id="linearGradient3851">
      <stop
         style="stop-color:#808080;stop-opacity:1;"
         offset="0"
         id="stop3853" />
      <stop
         id="stop3859"
         offset="0.5"
         style="stop-color:#ffffff;stop-opacity:1;" />
      <stop
         style="stop-color:#808080;stop-opacity:1;"
         offset="1"
         id="stop3855" />
    </linearGradient>
  </defs>
  <metadata
     id="metadata18952">
    <rdf:RDF>
      <cc:Work
         rdf:about="">
        <dc:format>image/svg+xml</dc:format>
        <dc:type
           rdf:resource="http://purl.org/dc/dcmitype/StillImage" />
        <dc:title />
      </cc:Work>
    </rdf:RDF>
  </metadata>
  <g
     transform="translate(-247.87401,-381.68621)"
     id="layer1"
     inkscape:groupmode="layer"
     inkscape:label="Layer 1">
    <g
       inkscape:export-ydpi="70"
       inkscape:export-xdpi="70"
       inkscape:export-filename="C:\Users\MXY\Documents\SVG Deck(4-19-2011)\Finalized\Colorized - SVG_Vector_Playing_Cards_Version_1.3\COMBINED TEST.png"
       transform="translate(267.49803,-12302.78)"
       id="g11155"
       style="display:inline">
      <g
         id="g10326"
         transform="matrix(0.95,0,0,0.95,4.6250436,641.84257)">
        <path
           inkscape:connector-curvature="0"
           style="fill:#0000ff;fill-opacity:1"
           id="path3680"
           d="m 70.274338,12741.899 c 9.9207,-9.681 16.4361,-20.237 22.6671,-30.389 5.4643,11.17 13.305902,20.943 21.786202,30.389 -9.0732,9.369 -16.105102,19.387 -21.759002,29.918 -6.2676,-10.796 -12.8661,-20.572 -22.6943,-29.918 z" />
        <path
           inkscape:connector-curvature="0"
           style="fill:#0000ff;fill-opacity:1"
           id="path3684"
           d="m 70.274338,12940.707 c 9.9207,-9.681 16.4361,-20.237 22.6671,-30.389 5.4643,11.17 13.305902,20.943 21.786202,30.389 -9.0732,9.369 -16.105102,19.387 -21.759002,29.918 -6.2676,-10.796 -12.8661,-20.572 -22.6943,-29.918 z" />
      </g>
      <path
         d="m 173.14945,12929.391 c 3.8608,-3.767 6.39625,-7.875 8.82122,-11.826 2.12648,4.347 5.17807,8.15 8.47828,11.826 -3.53096,3.646 -6.26753,7.544 -8.46783,11.643 -2.43903,-4.201 -5.00688,-8.005 -8.83167,-11.643 z"
         id="path3730"
         style="fill:#0000ff;fill-opacity:1"
         inkscape:connector-curvature="0" />
      <path
         d="m -5.1881632,12752.433 c 3.860705,-3.768 6.396255,-7.876 8.82113,-11.826 2.12648,4.347 5.178165,8.15 8.4783702,11.826 -3.5309602,3.646 -6.2675302,7.545 -8.4678252,11.643 -2.439125,-4.201 -5.006975,-8.006 -8.831675,-11.643 z"
         id="path3732"
         style="fill:#0000ff;fill-opacity:1"
         inkscape:connector-curvature="0" />
      <path
         d="m -5.6379882,12737.051 0.15656,-1.918 c 0.484025,-5.927 1.78068,-7.928 9.140805,-14.112 3.571715,-3 4.7443,-4.481 4.909505,-6.2 0.46626,-4.047 -3.18364,-5.311 -5.56225,-5.333 -3.07999505,-0.03 -6.56412,1.817 -4.903045,6.093 l -3.454675,1.015 c -0.697585,-3.99 0.01615,-7.735 3.25413,-9.397 4.318985,-2.166 9.861,-1.317 12.6572302,2.095 1.87929,2.294 2.306505,5.459 1.29941,7.939 -2.9455702,6.338 -12.9400452,9.125 -13.7661652,16.453 l 11.049545,0 0,-4.081 3.2544152,0 0,7.512 z"
         id="path7100-7"
         style="fill:#0000ff;fill-opacity:1;display:inline"
         inkscape:connector-curvature="0" />
      <path
         d="m 190.6399,12944.662 -0.15656,1.918 c -0.48393,5.927 -1.78068,7.928 -9.14081,14.112 -3.57171,3.001 -4.7443,4.482 -4.90941,6.201 -0.46635,4.047 3.18364,5.31 5.56216,5.332 3.08009,0.03 6.56421,-1.816 4.90304,-6.092 l 3.45477,-1.015 c 0.69759,3.99 -0.0162,7.735 -3.25413,9.397 -4.31898,2.166 -9.86109,1.316 -12.65732,-2.096 -1.8792,-2.294 -2.30641,-5.459 -1.29932,-7.938 2.94557,-6.338 12.94005,-9.126 13.76617,-16.454 l -11.04964,0 0,4.081 -3.25442,0 0,-7.512 z"
         id="path7116-5"
         style="fill:#0000ff;fill-opacity:1;display:inline"
         inkscape:connector-curvature="0" />
      <path
         d="m 11.852462,12929.391 c -3.8607052,-3.767 -6.3962552,-7.875 -8.8211302,-11.826 -2.12648005,4.347 -5.178165,8.15 -8.47837,11.826 3.531055,3.646 6.26752995,7.544 8.467825,11.643 2.439125,-4.201 5.006975,-8.005 8.8316752,-11.643 z"
         id="path3730-5"
         style="fill:#0000ff;fill-opacity:1"
         inkscape:connector-curvature="0" />
      <path
         d="m 190.19017,12752.433 c -3.8608,-3.768 -6.39626,-7.876 -8.82123,-11.826 -2.12638,4.347 -5.17807,8.15 -8.47827,11.826 3.53096,3.646 6.26753,7.545 8.46782,11.643 2.43913,-4.201 5.00688,-8.006 8.83168,-11.643 z"
         id="path3732-7"
         style="fill:#0000ff;fill-opacity:1"
         inkscape:connector-curvature="0" />
      <path
         d="m 172.60443,12737.051 0.15656,-1.918 c 0.48403,-5.927 1.78068,-7.928 9.14081,-14.112 3.57171,-3 4.7443,-4.481 4.90941,-6.2 0.46635,-4.047 -3.18355,-5.311 -5.56216,-5.333 -3.07999,-0.03 -6.56412,1.817 -4.90304,6.093 l -3.45468,1.015 c -0.69758,-3.99 0.0161,-7.735 3.25413,-9.397 4.31899,-2.166 9.861,-1.317 12.65723,2.095 1.87929,2.294 2.30651,5.459 1.29941,7.939 -2.94557,6.338 -12.94004,9.125 -13.76616,16.453 l 11.04954,0 0,-4.081 3.25442,0 0,7.512 z"
         id="path7100-7-5"
         style="fill:#0000ff;fill-opacity:1;display:inline"
         inkscape:connector-curvature="0" />
      <path
         d="m 12.397477,12944.662 -0.15656,1.918 c -0.48393,5.927 -1.78068,7.928 -9.1408052,14.112 -3.57171505,3.001 -4.7443,4.482 -4.90941,6.201 -0.466355,4.047 3.18364,5.31 5.562155,5.332 3.08009,0.03 6.5642152,-1.816 4.903045,-6.092 l 3.4547702,-1.015 c 0.697585,3.99 -0.01615,7.735 -3.2541302,9.397 -4.318985,2.166 -9.861095,1.316 -12.657325,-2.096 -1.879195,-2.294 -2.30641,-5.459 -1.299315,-7.938 2.94557,-6.338 12.940045,-9.126 13.766165,-16.454 l -11.04964,0 0,4.081 -3.254415,0 0,-7.512 z"
         id="path7116-5-4"
         style="fill:#0000ff;fill-opacity:1;display:inline"
         inkscape:connector-curvature="0" />
    </g>
    <text
       sodipodi:linespacing="125%"
       id="text70860-7"
       y="546.99042"
       x="260.93994"
       style="font-style:normal;font-variant:normal;font-weight:normal;font-stretch:normal;font-size:24.01966476px;line-height:125%;font-family:'Card Characters';-inkscape-font-specification:'Card Characters';text-align:start;letter-spacing:0px;word-spacing:0px;writing-mode:lr-tb;text-anchor:start;fill:none;stroke:#000000;stroke-width:0.63635188;stroke-opacity:1"
       xml:space="preserve"
       inkscape:transform-center-x="2.5306102e-05"
       inkscape:transform-center-y="15.204065"><tspan
         sodipodi:role="line"
         id="tspan12054"
         x="260.93994"
         y="546.99042"
         style="stroke-width:0.63635188">22</tspan></text>
    <use
       x="0"
       y="0"
       xlink:href="#text70860-7"
       inkscape:transform-center-x="-19.723621"
       id="use6675"
       transform="matrix(-1,0,0,-1,719.99813,1076.1537)"
       width="224.25"
       height="312.78125"
       inkscape:transform-center-y="0.0036507378" />
  </g>
</svg>
