<?xml version="1.0" encoding="UTF-8" standalone="no"?>
<!-- Created with Inkscape (http://www.inkscape.org/) -->

<svg
   xmlns:dc="http://purl.org/dc/elements/1.1/"
   xmlns:cc="http://creativecommons.org/ns#"
   xmlns:rdf="http://www.w3.org/1999/02/22-rdf-syntax-ns#"
   xmlns:svg="http://www.w3.org/2000/svg"
   xmlns="http://www.w3.org/2000/svg"
   xmlns:xlink="http://www.w3.org/1999/xlink"
   xmlns:sodipodi="http://sodipodi.sourceforge.net/DTD/sodipodi-0.dtd"
   xmlns:inkscape="http://www.inkscape.org/namespaces/inkscape"
   width="224.25"
   height="312.78125"
   id="svg18947"
   version="1.1"
   inkscape:version="0.91 r13725"
   sodipodi:docname="24-Diamond06.svg">
  <sodipodi:namedview
     id="base"
     pagecolor="#ffffff"
     bordercolor="#666666"
     borderopacity="1.0"
     inkscape:pageopacity="0.0"
     inkscape:pageshadow="2"
     inkscape:zoom="2.1993784"
     inkscape:cx="100.24664"
     inkscape:cy="156.39062"
     inkscape:document-units="px"
     inkscape:current-layer="layer1"
     showgrid="false"
     fit-margin-top="0"
     fit-margin-left="0"
     fit-margin-right="0"
     fit-margin-bottom="0"
     inkscape:window-width="1378"
     inkscape:window-height="856"
     inkscape:window-x="119"
     inkscape:window-y="119"
     inkscape:window-maximized="0"
     inkscape:snap-global="true"
     inkscape:snap-bbox="true"
     inkscape:bbox-paths="true"
     inkscape:bbox-nodes="true"
     inkscape:snap-bbox-edge-midpoints="true"
     inkscape:snap-bbox-midpoints="true"
     inkscape:snap-object-midpoints="true"
     inkscape:snap-center="true">
    <sodipodi:guide
       id="guide10490"
       orientation="312.7813,0"
       position="0.0,0" />
    <sodipodi:guide
       id="guide10492"
       orientation="312.7813,0"
       position="28.0313,0" />
    <sodipodi:guide
       id="guide10494"
       orientation="312.7813,0"
       position="56.0625,0" />
    <sodipodi:guide
       id="guide10496"
       orientation="312.7813,0"
       position="84.0938,0" />
    <sodipodi:guide
       id="guide10498"
       orientation="312.7813,0"
       position="112.125,0" />
    <sodipodi:guide
       id="guide10500"
       orientation="312.7813,0"
       position="140.1563,0" />
    <sodipodi:guide
       id="guide10502"
       orientation="312.7813,0"
       position="168.1875,0" />
    <sodipodi:guide
       id="guide10504"
       orientation="312.7813,0"
       position="196.2188,0" />
    <sodipodi:guide
       id="guide10506"
       orientation="312.7813,0"
       position="224.25,0" />
    <sodipodi:guide
       id="guide10508"
       orientation="0,224.25"
       position="0,0.0" />
    <sodipodi:guide
       id="guide10510"
       orientation="0,224.25"
       position="0,156.3906" />
    <sodipodi:guide
       id="guide10512"
       orientation="0,224.25"
       position="0,312.7813" />
  </sodipodi:namedview>
  <defs
     id="defs18949">
    <radialGradient
       inkscape:collect="always"
       xlink:href="#linearGradient3933"
       id="radialGradient3939"
       cx="44.149761"
       cy="208.92761"
       fx="44.149761"
       fy="208.92761"
       r="74.726646"
       gradientTransform="matrix(0.97241988,-0.00350785,0.00204639,0.40929875,3227.7804,-373.19033)"
       gradientUnits="userSpaceOnUse" />
    <linearGradient
       inkscape:collect="always"
       id="linearGradient3933">
      <stop
         style="stop-color:#000000;stop-opacity:1;"
         offset="0"
         id="stop3935" />
      <stop
         style="stop-color:#000000;stop-opacity:0;"
         offset="1"
         id="stop3937" />
    </linearGradient>
    <linearGradient
       inkscape:collect="always"
       xlink:href="#linearGradient3006"
       id="linearGradient3012"
       x1="81.90625"
       y1="294.38422"
       x2="178.15625"
       y2="294.38422"
       gradientUnits="userSpaceOnUse"
       gradientTransform="translate(3141.9804,-362.76274)" />
    <linearGradient
       id="linearGradient3006">
      <stop
         style="stop-color:#ffffff;stop-opacity:1;"
         offset="0"
         id="stop3008" />
      <stop
         id="stop3014"
         offset="0.37675071"
         style="stop-color:#7f7f7f;stop-opacity:1;" />
      <stop
         style="stop-color:#ffffff;stop-opacity:1;"
         offset="0.80194807"
         id="stop3016" />
      <stop
         style="stop-color:#cccccc;stop-opacity:1"
         offset="1"
         id="stop3010" />
    </linearGradient>
    <linearGradient
       gradientTransform="translate(3141.9804,-483.76274)"
       inkscape:collect="always"
       xlink:href="#linearGradient3804"
       id="linearGradient3810"
       x1="65.223801"
       y1="394.69629"
       x2="156.7487"
       y2="394.69629"
       gradientUnits="userSpaceOnUse" />
    <linearGradient
       id="linearGradient3804">
      <stop
         style="stop-color:#000000;stop-opacity:1;"
         offset="0"
         id="stop3806" />
      <stop
         id="stop3812"
         offset="0.5"
         style="stop-color:#333333;stop-opacity:1" />
      <stop
         style="stop-color:#000000;stop-opacity:1;"
         offset="1"
         id="stop3808" />
    </linearGradient>
    <radialGradient
       inkscape:collect="always"
       xlink:href="#linearGradient3024"
       id="radialGradient3030"
       cx="114.59315"
       cy="428.49252"
       fx="114.59315"
       fy="428.49252"
       r="43.141743"
       gradientTransform="matrix(0.79138519,4.4166814e-8,0,0.48100739,3167.9951,-285.21099)"
       gradientUnits="userSpaceOnUse" />
    <linearGradient
       inkscape:collect="always"
       id="linearGradient3024">
      <stop
         id="stop3028"
         offset="0"
         style="stop-color:#000000;stop-opacity:1" />
      <stop
         id="stop3026"
         offset="1"
         style="stop-color:#242424;stop-opacity:1;" />
    </linearGradient>
    <linearGradient
       gradientTransform="translate(3141.9804,-483.76274)"
       inkscape:collect="always"
       xlink:href="#linearGradient3101"
       id="linearGradient3113"
       gradientUnits="userSpaceOnUse"
       x1="145.60164"
       y1="375.92633"
       x2="183.7796"
       y2="390.78296" />
    <linearGradient
       inkscape:collect="always"
       id="linearGradient3101">
      <stop
         style="stop-color:#000000;stop-opacity:1;"
         offset="0"
         id="stop3103" />
      <stop
         style="stop-color:#000000;stop-opacity:0;"
         offset="1"
         id="stop3105" />
    </linearGradient>
    <linearGradient
       gradientTransform="translate(3141.9804,-483.76274)"
       inkscape:collect="always"
       xlink:href="#linearGradient3101"
       id="linearGradient3107"
       x1="113.00574"
       y1="395.66125"
       x2="116.81388"
       y2="405.19611"
       gradientUnits="userSpaceOnUse" />
    <linearGradient
       inkscape:collect="always"
       xlink:href="#linearGradient3833"
       id="linearGradient3086"
       gradientUnits="userSpaceOnUse"
       gradientTransform="matrix(0.43846429,7.9081918e-4,-6.5324466e-4,0.53080568,573.42943,-3051.1909)"
       x1="-158.78125"
       y1="459.14062"
       x2="-128.625"
       y2="459.14062" />
    <linearGradient
       id="linearGradient3833">
      <stop
         style="stop-color:#000000;stop-opacity:1;"
         offset="0"
         id="stop3835" />
      <stop
         id="stop3841"
         offset="0.5"
         style="stop-color:#333333;stop-opacity:1" />
      <stop
         style="stop-color:#000000;stop-opacity:1"
         offset="1"
         id="stop3837" />
    </linearGradient>
    <linearGradient
       inkscape:collect="always"
       xlink:href="#linearGradient3851"
       id="linearGradient3088"
       gradientUnits="userSpaceOnUse"
       gradientTransform="matrix(0.43846429,7.9081918e-4,-6.5324466e-4,0.53080568,640.31048,-3052.3309)"
       x1="-311.3125"
       y1="463.51562"
       x2="-281.15625"
       y2="463.51562" />
    <linearGradient
       id="linearGradient3851">
      <stop
         style="stop-color:#808080;stop-opacity:1;"
         offset="0"
         id="stop3853" />
      <stop
         id="stop3859"
         offset="0.5"
         style="stop-color:#ffffff;stop-opacity:1;" />
      <stop
         style="stop-color:#808080;stop-opacity:1;"
         offset="1"
         id="stop3855" />
    </linearGradient>
  </defs>
  <metadata
     id="metadata18952">
    <rdf:RDF>
      <cc:Work
         rdf:about="">
        <dc:format>image/svg+xml</dc:format>
        <dc:type
           rdf:resource="http://purl.org/dc/dcmitype/StillImage" />
        <dc:title />
      </cc:Work>
    </rdf:RDF>
  </metadata>
  <g
     transform="translate(-247.87401,-381.68621)"
     id="layer1"
     inkscape:groupmode="layer"
     inkscape:label="Layer 1">
    <g
       inkscape:export-ydpi="70"
       inkscape:export-xdpi="70"
       inkscape:export-filename="C:\Users\MXY\Documents\SVG Deck(4-19-2011)\Finalized\Colorized - SVG_Vector_Playing_Cards_Version_1.3\COMBINED TEST.png"
       transform="translate(267.49804,-13594.011)"
       id="g11213"
       style="display:inline">
      <g
         id="g10348"
         transform="matrix(0.95,0,0,0.95,3.9888537,706.65203)">
        <path
           inkscape:connector-curvature="0"
           style="fill:#0000ff;fill-opacity:1;display:inline"
           id="path3429"
           d="m 15.707105,14033.528 c 9.9207,-9.682 16.4361,-20.238 22.6671,-30.389 5.4644,11.17 13.3059,20.942 21.7862,30.389 -9.0732,9.368 -16.1051,19.386 -21.7591,29.917 -6.2676,-10.795 -12.866,-20.571 -22.6942,-29.917 z" />
        <path
           inkscape:connector-curvature="0"
           style="fill:#0000ff;fill-opacity:1;display:inline"
           id="path3431"
           d="m 15.707105,14132.274 c 9.9207,-9.682 16.4361,-20.238 22.6671,-30.389 5.4644,11.17 13.3059,20.942 21.7862,30.389 -9.0732,9.368 -16.1051,19.386 -21.759,29.918 -6.2676,-10.796 -12.8661,-20.572 -22.6943,-29.918 z" />
        <path
           inkscape:connector-curvature="0"
           style="fill:#0000ff;fill-opacity:1;display:inline"
           id="path3433"
           d="m 15.707105,14231.02 c 9.9207,-9.682 16.4361,-20.238 22.6671,-30.389 5.4644,11.17 13.3059,20.942 21.7862,30.389 -9.0732,9.368 -16.1051,19.386 -21.759,29.917 -6.2676,-10.795 -12.8661,-20.571 -22.6943,-29.917 z" />
        <path
           inkscape:connector-curvature="0"
           style="fill:#0000ff;fill-opacity:1;display:inline"
           id="path3439"
           d="m 126.1809,14033.528 c 9.9207,-9.682 16.4361,-20.238 22.6671,-30.389 5.4643,11.17 13.3059,20.942 21.7862,30.389 -9.0732,9.368 -16.1052,19.386 -21.7591,29.917 -6.2676,-10.795 -12.866,-20.571 -22.6942,-29.917 z" />
        <path
           inkscape:connector-curvature="0"
           style="fill:#0000ff;fill-opacity:1;display:inline"
           id="path3441"
           d="m 126.1809,14132.274 c 9.9207,-9.682 16.4361,-20.238 22.6671,-30.389 5.4643,11.17 13.3059,20.942 21.7862,30.389 -9.0732,9.368 -16.1052,19.386 -21.7591,29.918 -6.2676,-10.796 -12.866,-20.572 -22.6942,-29.918 z" />
        <path
           inkscape:connector-curvature="0"
           style="fill:#0000ff;fill-opacity:1;display:inline"
           id="path3443"
           d="m 126.1809,14231.02 c 9.9207,-9.682 16.4361,-20.238 22.6671,-30.389 5.4643,11.17 13.3059,20.942 21.7862,30.389 -9.0732,9.368 -16.1052,19.386 -21.7591,29.917 -6.2676,-10.795 -12.866,-20.571 -22.6942,-29.917 z" />
      </g>
      <path
         d="m 173.64877,14219.414 c 3.8607,-3.768 6.39625,-7.876 8.82113,-11.826 2.12648,4.347 5.17816,8.15 8.47837,11.826 -3.53106,3.646 -6.26753,7.545 -8.46783,11.643 -2.43912,-4.201 -5.00697,-8.006 -8.83167,-11.643 z"
         id="path3722"
         style="fill:#0000ff;fill-opacity:1"
         inkscape:connector-curvature="0" />
      <path
         d="m -5.7256737,14042.85 c 3.860705,-3.768 6.39625495,-7.876 8.82113,-11.827 2.12648,4.347 5.178165,8.15 8.4783697,11.827 -3.5310547,3.645 -6.2675297,7.544 -8.4678247,11.642 -2.43912505,-4.201 -5.006975,-8.006 -8.831675,-11.642 z"
         id="path3724"
         style="fill:#0000ff;fill-opacity:1"
         inkscape:connector-curvature="0" />
      <path
         d="m -5.7047737,14018.178 c -0.38798,-2.61 -0.38171,-9.352 -0.0627,-11.346 0.977645,-6.106 3.35559,-8.899 7.336565,-9.815 3.86517,-0.889 9.2994547,0.101 10.4918947,5.208 l -3.2361747,0.06 c -1.74781,-3.451 -6.17063,-2.529 -8.65991505,-1.028 -1.98853995,1.199 -2.88666995,6.193 -2.50239495,6.501 0,0 3.759245,-2.733 6.72201,-2.532 6.3347897,0.648 8.9465297,6.038 8.7258447,11.133 -0.200165,6.127 -2.180155,11.022 -8.8930447,11.349 -6.382195,-0.241 -9.309715,-3.658 -9.92199,-9.53 z m 15.7418797,-1.619 c 0.03515,-4.253 -1.9320147,-7.432 -5.6520247,-7.784 -3.72001005,-0.35 -7.470325,3.213 -7.21069,7.546 0.260585,4.348 1.97466995,8.01 6.48508,7.989 4.8507,-0.02 6.3525547,-4.727 6.3776347,-7.751 z"
         id="path7108-3"
         style="fill:#0000ff;fill-opacity:1;display:inline"
         inkscape:connector-curvature="0" />
      <path
         d="m 190.7064,14245.998 c 0.38798,2.609 0.3818,9.352 0.0627,11.345 -0.97765,6.107 -3.3555,8.9 -7.33647,9.816 -3.86527,0.889 -9.29946,-0.101 -10.4919,-5.208 l 3.23618,-0.06 c 1.74781,3.451 6.17053,2.529 8.65991,1.028 1.98845,-1.199 2.88658,-6.194 2.5023,-6.501 0,0 -3.75915,2.733 -6.72191,2.532 -6.33489,-0.648 -8.94663,-6.038 -8.72594,-11.133 0.20016,-6.128 2.18015,-11.022 8.89304,-11.349 6.38229,0.241 9.30981,3.658 9.92199,9.53 z m -15.74188,1.62 c -0.0351,4.251 1.93201,7.431 5.65202,7.782 3.72001,0.351 7.47042,-3.212 7.21069,-7.545 -0.26058,-4.348 -1.97467,-8.01 -6.48498,-7.99 -4.8508,0.02 -6.35265,4.728 -6.37773,7.753 z"
         id="path7161-9"
         style="fill:#0000ff;fill-opacity:1;display:inline"
         inkscape:connector-curvature="0" />
      <path
         inkscape:connector-curvature="0"
         style="fill:#0000ff;fill-opacity:1"
         id="path3722-5"
         d="m 11.353046,14219.414 c -3.8607997,-3.768 -6.3962547,-7.876 -8.8211297,-11.826 -2.12648005,4.347 -5.178165,8.15 -8.47837,11.826 3.53096,3.646 6.26752995,7.545 8.467825,11.643 2.439125,-4.201 5.00688,-8.006 8.8316747,-11.643 z" />
      <path
         inkscape:connector-curvature="0"
         style="fill:#0000ff;fill-opacity:1"
         id="path3724-1"
         d="m 190.72749,14042.85 c -3.8608,-3.768 -6.39626,-7.876 -8.82113,-11.827 -2.12648,4.347 -5.17817,8.15 -8.47837,11.827 3.53096,3.645 6.26753,7.544 8.46782,11.642 2.43913,-4.201 5.00688,-8.006 8.83168,-11.642 z" />
      <path
         inkscape:connector-curvature="0"
         style="fill:#0000ff;fill-opacity:1;display:inline"
         id="path7108-3-2"
         d="m 172.17551,14018.178 c -0.38789,-2.61 -0.38171,-9.352 -0.0627,-11.346 0.97774,-6.106 3.35559,-8.899 7.33656,-9.815 3.86517,-0.889 9.29946,0.101 10.4919,5.208 l -3.23618,0.06 c -1.74781,-3.451 -6.17053,-2.529 -8.65991,-1.028 -1.98854,1.199 -2.88667,6.193 -2.5024,6.501 0,0 3.75925,-2.733 6.72201,-2.532 6.33479,0.648 8.94653,6.038 8.72594,11.133 -0.20026,6.127 -2.18025,11.022 -8.89314,11.349 -6.38219,-0.241 -9.30971,-3.658 -9.92199,-9.53 z m 15.74188,-1.619 c 0.0351,-4.253 -1.93202,-7.432 -5.65203,-7.784 -3.72001,-0.35 -7.47032,3.213 -7.21069,7.546 0.26059,4.348 1.97467,8.01 6.48508,7.989 4.8507,-0.02 6.35256,-4.727 6.37764,-7.751 z" />
      <path
         inkscape:connector-curvature="0"
         style="fill:#0000ff;fill-opacity:1;display:inline"
         id="path7161-9-0"
         d="m 12.826306,14245.998 c 0.38798,2.609 0.381805,9.352 0.0627,11.345 -0.977645,6.107 -3.3554947,8.9 -7.3364697,9.816 -3.865265,0.889 -9.299455,-0.101 -10.491895,-5.208 l 3.236175,-0.06 c 1.74780995,3.451 6.170535,2.529 8.659915,1.028 1.988445,-1.199 2.886575,-6.194 2.5023,-6.501 0,0 -3.75915,2.733 -6.721915,2.532 -6.334885,-0.648 -8.946625,-6.038 -8.72594,-11.133 0.200165,-6.128 2.180155,-11.022 8.893045,-11.349 6.38229,0.241 9.3097147,3.658 9.9219897,9.53 z m -15.7418797,1.62 c -0.03515,4.251 1.93201495,7.431 5.652025,7.782 3.72001,0.351 7.4704197,-3.212 7.21069,-7.545 -0.260585,-4.348 -1.97467,-8.01 -6.484985,-7.99 -4.850795,0.02 -6.35265,4.728 -6.37773,7.753 z" />
    </g>
    <text
       sodipodi:linespacing="125%"
       id="text70860-7"
       y="546.82037"
       x="254.49426"
       style="font-style:normal;font-variant:normal;font-weight:normal;font-stretch:normal;font-size:24.01966476px;line-height:125%;font-family:'Card Characters';-inkscape-font-specification:'Card Characters';text-align:start;letter-spacing:0px;word-spacing:0px;writing-mode:lr-tb;text-anchor:start;fill:none;stroke:#000000;stroke-width:0.63635188;stroke-opacity:1"
       xml:space="preserve"
       inkscape:transform-center-x="4.0003303e-05"
       inkscape:transform-center-y="15.204076"><tspan
         sodipodi:role="line"
         id="tspan10702"
         x="254.49426"
         y="546.82037"
         style="stroke-width:0.63635188">26</tspan></text>
    <use
       x="0"
       y="0"
       xlink:href="#text70860-7"
       inkscape:transform-center-x="-19.735628"
       id="use50083"
       transform="matrix(-1,0,0,-1,719.99813,1076.1537)"
       width="224.25"
       height="312.78125"
       inkscape:transform-center-y="0.001787557" />
  </g>
</svg>
