<?xml version="1.0" encoding="UTF-8" standalone="no"?>
<!-- Created with Inkscape (http://www.inkscape.org/) -->

<svg
   xmlns:dc="http://purl.org/dc/elements/1.1/"
   xmlns:cc="http://creativecommons.org/ns#"
   xmlns:rdf="http://www.w3.org/1999/02/22-rdf-syntax-ns#"
   xmlns:svg="http://www.w3.org/2000/svg"
   xmlns="http://www.w3.org/2000/svg"
   xmlns:xlink="http://www.w3.org/1999/xlink"
   xmlns:sodipodi="http://sodipodi.sourceforge.net/DTD/sodipodi-0.dtd"
   xmlns:inkscape="http://www.inkscape.org/namespaces/inkscape"
   width="224.25"
   height="312.78125"
   id="svg18947"
   version="1.1"
   inkscape:version="0.91 r13725"
   sodipodi:docname="38-Heart02.svg">
  <sodipodi:namedview
     id="base"
     pagecolor="#ffffff"
     bordercolor="#666666"
     borderopacity="1.0"
     inkscape:pageopacity="0.0"
     inkscape:pageshadow="2"
     inkscape:zoom="1.9348761"
     inkscape:cx="96.6846"
     inkscape:cy="116.39062"
     inkscape:document-units="px"
     inkscape:current-layer="layer1"
     showgrid="false"
     fit-margin-top="0"
     fit-margin-left="0"
     fit-margin-right="0"
     fit-margin-bottom="0"
     inkscape:window-width="1440"
     inkscape:window-height="790"
     inkscape:window-x="0"
     inkscape:window-y="0"
     inkscape:window-maximized="1"
     inkscape:snap-global="true"
     inkscape:snap-bbox="true"
     inkscape:bbox-paths="true"
     inkscape:bbox-nodes="true"
     inkscape:snap-bbox-edge-midpoints="true"
     inkscape:snap-bbox-midpoints="true"
     inkscape:snap-object-midpoints="true"
     inkscape:snap-center="true">
    <sodipodi:guide
       id="guide89562"
       orientation="312.7813,0"
       position="0.0,0" />
    <sodipodi:guide
       id="guide89564"
       orientation="312.7813,0"
       position="28.0313,0" />
    <sodipodi:guide
       id="guide89566"
       orientation="312.7813,0"
       position="56.0625,0" />
    <sodipodi:guide
       id="guide89568"
       orientation="312.7813,0"
       position="84.0938,0" />
    <sodipodi:guide
       id="guide89570"
       orientation="312.7813,0"
       position="112.125,0" />
    <sodipodi:guide
       id="guide89572"
       orientation="312.7813,0"
       position="140.1563,0" />
    <sodipodi:guide
       id="guide89574"
       orientation="312.7813,0"
       position="168.1875,0" />
    <sodipodi:guide
       id="guide89576"
       orientation="312.7813,0"
       position="196.2188,0" />
    <sodipodi:guide
       id="guide89578"
       orientation="312.7813,0"
       position="224.25,0" />
    <sodipodi:guide
       id="guide89580"
       orientation="0,224.25"
       position="0,0.0" />
    <sodipodi:guide
       id="guide89582"
       orientation="0,224.25"
       position="0,156.3906" />
    <sodipodi:guide
       id="guide89584"
       orientation="0,224.25"
       position="0,312.7813" />
  </sodipodi:namedview>
  <defs
     id="defs18949">
    <linearGradient
       id="linearGradient3006">
      <stop
         style="stop-color:#ffffff;stop-opacity:1;"
         offset="0"
         id="stop3008" />
      <stop
         id="stop3014"
         offset="0.37675071"
         style="stop-color:#7f7f7f;stop-opacity:1;" />
      <stop
         style="stop-color:#ffffff;stop-opacity:1;"
         offset="0.80194807"
         id="stop3016" />
      <stop
         style="stop-color:#cccccc;stop-opacity:1"
         offset="1"
         id="stop3010" />
    </linearGradient>
    <linearGradient
       id="linearGradient3804">
      <stop
         style="stop-color:#000000;stop-opacity:1;"
         offset="0"
         id="stop3806" />
      <stop
         id="stop3812"
         offset="0.5"
         style="stop-color:#333333;stop-opacity:1" />
      <stop
         style="stop-color:#000000;stop-opacity:1;"
         offset="1"
         id="stop3808" />
    </linearGradient>
    <linearGradient
       id="linearGradient3833">
      <stop
         style="stop-color:#000000;stop-opacity:1;"
         offset="0"
         id="stop3835" />
      <stop
         id="stop3841"
         offset="0.5"
         style="stop-color:#333333;stop-opacity:1" />
      <stop
         style="stop-color:#000000;stop-opacity:1"
         offset="1"
         id="stop3837" />
    </linearGradient>
    <linearGradient
       id="linearGradient3851">
      <stop
         style="stop-color:#808080;stop-opacity:1;"
         offset="0"
         id="stop3853" />
      <stop
         id="stop3859"
         offset="0.5"
         style="stop-color:#ffffff;stop-opacity:1;" />
      <stop
         style="stop-color:#808080;stop-opacity:1;"
         offset="1"
         id="stop3855" />
    </linearGradient>
    <radialGradient
       inkscape:collect="always"
       xlink:href="#linearGradient3933-4-3"
       id="radialGradient3939-7-7"
       cx="44.149761"
       cy="208.92761"
       fx="44.149761"
       fy="208.92761"
       r="74.726646"
       gradientTransform="matrix(0.97241988,-0.00350785,0.00204639,0.40929875,4026.4071,-290.65137)"
       gradientUnits="userSpaceOnUse" />
    <linearGradient
       inkscape:collect="always"
       id="linearGradient3933-4-3">
      <stop
         style="stop-color:#000000;stop-opacity:1;"
         offset="0"
         id="stop3935-0-7" />
      <stop
         style="stop-color:#000000;stop-opacity:0;"
         offset="1"
         id="stop3937-9-2" />
    </linearGradient>
    <linearGradient
       inkscape:collect="always"
       xlink:href="#linearGradient3006-1-5"
       id="linearGradient3012-2-7"
       x1="81.90625"
       y1="294.38422"
       x2="178.15625"
       y2="294.38422"
       gradientUnits="userSpaceOnUse"
       gradientTransform="translate(3914.848,-255.2825)" />
    <linearGradient
       id="linearGradient3006-1-5">
      <stop
         style="stop-color:#ffffff;stop-opacity:1;"
         offset="0"
         id="stop3008-6-4" />
      <stop
         id="stop3014-8-12"
         offset="0.37675071"
         style="stop-color:#7f7f7f;stop-opacity:1;" />
      <stop
         style="stop-color:#ffffff;stop-opacity:1;"
         offset="0.80194807"
         id="stop3016-5-0" />
      <stop
         style="stop-color:#cccccc;stop-opacity:1"
         offset="1"
         id="stop3010-7-0" />
    </linearGradient>
    <linearGradient
       gradientTransform="translate(3914.848,-376.2825)"
       inkscape:collect="always"
       xlink:href="#linearGradient3804-6-4"
       id="linearGradient3810-9-1"
       x1="65.223801"
       y1="394.69629"
       x2="156.7487"
       y2="394.69629"
       gradientUnits="userSpaceOnUse" />
    <linearGradient
       id="linearGradient3804-6-4">
      <stop
         style="stop-color:#000000;stop-opacity:1;"
         offset="0"
         id="stop3806-1-6" />
      <stop
         id="stop3812-4-0"
         offset="0.5"
         style="stop-color:#333333;stop-opacity:1" />
      <stop
         style="stop-color:#000000;stop-opacity:1;"
         offset="1"
         id="stop3808-2-7" />
    </linearGradient>
    <radialGradient
       inkscape:collect="always"
       xlink:href="#linearGradient3024-3-7"
       id="radialGradient3030-7-1"
       cx="114.59315"
       cy="428.49252"
       fx="114.59315"
       fy="428.49252"
       r="43.141743"
       gradientTransform="matrix(0.79138519,4.4166814e-8,0,0.48100739,3940.8627,-177.7307)"
       gradientUnits="userSpaceOnUse" />
    <linearGradient
       inkscape:collect="always"
       id="linearGradient3024-3-7">
      <stop
         id="stop3028-2-7"
         offset="0"
         style="stop-color:#000000;stop-opacity:1" />
      <stop
         id="stop3026-2-7"
         offset="1"
         style="stop-color:#242424;stop-opacity:1;" />
    </linearGradient>
    <linearGradient
       gradientTransform="translate(3914.848,-376.2825)"
       inkscape:collect="always"
       xlink:href="#linearGradient3101-2-3"
       id="linearGradient3113-4-7"
       gradientUnits="userSpaceOnUse"
       x1="145.60164"
       y1="375.92633"
       x2="183.7796"
       y2="390.78296" />
    <linearGradient
       inkscape:collect="always"
       id="linearGradient3101-2-3">
      <stop
         style="stop-color:#000000;stop-opacity:1;"
         offset="0"
         id="stop3103-4-3" />
      <stop
         style="stop-color:#000000;stop-opacity:0;"
         offset="1"
         id="stop3105-5-5" />
    </linearGradient>
    <linearGradient
       gradientTransform="translate(3914.848,-376.2825)"
       inkscape:collect="always"
       xlink:href="#linearGradient3101-2-3"
       id="linearGradient3107-7-9"
       x1="113.00574"
       y1="395.66125"
       x2="116.81388"
       y2="405.19611"
       gradientUnits="userSpaceOnUse" />
    <linearGradient
       inkscape:collect="always"
       xlink:href="#linearGradient3833-1-81"
       id="linearGradient3086-3-9"
       gradientUnits="userSpaceOnUse"
       gradientTransform="matrix(0.43846429,7.9081918e-4,-6.5324466e-4,0.53080568,903.27012,-3758.3554)"
       x1="-158.78125"
       y1="459.14062"
       x2="-128.625"
       y2="459.14062" />
    <linearGradient
       id="linearGradient3833-1-81">
      <stop
         style="stop-color:#000000;stop-opacity:1;"
         offset="0"
         id="stop3835-5-82" />
      <stop
         id="stop3841-2-6"
         offset="0.5"
         style="stop-color:#333333;stop-opacity:1" />
      <stop
         style="stop-color:#000000;stop-opacity:1"
         offset="1"
         id="stop3837-7-6" />
    </linearGradient>
    <linearGradient
       inkscape:collect="always"
       xlink:href="#linearGradient3851-5-38"
       id="linearGradient3088-8-0"
       gradientUnits="userSpaceOnUse"
       gradientTransform="matrix(0.43846429,7.9081918e-4,-6.5324466e-4,0.53080568,970.15112,-3759.4954)"
       x1="-311.3125"
       y1="463.51562"
       x2="-281.15625"
       y2="463.51562" />
    <linearGradient
       id="linearGradient3851-5-38">
      <stop
         style="stop-color:#808080;stop-opacity:1;"
         offset="0"
         id="stop3853-1-0" />
      <stop
         id="stop3859-7-1"
         offset="0.5"
         style="stop-color:#ffffff;stop-opacity:1;" />
      <stop
         style="stop-color:#808080;stop-opacity:1;"
         offset="1"
         id="stop3855-1-2" />
    </linearGradient>
  </defs>
  <metadata
     id="metadata18952">
    <rdf:RDF>
      <cc:Work
         rdf:about="">
        <dc:format>image/svg+xml</dc:format>
        <dc:type
           rdf:resource="http://purl.org/dc/dcmitype/StillImage" />
        <dc:title />
      </cc:Work>
    </rdf:RDF>
  </metadata>
  <g
     transform="translate(-247.87401,-381.68621)"
     id="layer1"
     inkscape:groupmode="layer"
     inkscape:label="Layer 1">
    <g
       inkscape:export-ydpi="70"
       inkscape:export-xdpi="70"
       inkscape:export-filename="C:\Users\MXY\Documents\SVG Deck(4-19-2011)\Finalized\Colorized - SVG_Vector_Playing_Cards_Version_1.3\COMBINED TEST.png"
       transform="translate(267.49799,-3909.7784)"
       id="g10677"
       style="display:inline">
      <path
         d="m -4.906676,4357.4615 c -1.50385,-3.2986 -1.668865,-8.9352 2.822545,-9.6976 3.383995,-0.4355 4.761115,1.1383 5.034905,3.5548 0.13509,0.7058 0.533615,0.749 0.66006,-0.055 0.19418,-2.479 2.64784,-3.926 4.56608,-3.5625 5.25027,0.8981 4.943705,6.677 3.228575,10.5978 -2.594355,5.2054 -5.32057,8.4907 -7.83275,13.7292 -2.88629004,-5.454 -6.181935,-9.8848 -8.479415,-14.5663 z"
         id="path8628"
         style="fill:#d40000;fill-opacity:1;display:inline"
         inkscape:connector-curvature="0" />
      <path
         inkscape:connector-curvature="0"
         style="fill:#d40000;fill-opacity:1;display:inline"
         id="path8650"
         d="m 173.43093,4538.6729 c -1.50385,3.2987 -1.66886,8.9351 2.82255,9.6977 3.38399,0.4355 4.76111,-1.1384 5.0349,-3.5548 0.13509,-0.7058 0.53362,-0.7491 0.66006,0.055 0.19418,2.4789 2.64784,3.926 4.56608,3.5625 5.25027,-0.8981 4.94371,-6.6771 3.22858,-10.5978 -2.59436,-5.2054 -5.32057,-8.4907 -7.83275,-13.7292 -2.88629,5.4539 -6.18194,9.8848 -8.47942,14.5662 z" />
      <path
         inkscape:connector-curvature="0"
         style="fill:#d40000;fill-opacity:1;display:inline"
         id="path7100"
         d="m -5.767376,4344.1412 0.15656,-1.9177 c 0.484025,-5.9271 1.78068,-7.929 9.140805,-14.1125 3.571715,-3.0007 4.7443,-4.4815 4.90941,-6.2 0.466355,-4.0469 -3.183545,-5.3111 -5.562155,-5.3331 -3.07999504,-0.029 -6.56412,1.816 -4.903045,6.0932 l -3.454675,1.0145 c -0.697585,-3.9902 0.01615,-7.7349 3.25413,-9.3977 4.31889,-2.1658 9.861,-1.3161 12.65723,2.0964 1.87929,2.2934 2.306505,5.4588 1.29941,7.9378 -2.94557,6.3381 -12.940045,9.1261 -13.766165,16.4535 l 11.049545,0 0,-4.0804 3.254415,0 0,7.5118 z" />
      <path
         inkscape:connector-curvature="0"
         style="fill:#d40000;fill-opacity:1;display:inline"
         id="path7116"
         d="m 190.51051,4551.5691 -0.15656,1.9178 c -0.48393,5.927 -1.78068,7.929 -9.14081,14.1125 -3.57171,3.0006 -4.7443,4.4815 -4.90941,6.1999 -0.46635,4.0469 3.18364,5.3112 5.56216,5.3332 3.07999,0.029 6.56421,-1.8161 4.90304,-6.0933 l 3.45468,-1.0144 c 0.69768,3.9901 -0.0162,7.7349 -3.25404,9.3977 -4.31898,2.1658 -9.86109,1.316 -12.65732,-2.0964 -1.8792,-2.2934 -2.30641,-5.4588 -1.29932,-7.9379 2.94557,-6.338 12.94005,-9.126 13.76617,-16.4535 l -11.04964,0 0,4.0804 -3.25442,0 0,-7.5117 z" />
      <g
         id="g10158"
         transform="matrix(0.95,0,0,0.95,4.6250881,222.19266)">
        <path
           inkscape:connector-curvature="0"
           style="fill:#d40000;fill-opacity:1;display:inline"
           id="path8514"
           d="m 80.451237,4319.9149 c 7.144,-0.4744 10.8684,5.6275 11.5952,10.4365 0.4334,0.7639 0.6707,0.5486 0.8369,-0.042 0.3493,-6.1741 5.8749,-11.2202 10.992593,-10.5302 8.328,0.1083 13.3895,9.3754 11.9664,17.2188 -1.7385,9.5816 -6.8997,15.3511 -10.8078,21.2931 -4.4213,6.1524 -10.372693,15.0395 -12.290093,19.3168 0,0 -6.0483,-9.2045 -13.9172,-20.0296 -5.2618,-7.2385 -9.4731,-15.0823 -9.8651,-21.8354 -0.4479,-7.7154 2.7193,-14.6317 11.4891,-15.8276 z" />
        <path
           inkscape:connector-curvature="0"
           style="fill:#d40000;fill-opacity:1;display:inline"
           id="path8580"
           d="m 80.451237,4576.2168 c 7.144,0.4744 10.8684,-5.6274 11.5952,-10.4365 0.4334,-0.7638 0.6707,-0.5486 0.8369,0.042 0.3493,6.1742 5.8749,11.2202 10.992593,10.5302 8.328,-0.1083 13.3895,-9.3754 11.9664,-17.2187 -1.7385,-9.5816 -6.8997,-15.3511 -10.8078,-21.2931 -4.4213,-6.1524 -10.372693,-15.0395 -12.290093,-19.3169 0,0 -6.0483,9.2045 -13.9172,20.0296 -5.2618,7.2385 -9.4731,15.0823 -9.8651,21.8354 -0.4479,7.7155 2.7193,14.6317 11.4891,15.8276 z" />
      </g>
      <path
         d="m 189.90868,4357.4615 c 1.50385,-3.2986 1.66887,-8.9352 -2.82254,-9.6976 -3.384,-0.4355 -4.76112,1.1383 -5.03491,3.5548 -0.13509,0.7058 -0.53361,0.749 -0.66006,-0.055 -0.19418,-2.479 -2.64784,-3.926 -4.56608,-3.5625 -5.25027,0.8981 -4.9437,6.677 -3.22857,10.5978 2.59435,5.2054 5.32057,8.4907 7.83275,13.7292 2.88629,-5.454 6.18193,-9.8848 8.47941,-14.5663 z"
         id="path8628-3"
         style="fill:#d40000;fill-opacity:1;display:inline"
         inkscape:connector-curvature="0" />
      <path
         d="m 11.571074,4538.673 c 1.50385,3.2987 1.668865,8.9351 -2.822545,9.6976 -3.383995,0.4355 -4.761115,-1.1384 -5.034905,-3.5548 -0.13509,-0.7058 -0.533615,-0.7491 -0.66006,0.055 -0.19418,2.4789 -2.64784004,3.926 -4.56608,3.5625 -5.25027,-0.8981 -4.943705,-6.6771 -3.228575,-10.5977 2.594355,-5.2055 5.32056996,-8.4908 7.83275,-13.7293 2.88629,5.4539 6.181935,9.8848 8.479415,14.5662 z"
         id="path8650-7"
         style="fill:#d40000;fill-opacity:1;display:inline"
         inkscape:connector-curvature="0" />
      <path
         inkscape:connector-curvature="0"
         style="fill:#d40000;fill-opacity:1;display:inline"
         id="path7100-5"
         d="m 172.73382,4344.1412 0.15666,-1.9177 c 0.48393,-5.9271 1.78068,-7.929 9.1408,-14.1125 3.57172,-3.0007 4.7443,-4.4815 4.90941,-6.2 0.46636,-4.0469 -3.18364,-5.3111 -5.56225,-5.3331 -3.07999,-0.029 -6.56412,1.816 -4.90295,6.0932 l -3.45477,1.0145 c -0.69758,-3.9902 0.0161,-7.7349 3.25413,-9.3977 4.31899,-2.1658 9.8611,-1.3161 12.65723,2.0964 1.87929,2.2934 2.30651,5.4588 1.29941,7.9378 -2.94557,6.3381 -12.94004,9.1261 -13.76616,16.4535 l 11.04964,0 0,-4.0804 3.25441,0 0,7.5118 z" />
      <path
         inkscape:connector-curvature="0"
         style="fill:#d40000;fill-opacity:1;display:inline"
         id="path7116-8"
         d="m 12.526964,4551.5691 -0.15656,1.9178 c -0.484025,5.927 -1.78068,7.929 -9.140805,14.1125 -3.57171504,3.0006 -4.744395,4.4815 -4.909505,6.1999 -0.46626,4.0469 3.18364,5.3112 5.56225,5.3332 3.079995,0.029 6.56412,-1.8161 4.903045,-6.0933 l 3.454675,-1.0144 c 0.697585,3.9901 -0.01615,7.7349 -3.25413,9.3977 -4.318985,2.1658 -9.86100004,1.316 -12.65723,-2.0964 -1.87929,-2.2934 -2.306505,-5.4588 -1.29941,-7.9379 2.94557,-6.338 12.940045,-9.126 13.766165,-16.4535 l -11.049545,0 0,4.0804 -3.25451,0 0,-7.5117 z" />
    </g>
    <text
       sodipodi:linespacing="125%"
       id="text70860-7"
       y="546.82037"
       x="260.90475"
       style="font-style:normal;font-variant:normal;font-weight:normal;font-stretch:normal;font-size:24.01966476px;line-height:125%;font-family:'Card Characters';-inkscape-font-specification:'Card Characters';text-align:start;letter-spacing:0px;word-spacing:0px;writing-mode:lr-tb;text-anchor:start;fill:none;stroke:#000000;stroke-width:0.63635188;stroke-opacity:1"
       xml:space="preserve"
       inkscape:transform-center-y="15.204056"><tspan
         sodipodi:role="line"
         id="tspan89821"
         x="260.90475"
         y="546.82037"
         style="stroke-width:0.63635188">32</tspan></text>
    <text
       inkscape:transform-center-x="2.6657461e-05"
       transform="scale(-1,-1)"
       xml:space="preserve"
       style="font-style:normal;font-variant:normal;font-weight:normal;font-stretch:normal;font-size:24.01966476px;line-height:125%;font-family:'Card Characters';-inkscape-font-specification:'Card Characters';text-align:start;letter-spacing:0px;word-spacing:0px;writing-mode:lr-tb;text-anchor:start;fill:none;stroke:#000000;stroke-width:0.63635188;stroke-opacity:1"
       x="-459.09338"
       y="-529.33337"
       id="text442470"
       sodipodi:linespacing="125%"
       inkscape:transform-center-y="-15.204034"><tspan
         id="tspan442472"
         sodipodi:role="line"
         x="-459.09338"
         y="-529.33337"
         style="stroke-width:0.63635188">32</tspan></text>
  </g>
</svg>
