<?xml version="1.0" encoding="UTF-8" standalone="no"?>
<!-- Created with Inkscape (http://www.inkscape.org/) -->

<svg
   xmlns:dc="http://purl.org/dc/elements/1.1/"
   xmlns:cc="http://creativecommons.org/ns#"
   xmlns:rdf="http://www.w3.org/1999/02/22-rdf-syntax-ns#"
   xmlns:svg="http://www.w3.org/2000/svg"
   xmlns="http://www.w3.org/2000/svg"
   xmlns:sodipodi="http://sodipodi.sourceforge.net/DTD/sodipodi-0.dtd"
   xmlns:inkscape="http://www.inkscape.org/namespaces/inkscape"
   width="224.25"
   height="312.78125"
   id="svg18947"
   version="1.1"
   inkscape:version="0.91 r13725"
   sodipodi:docname="4-Club04.svg">
  <sodipodi:namedview
     id="base"
     pagecolor="#ffffff"
     bordercolor="#666666"
     borderopacity="1.0"
     inkscape:pageopacity="0.0"
     inkscape:pageshadow="2"
     inkscape:zoom="2.736328"
     inkscape:cx="105.13084"
     inkscape:cy="156.39062"
     inkscape:document-units="px"
     inkscape:current-layer="g73"
     showgrid="false"
     fit-margin-top="0"
     fit-margin-left="0"
     fit-margin-right="0"
     fit-margin-bottom="0"
     inkscape:window-width="1440"
     inkscape:window-height="790"
     inkscape:window-x="0"
     inkscape:window-y="0"
     inkscape:window-maximized="1"
     inkscape:snap-global="true"
     inkscape:snap-bbox="true"
     inkscape:bbox-paths="true"
     inkscape:bbox-nodes="true"
     inkscape:snap-bbox-edge-midpoints="true"
     inkscape:snap-bbox-midpoints="true"
     inkscape:snap-object-midpoints="true"
     inkscape:snap-center="true"
     showguides="true">
    <sodipodi:guide
       id="guide41943"
       orientation="312.7813,0"
       position="0.0,0" />
    <sodipodi:guide
       id="guide41945"
       orientation="312.7813,0"
       position="28.0313,0" />
    <sodipodi:guide
       id="guide41947"
       orientation="312.7813,0"
       position="56.0625,0" />
    <sodipodi:guide
       id="guide41949"
       orientation="312.7813,0"
       position="84.0938,0" />
    <sodipodi:guide
       id="guide41951"
       orientation="312.7813,0"
       position="112.125,0" />
    <sodipodi:guide
       id="guide41953"
       orientation="312.7813,0"
       position="140.1563,0" />
    <sodipodi:guide
       id="guide41955"
       orientation="312.7813,0"
       position="168.1875,0" />
    <sodipodi:guide
       id="guide41957"
       orientation="312.7813,0"
       position="196.2188,0" />
    <sodipodi:guide
       id="guide41959"
       orientation="312.7813,0"
       position="224.25,0" />
    <sodipodi:guide
       id="guide41961"
       orientation="0,224.25"
       position="0,0.0" />
    <sodipodi:guide
       id="guide41963"
       orientation="0,224.25"
       position="0,156.3906" />
    <sodipodi:guide
       id="guide41965"
       orientation="0,224.25"
       position="0,312.7813" />
    <inkscape:grid
       type="xygrid"
       id="grid3753" />
  </sodipodi:namedview>
  <defs
     id="defs18949" />
  <metadata
     id="metadata18952">
    <rdf:RDF>
      <cc:Work
         rdf:about="">
        <dc:format>image/svg+xml</dc:format>
        <dc:type
           rdf:resource="http://purl.org/dc/dcmitype/StillImage" />
        <dc:title />
      </cc:Work>
    </rdf:RDF>
  </metadata>
  <g
     transform="translate(-247.87401,-381.68621)"
     id="layer1"
     inkscape:groupmode="layer"
     inkscape:label="Layer 1">
    <g
       inkscape:export-ydpi="70"
       inkscape:export-xdpi="70"
       inkscape:export-filename="C:\Users\MXY\Documents\SVG Deck(4-19-2011)\Finalized\Colorized - SVG_Vector_Playing_Cards_Version_1.3\COMBINED TEST.png"
       transform="translate(266.9872,-359.37811)"
       id="g10477"
       style="display:inline">
      <path
         inkscape:connector-curvature="0"
         style="fill:#008000;fill-opacity:1;display:inline"
         id="path7104-3"
         d="m 3.9845005,792.91459 0,-2.67244 2.4557595,0 0,-4.4043 -12.2787975,0 0,-3.10745 13.2858355,-20.04329 2.1710065,0.01 0,20.03578 3.7558445,0 0,3.10755 -3.7558445,0 -0.0722,4.4042 2.0585265,0 0,2.67244 z m 2.4557595,-22.89215 -8.43524,12.70796 8.43524,0 z" />
      <path
         inkscape:connector-curvature="0"
         style="fill:#008000;fill-opacity:1;display:inline"
         id="path7159-2"
         d="m 182.16374,1001.025 0,2.6725 -2.45575,0 0,4.4042 12.27875,0 0,3.1074 -13.28585,20.0434 -2.17094,-0.01 0,-20.0359 -3.75592,0 0,-3.1075 3.75592,0 0.0722,-4.4042 -2.05855,0 0,-2.6725 z m -2.45575,22.8922 8.43524,-12.7081 -8.43524,0 z" />
      <g
         id="g10143"
         transform="matrix(0.95,0,0,0.95,4.650593,44.84849)">
        <path
           d="m 136.14498,826.3471 c 2.879,-5.7756 4.9759,-11.701 5.3481,-18.0373 0.3416,-2.3317 -1.0746,-2.3708 -1.2881,-0.7286 -4.0764,15.5927 -25.7627,11.3704 -25.0171,-3.2966 0.605,-11.8947 12.4195,-14.4537 18.5823,-10.5645 2.4336,1.4328 2.2961,0.5746 0.9679,-0.9117 -9.1548,-10.2115 -3.6101,-23.3618 8.7612,-23.6025 13.37955,0.7935 16.85125,14.8699 8.64415,23.1484 -1.0206,0.9946 -3.2835,4.1913 0.123,1.9563 8.2869,-5.888 19.7874,0.4428 19.5528,9.5207 -0.4328,16.7389 -20.8391,17.9873 -25.20325,4.0058 -0.4198,-1.5502 -1.6291,-2.3287 -1.295,0.3042 0.6049,4.7667 1.8565,11.9535 5.43735,18.2058 z"
           id="path3251"
           style="fill:#008000;fill-opacity:1;display:inline"
           inkscape:connector-curvature="0" />
        <path
           d="m 35.15919,826.3471 c 2.879,-5.7756 4.9759,-11.701 5.3481,-18.0373 0.3416,-2.3317 -1.0746,-2.3708 -1.2881,-0.7286 -4.0764,15.5927 -25.7627,11.3704 -25.0171,-3.2966 0.605,-11.8947 12.4195,-14.4537 18.5823,-10.5645 2.4336,1.4328 2.2961,0.5746 0.9679,-0.9117 -9.1548,-10.2115 -3.6101,-23.3618 8.7612,-23.6025 13.3796,0.7935 16.8512,14.8699 8.6442,23.1484 -1.0206,0.9946 -3.2835,4.1913 0.123,1.9563 8.2868,-5.888 19.7873,0.4428 19.5527,9.5207 -0.4327,16.7389 -20.8391,17.9873 -25.2032,4.0058 -0.4198,-1.5502 -1.6291,-2.3287 -1.295,0.3042 0.6049,4.7667 1.8565,11.9535 5.4374,18.2058 z"
           id="path3253"
           style="fill:#008000;fill-opacity:1;display:inline"
           inkscape:connector-curvature="0" />
        <path
           d="m 150.84688,968.0139 c -2.879,5.7755 -4.97595,11.701 -5.34815,18.0373 -0.3416,2.3317 1.0746,2.3708 1.2881,0.7286 4.07635,-15.5928 25.76275,-11.3704 25.01715,3.2965 -0.605,11.8948 -12.4195,14.4538 -18.5823,10.5645 -2.4337,-1.4328 -2.2961,-0.5746 -0.968,0.9118 9.1548,10.2114 3.6102,23.3618 -8.76115,23.6025 -13.3796,-0.7935 -16.8512,-14.87 -8.6442,-23.1484 1.0206,-0.9946 3.2835,-4.1913 -0.123,-1.9563 -8.2868,5.888 -19.7873,-0.4428 -19.5527,-9.5207 0.4327,-16.7389 20.8391,-17.9873 25.2032,-4.0058 0.4198,1.5502 1.6291,2.3286 1.295,-0.3043 -0.6049,-4.7666 -1.8565,-11.9534 -5.4374,-18.2057 z"
           id="path3401"
           style="fill:#008000;fill-opacity:1;display:inline"
           inkscape:connector-curvature="0" />
        <path
           d="m 49.86119,968.0139 c -2.879,5.7755 -4.9759,11.701 -5.3481,18.0373 -0.3416,2.3317 1.0746,2.3708 1.2881,0.7286 4.0764,-15.5928 25.7627,-11.3704 25.0171,3.2965 -0.605,11.8948 -12.4195,14.4538 -18.5823,10.5645 -2.4336,-1.4328 -2.2961,-0.5746 -0.9679,0.9118 9.1548,10.2114 3.6101,23.3618 -8.7612,23.6025 -13.3796,-0.7935 -16.8512,-14.87 -8.6442,-23.1484 1.0206,-0.9946 3.2835,-4.1913 -0.123,-1.9563 -8.2868,5.888 -19.7873,-0.4428 -19.5527,-9.5207 0.4327,-16.7389 20.8391,-17.9873 25.2032,-4.0058 0.4198,1.5502 1.6291,2.3286 1.295,-0.3043 -0.6049,-4.7666 -1.8565,-11.9534 -5.4374,-18.2057 z"
           id="path3403"
           style="fill:#008000;fill-opacity:1;display:inline"
           inkscape:connector-curvature="0" />
      </g>
      <path
         inkscape:connector-curvature="0"
         style="fill:#008000;fill-opacity:1;display:inline"
         id="path3458"
         d="m -0.2446715,820.51048 c 1.132495,-2.32285 2.23459,-4.48477 2.835085,-7.03086 0.39824,-2.40122 -0.416385,-1.50907 -0.87894,0.0646 -0.68514,2.18253 -2.58647,3.17652 -4.351,3.20046 -3.202545,0.0437 -4.800065,-2.47409 -4.700505,-5.18121 -0.349695,-2.84867 2.53745,-4.86419 4.713615,-4.70896 1.636185,0.11676 3.0628,0.9995 3.926255,1.68635 0.566485,0.29953 1.1723,0.43196 0.327655,-0.34048 -1.59372,-1.74135 -2.92277,-2.81599 -2.8937,-5.42536 0.02755,-2.44976 2.121825,-5.00469 4.89763,-4.92452 3.468925,0.10023 5.0464,2.7456 5.038135,5.20648 -0.0095,1.79398 -0.90592,3.44499 -2.29083,4.46757 -0.89699,0.72779 -0.64543,1.27281 0.377815,0.58405 0.983155,-0.84739 2.153745,-1.21847 3.3675605,-1.2444 3.315975,-0.0522 4.61225,2.81333 4.422345,5.4759 -0.17803,2.49441 -2.30166,5.06198 -5.1005505,4.77118 -2.499165,-0.28643 -3.81235,-2.38441 -4.564845,-4.53796 -0.249185,-0.66035 -0.6422,-0.83866 -0.631275,0.14535 0.577315,4.80463 2.36702,7.79428 2.380035,7.79152 z" />
      <path
         inkscape:connector-curvature="0"
         style="fill:#008000;fill-opacity:1;display:inline"
         id="path3482"
         d="m 185.29788,973.70567 c -1.13249,2.32285 -2.23459,4.48476 -2.83508,7.03086 -0.39834,2.40112 0.41638,1.50907 0.87884,-0.0646 0.68514,-2.18253 2.58647,-3.17661 4.351,-3.20046 3.20255,-0.0437 4.80007,2.47399 4.70051,5.18121 0.34969,2.84867 -2.53745,4.86418 -4.71362,4.70886 -1.63618,-0.11676 -3.0628,-0.9994 -3.92625,-1.68634 -0.56649,-0.29954 -1.1723,-0.43187 -0.32766,0.34057 1.59372,1.74125 2.92277,2.8159 2.8937,5.42526 -0.0275,2.44977 -2.12182,5.0047 -4.89763,4.92461 -3.46892,-0.10023 -5.0464,-2.7456 -5.03813,-5.20657 0.01,-1.79388 0.90592,-3.44489 2.29083,-4.46747 0.89699,-0.7278 0.64543,-1.27281 -0.37782,-0.58415 -0.98315,0.84749 -2.15374,1.21846 -3.36756,1.24449 -3.31597,0.0522 -4.61225,-2.81342 -4.42234,-5.47599 0.17803,-2.49441 2.30166,-5.06197 5.10055,-4.77118 2.49916,0.28643 3.81235,2.38441 4.56484,4.53806 0.24919,0.66034 0.6422,0.83866 0.63128,-0.14545 -0.57732,-4.80453 -2.36702,-7.79418 -2.38004,-7.79142 z" />
      <path
         inkscape:connector-curvature="0"
         style="fill:#008000;fill-opacity:1;display:inline"
         id="path7104-3-2"
         d="m 181.50205,792.91459 0,-2.67244 2.45576,0 0,-4.40424 -12.2788,0 0,-3.10749 13.28584,-20.04331 2.17101,0.008 0,20.03587 3.75584,0 0,3.10749 -3.75584,0 -0.0722,4.40425 2.05852,0 0,2.67243 z m 2.45576,-22.89215 -8.43524,12.70798 8.43524,0 z" />
      <path
         inkscape:connector-curvature="0"
         style="fill:#008000;fill-opacity:1;display:inline"
         id="path7159-2-5"
         d="m 2.4561215,1001.025 0,2.6725 -2.45574999786,0 0,4.4042 12.27875049786,0 0,3.1075 -13.2858455,20.0433 -2.17094,-0.01 0,-20.0359 -3.75592,0 0,-3.1074 3.75592,0 0.0722,-4.4043 -2.058555,0 0,-2.6725 z m -2.45574999786,22.8922 8.43523999786,-12.708 -8.43523999786,0 z" />
      <path
         inkscape:connector-curvature="0"
         style="fill:#008000;fill-opacity:1;display:inline"
         id="path3458-8"
         d="m 185.29783,820.51048 c -1.13249,-2.32283 -2.23459,-4.48475 -2.83508,-7.03083 -0.39824,-2.40119 0.41638,-1.5091 0.87894,0.0648 0.68514,2.18254 2.58647,3.17656 4.351,3.20043 3.20254,0.0432 4.80006,-2.47402 4.7005,-5.1812 0.3497,-2.84866 -2.53745,-4.86417 -4.71361,-4.7089 -1.63619,0.11675 -3.0628,0.99944 -3.92626,1.68636 -0.56648,0.29954 -1.1723,0.43188 -0.32765,-0.34056 1.59372,-1.74128 2.92277,-2.81594 2.8937,-5.42527 -0.0275,-2.44977 -2.12183,-5.00473 -4.89763,-4.92457 -3.46893,0.10019 -5.0464,2.7456 -5.03814,5.2065 0.01,1.79392 0.90592,3.44497 2.29083,4.46753 0.89699,0.72779 0.64543,1.27282 -0.37781,0.58409 -0.98316,-0.84741 -2.15375,-1.21844 -3.36756,-1.24446 -3.31598,-0.052 -4.61225,2.81341 -4.42235,5.47597 0.17803,2.49443 2.30166,5.06198 5.10055,4.7712 2.49917,-0.28643 3.81235,-2.38442 4.56485,-4.53803 0.24918,-0.66034 0.6422,-0.83867 0.63127,0.14542 -0.57731,4.80455 -2.36702,7.79421 -2.38003,7.79148 z" />
      <path
         inkscape:connector-curvature="0"
         style="fill:#008000;fill-opacity:1;display:inline"
         id="path3482-6"
         d="m -0.2447285,973.70572 c 1.132495,2.32282 2.23459,4.48474 2.835085,7.03082 0.398335,2.4012 -0.416385,1.50911 -0.878845,-0.0648 -0.68514,-2.18254 -2.58647,-3.17656 -4.351,-3.20042 -3.202545,-0.0432 -4.800065,2.47402 -4.700505,5.18119 -0.349695,2.84866 2.53745,4.86417 4.713615,4.70891 1.636185,-0.11676 3.0628,-0.99945 3.926255,-1.68637 0.566485,-0.29953 1.1723,-0.43188 0.327655,0.34056 -1.59372,1.74128 -2.92277,2.81594 -2.8937,5.42528 0.02755,2.44976 2.121825,5.00473 4.89763,4.92455 3.468925,-0.10022 5.0464,-2.74559 5.038135,-5.20648 -0.0095,-1.79393 -0.90592,-3.44498 -2.29083,-4.46754 -0.89699,-0.72779 -0.64543,-1.27282 0.377815,-0.58409 0.983155,0.84741 2.153745,1.21844 3.3675605,1.24446 3.315975,0.052 4.61225,-2.8134 4.422345,-5.47597 -0.17803,-2.49442 -2.30166,-5.06198 -5.1005505,-4.77119 -2.499165,0.28642 -3.81235,2.38441 -4.564845,4.53802 -0.249185,0.66034 -0.6422,0.83867 -0.631275,-0.14541 0.577315,-4.80456 2.36702,-7.79422 2.380035,-7.79148 z" />
    </g>
    <g
       transform="translate(-0.02084198,3.3503876e-5)"
       id="g73">
      <text
         inkscape:transform-center-y="15.80363"
         xml:space="preserve"
         style="font-style:normal;font-variant:normal;font-weight:normal;font-stretch:normal;font-size:24.96722221px;line-height:125%;font-family:'Card Characters';-inkscape-font-specification:'Card Characters, Normal';text-align:start;letter-spacing:0px;word-spacing:0px;writing-mode:lr-tb;text-anchor:start;fill:none;stroke:#000000;stroke-width:0.66144627;stroke-opacity:1"
         x="259.36465"
         y="547.17743"
         id="text70860-7"
         sodipodi:linespacing="125%"><tspan
           style="stroke-width:0.66144627"
           y="547.17743"
           x="259.36465"
           id="tspan3766"
           sodipodi:role="line">14</tspan></text>
      <text
         inkscape:transform-center-y="-15.803634"
         sodipodi:linespacing="125%"
         id="text3768"
         y="-528.9762"
         x="-460.67517"
         style="font-style:normal;font-variant:normal;font-weight:normal;font-stretch:normal;font-size:24.96725082px;line-height:125%;font-family:'Card Characters';-inkscape-font-specification:'Card Characters, Normal';text-align:start;letter-spacing:0px;word-spacing:0px;writing-mode:lr-tb;text-anchor:start;fill:none;stroke:#000000;stroke-width:0.66144705;stroke-opacity:1"
         xml:space="preserve"
         transform="scale(-1,-1)"
         inkscape:transform-center-x="1.8632802e-05"><tspan
           style="stroke-width:0.66144705"
           sodipodi:role="line"
           id="tspan3770"
           x="-460.67517"
           y="-528.9762">14</tspan></text>
    </g>
  </g>
</svg>
