<?xml version="1.0" encoding="UTF-8" standalone="no"?>
<!-- Created with Inkscape (http://www.inkscape.org/) -->

<svg
   xmlns:dc="http://purl.org/dc/elements/1.1/"
   xmlns:cc="http://creativecommons.org/ns#"
   xmlns:rdf="http://www.w3.org/1999/02/22-rdf-syntax-ns#"
   xmlns:svg="http://www.w3.org/2000/svg"
   xmlns="http://www.w3.org/2000/svg"
   xmlns:sodipodi="http://sodipodi.sourceforge.net/DTD/sodipodi-0.dtd"
   xmlns:inkscape="http://www.inkscape.org/namespaces/inkscape"
   width="224.25"
   height="312.78125"
   id="svg18947"
   version="1.1"
   inkscape:version="0.48+devel r"
   sodipodi:docname="5-Club05.svg">
  <sodipodi:namedview
     id="base"
     pagecolor="#ffffff"
     bordercolor="#666666"
     borderopacity="1.0"
     inkscape:pageopacity="0.0"
     inkscape:pageshadow="2"
     inkscape:zoom="2"
     inkscape:cx="105.13084"
     inkscape:cy="156.39062"
     inkscape:document-units="px"
     inkscape:current-layer="layer1"
     showgrid="false"
     fit-margin-top="0"
     fit-margin-left="0"
     fit-margin-right="0"
     fit-margin-bottom="0"
     inkscape:window-width="2560"
     inkscape:window-height="1606"
     inkscape:window-x="0"
     inkscape:window-y="31"
     inkscape:window-maximized="1"
     inkscape:snap-global="true"
     inkscape:snap-bbox="true"
     inkscape:bbox-paths="true"
     inkscape:bbox-nodes="true"
     inkscape:snap-bbox-edge-midpoints="true"
     inkscape:snap-bbox-midpoints="true"
     inkscape:snap-object-midpoints="true"
     inkscape:snap-center="true">
    <sodipodi:guide
       id="guide41854"
       orientation="312.7813,0"
       position="0.0,0" />
    <sodipodi:guide
       id="guide41856"
       orientation="312.7813,0"
       position="28.0313,0" />
    <sodipodi:guide
       id="guide41858"
       orientation="312.7813,0"
       position="56.0625,0" />
    <sodipodi:guide
       id="guide41860"
       orientation="312.7813,0"
       position="84.0938,0" />
    <sodipodi:guide
       id="guide41862"
       orientation="312.7813,0"
       position="112.125,0" />
    <sodipodi:guide
       id="guide41864"
       orientation="312.7813,0"
       position="140.1563,0" />
    <sodipodi:guide
       id="guide41866"
       orientation="312.7813,0"
       position="168.1875,0" />
    <sodipodi:guide
       id="guide41868"
       orientation="312.7813,0"
       position="196.2188,0" />
    <sodipodi:guide
       id="guide41872"
       orientation="0,224.25"
       position="0,0.0" />
    <sodipodi:guide
       id="guide41874"
       orientation="0,224.25"
       position="201.29386,156.3906" />
    <sodipodi:guide
       id="guide41876"
       orientation="0,224.25"
       position="0,312.7813" />
  </sodipodi:namedview>
  <defs
     id="defs18949" />
  <metadata
     id="metadata18952">
    <rdf:RDF>
      <cc:Work
         rdf:about="">
        <dc:format>image/svg+xml</dc:format>
        <dc:type
           rdf:resource="http://purl.org/dc/dcmitype/StillImage" />
        <dc:title />
      </cc:Work>
    </rdf:RDF>
  </metadata>
  <g
     transform="translate(-247.87401,-381.68621)"
     id="layer1"
     inkscape:groupmode="layer"
     inkscape:label="Layer 1">
    <g
       inkscape:export-ydpi="70"
       inkscape:export-xdpi="70"
       inkscape:export-filename="C:\Users\MXY\Documents\SVG Deck(4-19-2011)\Finalized\Colorized - SVG_Vector_Playing_Cards_Version_1.3\COMBINED TEST.png"
       transform="translate(267.49802,-681.70063)"
       id="g10493"
       style="display:inline">
      <path
         inkscape:connector-curvature="0"
         style="fill:#008000;fill-opacity:1;display:inline"
         id="path7106-7"
         d="m -5.689801,1107.3281 3.059095,-0.027 c 0.581685,1.8469 1.8734,3.7299 3.626055,4.2498 4.951305,1.1626 8.13903,-1.603 9.18897,-4.7943 1.273095,-3.8699 -0.0285,-9.3057 -3.43672,-11.2364 -2.82682,-1.6014 -7.025155,-0.2508 -8.9509,3.1717 l -2.14434,-1.3108 1.15083,-12.7507 13.993975,0 0,3.0133 -11.340815,0 -0.177935,5.3115 c 2.437035,-1.712 6.192195,-1.6953 8.631035,-0.4939 4.62156,2.203 6.767895,7.2132 5.868435,13.1201 -1.24488,5.874 -3.98753,9.2022 -10.181625,9.6804 -6.88237,0.06 -9.313515,-4.6721 -9.28606,-7.9336 z" />
      <path
         inkscape:connector-curvature="0"
         style="fill:#008000;fill-opacity:1;display:inline"
         id="path7122-6"
         d="m 190.8367,1332.2268 -3.0591,0.027 c -0.58178,-1.8469 -1.8734,-3.7299 -3.62615,-4.2498 -4.95121,-1.1627 -8.13903,1.603 -9.18887,4.7943 -1.27319,3.8699 0.0285,9.3057 3.43662,11.2363 2.82682,1.6015 7.02525,0.2509 8.9509,-3.1716 l 2.14444,1.3108 -1.15083,12.7507 -13.99407,0 0,-3.0133 11.34091,0 0.17793,-5.3115 c -2.43703,1.712 -6.19219,1.6953 -8.63113,0.4939 -4.62156,-2.203 -6.7678,-7.2132 -5.86843,-13.1201 1.24488,-5.874 3.98753,-9.2022 10.18162,-9.6805 6.88247,-0.06 9.31352,4.6722 9.28616,7.9337 z" />
      <g
         id="g8193"
         transform="matrix(0.95,0,0,0.95,3.8830793,60.788723)">
        <path
           d="m 85.15006,1248.3481 c 2.879,-5.7756 4.9759,-11.701 5.3481,-18.0374 0.3416,-2.3317 -1.0746,-2.3708 -1.2881,-0.7286 -4.0764,15.5928 -25.7627,11.3705 -25.0171,-3.2965 0.605,-11.8947 12.4195,-14.4537 18.5823,-10.5645 2.4336,1.4328 2.2961,0.5746 0.9679,-0.9118 -9.1548,-10.2114 -3.6101,-23.3617 8.7612,-23.6024 13.3796,0.7934 16.8512,14.8699 8.6442,23.1483 -1.0206,0.9947 -3.2835,4.1914 0.123,1.9563 8.2868,-5.888 19.7873,0.4429 19.5527,9.5208 -0.4327,16.7389 -20.8391,17.9873 -25.2032,4.0058 -0.4198,-1.5502 -1.6291,-2.3287 -1.295,0.3042 0.6049,4.7667 1.8565,11.9535 5.4374,18.2058 z"
           id="path3245"
           style="fill:#008000;fill-opacity:1;display:inline"
           inkscape:connector-curvature="0" />
        <path
           d="m 136.145,1149.1548 c 2.879,-5.7756 4.9759,-11.701 5.3481,-18.0374 0.3416,-2.3317 -1.0746,-2.3708 -1.2881,-0.7286 -4.0764,15.5928 -25.7627,11.3705 -25.0171,-3.2965 0.605,-11.8947 12.4195,-14.4537 18.5823,-10.5645 2.4336,1.4328 2.2961,0.5746 0.9679,-0.9118 -9.1548,-10.2114 -3.6101,-23.3617 8.7612,-23.6024 13.3796,0.7934 16.8512,14.8699 8.6442,23.1483 -1.0206,0.9947 -3.2835,4.1914 0.123,1.9563 8.2868,-5.888 19.7873,0.4429 19.5527,9.5208 -0.4327,16.7389 -20.8391,17.9873 -25.2032,4.0058 -0.4198,-1.5502 -1.6291,-2.3287 -1.295,0.3042 0.6049,4.7667 1.8565,11.9535 5.4374,18.2058 z"
           id="path3247"
           style="fill:#008000;fill-opacity:1;display:inline"
           inkscape:connector-curvature="0" />
        <path
           d="m 35.71716,1149.1548 c 2.879,-5.7756 4.9759,-11.701 5.3481,-18.0374 0.3416,-2.3317 -1.0746,-2.3708 -1.2881,-0.7286 -4.0764,15.5928 -25.7627,11.3705 -25.0171,-3.2965 0.605,-11.8947 12.4195,-14.4537 18.5823,-10.5645 2.4336,1.4328 2.2961,0.5746 0.9679,-0.9118 -9.1548,-10.2114 -3.6101,-23.3617 8.7612,-23.6024 13.3796,0.7934 16.8512,14.8699 8.6442,23.1483 -1.0206,0.9947 -3.2835,4.1914 0.123,1.9563 8.2868,-5.888 19.7873,0.4429 19.5527,9.5208 -0.4327,16.7389 -20.8391,17.9873 -25.2032,4.0058 -0.4198,-1.5502 -1.6291,-2.3287 -1.295,0.3042 0.6049,4.7667 1.8565,11.9535 5.4374,18.2058 z"
           id="path3249"
           style="fill:#008000;fill-opacity:1;display:inline"
           inkscape:connector-curvature="0" />
        <path
           d="m 150.84686,1290.8216 c -2.879,5.7756 -4.9759,11.701 -5.3481,18.0373 -0.3416,2.3318 1.0746,2.3709 1.2881,0.7286 4.0764,-15.5928 25.7627,-11.3703 25.0171,3.2965 -0.605,11.8948 -12.4195,14.4538 -18.5823,10.5645 -2.4336,-1.4328 -2.2961,-0.5746 -0.9679,0.9118 9.1548,10.2114 3.6101,23.3617 -8.7612,23.6024 -13.3796,-0.7934 -16.8512,-14.8699 -8.6442,-23.1483 1.0206,-0.9946 3.2835,-4.1912 -0.123,-1.9563 -8.2868,5.888 -19.7873,-0.4428 -19.5527,-9.5207 0.4327,-16.7388 20.8391,-17.9873 25.2032,-4.0058 0.4198,1.5503 1.6291,2.3286 1.295,-0.3042 -0.6049,-4.7666 -1.8565,-11.9534 -5.4374,-18.2057 z"
           id="path3397"
           style="fill:#008000;fill-opacity:1;display:inline"
           inkscape:connector-curvature="0" />
        <path
           d="m 50.41916,1290.8216 c -2.879,5.7756 -4.9759,11.701 -5.3481,18.0373 -0.3416,2.3318 1.0746,2.3709 1.2881,0.7286 4.0764,-15.5928 25.7627,-11.3703 25.0171,3.2965 -0.605,11.8948 -12.4195,14.4538 -18.5823,10.5645 -2.4336,-1.4328 -2.2961,-0.5746 -0.9679,0.9118 9.1548,10.2114 3.6101,23.3617 -8.7612,23.6024 -13.3796,-0.7934 -16.8512,-14.8699 -8.6442,-23.1483 1.0206,-0.9946 3.2835,-4.1912 -0.123,-1.9563 -8.2868,5.888 -19.7873,-0.4428 -19.5527,-9.5207 0.4327,-16.7388 20.8391,-17.9873 25.2032,-4.0058 0.4198,1.5503 1.6291,2.3286 1.295,-0.3042 -0.6049,-4.7666 -1.8565,-11.9534 -5.4374,-18.2057 z"
           id="path3399"
           style="fill:#008000;fill-opacity:1;display:inline"
           inkscape:connector-curvature="0" />
      </g>
      <path
         inkscape:connector-curvature="0"
         style="fill:#008000;fill-opacity:1;display:inline"
         id="path3460"
         d="m -0.027516,1142.9403 c 1.132495,-2.3228 2.23459,-4.4847 2.835085,-7.0308 0.39824,-2.4012 -0.416385,-1.5092 -0.87894,0.065 -0.68514,2.1825 -2.58647,3.1765 -4.351,3.2004 -3.202545,0.044 -4.800065,-2.474 -4.700505,-5.1812 -0.349695,-2.8486 2.53745,-4.8641 4.713615,-4.7089 1.636185,0.1167 3.0628,0.9995 3.926255,1.6863 0.566485,0.2996 1.1723,0.4319 0.327655,-0.3405 -1.59372,-1.7413 -2.92277,-2.8159 -2.8937,-5.4253 0.02755,-2.4498 2.121825,-5.0047 4.89763,-4.9245 3.468925,0.1001 5.0464,2.7456 5.038135,5.2065 -0.0095,1.7938 -0.90592,3.4449 -2.29083,4.4675 -0.89699,0.7278 -0.64543,1.2728 0.377815,0.5841 0.983155,-0.8474 2.153745,-1.2185 3.36756,-1.2445 3.315975,-0.052 4.61225,2.8134 4.422345,5.476 -0.17803,2.4944 -2.30166,5.062 -5.10055,4.7712 -2.499165,-0.2865 -3.81235,-2.3844 -4.564845,-4.538 -0.249185,-0.6603 -0.6422,-0.8388 -0.631275,0.1454 0.577315,4.8046 2.36702,7.7942 2.380035,7.7915 z" />
      <path
         inkscape:connector-curvature="0"
         style="fill:#008000;fill-opacity:1;display:inline"
         id="path3480"
         d="m 185.02973,1296.8435 c -1.1325,2.3228 -2.23459,4.4848 -2.83509,7.0308 -0.39824,2.4012 0.41639,1.5091 0.87894,-0.065 0.68514,-2.1826 2.58647,-3.1766 4.351,-3.2004 3.20255,-0.043 4.80007,2.474 4.70051,5.1812 0.34969,2.8487 -2.53745,4.8642 -4.71362,4.7089 -1.63618,-0.1168 -3.0628,-0.9994 -3.92625,-1.6864 -0.56649,-0.2995 -1.1723,-0.4319 -0.32766,0.3406 1.59372,1.7412 2.92277,2.8159 2.8937,5.4253 -0.0276,2.4497 -2.12182,5.0046 -4.89763,4.9245 -3.46892,-0.1002 -5.0464,-2.7456 -5.03813,-5.2065 0.01,-1.7939 0.90592,-3.445 2.29083,-4.4675 0.89699,-0.7278 0.64543,-1.2729 -0.37782,-0.5841 -0.98315,0.8474 -2.15374,1.2184 -3.36756,1.2445 -3.31597,0.052 -4.61225,-2.8135 -4.42234,-5.476 0.17803,-2.4944 2.30166,-5.062 5.10055,-4.7712 2.49916,0.2864 3.81235,2.3844 4.56484,4.538 0.24919,0.6604 0.6422,0.8387 0.63128,-0.1454 -0.57732,-4.8045 -2.36702,-7.7942 -2.38004,-7.7915 z" />
      <path
         inkscape:connector-curvature="0"
         style="fill:#008000;fill-opacity:1;display:inline"
         id="path7106-7-2"
         d="m 171.02349,1107.3281 3.05909,-0.027 c 0.58169,1.8469 1.8734,3.7299 3.62606,4.2498 4.9513,1.1626 8.13903,-1.603 9.18897,-4.7943 1.27309,-3.8699 -0.0285,-9.3057 -3.43672,-11.2364 -2.82682,-1.6015 -7.02516,-0.2508 -8.9509,3.1717 l -2.14434,-1.3108 1.15083,-12.7507 13.99397,0 0,3.0132 -11.34081,0 -0.17794,5.3116 c 2.43704,-1.712 6.1922,-1.6953 8.63104,-0.4939 4.62156,2.203 6.76789,7.2131 5.86843,13.12 -1.24488,5.8741 -3.98753,9.2023 -10.18162,9.6805 -6.88237,0.06 -9.31352,-4.6721 -9.28606,-7.9336 z" />
      <path
         inkscape:connector-curvature="0"
         style="fill:#008000;fill-opacity:1;display:inline"
         id="path7122-6-6"
         d="m 13.834153,1332.2268 -3.059095,0.027 c -0.58178,-1.8469 -1.8734005,-3.73 -3.6261505,-4.2498 -4.95121,-1.1627 -8.13903,1.6029 -9.188875,4.7943 -1.27319,3.8698 0.0285,9.3057 3.436625,11.2363 2.82682,1.6015 7.02525,0.2509 8.9509005,-3.1716 l 2.144435,1.3108 -1.15083,12.7507 -13.9940705,0 0,-3.0133 11.34091,0 0.177935,-5.3115 c -2.437035,1.712 -6.192195,1.6952 -8.63113,0.4939 -4.62156,-2.203 -6.7678,-7.2132 -5.868435,-13.1201 1.24488,-5.874 3.98753,-9.2022 10.181625,-9.6805 6.8824655,-0.06 9.3135155,4.6722 9.2861555,7.9337 z" />
      <path
         inkscape:connector-curvature="0"
         style="fill:#008000;fill-opacity:1;display:inline"
         id="path3460-5"
         d="m 185.02972,1142.9403 c -1.1325,-2.3229 -2.23459,-4.4848 -2.83509,-7.0308 -0.39824,-2.4012 0.41639,-1.5092 0.87894,0.065 0.68514,2.1826 2.58647,3.1766 4.351,3.2005 3.20255,0.044 4.80007,-2.474 4.70051,-5.1812 0.34969,-2.8487 -2.53745,-4.8641 -4.71362,-4.7089 -1.63618,0.1167 -3.0628,0.9994 -3.92625,1.6863 -0.56649,0.2996 -1.1723,0.4319 -0.32766,-0.3405 1.59372,-1.7413 2.92277,-2.8159 2.8937,-5.4253 -0.0276,-2.4498 -2.12182,-5.0047 -4.89763,-4.9245 -3.46892,0.1001 -5.0464,2.7456 -5.03813,5.2065 0.01,1.7938 0.90592,3.4449 2.29083,4.4675 0.89699,0.7277 0.64543,1.2728 -0.37782,0.5841 -0.98315,-0.8474 -2.15374,-1.2185 -3.36756,-1.2445 -3.31597,-0.052 -4.61225,2.8134 -4.42234,5.476 0.17803,2.4944 2.30166,5.062 5.10055,4.7712 2.49916,-0.2865 3.81235,-2.3844 4.56484,-4.5381 0.24919,-0.6602 0.6422,-0.8387 0.63128,0.1454 -0.57732,4.8046 -2.36702,7.7943 -2.38004,7.7916 z" />
      <path
         inkscape:connector-curvature="0"
         style="fill:#008000;fill-opacity:1;display:inline"
         id="path3480-3"
         d="m -0.0274875,1296.8435 c 1.132495,2.3228 2.23459,4.4848 2.835085,7.0308 0.39824,2.4012 -0.416385,1.5091 -0.87894,-0.065 -0.68514,-2.1826 -2.58647,-3.1766 -4.351,-3.2004 -3.202545,-0.043 -4.800065,2.474 -4.700505,5.1812 -0.349695,2.8487 2.53745,4.8641 4.713615,4.7089 1.636185,-0.1168 3.0628,-0.9995 3.926255,-1.6864 0.566485,-0.2995 1.1723,-0.4319 0.327655,0.3406 -1.59372,1.7412 -2.92277,2.8159 -2.8937,5.4253 0.02755,2.4497 2.121825,5.0046 4.89763,4.9245 3.468925,-0.1002 5.0464,-2.7456 5.038135,-5.2065 -0.0095,-1.7939 -0.90592,-3.445 -2.29083,-4.4676 -0.89699,-0.7278 -0.64543,-1.2728 0.377815,-0.584 0.983155,0.8474 2.153745,1.2184 3.3675605,1.2445 3.315975,0.052 4.61225,-2.8135 4.422345,-5.476 -0.17803,-2.4944 -2.30166,-5.062 -5.1005505,-4.7712 -2.499165,0.2864 -3.81235,2.3844 -4.564845,4.538 -0.249185,0.6603 -0.6422,0.8387 -0.631275,-0.1454 0.577315,-4.8046 2.36702,-7.7943 2.380035,-7.7915 z" />
    </g>
    <g
       transform="translate(-0.02084198,3.3503876e-5)"
       id="g73">
      <text
         inkscape:transform-center-y="-1.8280388e-05"
         inkscape:transform-center-x="15.803627"
         transform="matrix(0,1,-1,0,0,0)"
         xml:space="preserve"
         style="font-size:24.96722221px;font-style:normal;font-variant:normal;font-weight:normal;font-stretch:normal;text-align:start;line-height:125%;letter-spacing:0px;word-spacing:0px;writing-mode:lr-tb;text-anchor:start;fill:none;stroke:#000000;stroke-width:0.66144627;stroke-opacity:1;font-family:Card Characters;-inkscape-font-specification:'Card Characters, Normal'"
         x="521.39386"
         y="-260.38971"
         id="text70860-7"
         sodipodi:linespacing="125%"><tspan
           style="stroke-width:0.66144627"
           y="-260.38971"
           x="521.39386"
           id="tspan3766"
           sodipodi:role="line">15</tspan></text>
      <text
         inkscape:transform-center-y="-1.5008926e-05"
         sodipodi:linespacing="125%"
         id="text3768"
         y="459.64999"
         x="-554.75983"
         style="font-size:24.96725082px;font-style:normal;font-variant:normal;font-weight:normal;font-stretch:normal;text-align:start;line-height:125%;letter-spacing:0px;word-spacing:0px;writing-mode:lr-tb;text-anchor:start;fill:none;stroke:#000000;stroke-width:0.66144705;stroke-opacity:1;font-family:Card Characters;-inkscape-font-specification:'Card Characters, Normal'"
         xml:space="preserve"
         transform="matrix(0,-1,1,0,0,0)"
         inkscape:transform-center-x="-15.803641"><tspan
           style="stroke-width:0.66144705"
           sodipodi:role="line"
           id="tspan3770"
           x="-554.75983"
           y="459.64999">15</tspan></text>
    </g>
  </g>
</svg>
