<?xml version="1.0" encoding="UTF-8" standalone="no"?>
<!-- Created with Inkscape (http://www.inkscape.org/) -->

<svg
   xmlns:dc="http://purl.org/dc/elements/1.1/"
   xmlns:cc="http://creativecommons.org/ns#"
   xmlns:rdf="http://www.w3.org/1999/02/22-rdf-syntax-ns#"
   xmlns:svg="http://www.w3.org/2000/svg"
   xmlns="http://www.w3.org/2000/svg"
   xmlns:xlink="http://www.w3.org/1999/xlink"
   xmlns:sodipodi="http://sodipodi.sourceforge.net/DTD/sodipodi-0.dtd"
   xmlns:inkscape="http://www.inkscape.org/namespaces/inkscape"
   width="224.25"
   height="312.78125"
   id="svg18947"
   version="1.1"
   inkscape:version="0.48.3.1 r9886"
   sodipodi:docname="56-Spade02.svg">
  <defs
     id="defs18949">
    <linearGradient
       id="linearGradient3006">
      <stop
         id="stop3008"
         offset="0"
         style="stop-color:#ffffff;stop-opacity:1;" />
      <stop
         style="stop-color:#7f7f7f;stop-opacity:1;"
         offset="0.37675071"
         id="stop3014" />
      <stop
         id="stop3016"
         offset="0.80194807"
         style="stop-color:#ffffff;stop-opacity:1;" />
      <stop
         id="stop3010"
         offset="1"
         style="stop-color:#cccccc;stop-opacity:1" />
    </linearGradient>
    <linearGradient
       id="linearGradient3804">
      <stop
         id="stop3806"
         offset="0"
         style="stop-color:#000000;stop-opacity:1;" />
      <stop
         style="stop-color:#333333;stop-opacity:1"
         offset="0.5"
         id="stop3812" />
      <stop
         id="stop3808"
         offset="1"
         style="stop-color:#000000;stop-opacity:1;" />
    </linearGradient>
    <linearGradient
       id="linearGradient3833">
      <stop
         id="stop3835"
         offset="0"
         style="stop-color:#000000;stop-opacity:1;" />
      <stop
         style="stop-color:#333333;stop-opacity:1"
         offset="0.5"
         id="stop3841" />
      <stop
         id="stop3837"
         offset="1"
         style="stop-color:#000000;stop-opacity:1" />
    </linearGradient>
    <linearGradient
       id="linearGradient3851">
      <stop
         id="stop3853"
         offset="0"
         style="stop-color:#808080;stop-opacity:1;" />
      <stop
         style="stop-color:#ffffff;stop-opacity:1;"
         offset="0.5"
         id="stop3859" />
      <stop
         id="stop3855"
         offset="1"
         style="stop-color:#808080;stop-opacity:1;" />
    </linearGradient>
    <radialGradient
       gradientUnits="userSpaceOnUse"
       gradientTransform="matrix(0.97241988,-0.00350785,0.00204639,0.40929875,4026.4071,-290.65137)"
       r="74.726646"
       fy="208.92761"
       fx="44.149761"
       cy="208.92761"
       cx="44.149761"
       id="radialGradient3939-7-7"
       xlink:href="#linearGradient3933-4-3"
       inkscape:collect="always" />
    <linearGradient
       id="linearGradient3933-4-3"
       inkscape:collect="always">
      <stop
         id="stop3935-0-7"
         offset="0"
         style="stop-color:#000000;stop-opacity:1;" />
      <stop
         id="stop3937-9-2"
         offset="1"
         style="stop-color:#000000;stop-opacity:0;" />
    </linearGradient>
    <linearGradient
       gradientTransform="translate(3914.848,-255.2825)"
       gradientUnits="userSpaceOnUse"
       y2="294.38422"
       x2="178.15625"
       y1="294.38422"
       x1="81.90625"
       id="linearGradient3012-2-7"
       xlink:href="#linearGradient3006-1-5"
       inkscape:collect="always" />
    <linearGradient
       id="linearGradient3006-1-5">
      <stop
         id="stop3008-6-4"
         offset="0"
         style="stop-color:#ffffff;stop-opacity:1;" />
      <stop
         style="stop-color:#7f7f7f;stop-opacity:1;"
         offset="0.37675071"
         id="stop3014-8-12" />
      <stop
         id="stop3016-5-0"
         offset="0.80194807"
         style="stop-color:#ffffff;stop-opacity:1;" />
      <stop
         id="stop3010-7-0"
         offset="1"
         style="stop-color:#cccccc;stop-opacity:1" />
    </linearGradient>
    <linearGradient
       gradientUnits="userSpaceOnUse"
       y2="394.69629"
       x2="156.7487"
       y1="394.69629"
       x1="65.223801"
       id="linearGradient3810-9-1"
       xlink:href="#linearGradient3804-6-4"
       inkscape:collect="always"
       gradientTransform="translate(3914.848,-376.2825)" />
    <linearGradient
       id="linearGradient3804-6-4">
      <stop
         id="stop3806-1-6"
         offset="0"
         style="stop-color:#000000;stop-opacity:1;" />
      <stop
         style="stop-color:#333333;stop-opacity:1"
         offset="0.5"
         id="stop3812-4-0" />
      <stop
         id="stop3808-2-7"
         offset="1"
         style="stop-color:#000000;stop-opacity:1;" />
    </linearGradient>
    <radialGradient
       gradientUnits="userSpaceOnUse"
       gradientTransform="matrix(0.79138519,4.4166814e-8,0,0.48100739,3940.8627,-177.7307)"
       r="43.141743"
       fy="428.49252"
       fx="114.59315"
       cy="428.49252"
       cx="114.59315"
       id="radialGradient3030-7-1"
       xlink:href="#linearGradient3024-3-7"
       inkscape:collect="always" />
    <linearGradient
       id="linearGradient3024-3-7"
       inkscape:collect="always">
      <stop
         style="stop-color:#000000;stop-opacity:1"
         offset="0"
         id="stop3028-2-7" />
      <stop
         style="stop-color:#242424;stop-opacity:1;"
         offset="1"
         id="stop3026-2-7" />
    </linearGradient>
    <linearGradient
       y2="390.78296"
       x2="183.7796"
       y1="375.92633"
       x1="145.60164"
       gradientUnits="userSpaceOnUse"
       id="linearGradient3113-4-7"
       xlink:href="#linearGradient3101-2-3"
       inkscape:collect="always"
       gradientTransform="translate(3914.848,-376.2825)" />
    <linearGradient
       id="linearGradient3101-2-3"
       inkscape:collect="always">
      <stop
         id="stop3103-4-3"
         offset="0"
         style="stop-color:#000000;stop-opacity:1;" />
      <stop
         id="stop3105-5-5"
         offset="1"
         style="stop-color:#000000;stop-opacity:0;" />
    </linearGradient>
    <linearGradient
       gradientUnits="userSpaceOnUse"
       y2="405.19611"
       x2="116.81388"
       y1="395.66125"
       x1="113.00574"
       id="linearGradient3107-7-9"
       xlink:href="#linearGradient3101-2-3"
       inkscape:collect="always"
       gradientTransform="translate(3914.848,-376.2825)" />
    <linearGradient
       y2="459.14062"
       x2="-128.625"
       y1="459.14062"
       x1="-158.78125"
       gradientTransform="matrix(0.43846429,7.9081918e-4,-6.5324466e-4,0.53080568,903.27012,-3758.3554)"
       gradientUnits="userSpaceOnUse"
       id="linearGradient3086-3-9"
       xlink:href="#linearGradient3833-1-81"
       inkscape:collect="always" />
    <linearGradient
       id="linearGradient3833-1-81">
      <stop
         id="stop3835-5-82"
         offset="0"
         style="stop-color:#000000;stop-opacity:1;" />
      <stop
         style="stop-color:#333333;stop-opacity:1"
         offset="0.5"
         id="stop3841-2-6" />
      <stop
         id="stop3837-7-6"
         offset="1"
         style="stop-color:#000000;stop-opacity:1" />
    </linearGradient>
    <linearGradient
       y2="463.51562"
       x2="-281.15625"
       y1="463.51562"
       x1="-311.3125"
       gradientTransform="matrix(0.43846429,7.9081918e-4,-6.5324466e-4,0.53080568,970.15112,-3759.4954)"
       gradientUnits="userSpaceOnUse"
       id="linearGradient3088-8-0"
       xlink:href="#linearGradient3851-5-38"
       inkscape:collect="always" />
    <linearGradient
       id="linearGradient3851-5-38">
      <stop
         id="stop3853-1-0"
         offset="0"
         style="stop-color:#808080;stop-opacity:1;" />
      <stop
         style="stop-color:#ffffff;stop-opacity:1;"
         offset="0.5"
         id="stop3859-7-1" />
      <stop
         id="stop3855-1-2"
         offset="1"
         style="stop-color:#808080;stop-opacity:1;" />
    </linearGradient>
    <radialGradient
       gradientUnits="userSpaceOnUse"
       gradientTransform="matrix(0.97241988,-0.00350785,0.00204639,0.40929875,4026.4073,-290.65147)"
       r="74.726646"
       fy="208.92761"
       fx="44.149761"
       cy="208.92761"
       cx="44.149761"
       id="radialGradient3939-7"
       xlink:href="#linearGradient3933-4"
       inkscape:collect="always" />
    <linearGradient
       id="linearGradient3933-4"
       inkscape:collect="always">
      <stop
         id="stop3935-0"
         offset="0"
         style="stop-color:#000000;stop-opacity:1;" />
      <stop
         id="stop3937-9"
         offset="1"
         style="stop-color:#000000;stop-opacity:0;" />
    </linearGradient>
    <linearGradient
       gradientTransform="translate(3914.8481,-255.28247)"
       gradientUnits="userSpaceOnUse"
       y2="294.38422"
       x2="178.15625"
       y1="294.38422"
       x1="81.90625"
       id="linearGradient3012-2"
       xlink:href="#linearGradient3006-1"
       inkscape:collect="always" />
    <linearGradient
       id="linearGradient3006-1">
      <stop
         id="stop3008-6"
         offset="0"
         style="stop-color:#ffffff;stop-opacity:1;" />
      <stop
         style="stop-color:#7f7f7f;stop-opacity:1;"
         offset="0.37675071"
         id="stop3014-8" />
      <stop
         id="stop3016-5"
         offset="0.80194807"
         style="stop-color:#ffffff;stop-opacity:1;" />
      <stop
         id="stop3010-7"
         offset="1"
         style="stop-color:#cccccc;stop-opacity:1" />
    </linearGradient>
    <linearGradient
       gradientUnits="userSpaceOnUse"
       y2="394.69629"
       x2="156.7487"
       y1="394.69629"
       x1="65.223801"
       id="linearGradient3810-9"
       xlink:href="#linearGradient3804-6"
       inkscape:collect="always"
       gradientTransform="translate(3914.8481,-376.28247)" />
    <linearGradient
       id="linearGradient3804-6">
      <stop
         id="stop3806-1"
         offset="0"
         style="stop-color:#000000;stop-opacity:1;" />
      <stop
         style="stop-color:#333333;stop-opacity:1"
         offset="0.5"
         id="stop3812-4" />
      <stop
         id="stop3808-2"
         offset="1"
         style="stop-color:#000000;stop-opacity:1;" />
    </linearGradient>
    <radialGradient
       gradientUnits="userSpaceOnUse"
       gradientTransform="matrix(0.79138519,4.4166814e-8,0,0.48100739,3940.8628,-177.73072)"
       r="43.141743"
       fy="428.49252"
       fx="114.59315"
       cy="428.49252"
       cx="114.59315"
       id="radialGradient3030-7"
       xlink:href="#linearGradient3024-3"
       inkscape:collect="always" />
    <linearGradient
       id="linearGradient3024-3"
       inkscape:collect="always">
      <stop
         style="stop-color:#000000;stop-opacity:1"
         offset="0"
         id="stop3028-2" />
      <stop
         style="stop-color:#242424;stop-opacity:1;"
         offset="1"
         id="stop3026-2" />
    </linearGradient>
    <linearGradient
       y2="390.78296"
       x2="183.7796"
       y1="375.92633"
       x1="145.60164"
       gradientUnits="userSpaceOnUse"
       id="linearGradient3113-4"
       xlink:href="#linearGradient3101-2"
       inkscape:collect="always"
       gradientTransform="translate(3914.8481,-376.28247)" />
    <linearGradient
       id="linearGradient3101-2"
       inkscape:collect="always">
      <stop
         id="stop3103-4"
         offset="0"
         style="stop-color:#000000;stop-opacity:1;" />
      <stop
         id="stop3105-5"
         offset="1"
         style="stop-color:#000000;stop-opacity:0;" />
    </linearGradient>
    <linearGradient
       gradientUnits="userSpaceOnUse"
       y2="405.19611"
       x2="116.81388"
       y1="395.66125"
       x1="113.00574"
       id="linearGradient3107-7"
       xlink:href="#linearGradient3101-2"
       inkscape:collect="always"
       gradientTransform="translate(3914.8481,-376.28247)" />
    <linearGradient
       y2="459.14062"
       x2="-128.625"
       y1="459.14062"
       x1="-158.78125"
       gradientTransform="matrix(0.43846429,7.9081918e-4,-6.5324466e-4,0.53080568,903.27012,-3758.3554)"
       gradientUnits="userSpaceOnUse"
       id="linearGradient3086-3"
       xlink:href="#linearGradient3833-1"
       inkscape:collect="always" />
    <linearGradient
       id="linearGradient3833-1">
      <stop
         id="stop3835-5"
         offset="0"
         style="stop-color:#000000;stop-opacity:1;" />
      <stop
         style="stop-color:#333333;stop-opacity:1"
         offset="0.5"
         id="stop3841-2" />
      <stop
         id="stop3837-7"
         offset="1"
         style="stop-color:#000000;stop-opacity:1" />
    </linearGradient>
    <linearGradient
       y2="463.51562"
       x2="-281.15625"
       y1="463.51562"
       x1="-311.3125"
       gradientTransform="matrix(0.43846429,7.9081918e-4,-6.5324466e-4,0.53080568,970.15119,-3759.4955)"
       gradientUnits="userSpaceOnUse"
       id="linearGradient3088-8"
       xlink:href="#linearGradient3851-5"
       inkscape:collect="always" />
    <linearGradient
       id="linearGradient3851-5">
      <stop
         id="stop3853-1"
         offset="0"
         style="stop-color:#808080;stop-opacity:1;" />
      <stop
         style="stop-color:#ffffff;stop-opacity:1;"
         offset="0.5"
         id="stop3859-7" />
      <stop
         id="stop3855-1"
         offset="1"
         style="stop-color:#808080;stop-opacity:1;" />
    </linearGradient>
    <radialGradient
       gradientUnits="userSpaceOnUse"
       gradientTransform="matrix(0.97241988,-0.00350785,0.00204639,0.40929875,3999.0996,-324.0036)"
       r="74.726646"
       fy="208.92761"
       fx="44.149761"
       cy="208.92761"
       cx="44.149761"
       id="radialGradient3939-7-9"
       xlink:href="#linearGradient3933-4-1"
       inkscape:collect="always" />
    <linearGradient
       id="linearGradient3933-4-1"
       inkscape:collect="always">
      <stop
         id="stop3935-0-5"
         offset="0"
         style="stop-color:#000000;stop-opacity:1;" />
      <stop
         id="stop3937-9-7"
         offset="1"
         style="stop-color:#000000;stop-opacity:0;" />
    </linearGradient>
    <linearGradient
       gradientTransform="translate(3889.1159,-292.38739)"
       gradientUnits="userSpaceOnUse"
       y2="294.38422"
       x2="178.15625"
       y1="294.38422"
       x1="81.90625"
       id="linearGradient3012-2-3"
       xlink:href="#linearGradient3006-1-3"
       inkscape:collect="always" />
    <linearGradient
       id="linearGradient3006-1-3">
      <stop
         id="stop3008-6-42"
         offset="0"
         style="stop-color:#ffffff;stop-opacity:1;" />
      <stop
         style="stop-color:#7f7f7f;stop-opacity:1;"
         offset="0.37675071"
         id="stop3014-8-2" />
      <stop
         id="stop3016-5-01"
         offset="0.80194807"
         style="stop-color:#ffffff;stop-opacity:1;" />
      <stop
         id="stop3010-7-2"
         offset="1"
         style="stop-color:#cccccc;stop-opacity:1" />
    </linearGradient>
    <linearGradient
       gradientUnits="userSpaceOnUse"
       y2="394.69629"
       x2="156.7487"
       y1="394.69629"
       x1="65.223801"
       id="linearGradient3810-9-7"
       xlink:href="#linearGradient3804-6-7"
       inkscape:collect="always"
       gradientTransform="translate(3889.1159,-413.38739)" />
    <linearGradient
       id="linearGradient3804-6-7">
      <stop
         id="stop3806-1-0"
         offset="0"
         style="stop-color:#000000;stop-opacity:1;" />
      <stop
         style="stop-color:#333333;stop-opacity:1"
         offset="0.5"
         id="stop3812-4-2" />
      <stop
         id="stop3808-2-4"
         offset="1"
         style="stop-color:#000000;stop-opacity:1;" />
    </linearGradient>
    <radialGradient
       gradientUnits="userSpaceOnUse"
       gradientTransform="matrix(0.79138519,4.4166814e-8,0,0.48100739,3915.1306,-214.83564)"
       r="43.141743"
       fy="428.49252"
       fx="114.59315"
       cy="428.49252"
       cx="114.59315"
       id="radialGradient3030-7-10"
       xlink:href="#linearGradient3024-3-3"
       inkscape:collect="always" />
    <linearGradient
       id="linearGradient3024-3-3"
       inkscape:collect="always">
      <stop
         style="stop-color:#000000;stop-opacity:1"
         offset="0"
         id="stop3028-2-73" />
      <stop
         style="stop-color:#242424;stop-opacity:1;"
         offset="1"
         id="stop3026-2-9" />
    </linearGradient>
    <linearGradient
       y2="390.78296"
       x2="183.7796"
       y1="375.92633"
       x1="145.60164"
       gradientUnits="userSpaceOnUse"
       id="linearGradient3113-4-5"
       xlink:href="#linearGradient3101-2-9"
       inkscape:collect="always"
       gradientTransform="translate(3889.1159,-413.38739)" />
    <linearGradient
       id="linearGradient3101-2-9"
       inkscape:collect="always">
      <stop
         id="stop3103-4-7"
         offset="0"
         style="stop-color:#000000;stop-opacity:1;" />
      <stop
         id="stop3105-5-2"
         offset="1"
         style="stop-color:#000000;stop-opacity:0;" />
    </linearGradient>
    <linearGradient
       gradientUnits="userSpaceOnUse"
       y2="405.19611"
       x2="116.81388"
       y1="395.66125"
       x1="113.00574"
       id="linearGradient3107-7-0"
       xlink:href="#linearGradient3101-2-9"
       inkscape:collect="always"
       gradientTransform="translate(3889.1159,-413.38739)" />
    <linearGradient
       y2="459.14062"
       x2="-128.625"
       y1="459.14062"
       x1="-158.78125"
       gradientTransform="matrix(0.43846429,7.9081918e-4,-6.5324466e-4,0.53080568,860.24197,-3744.6624)"
       gradientUnits="userSpaceOnUse"
       id="linearGradient3086-3-2"
       xlink:href="#linearGradient3833-1-8"
       inkscape:collect="always" />
    <linearGradient
       id="linearGradient3833-1-8">
      <stop
         id="stop3835-5-6"
         offset="0"
         style="stop-color:#000000;stop-opacity:1;" />
      <stop
         style="stop-color:#333333;stop-opacity:1"
         offset="0.5"
         id="stop3841-2-7" />
      <stop
         id="stop3837-7-0"
         offset="1"
         style="stop-color:#000000;stop-opacity:1" />
    </linearGradient>
    <linearGradient
       y2="463.51562"
       x2="-281.15625"
       y1="463.51562"
       x1="-311.3125"
       gradientTransform="matrix(0.43846429,7.9081918e-4,-6.5324466e-4,0.53080568,927.12304,-3745.8025)"
       gradientUnits="userSpaceOnUse"
       id="linearGradient3088-8-8"
       xlink:href="#linearGradient3851-5-1"
       inkscape:collect="always" />
    <linearGradient
       id="linearGradient3851-5-1">
      <stop
         id="stop3853-1-8"
         offset="0"
         style="stop-color:#808080;stop-opacity:1;" />
      <stop
         style="stop-color:#ffffff;stop-opacity:1;"
         offset="0.5"
         id="stop3859-7-3" />
      <stop
         id="stop3855-1-0"
         offset="1"
         style="stop-color:#808080;stop-opacity:1;" />
    </linearGradient>
  </defs>
  <sodipodi:namedview
     id="base"
     pagecolor="#ffffff"
     bordercolor="#666666"
     borderopacity="1.0"
     inkscape:pageopacity="0.0"
     inkscape:pageshadow="2"
     inkscape:zoom="3.6055405"
     inkscape:cx="82.029784"
     inkscape:cy="152.27141"
     inkscape:document-units="px"
     inkscape:current-layer="g10929"
     showgrid="false"
     fit-margin-top="0"
     fit-margin-left="0"
     fit-margin-right="0"
     fit-margin-bottom="0"
     inkscape:window-width="824"
     inkscape:window-height="786"
     inkscape:window-x="6"
     inkscape:window-y="31"
     inkscape:window-maximized="0"
     inkscape:snap-global="true"
     inkscape:snap-bbox="true"
     inkscape:bbox-paths="true"
     inkscape:bbox-nodes="true"
     inkscape:snap-bbox-edge-midpoints="true"
     inkscape:snap-bbox-midpoints="true"
     inkscape:snap-object-midpoints="true"
     inkscape:snap-center="true" />
  <metadata
     id="metadata18952">
    <rdf:RDF>
      <cc:Work
         rdf:about="">
        <dc:format>image/svg+xml</dc:format>
        <dc:type
           rdf:resource="http://purl.org/dc/dcmitype/StillImage" />
        <dc:title />
      </cc:Work>
    </rdf:RDF>
  </metadata>
  <g
     inkscape:label="Layer 1"
     inkscape:groupmode="layer"
     id="layer1"
     transform="translate(-247.87401,-381.68621)">
    <g
       style="display:inline"
       id="g10929"
       transform="translate(267.49797,-8106.2799)"
       inkscape:export-filename="C:\Users\MXY\Documents\SVG Deck(4-19-2011)\Finalized\Colorized - SVG_Vector_Playing_Cards_Version_1.3\COMBINED TEST.png"
       inkscape:export-xdpi="70"
       inkscape:export-ydpi="70">
      <path
         inkscape:connector-curvature="0"
         style="fill:#000000;fill-opacity:1;display:inline"
         id="path7100-8"
         d="m -5.6358395,8540.5509 0.15656,-1.9177 c 0.484025,-5.9271 1.78068,-7.929 9.140805,-14.1125 3.571715,-3.0007 4.7443,-4.4816 4.90941,-6.2 0.466355,-4.0469 -3.183545,-5.3112 -5.562155,-5.3331 -3.079995,-0.029 -6.56412,1.816 -4.903045,6.0932 l -3.454675,1.0145 c -0.697585,-3.9901 0.01615,-7.7349 3.25413,-9.3977 4.31889,-2.1658 9.861,-1.3161 12.6572295,2.0963 1.87929,2.2934 2.306505,5.4589 1.29941,7.9379 -2.9456645,6.338 -12.9400445,9.1261 -13.7661645,16.4535 l 11.049545,0 0,-4.0804 3.2544145,0 0,7.5118 z" />
      <path
         inkscape:connector-curvature="0"
         style="fill:#000000;fill-opacity:1;display:inline"
         id="path7116-6"
         d="m 190.64205,8748.1614 -0.15656,1.9177 c -0.48393,5.9271 -1.78068,7.929 -9.14081,14.1125 -3.57171,3.0007 -4.7443,4.4816 -4.90941,6.2 -0.46635,4.0469 3.18355,5.3111 5.56216,5.3331 3.07999,0.028 6.56421,-1.816 4.90304,-6.0932 l 3.45468,-1.0145 c 0.69768,3.9901 -0.0162,7.7349 -3.25404,9.3977 -4.31898,2.1658 -9.86109,1.3161 -12.65732,-2.0963 -1.87929,-2.2934 -2.30651,-5.4589 -1.29941,-7.9379 2.94566,-6.3381 12.94004,-9.1261 13.76626,-16.4535 l -11.04964,0 0,4.0804 -3.25442,0 0,-7.5118 z" />
      <g
         transform="matrix(0.95,0,0,0.95,4.62696,432.00595)"
         id="g10254">
        <path
           inkscape:connector-curvature="0"
           style="fill:#000000;fill-opacity:1;display:inline"
           id="path3194"
           d="m 90.37132,8556.6135 c 0.015,-2.0257 -1.5868,-2.0644 -1.5686,-0.5857 -0.1343,7.4286 -6.4165,11.0864 -10.9806,10.2187 -7.0361,-1.3376 -9.2818,-8.3221 -9.2147,-12.4354 0.2072,-12.6963 12.9878,-22.0585 24.5202,-38.3346 8.4501,14.6907 22.3972,26.2296 23.2229,37.5857 1.0977,15.0981 -18.0089,20.7297 -20.7369,3.1327 -0.176,-1.243 -1.6397,-1.8011 -1.5261,-0.065 0.4145,4.8226 -0.1749,6.8314 5.2657,18.7194 l -14.2217,0 c 3.1497,-5.5548 5.0254,-12.3745 5.2398,-18.2357 z" />
        <path
           inkscape:connector-curvature="0"
           style="fill:#000000;fill-opacity:1;display:inline"
           id="path3254"
           d="m 90.37132,8732.5458 c 0.015,2.0257 -1.5868,2.0644 -1.5686,0.5858 -0.1343,-7.4286 -6.4165,-11.0864 -10.9806,-10.2187 -7.0361,1.3376 -9.2818,8.322 -9.2147,12.4354 0.2072,12.6963 12.9878,22.0584 24.5202,38.3346 8.4501,-14.6908 22.3972,-26.2297 23.2229,-37.5858 1.0977,-15.098 -18.0089,-20.7297 -20.7369,-3.1327 -0.176,1.243 -1.6397,1.8011 -1.5261,0.065 0.4145,-4.8226 -0.1749,-6.8313 5.2657,-18.7194 l -14.2217,0 c 3.1497,5.5549 5.0254,12.3746 5.2398,18.2358 z" />
      </g>
      <path
         d="m 4.0046655,8562.0691 c 0.0095,-0.8279 -0.850535,-0.4414 -0.96691,-0.1808 -1.10504,1.8863 -2.72156,2.3253 -4.320505,1.6452 -1.583935,-0.6736 -2.47399,-2.1663 -2.331205,-4.296 0.29469,-3.266 2.88363,-6.8396 4.13725,-8.8599 1.1894,-1.8335 2.496505,-4.0111 3.872865,-6.7965 1.61234,3.1952 2.43067,4.1046 4.184845,7.022 1.5446995,2.5692 3.6978745,5.0853 3.8641245,8.1913 0,2.3606 -0.9937,4.5902 -3.2294295,4.9964 -1.26483,0.2298 -2.449765,-0.4194 -3.32861,-1.935 -0.26771,-0.3862 -0.806265,-0.1849 -0.79724,0.3438 0.156845,1.9887 0.907535,3.7841 2.68793,5.901 l -6.54265,0 c 1.339595,-1.4972 2.706265,-3.5185 2.769535,-6.0315 z"
         id="path3310"
         style="fill:#000000;fill-opacity:1;display:inline"
         inkscape:connector-curvature="0" />
      <path
         d="m 182.34237,8726.5707 c 0.01,0.8279 -0.85053,0.4414 -0.96691,0.1808 -1.10504,-1.8863 -2.72156,-2.3253 -4.3205,-1.6452 -1.58394,0.6736 -2.47399,2.1663 -2.33121,4.296 0.29469,3.2659 2.88363,6.8396 4.13725,8.8599 1.1894,1.8334 2.49651,4.0111 3.87287,6.7965 1.61234,-3.1952 2.43067,-4.1046 4.18484,-7.0221 1.5447,-2.5691 3.69788,-5.0852 3.86413,-8.1911 0,-2.3607 -0.9937,-4.5903 -3.22943,-4.9965 -1.26483,-0.2298 -2.44977,0.4195 -3.32861,1.935 -0.26771,0.3863 -0.80627,0.185 -0.79724,-0.3438 0.15684,-1.9886 0.90753,-3.7841 2.68793,-5.901 l -6.54265,0 c 1.33959,1.4972 2.70626,3.5185 2.76953,6.0315 z"
         id="path3332"
         style="fill:#000000;fill-opacity:1;display:inline"
         inkscape:connector-curvature="0" />
      <path
         inkscape:connector-curvature="0"
         style="fill:#000000;fill-opacity:1;display:inline"
         id="path7100-8-2"
         d="m 172.67698,8540.5509 0.15658,-1.9177 c 0.48395,-5.9271 1.78066,-7.929 9.14079,-14.1125 3.57171,-3.0007 4.74432,-4.4816 4.90943,-6.2 0.46633,-4.0469 -3.18359,-5.3112 -5.56218,-5.3332 -3.08001,-0.028 -6.56417,1.8161 -4.90303,6.0933 l -3.4547,1.0145 c -0.69761,-3.9901 0.0161,-7.7349 3.25409,-9.3978 4.31896,-2.1657 9.86105,-1.316 12.65728,2.0964 1.87927,2.2934 2.30648,5.4589 1.29939,7.9379 -2.94561,6.338 -12.94005,9.1261 -13.76619,16.4535 l 11.04959,0 0,-4.0804 3.25444,0 0,7.5118 z" />
      <path
         inkscape:connector-curvature="0"
         style="fill:#000000;fill-opacity:1;display:inline"
         id="path7116-6-5"
         d="m 12.470059,8748.1614 -0.156589,1.9177 c -0.483959,5.9271 -1.780671,7.929 -9.1407955,14.1125 -3.5717055,3.0007 -4.744319,4.4815 -4.909429,6.1999 -0.466336,4.047 3.1835925,5.3112 5.562193,5.3332 3.079995,0.028 6.5641585,-1.816 4.9030165,-6.0932 l 3.454703,-1.0145 c 0.697604,3.9901 -0.01605,7.7349 -3.2540915,9.3977 -4.318966,2.1658 -9.8610475,1.3161 -12.657268,-2.0964 -1.8792805,-2.2934 -2.3064955,-5.4588 -1.2994005,-7.9378 2.945608,-6.3381 12.940045,-9.1261 13.766184,-16.4535 l -11.049583,0 0,4.0804 -3.2544435,0 0,-7.5118 z" />
      <path
         d="m 181.07195,8562.0691 c -0.009,-0.8279 0.85054,-0.4414 0.96691,-0.1808 1.10504,1.8863 2.72156,2.3253 4.32051,1.6452 1.58393,-0.6736 2.47399,-2.1663 2.3312,-4.296 -0.29469,-3.266 -2.88363,-6.8396 -4.13725,-8.86 -1.1894,-1.8334 -2.4965,-4.011 -3.87286,-6.7964 -1.61234,3.1952 -2.43067,4.1046 -4.18485,7.022 -1.5447,2.5692 -3.69787,5.0853 -3.86412,8.1913 0,2.3606 0.9937,4.5902 3.22943,4.9964 1.26483,0.2298 2.44976,-0.4195 3.32861,-1.9351 0.26771,-0.3861 0.80626,-0.1848 0.79724,0.3438 -0.15685,1.9888 -0.90754,3.7842 -2.68793,5.9011 l 6.54265,0 c -1.3396,-1.4972 -2.70627,-3.5185 -2.76954,-6.0315 z"
         id="path3310-8"
         style="fill:#000000;fill-opacity:1;display:inline"
         inkscape:connector-curvature="0" />
      <path
         d="m 2.7342495,8726.5706 c -0.0095,0.828 0.850535,0.4415 0.96691,0.1808 1.10504,-1.8863 2.72156,-2.3252 4.320505,-1.6452 1.583935,0.6737 2.4739905,2.1664 2.3312045,4.2961 -0.294689,3.2659 -2.8836295,6.8395 -4.1372495,8.8599 -1.1894,1.8334 -2.496505,4.0111 -3.872865,6.7964 -1.61234,-3.1951 -2.43067,-4.1046 -4.184845,-7.022 -1.5447,-2.5691 -3.697875,-5.0853 -3.864125,-8.1911 0,-2.3607 0.9937,-4.5903 3.22943,-4.9965 1.26483,-0.2298 2.449765,0.4195 3.32861,1.935 0.26771,0.3863 0.806265,0.185 0.79724,-0.3438 -0.156845,-1.9886 -0.907535,-3.7841 -2.68793,-5.901 l 6.54265,0 c -1.339595,1.4971 -2.706265,3.5185 -2.769535,6.0314 z"
         id="path3332-6"
         style="fill:#000000;fill-opacity:1;display:inline"
         inkscape:connector-curvature="0" />
    </g>
  </g>
</svg>
