<?xml version="1.0" encoding="UTF-8" standalone="no"?>
<!-- Created with Inkscape (http://www.inkscape.org/) -->

<svg
   xmlns:dc="http://purl.org/dc/elements/1.1/"
   xmlns:cc="http://creativecommons.org/ns#"
   xmlns:rdf="http://www.w3.org/1999/02/22-rdf-syntax-ns#"
   xmlns:svg="http://www.w3.org/2000/svg"
   xmlns="http://www.w3.org/2000/svg"
   xmlns:xlink="http://www.w3.org/1999/xlink"
   xmlns:sodipodi="http://sodipodi.sourceforge.net/DTD/sodipodi-0.dtd"
   xmlns:inkscape="http://www.inkscape.org/namespaces/inkscape"
   width="224.25"
   height="312.78125"
   id="svg18947"
   version="1.1"
   inkscape:version="0.48.3.1 r9886"
   sodipodi:docname="57-Spade03.svg">
  <defs
     id="defs18949">
    <linearGradient
       id="linearGradient3006">
      <stop
         id="stop3008"
         offset="0"
         style="stop-color:#ffffff;stop-opacity:1;" />
      <stop
         style="stop-color:#7f7f7f;stop-opacity:1;"
         offset="0.37675071"
         id="stop3014" />
      <stop
         id="stop3016"
         offset="0.80194807"
         style="stop-color:#ffffff;stop-opacity:1;" />
      <stop
         id="stop3010"
         offset="1"
         style="stop-color:#cccccc;stop-opacity:1" />
    </linearGradient>
    <linearGradient
       id="linearGradient3804">
      <stop
         id="stop3806"
         offset="0"
         style="stop-color:#000000;stop-opacity:1;" />
      <stop
         style="stop-color:#333333;stop-opacity:1"
         offset="0.5"
         id="stop3812" />
      <stop
         id="stop3808"
         offset="1"
         style="stop-color:#000000;stop-opacity:1;" />
    </linearGradient>
    <linearGradient
       id="linearGradient3833">
      <stop
         id="stop3835"
         offset="0"
         style="stop-color:#000000;stop-opacity:1;" />
      <stop
         style="stop-color:#333333;stop-opacity:1"
         offset="0.5"
         id="stop3841" />
      <stop
         id="stop3837"
         offset="1"
         style="stop-color:#000000;stop-opacity:1" />
    </linearGradient>
    <linearGradient
       id="linearGradient3851">
      <stop
         id="stop3853"
         offset="0"
         style="stop-color:#808080;stop-opacity:1;" />
      <stop
         style="stop-color:#ffffff;stop-opacity:1;"
         offset="0.5"
         id="stop3859" />
      <stop
         id="stop3855"
         offset="1"
         style="stop-color:#808080;stop-opacity:1;" />
    </linearGradient>
    <radialGradient
       gradientUnits="userSpaceOnUse"
       gradientTransform="matrix(0.97241988,-0.00350785,0.00204639,0.40929875,4026.4071,-290.65137)"
       r="74.726646"
       fy="208.92761"
       fx="44.149761"
       cy="208.92761"
       cx="44.149761"
       id="radialGradient3939-7-7"
       xlink:href="#linearGradient3933-4-3"
       inkscape:collect="always" />
    <linearGradient
       id="linearGradient3933-4-3"
       inkscape:collect="always">
      <stop
         id="stop3935-0-7"
         offset="0"
         style="stop-color:#000000;stop-opacity:1;" />
      <stop
         id="stop3937-9-2"
         offset="1"
         style="stop-color:#000000;stop-opacity:0;" />
    </linearGradient>
    <linearGradient
       gradientTransform="translate(3914.848,-255.2825)"
       gradientUnits="userSpaceOnUse"
       y2="294.38422"
       x2="178.15625"
       y1="294.38422"
       x1="81.90625"
       id="linearGradient3012-2-7"
       xlink:href="#linearGradient3006-1-5"
       inkscape:collect="always" />
    <linearGradient
       id="linearGradient3006-1-5">
      <stop
         id="stop3008-6-4"
         offset="0"
         style="stop-color:#ffffff;stop-opacity:1;" />
      <stop
         style="stop-color:#7f7f7f;stop-opacity:1;"
         offset="0.37675071"
         id="stop3014-8-12" />
      <stop
         id="stop3016-5-0"
         offset="0.80194807"
         style="stop-color:#ffffff;stop-opacity:1;" />
      <stop
         id="stop3010-7-0"
         offset="1"
         style="stop-color:#cccccc;stop-opacity:1" />
    </linearGradient>
    <linearGradient
       gradientUnits="userSpaceOnUse"
       y2="394.69629"
       x2="156.7487"
       y1="394.69629"
       x1="65.223801"
       id="linearGradient3810-9-1"
       xlink:href="#linearGradient3804-6-4"
       inkscape:collect="always"
       gradientTransform="translate(3914.848,-376.2825)" />
    <linearGradient
       id="linearGradient3804-6-4">
      <stop
         id="stop3806-1-6"
         offset="0"
         style="stop-color:#000000;stop-opacity:1;" />
      <stop
         style="stop-color:#333333;stop-opacity:1"
         offset="0.5"
         id="stop3812-4-0" />
      <stop
         id="stop3808-2-7"
         offset="1"
         style="stop-color:#000000;stop-opacity:1;" />
    </linearGradient>
    <radialGradient
       gradientUnits="userSpaceOnUse"
       gradientTransform="matrix(0.79138519,4.4166814e-8,0,0.48100739,3940.8627,-177.7307)"
       r="43.141743"
       fy="428.49252"
       fx="114.59315"
       cy="428.49252"
       cx="114.59315"
       id="radialGradient3030-7-1"
       xlink:href="#linearGradient3024-3-7"
       inkscape:collect="always" />
    <linearGradient
       id="linearGradient3024-3-7"
       inkscape:collect="always">
      <stop
         style="stop-color:#000000;stop-opacity:1"
         offset="0"
         id="stop3028-2-7" />
      <stop
         style="stop-color:#242424;stop-opacity:1;"
         offset="1"
         id="stop3026-2-7" />
    </linearGradient>
    <linearGradient
       y2="390.78296"
       x2="183.7796"
       y1="375.92633"
       x1="145.60164"
       gradientUnits="userSpaceOnUse"
       id="linearGradient3113-4-7"
       xlink:href="#linearGradient3101-2-3"
       inkscape:collect="always"
       gradientTransform="translate(3914.848,-376.2825)" />
    <linearGradient
       id="linearGradient3101-2-3"
       inkscape:collect="always">
      <stop
         id="stop3103-4-3"
         offset="0"
         style="stop-color:#000000;stop-opacity:1;" />
      <stop
         id="stop3105-5-5"
         offset="1"
         style="stop-color:#000000;stop-opacity:0;" />
    </linearGradient>
    <linearGradient
       gradientUnits="userSpaceOnUse"
       y2="405.19611"
       x2="116.81388"
       y1="395.66125"
       x1="113.00574"
       id="linearGradient3107-7-9"
       xlink:href="#linearGradient3101-2-3"
       inkscape:collect="always"
       gradientTransform="translate(3914.848,-376.2825)" />
    <linearGradient
       y2="459.14062"
       x2="-128.625"
       y1="459.14062"
       x1="-158.78125"
       gradientTransform="matrix(0.43846429,7.9081918e-4,-6.5324466e-4,0.53080568,903.27012,-3758.3554)"
       gradientUnits="userSpaceOnUse"
       id="linearGradient3086-3-9"
       xlink:href="#linearGradient3833-1-81"
       inkscape:collect="always" />
    <linearGradient
       id="linearGradient3833-1-81">
      <stop
         id="stop3835-5-82"
         offset="0"
         style="stop-color:#000000;stop-opacity:1;" />
      <stop
         style="stop-color:#333333;stop-opacity:1"
         offset="0.5"
         id="stop3841-2-6" />
      <stop
         id="stop3837-7-6"
         offset="1"
         style="stop-color:#000000;stop-opacity:1" />
    </linearGradient>
    <linearGradient
       y2="463.51562"
       x2="-281.15625"
       y1="463.51562"
       x1="-311.3125"
       gradientTransform="matrix(0.43846429,7.9081918e-4,-6.5324466e-4,0.53080568,970.15112,-3759.4954)"
       gradientUnits="userSpaceOnUse"
       id="linearGradient3088-8-0"
       xlink:href="#linearGradient3851-5-38"
       inkscape:collect="always" />
    <linearGradient
       id="linearGradient3851-5-38">
      <stop
         id="stop3853-1-0"
         offset="0"
         style="stop-color:#808080;stop-opacity:1;" />
      <stop
         style="stop-color:#ffffff;stop-opacity:1;"
         offset="0.5"
         id="stop3859-7-1" />
      <stop
         id="stop3855-1-2"
         offset="1"
         style="stop-color:#808080;stop-opacity:1;" />
    </linearGradient>
    <radialGradient
       gradientUnits="userSpaceOnUse"
       gradientTransform="matrix(0.97241988,-0.00350785,0.00204639,0.40929875,4026.4073,-290.65147)"
       r="74.726646"
       fy="208.92761"
       fx="44.149761"
       cy="208.92761"
       cx="44.149761"
       id="radialGradient3939-7"
       xlink:href="#linearGradient3933-4"
       inkscape:collect="always" />
    <linearGradient
       id="linearGradient3933-4"
       inkscape:collect="always">
      <stop
         id="stop3935-0"
         offset="0"
         style="stop-color:#000000;stop-opacity:1;" />
      <stop
         id="stop3937-9"
         offset="1"
         style="stop-color:#000000;stop-opacity:0;" />
    </linearGradient>
    <linearGradient
       gradientTransform="translate(3914.8481,-255.28247)"
       gradientUnits="userSpaceOnUse"
       y2="294.38422"
       x2="178.15625"
       y1="294.38422"
       x1="81.90625"
       id="linearGradient3012-2"
       xlink:href="#linearGradient3006-1"
       inkscape:collect="always" />
    <linearGradient
       id="linearGradient3006-1">
      <stop
         id="stop3008-6"
         offset="0"
         style="stop-color:#ffffff;stop-opacity:1;" />
      <stop
         style="stop-color:#7f7f7f;stop-opacity:1;"
         offset="0.37675071"
         id="stop3014-8" />
      <stop
         id="stop3016-5"
         offset="0.80194807"
         style="stop-color:#ffffff;stop-opacity:1;" />
      <stop
         id="stop3010-7"
         offset="1"
         style="stop-color:#cccccc;stop-opacity:1" />
    </linearGradient>
    <linearGradient
       gradientUnits="userSpaceOnUse"
       y2="394.69629"
       x2="156.7487"
       y1="394.69629"
       x1="65.223801"
       id="linearGradient3810-9"
       xlink:href="#linearGradient3804-6"
       inkscape:collect="always"
       gradientTransform="translate(3914.8481,-376.28247)" />
    <linearGradient
       id="linearGradient3804-6">
      <stop
         id="stop3806-1"
         offset="0"
         style="stop-color:#000000;stop-opacity:1;" />
      <stop
         style="stop-color:#333333;stop-opacity:1"
         offset="0.5"
         id="stop3812-4" />
      <stop
         id="stop3808-2"
         offset="1"
         style="stop-color:#000000;stop-opacity:1;" />
    </linearGradient>
    <radialGradient
       gradientUnits="userSpaceOnUse"
       gradientTransform="matrix(0.79138519,4.4166814e-8,0,0.48100739,3940.8628,-177.73072)"
       r="43.141743"
       fy="428.49252"
       fx="114.59315"
       cy="428.49252"
       cx="114.59315"
       id="radialGradient3030-7"
       xlink:href="#linearGradient3024-3"
       inkscape:collect="always" />
    <linearGradient
       id="linearGradient3024-3"
       inkscape:collect="always">
      <stop
         style="stop-color:#000000;stop-opacity:1"
         offset="0"
         id="stop3028-2" />
      <stop
         style="stop-color:#242424;stop-opacity:1;"
         offset="1"
         id="stop3026-2" />
    </linearGradient>
    <linearGradient
       y2="390.78296"
       x2="183.7796"
       y1="375.92633"
       x1="145.60164"
       gradientUnits="userSpaceOnUse"
       id="linearGradient3113-4"
       xlink:href="#linearGradient3101-2"
       inkscape:collect="always"
       gradientTransform="translate(3914.8481,-376.28247)" />
    <linearGradient
       id="linearGradient3101-2"
       inkscape:collect="always">
      <stop
         id="stop3103-4"
         offset="0"
         style="stop-color:#000000;stop-opacity:1;" />
      <stop
         id="stop3105-5"
         offset="1"
         style="stop-color:#000000;stop-opacity:0;" />
    </linearGradient>
    <linearGradient
       gradientUnits="userSpaceOnUse"
       y2="405.19611"
       x2="116.81388"
       y1="395.66125"
       x1="113.00574"
       id="linearGradient3107-7"
       xlink:href="#linearGradient3101-2"
       inkscape:collect="always"
       gradientTransform="translate(3914.8481,-376.28247)" />
    <linearGradient
       y2="459.14062"
       x2="-128.625"
       y1="459.14062"
       x1="-158.78125"
       gradientTransform="matrix(0.43846429,7.9081918e-4,-6.5324466e-4,0.53080568,903.27012,-3758.3554)"
       gradientUnits="userSpaceOnUse"
       id="linearGradient3086-3"
       xlink:href="#linearGradient3833-1"
       inkscape:collect="always" />
    <linearGradient
       id="linearGradient3833-1">
      <stop
         id="stop3835-5"
         offset="0"
         style="stop-color:#000000;stop-opacity:1;" />
      <stop
         style="stop-color:#333333;stop-opacity:1"
         offset="0.5"
         id="stop3841-2" />
      <stop
         id="stop3837-7"
         offset="1"
         style="stop-color:#000000;stop-opacity:1" />
    </linearGradient>
    <linearGradient
       y2="463.51562"
       x2="-281.15625"
       y1="463.51562"
       x1="-311.3125"
       gradientTransform="matrix(0.43846429,7.9081918e-4,-6.5324466e-4,0.53080568,970.15119,-3759.4955)"
       gradientUnits="userSpaceOnUse"
       id="linearGradient3088-8"
       xlink:href="#linearGradient3851-5"
       inkscape:collect="always" />
    <linearGradient
       id="linearGradient3851-5">
      <stop
         id="stop3853-1"
         offset="0"
         style="stop-color:#808080;stop-opacity:1;" />
      <stop
         style="stop-color:#ffffff;stop-opacity:1;"
         offset="0.5"
         id="stop3859-7" />
      <stop
         id="stop3855-1"
         offset="1"
         style="stop-color:#808080;stop-opacity:1;" />
    </linearGradient>
    <radialGradient
       gradientUnits="userSpaceOnUse"
       gradientTransform="matrix(0.97241988,-0.00350785,0.00204639,0.40929875,3999.0996,-324.0036)"
       r="74.726646"
       fy="208.92761"
       fx="44.149761"
       cy="208.92761"
       cx="44.149761"
       id="radialGradient3939-7-9"
       xlink:href="#linearGradient3933-4-1"
       inkscape:collect="always" />
    <linearGradient
       id="linearGradient3933-4-1"
       inkscape:collect="always">
      <stop
         id="stop3935-0-5"
         offset="0"
         style="stop-color:#000000;stop-opacity:1;" />
      <stop
         id="stop3937-9-7"
         offset="1"
         style="stop-color:#000000;stop-opacity:0;" />
    </linearGradient>
    <linearGradient
       gradientTransform="translate(3889.1159,-292.38739)"
       gradientUnits="userSpaceOnUse"
       y2="294.38422"
       x2="178.15625"
       y1="294.38422"
       x1="81.90625"
       id="linearGradient3012-2-3"
       xlink:href="#linearGradient3006-1-3"
       inkscape:collect="always" />
    <linearGradient
       id="linearGradient3006-1-3">
      <stop
         id="stop3008-6-42"
         offset="0"
         style="stop-color:#ffffff;stop-opacity:1;" />
      <stop
         style="stop-color:#7f7f7f;stop-opacity:1;"
         offset="0.37675071"
         id="stop3014-8-2" />
      <stop
         id="stop3016-5-01"
         offset="0.80194807"
         style="stop-color:#ffffff;stop-opacity:1;" />
      <stop
         id="stop3010-7-2"
         offset="1"
         style="stop-color:#cccccc;stop-opacity:1" />
    </linearGradient>
    <linearGradient
       gradientUnits="userSpaceOnUse"
       y2="394.69629"
       x2="156.7487"
       y1="394.69629"
       x1="65.223801"
       id="linearGradient3810-9-7"
       xlink:href="#linearGradient3804-6-7"
       inkscape:collect="always"
       gradientTransform="translate(3889.1159,-413.38739)" />
    <linearGradient
       id="linearGradient3804-6-7">
      <stop
         id="stop3806-1-0"
         offset="0"
         style="stop-color:#000000;stop-opacity:1;" />
      <stop
         style="stop-color:#333333;stop-opacity:1"
         offset="0.5"
         id="stop3812-4-2" />
      <stop
         id="stop3808-2-4"
         offset="1"
         style="stop-color:#000000;stop-opacity:1;" />
    </linearGradient>
    <radialGradient
       gradientUnits="userSpaceOnUse"
       gradientTransform="matrix(0.79138519,4.4166814e-8,0,0.48100739,3915.1306,-214.83564)"
       r="43.141743"
       fy="428.49252"
       fx="114.59315"
       cy="428.49252"
       cx="114.59315"
       id="radialGradient3030-7-10"
       xlink:href="#linearGradient3024-3-3"
       inkscape:collect="always" />
    <linearGradient
       id="linearGradient3024-3-3"
       inkscape:collect="always">
      <stop
         style="stop-color:#000000;stop-opacity:1"
         offset="0"
         id="stop3028-2-73" />
      <stop
         style="stop-color:#242424;stop-opacity:1;"
         offset="1"
         id="stop3026-2-9" />
    </linearGradient>
    <linearGradient
       y2="390.78296"
       x2="183.7796"
       y1="375.92633"
       x1="145.60164"
       gradientUnits="userSpaceOnUse"
       id="linearGradient3113-4-5"
       xlink:href="#linearGradient3101-2-9"
       inkscape:collect="always"
       gradientTransform="translate(3889.1159,-413.38739)" />
    <linearGradient
       id="linearGradient3101-2-9"
       inkscape:collect="always">
      <stop
         id="stop3103-4-7"
         offset="0"
         style="stop-color:#000000;stop-opacity:1;" />
      <stop
         id="stop3105-5-2"
         offset="1"
         style="stop-color:#000000;stop-opacity:0;" />
    </linearGradient>
    <linearGradient
       gradientUnits="userSpaceOnUse"
       y2="405.19611"
       x2="116.81388"
       y1="395.66125"
       x1="113.00574"
       id="linearGradient3107-7-0"
       xlink:href="#linearGradient3101-2-9"
       inkscape:collect="always"
       gradientTransform="translate(3889.1159,-413.38739)" />
    <linearGradient
       y2="459.14062"
       x2="-128.625"
       y1="459.14062"
       x1="-158.78125"
       gradientTransform="matrix(0.43846429,7.9081918e-4,-6.5324466e-4,0.53080568,860.24197,-3744.6624)"
       gradientUnits="userSpaceOnUse"
       id="linearGradient3086-3-2"
       xlink:href="#linearGradient3833-1-8"
       inkscape:collect="always" />
    <linearGradient
       id="linearGradient3833-1-8">
      <stop
         id="stop3835-5-6"
         offset="0"
         style="stop-color:#000000;stop-opacity:1;" />
      <stop
         style="stop-color:#333333;stop-opacity:1"
         offset="0.5"
         id="stop3841-2-7" />
      <stop
         id="stop3837-7-0"
         offset="1"
         style="stop-color:#000000;stop-opacity:1" />
    </linearGradient>
    <linearGradient
       y2="463.51562"
       x2="-281.15625"
       y1="463.51562"
       x1="-311.3125"
       gradientTransform="matrix(0.43846429,7.9081918e-4,-6.5324466e-4,0.53080568,927.12304,-3745.8025)"
       gradientUnits="userSpaceOnUse"
       id="linearGradient3088-8-8"
       xlink:href="#linearGradient3851-5-1"
       inkscape:collect="always" />
    <linearGradient
       id="linearGradient3851-5-1">
      <stop
         id="stop3853-1-8"
         offset="0"
         style="stop-color:#808080;stop-opacity:1;" />
      <stop
         style="stop-color:#ffffff;stop-opacity:1;"
         offset="0.5"
         id="stop3859-7-3" />
      <stop
         id="stop3855-1-0"
         offset="1"
         style="stop-color:#808080;stop-opacity:1;" />
    </linearGradient>
  </defs>
  <sodipodi:namedview
     id="base"
     pagecolor="#ffffff"
     bordercolor="#666666"
     borderopacity="1.0"
     inkscape:pageopacity="0.0"
     inkscape:pageshadow="2"
     inkscape:zoom="13.205545"
     inkscape:cx="13.241766"
     inkscape:cy="171.58636"
     inkscape:document-units="px"
     inkscape:current-layer="g10943"
     showgrid="false"
     fit-margin-top="0"
     fit-margin-left="0"
     fit-margin-right="0"
     fit-margin-bottom="0"
     inkscape:window-width="1565"
     inkscape:window-height="1140"
     inkscape:window-x="6"
     inkscape:window-y="31"
     inkscape:window-maximized="0"
     inkscape:snap-global="true"
     inkscape:snap-bbox="true"
     inkscape:bbox-paths="true"
     inkscape:bbox-nodes="true"
     inkscape:snap-bbox-edge-midpoints="true"
     inkscape:snap-bbox-midpoints="true"
     inkscape:snap-object-midpoints="true"
     inkscape:snap-center="true" />
  <metadata
     id="metadata18952">
    <rdf:RDF>
      <cc:Work
         rdf:about="">
        <dc:format>image/svg+xml</dc:format>
        <dc:type
           rdf:resource="http://purl.org/dc/dcmitype/StillImage" />
        <dc:title />
      </cc:Work>
    </rdf:RDF>
  </metadata>
  <g
     inkscape:label="Layer 1"
     inkscape:groupmode="layer"
     id="layer1"
     transform="translate(-247.87401,-381.68621)">
    <g
       style="display:inline"
       id="g10943"
       transform="translate(267.498,-8429.0875)"
       inkscape:export-filename="C:\Users\MXY\Documents\SVG Deck(4-19-2011)\Finalized\Colorized - SVG_Vector_Playing_Cards_Version_1.3\COMBINED TEST.png"
       inkscape:export-xdpi="70"
       inkscape:export-ydpi="70">
      <path
         inkscape:connector-curvature="0"
         style="fill:#000000;fill-opacity:1;display:inline"
         id="path7102-86"
         d="m -5.5056473,8856.3065 2.41984,-1.748 c 2.10330003,3.3571 4.451035,5.5699 8.042035,5.1893 5.3899203,-0.3625 7.6217553,-5.9091 6.4935353,-10.0918 -1.08946,-3.7475 -5.5534153,-5.5759 -9.0994803,-3.5746 -0.83619,0.4719 -1.80328997,1.0547 -1.80328997,1.0547 l -1.26236,-2.0576 8.32551497,-9.6852 -9.03488,0 0,4.0086 -3.46693,0 0,-7.1866 17.6597403,0 0,2.4392 c 0,0 -4.7300503,4.8154 -6.2958403,7.455 3.8523453,0.1401 6.9566603,2.5354 8.0676853,6.3254 0.65208,1.9935 0.359005,6.5559 -0.490865,8.5196 -1.419015,3.2786 -5.3048953,5.9373 -8.8555203,6.0909 -5.95706997,0.3935 -9.121805,-3.7069 -10.699185,-6.7389 z" />
      <path
         inkscape:connector-curvature="0"
         style="fill:#000000;fill-opacity:1;display:inline"
         id="path7118-50"
         d="m 190.50804,9078.0213 -2.41984,1.748 c -2.1032,-3.357 -4.45103,-5.5698 -8.04203,-5.1893 -5.38992,0.3625 -7.62176,5.9092 -6.49354,10.0919 1.08946,3.7475 5.55351,5.5758 9.09948,3.5745 0.83619,-0.4718 1.80339,-0.9653 1.80339,-0.9653 l 1.49473,1.9325 -8.55798,9.7209 9.03488,0 0,-4.0086 3.46702,0 0,7.1867 -17.65983,0 0,-2.4393 c 0,0 4.73014,-4.8153 6.29584,-7.455 -3.85225,-0.14 -6.95666,-2.5353 -8.06769,-6.3253 -0.65198,-1.9935 -0.35891,-6.556 0.49096,-8.5196 1.41892,-3.2786 5.3048,-5.9374 8.85552,-6.091 5.95698,-0.3935 9.12171,3.7069 10.69909,6.7389 z" />
      <g
         transform="matrix(0.95,0,0,0.95,4.6250768,448.22326)"
         id="g10258">
        <path
           inkscape:connector-curvature="0"
           style="fill:#000000;fill-opacity:1;display:inline"
           id="path3196"
           d="m 90.37132,8880.1926 c 0.015,-2.0257 -1.5868,-2.0644 -1.5686,-0.5857 -0.1343,7.4286 -6.4165,11.0864 -10.9806,10.2187 -7.0361,-1.3376 -9.2818,-8.3221 -9.2147,-12.4354 0.2072,-12.6963 12.9878,-22.0585 24.5202,-38.3346 8.4501,14.6907 22.3972,26.2296 23.2229,37.5857 1.0977,15.0981 -18.0089,20.7297 -20.7369,3.1327 -0.176,-1.243 -1.6397,-1.8011 -1.5261,-0.065 0.4145,4.8226 -0.1749,6.8314 5.2657,18.7194 l -14.2217,0 c 3.1497,-5.5548 5.0254,-12.3745 5.2398,-18.2357 z" />
        <path
           inkscape:connector-curvature="0"
           style="fill:#000000;fill-opacity:1;display:inline"
           id="path3256"
           d="m 90.37132,8955.8556 c 0.015,2.0257 -1.5868,2.0644 -1.5686,0.5858 -0.1343,-7.4286 -6.4165,-11.0864 -10.9806,-10.2187 -7.0361,1.3376 -9.2818,8.322 -9.2147,12.4354 0.2072,12.6963 12.9878,22.0584 24.5202,38.3346 8.4501,-14.6908 22.3972,-26.2297 23.2229,-37.5858 1.0977,-15.098 -18.0089,-20.7297 -20.7369,-3.1327 -0.176,1.243 -1.6397,1.8011 -1.5261,0.065 0.4145,-4.8226 -0.1749,-6.8313 5.2657,-18.7194 l -14.2217,0 c 3.1497,5.5549 5.0254,12.3746 5.2398,18.2358 z" />
        <path
           inkscape:connector-curvature="0"
           style="fill:#000000;fill-opacity:1;display:inline"
           id="path3258"
           d="m 90.37132,9054.42 c 0.015,2.0257 -1.5868,2.0644 -1.5686,0.5858 -0.1343,-7.4286 -6.4165,-11.0864 -10.9806,-10.2187 -7.0361,1.3376 -9.2818,8.322 -9.2147,12.4354 0.2072,12.6963 12.9878,22.0584 24.5202,38.3346 8.4501,-14.6908 22.3972,-26.2297 23.2229,-37.5858 1.0977,-15.098 -18.0089,-20.7297 -20.7369,-3.1327 -0.176,1.243 -1.6397,1.8011 -1.5261,0.065 0.4145,-4.8226 -0.1749,-6.8313 5.2657,-18.7194 l -14.2217,0 c 3.1497,5.5549 5.0254,12.3746 5.2398,18.2358 z" />
      </g>
      <path
         d="m 3.5610577,8885.2882 c 0.0095,-0.828 -0.850535,-0.4414 -0.96691,-0.1808 -1.10504,1.8863 -2.72155997,2.3253 -4.320505,1.6452 -1.583935,-0.6737 -2.47399,-2.1663 -2.331205,-4.296 0.29469,-3.266 2.88363,-6.8396 4.13725003,-8.8599 1.18939997,-1.8335 2.49650497,-4.0111 3.87286497,-6.7965 1.612435,3.1951 2.430765,4.1046 4.18494,7.0219 1.5447,2.5693 3.6978753,5.0854 3.8641253,8.1913 0,2.3607 -0.9937,4.5902 -3.2294303,4.9964 -1.26483,0.2298 -2.449765,-0.4194 -3.32861,-1.9349 -0.26771,-0.3863 -0.80636,-0.185 -0.797335,0.3438 0.15694,1.9886 0.90763,3.784 2.688025,5.901 l -6.54274497,0 c 1.33959497,-1.4972 2.70626497,-3.5185 2.76953497,-6.0315 z"
         id="path3312"
         style="fill:#000000;fill-opacity:1;display:inline"
         inkscape:connector-curvature="0" />
      <path
         d="m 181.19386,9049.7331 c 0.01,0.8279 -0.85053,0.4413 -0.96691,0.1807 -1.10504,-1.8863 -2.72156,-2.3253 -4.3205,-1.6452 -1.58394,0.6737 -2.47399,2.1663 -2.33121,4.296 0.29469,3.2659 2.88363,6.8396 4.13725,8.8599 1.1894,1.8334 2.49651,4.0111 3.87287,6.7965 1.61234,-3.1951 2.43067,-4.1046 4.18484,-7.022 1.5447,-2.5692 3.69788,-5.0853 3.86413,-8.1912 0,-2.3607 -0.9937,-4.5903 -3.22943,-4.9964 -1.26483,-0.2298 -2.44977,0.4194 -3.32861,1.9349 -0.26771,0.3863 -0.80627,0.185 -0.79724,-0.3438 0.15684,-1.9886 0.90753,-3.784 2.68793,-5.901 l -6.54265,0 c 1.33959,1.4972 2.70626,3.5185 2.76953,6.0316 z"
         id="path3334"
         style="fill:#000000;fill-opacity:1;display:inline"
         inkscape:connector-curvature="0" />
      <path
         inkscape:connector-curvature="0"
         style="fill:#000000;fill-opacity:1;display:inline"
         id="path7102-86-2"
         d="m 170.10708,8856.3065 2.41983,-1.748 c 2.10325,3.3571 4.45101,5.5699 8.04202,5.1893 5.38993,-0.3624 7.62178,-5.9091 6.49353,-10.0918 -1.08947,-3.7475 -5.55343,-5.5758 -9.09946,-3.5746 -0.83618,0.4719 -1.80335,1.0547 -1.80335,1.0547 l -1.26236,-2.0576 8.32555,-9.6852 -9.03488,0 0,4.0086 -3.46694,0 0,-7.1866 17.65979,0 0,2.4392 c 0,0 -4.73012,4.8154 -6.29586,7.455 3.85229,0.1401 6.95666,2.5354 8.06769,6.3254 0.65204,1.9935 0.35895,6.556 -0.4909,8.5196 -1.41901,3.2786 -5.30484,5.9373 -8.85555,6.0909 -5.95704,0.3935 -9.12172,-3.7069 -10.69911,-6.7389 z" />
      <path
         inkscape:connector-curvature="0"
         style="fill:#000000;fill-opacity:1;display:inline"
         id="path7118-50-6"
         d="m 14.895137,9078.0213 -2.41984,1.748 c -2.103252,-3.357 -4.4510158,-5.5698 -8.0420253,-5.1893 -5.38992947,0.3625 -7.621774,5.9092 -6.4935255,10.0919 1.08946953,3.7475 5.5534435,5.5758 9.099461,3.5745 0.8361805,-0.4718 1.803347,-0.9653 1.803347,-0.9653 l 1.4947398,1.9325 -8.5579328,9.7209 9.0348798,0 0,-4.0086 3.466949,0 0,7.1867 -17.6597968,0 0,-2.4393 c 0,0 4.730126,-4.8153 6.295859,-7.455 -3.85228797,-0.14 -6.95666,-2.5353 -8.067685,-6.3253 -0.652042,-1.9935 -0.3589385,-6.556 0.490903,-8.5196 1.4190055,-3.2786 5.30483803,-5.9374 8.855558,-6.091 5.9570228,-0.3935 9.1217098,3.7069 10.6991088,6.7389 z" />
      <path
         d="m 181.44125,8885.2882 c -0.01,-0.828 0.85054,-0.4414 0.96691,-0.1808 1.10504,1.8863 2.72156,2.3253 4.32051,1.6452 1.58393,-0.6737 2.47399,-2.1663 2.3312,-4.296 -0.29469,-3.266 -2.88363,-6.8396 -4.13725,-8.8599 -1.1894,-1.8334 -2.4965,-4.0111 -3.87286,-6.7964 -1.61244,3.195 -2.43077,4.1045 -4.18494,7.0218 -1.5447,2.5693 -3.69788,5.0854 -3.86413,8.1913 0,2.3607 0.9937,4.5902 3.22943,4.9964 1.26483,0.2298 2.44977,-0.4194 3.32861,-1.9349 0.26771,-0.3863 0.80636,-0.185 0.79734,0.3438 -0.15694,1.9886 -0.90763,3.784 -2.68803,5.901 l 6.54275,0 c -1.3396,-1.4972 -2.70627,-3.5185 -2.76954,-6.0315 z"
         id="path3312-5"
         style="fill:#000000;fill-opacity:1;display:inline"
         inkscape:connector-curvature="0" />
      <path
         d="m 3.8084472,9049.7331 c -0.0095,0.8279 0.850535,0.4413 0.96691,0.1807 1.10504,-1.8863 2.72156,-2.3253 4.320505,-1.6453 1.5839348,0.6738 2.4739898,2.1664 2.3312048,4.2961 -0.29469,3.2659 -2.8836298,6.8396 -4.1372498,8.8599 -1.1894,1.8334 -2.496505,4.0111 -3.872865,6.7964 -1.61234,-3.195 -2.43066997,-4.1045 -4.18484497,-7.0219 -1.54470003,-2.5692 -3.69787503,-5.0853 -3.86412503,-8.1912 0,-2.3607 0.9937,-4.5903 3.22943,-4.9964 1.26483003,-0.2298 2.449765,0.4194 3.32861,1.9349 0.26771,0.3863 0.806265,0.185 0.79724,-0.3438 -0.156845,-1.9886 -0.907535,-3.784 -2.68792997,-5.901 l 6.54264997,0 c -1.339595,1.4972 -2.706265,3.5185 -2.769535,6.0316 z"
         id="path3334-3"
         style="fill:#000000;fill-opacity:1;display:inline"
         inkscape:connector-curvature="0" />
    </g>
  </g>
</svg>
