<?xml version="1.0" encoding="UTF-8" standalone="no"?>
<!-- Created with Inkscape (http://www.inkscape.org/) -->

<svg
   xmlns:dc="http://purl.org/dc/elements/1.1/"
   xmlns:cc="http://creativecommons.org/ns#"
   xmlns:rdf="http://www.w3.org/1999/02/22-rdf-syntax-ns#"
   xmlns:svg="http://www.w3.org/2000/svg"
   xmlns="http://www.w3.org/2000/svg"
   xmlns:xlink="http://www.w3.org/1999/xlink"
   xmlns:sodipodi="http://sodipodi.sourceforge.net/DTD/sodipodi-0.dtd"
   xmlns:inkscape="http://www.inkscape.org/namespaces/inkscape"
   width="224.25"
   height="312.78125"
   id="svg18947"
   version="1.1"
   inkscape:version="0.48.3.1 r9886"
   sodipodi:docname="59-Spade05.svg">
  <defs
     id="defs18949">
    <linearGradient
       id="linearGradient3006">
      <stop
         id="stop3008"
         offset="0"
         style="stop-color:#ffffff;stop-opacity:1;" />
      <stop
         style="stop-color:#7f7f7f;stop-opacity:1;"
         offset="0.37675071"
         id="stop3014" />
      <stop
         id="stop3016"
         offset="0.80194807"
         style="stop-color:#ffffff;stop-opacity:1;" />
      <stop
         id="stop3010"
         offset="1"
         style="stop-color:#cccccc;stop-opacity:1" />
    </linearGradient>
    <linearGradient
       id="linearGradient3804">
      <stop
         id="stop3806"
         offset="0"
         style="stop-color:#000000;stop-opacity:1;" />
      <stop
         style="stop-color:#333333;stop-opacity:1"
         offset="0.5"
         id="stop3812" />
      <stop
         id="stop3808"
         offset="1"
         style="stop-color:#000000;stop-opacity:1;" />
    </linearGradient>
    <linearGradient
       id="linearGradient3833">
      <stop
         id="stop3835"
         offset="0"
         style="stop-color:#000000;stop-opacity:1;" />
      <stop
         style="stop-color:#333333;stop-opacity:1"
         offset="0.5"
         id="stop3841" />
      <stop
         id="stop3837"
         offset="1"
         style="stop-color:#000000;stop-opacity:1" />
    </linearGradient>
    <linearGradient
       id="linearGradient3851">
      <stop
         id="stop3853"
         offset="0"
         style="stop-color:#808080;stop-opacity:1;" />
      <stop
         style="stop-color:#ffffff;stop-opacity:1;"
         offset="0.5"
         id="stop3859" />
      <stop
         id="stop3855"
         offset="1"
         style="stop-color:#808080;stop-opacity:1;" />
    </linearGradient>
    <radialGradient
       gradientUnits="userSpaceOnUse"
       gradientTransform="matrix(0.97241988,-0.00350785,0.00204639,0.40929875,4026.4071,-290.65137)"
       r="74.726646"
       fy="208.92761"
       fx="44.149761"
       cy="208.92761"
       cx="44.149761"
       id="radialGradient3939-7-7"
       xlink:href="#linearGradient3933-4-3"
       inkscape:collect="always" />
    <linearGradient
       id="linearGradient3933-4-3"
       inkscape:collect="always">
      <stop
         id="stop3935-0-7"
         offset="0"
         style="stop-color:#000000;stop-opacity:1;" />
      <stop
         id="stop3937-9-2"
         offset="1"
         style="stop-color:#000000;stop-opacity:0;" />
    </linearGradient>
    <linearGradient
       gradientTransform="translate(3914.848,-255.2825)"
       gradientUnits="userSpaceOnUse"
       y2="294.38422"
       x2="178.15625"
       y1="294.38422"
       x1="81.90625"
       id="linearGradient3012-2-7"
       xlink:href="#linearGradient3006-1-5"
       inkscape:collect="always" />
    <linearGradient
       id="linearGradient3006-1-5">
      <stop
         id="stop3008-6-4"
         offset="0"
         style="stop-color:#ffffff;stop-opacity:1;" />
      <stop
         style="stop-color:#7f7f7f;stop-opacity:1;"
         offset="0.37675071"
         id="stop3014-8-12" />
      <stop
         id="stop3016-5-0"
         offset="0.80194807"
         style="stop-color:#ffffff;stop-opacity:1;" />
      <stop
         id="stop3010-7-0"
         offset="1"
         style="stop-color:#cccccc;stop-opacity:1" />
    </linearGradient>
    <linearGradient
       gradientUnits="userSpaceOnUse"
       y2="394.69629"
       x2="156.7487"
       y1="394.69629"
       x1="65.223801"
       id="linearGradient3810-9-1"
       xlink:href="#linearGradient3804-6-4"
       inkscape:collect="always"
       gradientTransform="translate(3914.848,-376.2825)" />
    <linearGradient
       id="linearGradient3804-6-4">
      <stop
         id="stop3806-1-6"
         offset="0"
         style="stop-color:#000000;stop-opacity:1;" />
      <stop
         style="stop-color:#333333;stop-opacity:1"
         offset="0.5"
         id="stop3812-4-0" />
      <stop
         id="stop3808-2-7"
         offset="1"
         style="stop-color:#000000;stop-opacity:1;" />
    </linearGradient>
    <radialGradient
       gradientUnits="userSpaceOnUse"
       gradientTransform="matrix(0.79138519,4.4166814e-8,0,0.48100739,3940.8627,-177.7307)"
       r="43.141743"
       fy="428.49252"
       fx="114.59315"
       cy="428.49252"
       cx="114.59315"
       id="radialGradient3030-7-1"
       xlink:href="#linearGradient3024-3-7"
       inkscape:collect="always" />
    <linearGradient
       id="linearGradient3024-3-7"
       inkscape:collect="always">
      <stop
         style="stop-color:#000000;stop-opacity:1"
         offset="0"
         id="stop3028-2-7" />
      <stop
         style="stop-color:#242424;stop-opacity:1;"
         offset="1"
         id="stop3026-2-7" />
    </linearGradient>
    <linearGradient
       y2="390.78296"
       x2="183.7796"
       y1="375.92633"
       x1="145.60164"
       gradientUnits="userSpaceOnUse"
       id="linearGradient3113-4-7"
       xlink:href="#linearGradient3101-2-3"
       inkscape:collect="always"
       gradientTransform="translate(3914.848,-376.2825)" />
    <linearGradient
       id="linearGradient3101-2-3"
       inkscape:collect="always">
      <stop
         id="stop3103-4-3"
         offset="0"
         style="stop-color:#000000;stop-opacity:1;" />
      <stop
         id="stop3105-5-5"
         offset="1"
         style="stop-color:#000000;stop-opacity:0;" />
    </linearGradient>
    <linearGradient
       gradientUnits="userSpaceOnUse"
       y2="405.19611"
       x2="116.81388"
       y1="395.66125"
       x1="113.00574"
       id="linearGradient3107-7-9"
       xlink:href="#linearGradient3101-2-3"
       inkscape:collect="always"
       gradientTransform="translate(3914.848,-376.2825)" />
    <linearGradient
       y2="459.14062"
       x2="-128.625"
       y1="459.14062"
       x1="-158.78125"
       gradientTransform="matrix(0.43846429,7.9081918e-4,-6.5324466e-4,0.53080568,903.27012,-3758.3554)"
       gradientUnits="userSpaceOnUse"
       id="linearGradient3086-3-9"
       xlink:href="#linearGradient3833-1-81"
       inkscape:collect="always" />
    <linearGradient
       id="linearGradient3833-1-81">
      <stop
         id="stop3835-5-82"
         offset="0"
         style="stop-color:#000000;stop-opacity:1;" />
      <stop
         style="stop-color:#333333;stop-opacity:1"
         offset="0.5"
         id="stop3841-2-6" />
      <stop
         id="stop3837-7-6"
         offset="1"
         style="stop-color:#000000;stop-opacity:1" />
    </linearGradient>
    <linearGradient
       y2="463.51562"
       x2="-281.15625"
       y1="463.51562"
       x1="-311.3125"
       gradientTransform="matrix(0.43846429,7.9081918e-4,-6.5324466e-4,0.53080568,970.15112,-3759.4954)"
       gradientUnits="userSpaceOnUse"
       id="linearGradient3088-8-0"
       xlink:href="#linearGradient3851-5-38"
       inkscape:collect="always" />
    <linearGradient
       id="linearGradient3851-5-38">
      <stop
         id="stop3853-1-0"
         offset="0"
         style="stop-color:#808080;stop-opacity:1;" />
      <stop
         style="stop-color:#ffffff;stop-opacity:1;"
         offset="0.5"
         id="stop3859-7-1" />
      <stop
         id="stop3855-1-2"
         offset="1"
         style="stop-color:#808080;stop-opacity:1;" />
    </linearGradient>
    <radialGradient
       gradientUnits="userSpaceOnUse"
       gradientTransform="matrix(0.97241988,-0.00350785,0.00204639,0.40929875,4026.4073,-290.65147)"
       r="74.726646"
       fy="208.92761"
       fx="44.149761"
       cy="208.92761"
       cx="44.149761"
       id="radialGradient3939-7"
       xlink:href="#linearGradient3933-4"
       inkscape:collect="always" />
    <linearGradient
       id="linearGradient3933-4"
       inkscape:collect="always">
      <stop
         id="stop3935-0"
         offset="0"
         style="stop-color:#000000;stop-opacity:1;" />
      <stop
         id="stop3937-9"
         offset="1"
         style="stop-color:#000000;stop-opacity:0;" />
    </linearGradient>
    <linearGradient
       gradientTransform="translate(3914.8481,-255.28247)"
       gradientUnits="userSpaceOnUse"
       y2="294.38422"
       x2="178.15625"
       y1="294.38422"
       x1="81.90625"
       id="linearGradient3012-2"
       xlink:href="#linearGradient3006-1"
       inkscape:collect="always" />
    <linearGradient
       id="linearGradient3006-1">
      <stop
         id="stop3008-6"
         offset="0"
         style="stop-color:#ffffff;stop-opacity:1;" />
      <stop
         style="stop-color:#7f7f7f;stop-opacity:1;"
         offset="0.37675071"
         id="stop3014-8" />
      <stop
         id="stop3016-5"
         offset="0.80194807"
         style="stop-color:#ffffff;stop-opacity:1;" />
      <stop
         id="stop3010-7"
         offset="1"
         style="stop-color:#cccccc;stop-opacity:1" />
    </linearGradient>
    <linearGradient
       gradientUnits="userSpaceOnUse"
       y2="394.69629"
       x2="156.7487"
       y1="394.69629"
       x1="65.223801"
       id="linearGradient3810-9"
       xlink:href="#linearGradient3804-6"
       inkscape:collect="always"
       gradientTransform="translate(3914.8481,-376.28247)" />
    <linearGradient
       id="linearGradient3804-6">
      <stop
         id="stop3806-1"
         offset="0"
         style="stop-color:#000000;stop-opacity:1;" />
      <stop
         style="stop-color:#333333;stop-opacity:1"
         offset="0.5"
         id="stop3812-4" />
      <stop
         id="stop3808-2"
         offset="1"
         style="stop-color:#000000;stop-opacity:1;" />
    </linearGradient>
    <radialGradient
       gradientUnits="userSpaceOnUse"
       gradientTransform="matrix(0.79138519,4.4166814e-8,0,0.48100739,3940.8628,-177.73072)"
       r="43.141743"
       fy="428.49252"
       fx="114.59315"
       cy="428.49252"
       cx="114.59315"
       id="radialGradient3030-7"
       xlink:href="#linearGradient3024-3"
       inkscape:collect="always" />
    <linearGradient
       id="linearGradient3024-3"
       inkscape:collect="always">
      <stop
         style="stop-color:#000000;stop-opacity:1"
         offset="0"
         id="stop3028-2" />
      <stop
         style="stop-color:#242424;stop-opacity:1;"
         offset="1"
         id="stop3026-2" />
    </linearGradient>
    <linearGradient
       y2="390.78296"
       x2="183.7796"
       y1="375.92633"
       x1="145.60164"
       gradientUnits="userSpaceOnUse"
       id="linearGradient3113-4"
       xlink:href="#linearGradient3101-2"
       inkscape:collect="always"
       gradientTransform="translate(3914.8481,-376.28247)" />
    <linearGradient
       id="linearGradient3101-2"
       inkscape:collect="always">
      <stop
         id="stop3103-4"
         offset="0"
         style="stop-color:#000000;stop-opacity:1;" />
      <stop
         id="stop3105-5"
         offset="1"
         style="stop-color:#000000;stop-opacity:0;" />
    </linearGradient>
    <linearGradient
       gradientUnits="userSpaceOnUse"
       y2="405.19611"
       x2="116.81388"
       y1="395.66125"
       x1="113.00574"
       id="linearGradient3107-7"
       xlink:href="#linearGradient3101-2"
       inkscape:collect="always"
       gradientTransform="translate(3914.8481,-376.28247)" />
    <linearGradient
       y2="459.14062"
       x2="-128.625"
       y1="459.14062"
       x1="-158.78125"
       gradientTransform="matrix(0.43846429,7.9081918e-4,-6.5324466e-4,0.53080568,903.27012,-3758.3554)"
       gradientUnits="userSpaceOnUse"
       id="linearGradient3086-3"
       xlink:href="#linearGradient3833-1"
       inkscape:collect="always" />
    <linearGradient
       id="linearGradient3833-1">
      <stop
         id="stop3835-5"
         offset="0"
         style="stop-color:#000000;stop-opacity:1;" />
      <stop
         style="stop-color:#333333;stop-opacity:1"
         offset="0.5"
         id="stop3841-2" />
      <stop
         id="stop3837-7"
         offset="1"
         style="stop-color:#000000;stop-opacity:1" />
    </linearGradient>
    <linearGradient
       y2="463.51562"
       x2="-281.15625"
       y1="463.51562"
       x1="-311.3125"
       gradientTransform="matrix(0.43846429,7.9081918e-4,-6.5324466e-4,0.53080568,970.15119,-3759.4955)"
       gradientUnits="userSpaceOnUse"
       id="linearGradient3088-8"
       xlink:href="#linearGradient3851-5"
       inkscape:collect="always" />
    <linearGradient
       id="linearGradient3851-5">
      <stop
         id="stop3853-1"
         offset="0"
         style="stop-color:#808080;stop-opacity:1;" />
      <stop
         style="stop-color:#ffffff;stop-opacity:1;"
         offset="0.5"
         id="stop3859-7" />
      <stop
         id="stop3855-1"
         offset="1"
         style="stop-color:#808080;stop-opacity:1;" />
    </linearGradient>
    <radialGradient
       gradientUnits="userSpaceOnUse"
       gradientTransform="matrix(0.97241988,-0.00350785,0.00204639,0.40929875,3999.0996,-324.0036)"
       r="74.726646"
       fy="208.92761"
       fx="44.149761"
       cy="208.92761"
       cx="44.149761"
       id="radialGradient3939-7-9"
       xlink:href="#linearGradient3933-4-1"
       inkscape:collect="always" />
    <linearGradient
       id="linearGradient3933-4-1"
       inkscape:collect="always">
      <stop
         id="stop3935-0-5"
         offset="0"
         style="stop-color:#000000;stop-opacity:1;" />
      <stop
         id="stop3937-9-7"
         offset="1"
         style="stop-color:#000000;stop-opacity:0;" />
    </linearGradient>
    <linearGradient
       gradientTransform="translate(3889.1159,-292.38739)"
       gradientUnits="userSpaceOnUse"
       y2="294.38422"
       x2="178.15625"
       y1="294.38422"
       x1="81.90625"
       id="linearGradient3012-2-3"
       xlink:href="#linearGradient3006-1-3"
       inkscape:collect="always" />
    <linearGradient
       id="linearGradient3006-1-3">
      <stop
         id="stop3008-6-42"
         offset="0"
         style="stop-color:#ffffff;stop-opacity:1;" />
      <stop
         style="stop-color:#7f7f7f;stop-opacity:1;"
         offset="0.37675071"
         id="stop3014-8-2" />
      <stop
         id="stop3016-5-01"
         offset="0.80194807"
         style="stop-color:#ffffff;stop-opacity:1;" />
      <stop
         id="stop3010-7-2"
         offset="1"
         style="stop-color:#cccccc;stop-opacity:1" />
    </linearGradient>
    <linearGradient
       gradientUnits="userSpaceOnUse"
       y2="394.69629"
       x2="156.7487"
       y1="394.69629"
       x1="65.223801"
       id="linearGradient3810-9-7"
       xlink:href="#linearGradient3804-6-7"
       inkscape:collect="always"
       gradientTransform="translate(3889.1159,-413.38739)" />
    <linearGradient
       id="linearGradient3804-6-7">
      <stop
         id="stop3806-1-0"
         offset="0"
         style="stop-color:#000000;stop-opacity:1;" />
      <stop
         style="stop-color:#333333;stop-opacity:1"
         offset="0.5"
         id="stop3812-4-2" />
      <stop
         id="stop3808-2-4"
         offset="1"
         style="stop-color:#000000;stop-opacity:1;" />
    </linearGradient>
    <radialGradient
       gradientUnits="userSpaceOnUse"
       gradientTransform="matrix(0.79138519,4.4166814e-8,0,0.48100739,3915.1306,-214.83564)"
       r="43.141743"
       fy="428.49252"
       fx="114.59315"
       cy="428.49252"
       cx="114.59315"
       id="radialGradient3030-7-10"
       xlink:href="#linearGradient3024-3-3"
       inkscape:collect="always" />
    <linearGradient
       id="linearGradient3024-3-3"
       inkscape:collect="always">
      <stop
         style="stop-color:#000000;stop-opacity:1"
         offset="0"
         id="stop3028-2-73" />
      <stop
         style="stop-color:#242424;stop-opacity:1;"
         offset="1"
         id="stop3026-2-9" />
    </linearGradient>
    <linearGradient
       y2="390.78296"
       x2="183.7796"
       y1="375.92633"
       x1="145.60164"
       gradientUnits="userSpaceOnUse"
       id="linearGradient3113-4-5"
       xlink:href="#linearGradient3101-2-9"
       inkscape:collect="always"
       gradientTransform="translate(3889.1159,-413.38739)" />
    <linearGradient
       id="linearGradient3101-2-9"
       inkscape:collect="always">
      <stop
         id="stop3103-4-7"
         offset="0"
         style="stop-color:#000000;stop-opacity:1;" />
      <stop
         id="stop3105-5-2"
         offset="1"
         style="stop-color:#000000;stop-opacity:0;" />
    </linearGradient>
    <linearGradient
       gradientUnits="userSpaceOnUse"
       y2="405.19611"
       x2="116.81388"
       y1="395.66125"
       x1="113.00574"
       id="linearGradient3107-7-0"
       xlink:href="#linearGradient3101-2-9"
       inkscape:collect="always"
       gradientTransform="translate(3889.1159,-413.38739)" />
    <linearGradient
       y2="459.14062"
       x2="-128.625"
       y1="459.14062"
       x1="-158.78125"
       gradientTransform="matrix(0.43846429,7.9081918e-4,-6.5324466e-4,0.53080568,860.24197,-3744.6624)"
       gradientUnits="userSpaceOnUse"
       id="linearGradient3086-3-2"
       xlink:href="#linearGradient3833-1-8"
       inkscape:collect="always" />
    <linearGradient
       id="linearGradient3833-1-8">
      <stop
         id="stop3835-5-6"
         offset="0"
         style="stop-color:#000000;stop-opacity:1;" />
      <stop
         style="stop-color:#333333;stop-opacity:1"
         offset="0.5"
         id="stop3841-2-7" />
      <stop
         id="stop3837-7-0"
         offset="1"
         style="stop-color:#000000;stop-opacity:1" />
    </linearGradient>
    <linearGradient
       y2="463.51562"
       x2="-281.15625"
       y1="463.51562"
       x1="-311.3125"
       gradientTransform="matrix(0.43846429,7.9081918e-4,-6.5324466e-4,0.53080568,927.12304,-3745.8025)"
       gradientUnits="userSpaceOnUse"
       id="linearGradient3088-8-8"
       xlink:href="#linearGradient3851-5-1"
       inkscape:collect="always" />
    <linearGradient
       id="linearGradient3851-5-1">
      <stop
         id="stop3853-1-8"
         offset="0"
         style="stop-color:#808080;stop-opacity:1;" />
      <stop
         style="stop-color:#ffffff;stop-opacity:1;"
         offset="0.5"
         id="stop3859-7-3" />
      <stop
         id="stop3855-1-0"
         offset="1"
         style="stop-color:#808080;stop-opacity:1;" />
    </linearGradient>
  </defs>
  <sodipodi:namedview
     id="base"
     pagecolor="#ffffff"
     bordercolor="#666666"
     borderopacity="1.0"
     inkscape:pageopacity="0.0"
     inkscape:pageshadow="2"
     inkscape:zoom="1.5696767"
     inkscape:cx="112.125"
     inkscape:cy="156.39062"
     inkscape:document-units="px"
     inkscape:current-layer="g10974"
     showgrid="false"
     fit-margin-top="0"
     fit-margin-left="0"
     fit-margin-right="0"
     fit-margin-bottom="0"
     inkscape:window-width="824"
     inkscape:window-height="786"
     inkscape:window-x="6"
     inkscape:window-y="31"
     inkscape:window-maximized="0"
     inkscape:snap-global="true"
     inkscape:snap-bbox="true"
     inkscape:bbox-paths="true"
     inkscape:bbox-nodes="true"
     inkscape:snap-bbox-edge-midpoints="true"
     inkscape:snap-bbox-midpoints="true"
     inkscape:snap-object-midpoints="true"
     inkscape:snap-center="true" />
  <metadata
     id="metadata18952">
    <rdf:RDF>
      <cc:Work
         rdf:about="">
        <dc:format>image/svg+xml</dc:format>
        <dc:type
           rdf:resource="http://purl.org/dc/dcmitype/StillImage" />
        <dc:title />
      </cc:Work>
    </rdf:RDF>
  </metadata>
  <g
     inkscape:label="Layer 1"
     inkscape:groupmode="layer"
     id="layer1"
     transform="translate(-247.87401,-381.68621)">
    <g
       style="display:inline"
       id="g10974"
       transform="translate(267.49802,-9074.7027)"
       inkscape:export-filename="C:\Users\MXY\Documents\SVG Deck(4-19-2011)\Finalized\Colorized - SVG_Vector_Playing_Cards_Version_1.3\COMBINED TEST.png"
       inkscape:export-xdpi="70"
       inkscape:export-ydpi="70">
      <path
         inkscape:connector-curvature="0"
         style="fill:#000000;fill-opacity:1;display:inline"
         id="path7106-3"
         d="m -5.762151,9500.3302 3.059095,-0.027 c 0.58178,1.8468 1.87340004,3.7299 3.62615004,4.2497 4.95120996,1.1627 8.13902996,-1.6029 9.18887496,-4.7943 1.27319,-3.8698 -0.0285,-9.3056 -3.436625,-11.2363 -2.826915,-1.6015 -7.02524996,-0.2508 -8.950995,3.1716 l -2.14434,-1.3108 1.15083,-12.7507 13.99407,0 0,3.0133 -11.34090996,0 -0.177935,5.3116 c 2.43703496,-1.712 6.19219496,-1.6953 8.63112996,-0.4939 4.62156,2.203 6.7678,7.2131 5.868435,13.12 -1.244975,5.8741 -3.98753,9.2022 -10.181625,9.6805 -6.882465,0.06 -9.313515,-4.6721 -9.286155,-7.9337 z" />
      <path
         inkscape:connector-curvature="0"
         style="fill:#000000;fill-opacity:1;display:inline"
         id="path7122-4"
         d="m 190.76435,9725.2288 -3.0591,0.027 c -0.58168,-1.8469 -1.8734,-3.7299 -3.62605,-4.2497 -4.95131,-1.1627 -8.13913,1.6029 -9.18897,4.7943 -1.2731,3.8698 0.0285,9.3056 3.43662,11.2363 2.82692,1.6015 7.02525,0.2508 8.951,-3.1716 l 2.14434,1.3108 -1.15083,12.7507 -13.99398,0 0,-3.0133 11.34082,0 0.17793,-5.3116 c -2.43703,1.712 -6.19219,1.6953 -8.63113,0.4939 -4.62156,-2.203 -6.7678,-7.2131 -5.86834,-13.12 1.24488,-5.874 3.98753,-9.2022 10.18163,-9.6805 6.88237,-0.06 9.31351,4.6721 9.28606,7.9337 z" />
      <g
         transform="matrix(0.95,0,0,0.95,4.3376564,481.4924)"
         id="g10269">
        <path
           inkscape:connector-curvature="0"
           style="fill:#000000;fill-opacity:1;display:inline"
           id="path3202"
           d="m 35.804086,9524.9933 c 0.015,-2.0257 -1.5868,-2.0644 -1.5686,-0.5857 -0.1343,7.4286 -6.4165,11.0864 -10.9806,10.2187 -7.0361,-1.3376 -9.2818,-8.3221 -9.2147,-12.4354 0.2072,-12.6963 12.9878,-22.0585 24.5202,-38.3346 8.4501,14.6907 22.3972,26.2296 23.2229,37.5857 1.0977,15.0981 -18.0089,20.7297 -20.7369,3.1327 -0.176,-1.243 -1.6397,-1.8011 -1.5261,-0.065 0.4145,4.8226 -0.1749,6.8314 5.2657,18.7194 l -14.2217,0 c 3.1497,-5.5548 5.0254,-12.3745 5.2398,-18.2357 z" />
        <path
           inkscape:connector-curvature="0"
           style="fill:#000000;fill-opacity:1;display:inline"
           id="path3204"
           d="m 145.5328,9524.9933 c 0.015,-2.0257 -1.5868,-2.0644 -1.5686,-0.5857 -0.1343,7.4286 -6.4165,11.0864 -10.9806,10.2187 -7.0361,-1.3376 -9.2818,-8.3221 -9.2147,-12.4354 0.2072,-12.6963 12.9878,-22.0585 24.5202,-38.3346 8.4501,14.6907 22.3972,26.2296 23.2229,37.5857 1.0977,15.0981 -18.0089,20.7297 -20.7369,3.1327 -0.176,-1.243 -1.6397,-1.8011 -1.5261,-0.065 0.4145,4.8226 -0.1749,6.8314 5.2657,18.7194 l -14.2217,0 c 3.1497,-5.5548 5.0254,-12.3745 5.2398,-18.2357 z" />
        <path
           inkscape:connector-curvature="0"
           style="fill:#000000;fill-opacity:1;display:inline"
           id="path3206"
           d="m 90.37132,9624.2301 c 0.015,-2.0257 -1.5868,-2.0644 -1.5686,-0.5857 -0.1343,7.4286 -6.4165,11.0864 -10.9806,10.2187 -7.0361,-1.3376 -9.2818,-8.3221 -9.2147,-12.4354 0.2072,-12.6963 12.9878,-22.0585 24.5202,-38.3346 8.4501,14.6907 22.3972,26.2296 23.2229,37.5857 1.0977,15.0981 -18.0089,20.7297 -20.7369,3.1327 -0.176,-1.243 -1.6397,-1.8011 -1.5261,-0.065 0.4145,4.8226 -0.1749,6.8314 5.2657,18.7194 l -14.2217,0 c 3.1497,-5.5548 5.0254,-12.3745 5.2398,-18.2357 z" />
        <path
           inkscape:connector-curvature="0"
           style="fill:#000000;fill-opacity:1;display:inline"
           id="path3264"
           d="m 35.804086,9698.769 c 0.015,2.0257 -1.5868,2.0644 -1.5686,0.5858 -0.1343,-7.4286 -6.4165,-11.0864 -10.9806,-10.2187 -7.0361,1.3376 -9.2818,8.322 -9.2147,12.4354 0.2072,12.6963 12.9878,22.0584 24.5202,38.3346 8.4501,-14.6908 22.3972,-26.2297 23.2229,-37.5858 1.0977,-15.098 -18.0089,-20.7297 -20.7369,-3.1327 -0.176,1.243 -1.6397,1.8011 -1.5261,0.065 0.4145,-4.8226 -0.1749,-6.8313 5.2657,-18.7194 l -14.2217,0 c 3.1497,5.5549 5.0254,12.3746 5.2398,18.2358 z" />
        <path
           inkscape:connector-curvature="0"
           style="fill:#000000;fill-opacity:1;display:inline"
           id="path3266"
           d="m 145.5436,9698.769 c 0.015,2.0257 -1.5868,2.0644 -1.5686,0.5858 -0.1343,-7.4286 -6.4165,-11.0864 -10.9806,-10.2187 -7.0361,1.3376 -9.2818,8.322 -9.2147,12.4354 0.2072,12.6963 12.9878,22.0584 24.5202,38.3346 8.4501,-14.6908 22.3972,-26.2297 23.2229,-37.5858 1.0977,-15.098 -18.0089,-20.7297 -20.7369,-3.1327 -0.176,1.243 -1.6397,1.8011 -1.5261,0.065 0.4145,-4.8226 -0.1749,-6.8313 5.2657,-18.7194 l -14.2217,0 c 3.1497,5.5549 5.0254,12.3746 5.2398,18.2358 z" />
      </g>
      <path
         d="m 3.336664,9530.8397 c 0.0095,-0.8279 -0.850535,-0.4413 -0.96691,-0.1808 -1.10504,1.8864 -2.72155996,2.3254 -4.320505,1.6452 -1.583935,-0.6736 -2.47399,-2.1662 -2.331205,-4.2959 0.29469,-3.2661 2.88363,-6.8397 4.13725004,-8.86 1.18939996,-1.8334 2.49650496,-4.011 3.87286496,-6.7964 1.612435,3.1951 2.430765,4.1045 4.18494,7.0219 1.5447,2.5692 3.697875,5.0853 3.864125,8.1913 0,2.3606 -0.9937,4.5902 -3.22943,4.9964 -1.26483,0.2298 -2.449765,-0.4194 -3.32861,-1.935 -0.26771,-0.3862 -0.80636,-0.1849 -0.797335,0.3439 0.15694,1.9886 0.90763,3.784 2.688025,5.901 l -6.54274496,0 c 1.33959496,-1.4972 2.70626496,-3.5185 2.76953496,-6.0316 z"
         id="path3316"
         style="fill:#000000;fill-opacity:1;display:inline"
         inkscape:connector-curvature="0" />
      <path
         d="m 180.70917,9694.9481 c 0.01,0.828 -0.85054,0.4414 -0.96691,0.1808 -1.10504,-1.8863 -2.72156,-2.3253 -4.32051,-1.6453 -1.58393,0.6738 -2.47399,2.1664 -2.3312,4.2961 0.29469,3.2659 2.88363,6.8396 4.13725,8.8599 1.1894,1.8334 2.4965,4.0111 3.87286,6.7964 1.61234,-3.195 2.43067,-4.1045 4.18485,-7.0219 1.5447,-2.5692 3.69787,-5.0853 3.86412,-8.1912 0,-2.3607 -0.9937,-4.5902 -3.22943,-4.9964 -1.26483,-0.2299 -2.44976,0.4194 -3.32861,1.9349 -0.26771,0.3863 -0.80626,0.185 -0.79724,-0.3438 0.15685,-1.9886 0.90754,-3.784 2.68793,-5.901 l -6.54265,0 c 1.3396,1.4972 2.70627,3.5185 2.76954,6.0315 z"
         id="path3338"
         style="fill:#000000;fill-opacity:1;display:inline"
         inkscape:connector-curvature="0" />
      <path
         inkscape:connector-curvature="0"
         style="fill:#000000;fill-opacity:1;display:inline"
         id="path7106-3-1"
         d="m 171.09574,9500.3303 3.05909,-0.027 c 0.58178,1.8469 1.8734,3.7299 3.62615,4.2497 4.95121,1.1627 8.13903,-1.6029 9.18888,-4.7943 1.27319,-3.8698 -0.0285,-9.3056 -3.43663,-11.2363 -2.82691,-1.6015 -7.02525,-0.2508 -8.95099,3.1716 l -2.14434,-1.3108 1.15083,-12.7507 13.99407,0 0,3.0133 -11.34091,0 -0.17794,5.3116 c 2.43704,-1.712 6.1922,-1.6953 8.63113,-0.4939 4.62156,2.203 6.7678,7.2131 5.86844,13.12 -1.24498,5.8741 -3.98753,9.2022 -10.18163,9.6805 -6.88246,0.06 -9.31351,-4.6721 -9.28615,-7.9337 z" />
      <path
         inkscape:connector-curvature="0"
         style="fill:#000000;fill-opacity:1;display:inline"
         id="path7122-4-8"
         d="m 13.906364,9725.2289 -3.059095,0.027 c -0.581685,-1.8469 -1.8734,-3.7299 -3.626055,-4.2497 -4.951305,-1.1627 -8.13912496,1.6029 -9.18897,4.7943 -1.273095,3.8698 0.0285,9.3056 3.436625,11.2363 2.826915,1.6015 7.02525,0.2508 8.950995,-3.1716 l 2.14434,1.3108 -1.15083,12.7507 -13.993975,0 0,-3.0133 11.340815,0 0.177935,-5.3116 c -2.437035,1.712 -6.192195,1.6953 -8.63112996,0.4939 -4.62156004,-2.203 -6.76780004,-7.2131 -5.86834004,-13.12 1.24488,-5.8741 3.98753,-9.2022 10.181625,-9.6805 6.88237,-0.06 9.313515,4.6721 9.28606,7.9337 z" />
      <path
         d="m 181.66553,9530.8398 c -0.01,-0.8279 0.85054,-0.4414 0.96691,-0.1808 1.10504,1.8864 2.72156,2.3253 4.32051,1.6452 1.58393,-0.6736 2.47399,-2.1662 2.3312,-4.296 -0.29469,-3.266 -2.88363,-6.8396 -4.13725,-8.8598 -1.1894,-1.8335 -2.4965,-4.0111 -3.87286,-6.7965 -1.61244,3.1951 -2.43077,4.1045 -4.18494,7.0219 -1.5447,2.5693 -3.69788,5.0853 -3.86413,8.1913 0,2.3606 0.9937,4.5903 3.22943,4.9964 1.26483,0.2298 2.44977,-0.4194 3.32861,-1.935 0.26771,-0.3862 0.80636,-0.1849 0.79734,0.3438 -0.15694,1.9887 -0.90763,3.7841 -2.68803,5.9011 l 6.54275,0 c -1.3396,-1.4972 -2.70627,-3.5185 -2.76954,-6.0316 z"
         id="path3316-2"
         style="fill:#000000;fill-opacity:1;display:inline"
         inkscape:connector-curvature="0" />
      <path
         d="m 4.293029,9694.9482 c -0.0095,0.828 0.850535,0.4414 0.96691,0.1808 1.10504,-1.8863 2.72156,-2.3253 4.320505,-1.6453 1.583935,0.6738 2.47399,2.1664 2.331205,4.2961 -0.29469,3.2659 -2.88363,6.8396 -4.13725,8.8599 -1.1894,1.8334 -2.496505,4.0111 -3.872865,6.7964 -1.61234,-3.1951 -2.43067,-4.1045 -4.18484496,-7.0219 -1.54470004,-2.5692 -3.69787504,-5.0853 -3.86412504,-8.1912 0,-2.3607 0.9937,-4.5903 3.22943004,-4.9965 1.26483,-0.2298 2.44976496,0.4195 3.32860996,1.935 0.26771,0.3863 0.806265,0.185 0.79724,-0.3438 -0.156845,-1.9886 -0.907535,-3.784 -2.68792996,-5.901 l 6.54264996,0 c -1.339595,1.4971 -2.706265,3.5185 -2.769535,6.0315 z"
         id="path3338-1"
         style="fill:#000000;fill-opacity:1;display:inline"
         inkscape:connector-curvature="0" />
    </g>
  </g>
</svg>
