<?xml version="1.0" encoding="UTF-8" standalone="no"?>
<!-- Created with Inkscape (http://www.inkscape.org/) -->

<svg
   xmlns:dc="http://purl.org/dc/elements/1.1/"
   xmlns:cc="http://creativecommons.org/ns#"
   xmlns:rdf="http://www.w3.org/1999/02/22-rdf-syntax-ns#"
   xmlns:svg="http://www.w3.org/2000/svg"
   xmlns="http://www.w3.org/2000/svg"
   xmlns:sodipodi="http://sodipodi.sourceforge.net/DTD/sodipodi-0.dtd"
   xmlns:inkscape="http://www.inkscape.org/namespaces/inkscape"
   width="224.25"
   height="312.78125"
   id="svg18947"
   version="1.1"
   inkscape:version="0.48+devel r"
   sodipodi:docname="6-Club06.svg">
  <sodipodi:namedview
     id="base"
     pagecolor="#ffffff"
     bordercolor="#666666"
     borderopacity="1.0"
     inkscape:pageopacity="0.0"
     inkscape:pageshadow="2"
     inkscape:zoom="2"
     inkscape:cx="95.617555"
     inkscape:cy="184.41177"
     inkscape:document-units="px"
     inkscape:current-layer="g73"
     showgrid="false"
     fit-margin-top="0"
     fit-margin-left="0"
     fit-margin-right="0"
     fit-margin-bottom="0"
     inkscape:window-width="1032"
     inkscape:window-height="1222"
     inkscape:window-x="1368"
     inkscape:window-y="75"
     inkscape:window-maximized="0"
     inkscape:snap-global="true"
     inkscape:snap-bbox="true"
     inkscape:bbox-paths="true"
     inkscape:bbox-nodes="true"
     inkscape:snap-bbox-edge-midpoints="true"
     inkscape:snap-bbox-midpoints="true"
     inkscape:snap-object-midpoints="true"
     inkscape:snap-center="true">
    <sodipodi:guide
       id="guide41763"
       orientation="312.7813,0"
       position="0.0,0" />
    <sodipodi:guide
       id="guide41765"
       orientation="312.7813,0"
       position="28.0313,0" />
    <sodipodi:guide
       id="guide41767"
       orientation="312.7813,0"
       position="56.0625,0" />
    <sodipodi:guide
       id="guide41769"
       orientation="312.7813,0"
       position="84.0938,0" />
    <sodipodi:guide
       id="guide41771"
       orientation="312.7813,0"
       position="112.125,0" />
    <sodipodi:guide
       id="guide41773"
       orientation="312.7813,0"
       position="140.1563,0" />
    <sodipodi:guide
       id="guide41775"
       orientation="312.7813,0"
       position="168.1875,0" />
    <sodipodi:guide
       id="guide41777"
       orientation="312.7813,0"
       position="196.2188,0" />
    <sodipodi:guide
       id="guide41779"
       orientation="312.7813,0"
       position="224.25,0" />
    <sodipodi:guide
       id="guide41781"
       orientation="0,224.25"
       position="0,0.0" />
    <sodipodi:guide
       id="guide41783"
       orientation="0,224.25"
       position="0,156.3906" />
    <sodipodi:guide
       id="guide41785"
       orientation="0,224.25"
       position="0,312.7813" />
  </sodipodi:namedview>
  <defs
     id="defs18949" />
  <metadata
     id="metadata18952">
    <rdf:RDF>
      <cc:Work
         rdf:about="">
        <dc:format>image/svg+xml</dc:format>
        <dc:type
           rdf:resource="http://purl.org/dc/dcmitype/StillImage" />
        <dc:title />
      </cc:Work>
    </rdf:RDF>
  </metadata>
  <g
     transform="translate(-247.87401,-381.68621)"
     id="layer1"
     inkscape:groupmode="layer"
     inkscape:label="Layer 1">
    <g
       transform="translate(-926.62737,345.53041)"
       id="g106737"
       style="display:inline">
      <path
         d="m 1188.3192,78.636553 c -0.3879,-2.60984 -0.3817,-9.353035 -0.063,-11.345375 0.9777,-6.107075 3.3556,-8.90036 7.3365,-9.815875 3.8653,-0.888915 9.2996,0.100605 10.4919,5.2079 l -3.2361,0.05985 c -1.7478,-3.451635 -6.1706,-2.52909 -8.66,-1.027995 -1.9884,1.198995 -2.8866,6.19362 -2.5023,6.50104 0,0 3.7592,-2.733245 6.7219,-2.531655 6.3349,0.64771 8.9467,6.038105 8.726,11.132765 -0.2002,6.12712 -2.1802,11.022375 -8.8931,11.34908 -6.3822,-0.240825 -9.3097,-3.657595 -9.922,-9.52964 z m 15.7419,-1.61975 c 0.035,-4.251535 -1.932,-7.43166 -5.652,-7.78278 -3.72,-0.35112 -7.4703,3.21271 -7.2107,7.545375 0.2606,4.34777 1.9747,8.01021 6.485,7.98988 4.8508,-0.02185 6.3526,-4.727485 6.3777,-7.752475 z"
         id="path7108-1"
         style="fill:#008000;fill-opacity:1;display:inline"
         inkscape:connector-curvature="0" />
      <path
         d="m 1384.7304,306.45615 c 0.388,2.60984 0.3817,9.35303 0.063,11.34537 -0.9776,6.10708 -3.3556,8.90036 -7.3365,9.81588 -3.8652,0.88891 -9.2994,-0.10061 -10.4919,-5.2079 l 3.2362,-0.0598 c 1.7477,3.45163 6.1706,2.52909 8.6599,1.02809 1.9885,-1.19909 2.8866,-6.19372 2.5023,-6.50114 0,0 -3.7591,2.73334 -6.7219,2.53166 -6.3349,-0.64771 -8.9466,-6.03801 -8.7259,-11.13277 0.2001,-6.12712 2.1801,-11.02228 8.893,-11.34908 6.3823,0.24083 9.3097,3.6576 9.922,9.52964 z m -15.7419,1.61975 c -0.035,4.25163 1.932,7.43166 5.6521,7.78278 3.72,0.35112 7.4703,-3.21271 7.2106,-7.54538 -0.2605,-4.34777 -1.9746,-8.01021 -6.4849,-7.98988 -4.8508,0.0219 -6.3527,4.72758 -6.3778,7.75248 z"
         id="path7161-2"
         style="fill:#008000;fill-opacity:1;display:inline"
         inkscape:connector-curvature="0" />
      <g
         id="g8185"
         transform="matrix(0.95,0,0,0.95,1198.1646,-1273.1098)">
        <path
           inkscape:connector-curvature="0"
           style="fill:#008000;fill-opacity:1;display:inline"
           id="path3237"
           d="m 136.145,1571.3666 c 2.879,-5.7756 4.9759,-11.701 5.3481,-18.0374 0.3416,-2.3316 -1.0746,-2.3707 -1.2881,-0.7286 -4.0764,15.5928 -25.7627,11.3705 -25.0171,-3.2965 0.605,-11.8947 12.4195,-14.4537 18.5823,-10.5645 2.4336,1.4328 2.2961,0.5746 0.9679,-0.9117 -9.1548,-10.2115 -3.6101,-23.3618 8.7612,-23.6025 13.3796,0.7934 16.8512,14.8699 8.6442,23.1483 -1.0206,0.9947 -3.2835,4.1914 0.123,1.9563 8.2868,-5.888 19.7873,0.4429 19.5527,9.5208 -0.4327,16.7389 -20.8391,17.9873 -25.2032,4.0058 -0.4198,-1.5502 -1.6291,-2.3287 -1.295,0.3042 0.6049,4.7667 1.8565,11.9535 5.4374,18.2058 z" />
        <path
           inkscape:connector-curvature="0"
           style="fill:#008000;fill-opacity:1;display:inline"
           id="path3239"
           d="m 35.4075,1571.3666 c 2.879,-5.7756 4.9759,-11.701 5.3481,-18.0374 0.3416,-2.3316 -1.0746,-2.3707 -1.2881,-0.7286 -4.0764,15.5928 -25.7627,11.3705 -25.0171,-3.2965 0.605,-11.8947 12.4195,-14.4537 18.5823,-10.5645 2.4336,1.4328 2.2961,0.5746 0.9679,-0.9117 -9.1548,-10.2115 -3.6101,-23.3618 8.7612,-23.6025 13.3796,0.7934 16.8512,14.8699 8.6442,23.1483 -1.0206,0.9947 -3.2835,4.1914 0.123,1.9563 8.2868,-5.888 19.7873,0.4429 19.5527,9.5208 -0.4327,16.7389 -20.8391,17.9873 -25.2032,4.0058 -0.4198,-1.5502 -1.6291,-2.3287 -1.295,0.3042 0.6049,4.7667 1.8565,11.9535 5.4374,18.2058 z" />
        <path
           inkscape:connector-curvature="0"
           style="fill:#008000;fill-opacity:1;display:inline"
           id="path3241"
           d="m 136.145,1471.9626 c 2.879,-5.7756 4.9759,-11.701 5.3481,-18.0374 0.3416,-2.3316 -1.0746,-2.3707 -1.2881,-0.7286 -4.0764,15.5928 -25.7627,11.3705 -25.0171,-3.2965 0.605,-11.8947 12.4195,-14.4537 18.5823,-10.5645 2.4336,1.4328 2.2961,0.5746 0.9679,-0.9117 -9.1548,-10.2115 -3.6101,-23.3618 8.7612,-23.6025 13.3796,0.7934 16.8512,14.8699 8.6442,23.1483 -1.0206,0.9947 -3.2835,4.1914 0.123,1.9563 8.2868,-5.888 19.7873,0.4429 19.5527,9.5208 -0.4327,16.7389 -20.8391,17.9873 -25.2032,4.0058 -0.4198,-1.5502 -1.6291,-2.3287 -1.295,0.3042 0.6049,4.7667 1.8565,11.9535 5.4374,18.2058 z" />
        <path
           inkscape:connector-curvature="0"
           style="fill:#008000;fill-opacity:1;display:inline"
           id="path3243"
           d="m 35.4075,1471.9626 c 2.879,-5.7756 4.9759,-11.701 5.3481,-18.0374 0.3416,-2.3316 -1.0746,-2.3707 -1.2881,-0.7286 -4.0764,15.5928 -25.7627,11.3705 -25.0171,-3.2965 0.605,-11.8947 12.4195,-14.4537 18.5823,-10.5645 2.4336,1.4328 2.2961,0.5746 0.9679,-0.9117 -9.1548,-10.2115 -3.6101,-23.3618 8.7612,-23.6025 13.3796,0.7934 16.8512,14.8699 8.6442,23.1483 -1.0206,0.9947 -3.2835,4.1914 0.123,1.9563 8.2868,-5.888 19.7873,0.4429 19.5527,9.5208 -0.4327,16.7389 -20.8391,17.9873 -25.2032,4.0058 -0.4198,-1.5502 -1.6291,-2.3287 -1.295,0.3042 0.6049,4.7667 1.8565,11.9535 5.4374,18.2058 z" />
        <path
           inkscape:connector-curvature="0"
           style="fill:#008000;fill-opacity:1;display:inline"
           id="path3393"
           d="m 150.84686,1613.6294 c -2.879,5.7755 -4.9759,11.701 -5.3481,18.0373 -0.3416,2.3317 1.0746,2.3708 1.2881,0.7286 4.0764,-15.5928 25.7627,-11.3704 25.0171,3.2965 -0.605,11.8948 -12.4195,14.4538 -18.5823,10.5645 -2.4336,-1.4328 -2.2961,-0.5746 -0.9679,0.9118 9.1548,10.2114 3.6101,23.3618 -8.7612,23.6025 -13.3796,-0.7935 -16.8512,-14.87 -8.6442,-23.1484 1.0206,-0.9946 3.2835,-4.1913 -0.123,-1.9563 -8.2868,5.888 -19.7873,-0.4428 -19.5527,-9.5207 0.4327,-16.7389 20.8391,-17.9873 25.2032,-4.0058 0.4198,1.5502 1.6291,2.3286 1.295,-0.3043 -0.6049,-4.7666 -1.8565,-11.9534 -5.4374,-18.2057 z" />
        <path
           inkscape:connector-curvature="0"
           style="fill:#008000;fill-opacity:1;display:inline"
           id="path3395"
           d="m 50.1095,1613.6294 c -2.879,5.7755 -4.9759,11.701 -5.3481,18.0373 -0.3416,2.3317 1.0746,2.3708 1.2881,0.7286 4.0764,-15.5928 25.7627,-11.3704 25.0171,3.2965 -0.605,11.8948 -12.4195,14.4538 -18.5823,10.5645 -2.4336,-1.4328 -2.2961,-0.5746 -0.9679,0.9118 9.1548,10.2114 3.6101,23.3618 -8.7612,23.6025 -13.3796,-0.7935 -16.8512,-14.87 -8.6442,-23.1484 1.0206,-0.9946 3.2835,-4.1913 -0.123,-1.9563 -8.2868,5.888 -19.7873,-0.4428 -19.5527,-9.5207 0.4327,-16.7389 20.8391,-17.9873 25.2032,-4.0058 0.4198,1.5502 1.6291,2.3286 1.295,-0.3043 -0.6049,-4.7666 -1.8565,-11.9534 -5.4374,-18.2057 z" />
      </g>
      <path
         d="m 1193.1056,114.54712 c 1.1325,-2.32275 2.2346,-4.48466 2.8351,-7.03076 0.3983,-2.40122 -0.4164,-1.50917 -0.8789,0.0646 -0.6852,2.18253 -2.5865,3.17652 -4.351,3.20036 -3.2026,0.0437 -4.8001,-2.47399 -4.7005,-5.18111 -0.3497,-2.84867 2.5374,-4.86419 4.7136,-4.70896 1.6362,0.11676 3.0628,0.9995 3.9262,1.68635 0.5665,0.29953 1.1723,0.43187 0.3277,-0.34048 -1.5937,-1.74135 -2.9228,-2.815992 -2.8937,-5.425357 0.027,-2.449765 2.1218,-5.004695 4.8976,-4.924515 3.4689,0.10013 5.0464,2.745595 5.0382,5.206475 -0.01,1.793885 -0.906,3.444987 -2.2909,4.467567 -0.897,0.72779 -0.6454,1.27281 0.3778,0.58406 0.9832,-0.8474 2.1538,-1.21847 3.3676,-1.2445 3.316,-0.0523 4.6123,2.81342 4.4223,5.47599 -0.178,2.49441 -2.3016,5.06198 -5.1005,4.77118 -2.4992,-0.28642 -3.8124,-2.3844 -4.5648,-4.53796 -0.2492,-0.66034 -0.6422,-0.83866 -0.6313,0.14535 0.5773,4.80463 2.367,7.79428 2.38,7.79152 z"
         id="path3462"
         style="fill:#008000;fill-opacity:1;display:inline"
         inkscape:connector-curvature="0" />
      <path
         d="m 1380.1649,268.45026 c -1.1325,2.32284 -2.2346,4.48476 -2.8351,7.03085 -0.3982,2.40113 0.4164,1.50908 0.879,-0.0646 0.6851,-2.18253 2.5864,-3.17661 4.351,-3.20045 3.2025,-0.0437 4.8,2.47399 4.7005,5.1812 0.3497,2.84867 -2.5375,4.86419 -4.7137,4.70887 -1.6361,-0.11676 -3.0628,-0.9994 -3.9262,-1.68635 -0.5665,-0.29953 -1.1723,-0.43187 -0.3277,0.34058 1.5938,1.74125 2.9228,2.81589 2.8937,5.42526 -0.028,2.44976 -2.1218,5.00469 -4.8976,4.92461 -3.4689,-0.10023 -5.0464,-2.7456 -5.0381,-5.20657 0.01,-1.79389 0.9059,-3.44499 2.2908,-4.46747 0.897,-0.7278 0.6454,-1.27281 -0.3778,-0.58416 -0.9832,0.8474 -2.1538,1.21847 -3.3676,1.2445 -3.3159,0.0523 -4.6122,-2.81342 -4.4223,-5.47599 0.178,-2.49441 2.3016,-5.06198 5.1005,-4.77118 2.4992,0.28642 3.8124,2.3844 4.5649,4.53805 0.2492,0.66035 0.6422,0.83866 0.6313,-0.14544 -0.5774,-4.80453 -2.3671,-7.79418 -2.3801,-7.79152 z"
         id="path3488"
         style="fill:#008000;fill-opacity:1;display:inline"
         inkscape:connector-curvature="0" />
      <path
         d="m 1366.4202,78.636553 c -0.388,-2.60984 -0.3817,-9.353035 -0.063,-11.345375 0.9777,-6.107075 3.3556,-8.90036 7.3365,-9.815875 3.8652,-0.888915 9.2995,0.100605 10.4919,5.2079 l -3.2361,0.05985 c -1.7478,-3.451635 -6.1706,-2.528995 -8.66,-1.027995 -1.9885,1.198995 -2.8866,6.19362 -2.5023,6.501135 0,0 3.7591,-2.73334 6.7219,-2.53175 6.3349,0.64771 8.9466,6.038105 8.7259,11.13286 -0.2001,6.12712 -2.1801,11.02228 -8.893,11.348985 -6.3822,-0.24073 -9.3097,-3.657595 -9.922,-9.52964 z m 15.7419,-1.619655 c 0.035,-4.25163 -1.932,-7.431755 -5.652,-7.782875 -3.72,-0.35112 -7.4704,3.21271 -7.2107,7.545375 0.2606,4.34777 1.9746,8.01021 6.485,7.989975 4.8508,-0.02185 6.3526,-4.72758 6.3777,-7.752475 z"
         id="path7108-1-9"
         style="fill:#008000;fill-opacity:1;display:inline"
         inkscape:connector-curvature="0" />
      <path
         d="m 1207.0712,306.45615 c 0.388,2.60993 0.3817,9.35303 0.063,11.34537 -0.9776,6.10717 -3.3556,8.90036 -7.3365,9.81588 -3.8652,0.88891 -9.2994,-0.10051 -10.4919,-5.2079 l 3.2362,-0.0598 c 1.7477,3.45163 6.1705,2.52909 8.6599,1.02809 1.9885,-1.19909 2.8866,-6.19372 2.5023,-6.50114 0,0 -3.7591,2.73334 -6.7219,2.53175 -6.3349,-0.64771 -8.9466,-6.0381 -8.7259,-11.13286 0.2001,-6.12712 2.1801,-11.02228 8.893,-11.34908 6.3823,0.24083 9.3097,3.6576 9.922,9.52974 z m -15.7419,1.61975 c -0.035,4.25163 1.932,7.43166 5.652,7.78287 3.7201,0.35103 7.4704,-3.21271 7.2107,-7.54537 -0.2606,-4.34787 -1.9746,-8.01031 -6.485,-7.98998 -4.8507,0.0219 -6.3526,4.72758 -6.3777,7.75248 z"
         id="path7161-2-2"
         style="fill:#008000;fill-opacity:1;display:inline"
         inkscape:connector-curvature="0" />
      <path
         d="m 1380.1649,114.54722 c -1.1325,-2.32285 -2.2346,-4.48476 -2.8351,-7.03086 -0.3982,-2.40122 0.4164,-1.50907 0.879,0.0646 0.6851,2.18253 2.5864,3.17652 4.351,3.20046 3.2025,0.0427 4.8,-2.47409 4.7005,-5.18121 0.3497,-2.84867 -2.5375,-4.86419 -4.7137,-4.70896 -1.6361,0.11676 -3.0628,0.9995 -3.9262,1.68644 -0.5665,0.29954 -1.1723,0.43187 -0.3277,-0.34057 1.5938,-1.74135 2.9228,-2.815992 2.8937,-5.425262 -0.028,-2.449765 -2.1218,-5.00479 -4.8976,-4.92461 -3.4689,0.100225 -5.0464,2.745595 -5.0381,5.206475 0.01,1.79398 0.9059,3.444987 2.2908,4.467567 0.897,0.72779 0.6454,1.27281 -0.3778,0.58406 -0.9832,-0.8474 -2.1538,-1.21838 -3.3676,-1.24441 -3.3159,-0.0523 -4.6122,2.81333 -4.4223,5.4759 0.178,2.49451 2.3016,5.06198 5.1005,4.77128 2.4992,-0.28643 3.8124,-2.3845 4.5649,-4.53806 0.2492,-0.66034 0.6422,-0.83866 0.6313,0.14545 -0.5774,4.80453 -2.3671,7.79418 -2.3801,7.79142 z"
         id="path3462-4"
         style="fill:#008000;fill-opacity:1;display:inline"
         inkscape:connector-curvature="0" />
      <path
         d="m 1193.1056,268.45026 c 1.1325,2.32284 2.2346,4.48476 2.8351,7.03085 0.3983,2.40122 -0.4164,1.50908 -0.8789,-0.0646 -0.6852,-2.18253 -2.5865,-3.17661 -4.351,-3.20045 -3.2026,-0.0428 -4.8001,2.47399 -4.7005,5.1812 -0.3497,2.84867 2.5374,4.86419 4.7136,4.70887 1.6362,-0.11676 3.0628,-0.9994 3.9262,-1.68635 0.5665,-0.29953 1.1723,-0.43187 0.3277,0.34058 -1.5937,1.74125 -2.9228,2.81599 -2.8937,5.42526 0.027,2.44976 2.1218,5.00479 4.8976,4.92461 3.4689,-0.10023 5.0464,-2.7456 5.0382,-5.20648 -0.01,-1.79398 -0.906,-3.44498 -2.2909,-4.46756 -0.897,-0.7278 -0.6454,-1.27281 0.3778,-0.58406 0.9832,0.8474 2.1538,1.21837 3.3676,1.2444 3.316,0.0523 4.6123,-2.81342 4.4223,-5.47599 -0.178,-2.49441 -2.3016,-5.06198 -5.1005,-4.77118 -2.4992,0.28642 -3.8124,2.3844 -4.5648,4.53805 -0.2492,0.66035 -0.6422,0.83866 -0.6313,-0.14544 0.5773,-4.80453 2.367,-7.79418 2.38,-7.79143 z"
         id="path3488-6"
         style="fill:#008000;fill-opacity:1;display:inline"
         inkscape:connector-curvature="0" />
    </g>
    <g
       transform="translate(-0.02084198,3.3503876e-5)"
       id="g73">
      <text
         inkscape:transform-center-y="-1.8280388e-05"
         inkscape:transform-center-x="15.803627"
         transform="matrix(0,1,-1,0,0,0)"
         xml:space="preserve"
         style="font-size:24.96722221px;font-style:normal;font-variant:normal;font-weight:normal;font-stretch:normal;text-align:start;line-height:125%;letter-spacing:0px;word-spacing:0px;writing-mode:lr-tb;text-anchor:start;fill:none;stroke:#000000;stroke-width:0.66144627;stroke-opacity:1;font-family:Card Characters;-inkscape-font-specification:'Card Characters, Normal'"
         x="521.39386"
         y="-260.38971"
         id="text70860-7"
         sodipodi:linespacing="125%"><tspan
           style="stroke-width:0.66144627"
           y="-260.38971"
           x="521.39386"
           id="tspan3766"
           sodipodi:role="line">16</tspan></text>
      <text
         inkscape:transform-center-y="-1.5008926e-05"
         sodipodi:linespacing="125%"
         id="text3768"
         y="459.64999"
         x="-554.75983"
         style="font-size:24.96725082px;font-style:normal;font-variant:normal;font-weight:normal;font-stretch:normal;text-align:start;line-height:125%;letter-spacing:0px;word-spacing:0px;writing-mode:lr-tb;text-anchor:start;fill:none;stroke:#000000;stroke-width:0.66144705;stroke-opacity:1;font-family:Card Characters;-inkscape-font-specification:'Card Characters, Normal'"
         xml:space="preserve"
         transform="matrix(0,-1,1,0,0,0)"
         inkscape:transform-center-x="-15.803641"><tspan
           style="stroke-width:0.66144705"
           sodipodi:role="line"
           id="tspan3770"
           x="-554.75983"
           y="459.64999">16</tspan></text>
    </g>
  </g>
</svg>
