<?xml version="1.0" encoding="UTF-8" standalone="no"?>
<!-- Created with Inkscape (http://www.inkscape.org/) -->

<svg
   xmlns:dc="http://purl.org/dc/elements/1.1/"
   xmlns:cc="http://creativecommons.org/ns#"
   xmlns:rdf="http://www.w3.org/1999/02/22-rdf-syntax-ns#"
   xmlns:svg="http://www.w3.org/2000/svg"
   xmlns="http://www.w3.org/2000/svg"
   xmlns:xlink="http://www.w3.org/1999/xlink"
   xmlns:sodipodi="http://sodipodi.sourceforge.net/DTD/sodipodi-0.dtd"
   xmlns:inkscape="http://www.inkscape.org/namespaces/inkscape"
   width="224.25"
   height="312.78125"
   id="svg18947"
   version="1.1"
   inkscape:version="0.48.3.1 r9886"
   sodipodi:docname="62-Spade08.svg">
  <defs
     id="defs18949">
    <linearGradient
       id="linearGradient3006">
      <stop
         id="stop3008"
         offset="0"
         style="stop-color:#ffffff;stop-opacity:1;" />
      <stop
         style="stop-color:#7f7f7f;stop-opacity:1;"
         offset="0.37675071"
         id="stop3014" />
      <stop
         id="stop3016"
         offset="0.80194807"
         style="stop-color:#ffffff;stop-opacity:1;" />
      <stop
         id="stop3010"
         offset="1"
         style="stop-color:#cccccc;stop-opacity:1" />
    </linearGradient>
    <linearGradient
       id="linearGradient3804">
      <stop
         id="stop3806"
         offset="0"
         style="stop-color:#000000;stop-opacity:1;" />
      <stop
         style="stop-color:#333333;stop-opacity:1"
         offset="0.5"
         id="stop3812" />
      <stop
         id="stop3808"
         offset="1"
         style="stop-color:#000000;stop-opacity:1;" />
    </linearGradient>
    <linearGradient
       id="linearGradient3833">
      <stop
         id="stop3835"
         offset="0"
         style="stop-color:#000000;stop-opacity:1;" />
      <stop
         style="stop-color:#333333;stop-opacity:1"
         offset="0.5"
         id="stop3841" />
      <stop
         id="stop3837"
         offset="1"
         style="stop-color:#000000;stop-opacity:1" />
    </linearGradient>
    <linearGradient
       id="linearGradient3851">
      <stop
         id="stop3853"
         offset="0"
         style="stop-color:#808080;stop-opacity:1;" />
      <stop
         style="stop-color:#ffffff;stop-opacity:1;"
         offset="0.5"
         id="stop3859" />
      <stop
         id="stop3855"
         offset="1"
         style="stop-color:#808080;stop-opacity:1;" />
    </linearGradient>
    <radialGradient
       gradientUnits="userSpaceOnUse"
       gradientTransform="matrix(0.97241988,-0.00350785,0.00204639,0.40929875,4026.4071,-290.65137)"
       r="74.726646"
       fy="208.92761"
       fx="44.149761"
       cy="208.92761"
       cx="44.149761"
       id="radialGradient3939-7-7"
       xlink:href="#linearGradient3933-4-3"
       inkscape:collect="always" />
    <linearGradient
       id="linearGradient3933-4-3"
       inkscape:collect="always">
      <stop
         id="stop3935-0-7"
         offset="0"
         style="stop-color:#000000;stop-opacity:1;" />
      <stop
         id="stop3937-9-2"
         offset="1"
         style="stop-color:#000000;stop-opacity:0;" />
    </linearGradient>
    <linearGradient
       gradientTransform="translate(3914.848,-255.2825)"
       gradientUnits="userSpaceOnUse"
       y2="294.38422"
       x2="178.15625"
       y1="294.38422"
       x1="81.90625"
       id="linearGradient3012-2-7"
       xlink:href="#linearGradient3006-1-5"
       inkscape:collect="always" />
    <linearGradient
       id="linearGradient3006-1-5">
      <stop
         id="stop3008-6-4"
         offset="0"
         style="stop-color:#ffffff;stop-opacity:1;" />
      <stop
         style="stop-color:#7f7f7f;stop-opacity:1;"
         offset="0.37675071"
         id="stop3014-8-12" />
      <stop
         id="stop3016-5-0"
         offset="0.80194807"
         style="stop-color:#ffffff;stop-opacity:1;" />
      <stop
         id="stop3010-7-0"
         offset="1"
         style="stop-color:#cccccc;stop-opacity:1" />
    </linearGradient>
    <linearGradient
       gradientUnits="userSpaceOnUse"
       y2="394.69629"
       x2="156.7487"
       y1="394.69629"
       x1="65.223801"
       id="linearGradient3810-9-1"
       xlink:href="#linearGradient3804-6-4"
       inkscape:collect="always"
       gradientTransform="translate(3914.848,-376.2825)" />
    <linearGradient
       id="linearGradient3804-6-4">
      <stop
         id="stop3806-1-6"
         offset="0"
         style="stop-color:#000000;stop-opacity:1;" />
      <stop
         style="stop-color:#333333;stop-opacity:1"
         offset="0.5"
         id="stop3812-4-0" />
      <stop
         id="stop3808-2-7"
         offset="1"
         style="stop-color:#000000;stop-opacity:1;" />
    </linearGradient>
    <radialGradient
       gradientUnits="userSpaceOnUse"
       gradientTransform="matrix(0.79138519,4.4166814e-8,0,0.48100739,3940.8627,-177.7307)"
       r="43.141743"
       fy="428.49252"
       fx="114.59315"
       cy="428.49252"
       cx="114.59315"
       id="radialGradient3030-7-1"
       xlink:href="#linearGradient3024-3-7"
       inkscape:collect="always" />
    <linearGradient
       id="linearGradient3024-3-7"
       inkscape:collect="always">
      <stop
         style="stop-color:#000000;stop-opacity:1"
         offset="0"
         id="stop3028-2-7" />
      <stop
         style="stop-color:#242424;stop-opacity:1;"
         offset="1"
         id="stop3026-2-7" />
    </linearGradient>
    <linearGradient
       y2="390.78296"
       x2="183.7796"
       y1="375.92633"
       x1="145.60164"
       gradientUnits="userSpaceOnUse"
       id="linearGradient3113-4-7"
       xlink:href="#linearGradient3101-2-3"
       inkscape:collect="always"
       gradientTransform="translate(3914.848,-376.2825)" />
    <linearGradient
       id="linearGradient3101-2-3"
       inkscape:collect="always">
      <stop
         id="stop3103-4-3"
         offset="0"
         style="stop-color:#000000;stop-opacity:1;" />
      <stop
         id="stop3105-5-5"
         offset="1"
         style="stop-color:#000000;stop-opacity:0;" />
    </linearGradient>
    <linearGradient
       gradientUnits="userSpaceOnUse"
       y2="405.19611"
       x2="116.81388"
       y1="395.66125"
       x1="113.00574"
       id="linearGradient3107-7-9"
       xlink:href="#linearGradient3101-2-3"
       inkscape:collect="always"
       gradientTransform="translate(3914.848,-376.2825)" />
    <linearGradient
       y2="459.14062"
       x2="-128.625"
       y1="459.14062"
       x1="-158.78125"
       gradientTransform="matrix(0.43846429,7.9081918e-4,-6.5324466e-4,0.53080568,903.27012,-3758.3554)"
       gradientUnits="userSpaceOnUse"
       id="linearGradient3086-3-9"
       xlink:href="#linearGradient3833-1-81"
       inkscape:collect="always" />
    <linearGradient
       id="linearGradient3833-1-81">
      <stop
         id="stop3835-5-82"
         offset="0"
         style="stop-color:#000000;stop-opacity:1;" />
      <stop
         style="stop-color:#333333;stop-opacity:1"
         offset="0.5"
         id="stop3841-2-6" />
      <stop
         id="stop3837-7-6"
         offset="1"
         style="stop-color:#000000;stop-opacity:1" />
    </linearGradient>
    <linearGradient
       y2="463.51562"
       x2="-281.15625"
       y1="463.51562"
       x1="-311.3125"
       gradientTransform="matrix(0.43846429,7.9081918e-4,-6.5324466e-4,0.53080568,970.15112,-3759.4954)"
       gradientUnits="userSpaceOnUse"
       id="linearGradient3088-8-0"
       xlink:href="#linearGradient3851-5-38"
       inkscape:collect="always" />
    <linearGradient
       id="linearGradient3851-5-38">
      <stop
         id="stop3853-1-0"
         offset="0"
         style="stop-color:#808080;stop-opacity:1;" />
      <stop
         style="stop-color:#ffffff;stop-opacity:1;"
         offset="0.5"
         id="stop3859-7-1" />
      <stop
         id="stop3855-1-2"
         offset="1"
         style="stop-color:#808080;stop-opacity:1;" />
    </linearGradient>
    <radialGradient
       gradientUnits="userSpaceOnUse"
       gradientTransform="matrix(0.97241988,-0.00350785,0.00204639,0.40929875,4026.4073,-290.65147)"
       r="74.726646"
       fy="208.92761"
       fx="44.149761"
       cy="208.92761"
       cx="44.149761"
       id="radialGradient3939-7"
       xlink:href="#linearGradient3933-4"
       inkscape:collect="always" />
    <linearGradient
       id="linearGradient3933-4"
       inkscape:collect="always">
      <stop
         id="stop3935-0"
         offset="0"
         style="stop-color:#000000;stop-opacity:1;" />
      <stop
         id="stop3937-9"
         offset="1"
         style="stop-color:#000000;stop-opacity:0;" />
    </linearGradient>
    <linearGradient
       gradientTransform="translate(3914.8481,-255.28247)"
       gradientUnits="userSpaceOnUse"
       y2="294.38422"
       x2="178.15625"
       y1="294.38422"
       x1="81.90625"
       id="linearGradient3012-2"
       xlink:href="#linearGradient3006-1"
       inkscape:collect="always" />
    <linearGradient
       id="linearGradient3006-1">
      <stop
         id="stop3008-6"
         offset="0"
         style="stop-color:#ffffff;stop-opacity:1;" />
      <stop
         style="stop-color:#7f7f7f;stop-opacity:1;"
         offset="0.37675071"
         id="stop3014-8" />
      <stop
         id="stop3016-5"
         offset="0.80194807"
         style="stop-color:#ffffff;stop-opacity:1;" />
      <stop
         id="stop3010-7"
         offset="1"
         style="stop-color:#cccccc;stop-opacity:1" />
    </linearGradient>
    <linearGradient
       gradientUnits="userSpaceOnUse"
       y2="394.69629"
       x2="156.7487"
       y1="394.69629"
       x1="65.223801"
       id="linearGradient3810-9"
       xlink:href="#linearGradient3804-6"
       inkscape:collect="always"
       gradientTransform="translate(3914.8481,-376.28247)" />
    <linearGradient
       id="linearGradient3804-6">
      <stop
         id="stop3806-1"
         offset="0"
         style="stop-color:#000000;stop-opacity:1;" />
      <stop
         style="stop-color:#333333;stop-opacity:1"
         offset="0.5"
         id="stop3812-4" />
      <stop
         id="stop3808-2"
         offset="1"
         style="stop-color:#000000;stop-opacity:1;" />
    </linearGradient>
    <radialGradient
       gradientUnits="userSpaceOnUse"
       gradientTransform="matrix(0.79138519,4.4166814e-8,0,0.48100739,3940.8628,-177.73072)"
       r="43.141743"
       fy="428.49252"
       fx="114.59315"
       cy="428.49252"
       cx="114.59315"
       id="radialGradient3030-7"
       xlink:href="#linearGradient3024-3"
       inkscape:collect="always" />
    <linearGradient
       id="linearGradient3024-3"
       inkscape:collect="always">
      <stop
         style="stop-color:#000000;stop-opacity:1"
         offset="0"
         id="stop3028-2" />
      <stop
         style="stop-color:#242424;stop-opacity:1;"
         offset="1"
         id="stop3026-2" />
    </linearGradient>
    <linearGradient
       y2="390.78296"
       x2="183.7796"
       y1="375.92633"
       x1="145.60164"
       gradientUnits="userSpaceOnUse"
       id="linearGradient3113-4"
       xlink:href="#linearGradient3101-2"
       inkscape:collect="always"
       gradientTransform="translate(3914.8481,-376.28247)" />
    <linearGradient
       id="linearGradient3101-2"
       inkscape:collect="always">
      <stop
         id="stop3103-4"
         offset="0"
         style="stop-color:#000000;stop-opacity:1;" />
      <stop
         id="stop3105-5"
         offset="1"
         style="stop-color:#000000;stop-opacity:0;" />
    </linearGradient>
    <linearGradient
       gradientUnits="userSpaceOnUse"
       y2="405.19611"
       x2="116.81388"
       y1="395.66125"
       x1="113.00574"
       id="linearGradient3107-7"
       xlink:href="#linearGradient3101-2"
       inkscape:collect="always"
       gradientTransform="translate(3914.8481,-376.28247)" />
    <linearGradient
       y2="459.14062"
       x2="-128.625"
       y1="459.14062"
       x1="-158.78125"
       gradientTransform="matrix(0.43846429,7.9081918e-4,-6.5324466e-4,0.53080568,903.27012,-3758.3554)"
       gradientUnits="userSpaceOnUse"
       id="linearGradient3086-3"
       xlink:href="#linearGradient3833-1"
       inkscape:collect="always" />
    <linearGradient
       id="linearGradient3833-1">
      <stop
         id="stop3835-5"
         offset="0"
         style="stop-color:#000000;stop-opacity:1;" />
      <stop
         style="stop-color:#333333;stop-opacity:1"
         offset="0.5"
         id="stop3841-2" />
      <stop
         id="stop3837-7"
         offset="1"
         style="stop-color:#000000;stop-opacity:1" />
    </linearGradient>
    <linearGradient
       y2="463.51562"
       x2="-281.15625"
       y1="463.51562"
       x1="-311.3125"
       gradientTransform="matrix(0.43846429,7.9081918e-4,-6.5324466e-4,0.53080568,970.15119,-3759.4955)"
       gradientUnits="userSpaceOnUse"
       id="linearGradient3088-8"
       xlink:href="#linearGradient3851-5"
       inkscape:collect="always" />
    <linearGradient
       id="linearGradient3851-5">
      <stop
         id="stop3853-1"
         offset="0"
         style="stop-color:#808080;stop-opacity:1;" />
      <stop
         style="stop-color:#ffffff;stop-opacity:1;"
         offset="0.5"
         id="stop3859-7" />
      <stop
         id="stop3855-1"
         offset="1"
         style="stop-color:#808080;stop-opacity:1;" />
    </linearGradient>
    <radialGradient
       gradientUnits="userSpaceOnUse"
       gradientTransform="matrix(0.97241988,-0.00350785,0.00204639,0.40929875,3999.0996,-324.0036)"
       r="74.726646"
       fy="208.92761"
       fx="44.149761"
       cy="208.92761"
       cx="44.149761"
       id="radialGradient3939-7-9"
       xlink:href="#linearGradient3933-4-1"
       inkscape:collect="always" />
    <linearGradient
       id="linearGradient3933-4-1"
       inkscape:collect="always">
      <stop
         id="stop3935-0-5"
         offset="0"
         style="stop-color:#000000;stop-opacity:1;" />
      <stop
         id="stop3937-9-7"
         offset="1"
         style="stop-color:#000000;stop-opacity:0;" />
    </linearGradient>
    <linearGradient
       gradientTransform="translate(3889.1159,-292.38739)"
       gradientUnits="userSpaceOnUse"
       y2="294.38422"
       x2="178.15625"
       y1="294.38422"
       x1="81.90625"
       id="linearGradient3012-2-3"
       xlink:href="#linearGradient3006-1-3"
       inkscape:collect="always" />
    <linearGradient
       id="linearGradient3006-1-3">
      <stop
         id="stop3008-6-42"
         offset="0"
         style="stop-color:#ffffff;stop-opacity:1;" />
      <stop
         style="stop-color:#7f7f7f;stop-opacity:1;"
         offset="0.37675071"
         id="stop3014-8-2" />
      <stop
         id="stop3016-5-01"
         offset="0.80194807"
         style="stop-color:#ffffff;stop-opacity:1;" />
      <stop
         id="stop3010-7-2"
         offset="1"
         style="stop-color:#cccccc;stop-opacity:1" />
    </linearGradient>
    <linearGradient
       gradientUnits="userSpaceOnUse"
       y2="394.69629"
       x2="156.7487"
       y1="394.69629"
       x1="65.223801"
       id="linearGradient3810-9-7"
       xlink:href="#linearGradient3804-6-7"
       inkscape:collect="always"
       gradientTransform="translate(3889.1159,-413.38739)" />
    <linearGradient
       id="linearGradient3804-6-7">
      <stop
         id="stop3806-1-0"
         offset="0"
         style="stop-color:#000000;stop-opacity:1;" />
      <stop
         style="stop-color:#333333;stop-opacity:1"
         offset="0.5"
         id="stop3812-4-2" />
      <stop
         id="stop3808-2-4"
         offset="1"
         style="stop-color:#000000;stop-opacity:1;" />
    </linearGradient>
    <radialGradient
       gradientUnits="userSpaceOnUse"
       gradientTransform="matrix(0.79138519,4.4166814e-8,0,0.48100739,3915.1306,-214.83564)"
       r="43.141743"
       fy="428.49252"
       fx="114.59315"
       cy="428.49252"
       cx="114.59315"
       id="radialGradient3030-7-10"
       xlink:href="#linearGradient3024-3-3"
       inkscape:collect="always" />
    <linearGradient
       id="linearGradient3024-3-3"
       inkscape:collect="always">
      <stop
         style="stop-color:#000000;stop-opacity:1"
         offset="0"
         id="stop3028-2-73" />
      <stop
         style="stop-color:#242424;stop-opacity:1;"
         offset="1"
         id="stop3026-2-9" />
    </linearGradient>
    <linearGradient
       y2="390.78296"
       x2="183.7796"
       y1="375.92633"
       x1="145.60164"
       gradientUnits="userSpaceOnUse"
       id="linearGradient3113-4-5"
       xlink:href="#linearGradient3101-2-9"
       inkscape:collect="always"
       gradientTransform="translate(3889.1159,-413.38739)" />
    <linearGradient
       id="linearGradient3101-2-9"
       inkscape:collect="always">
      <stop
         id="stop3103-4-7"
         offset="0"
         style="stop-color:#000000;stop-opacity:1;" />
      <stop
         id="stop3105-5-2"
         offset="1"
         style="stop-color:#000000;stop-opacity:0;" />
    </linearGradient>
    <linearGradient
       gradientUnits="userSpaceOnUse"
       y2="405.19611"
       x2="116.81388"
       y1="395.66125"
       x1="113.00574"
       id="linearGradient3107-7-0"
       xlink:href="#linearGradient3101-2-9"
       inkscape:collect="always"
       gradientTransform="translate(3889.1159,-413.38739)" />
    <linearGradient
       y2="459.14062"
       x2="-128.625"
       y1="459.14062"
       x1="-158.78125"
       gradientTransform="matrix(0.43846429,7.9081918e-4,-6.5324466e-4,0.53080568,860.24197,-3744.6624)"
       gradientUnits="userSpaceOnUse"
       id="linearGradient3086-3-2"
       xlink:href="#linearGradient3833-1-8"
       inkscape:collect="always" />
    <linearGradient
       id="linearGradient3833-1-8">
      <stop
         id="stop3835-5-6"
         offset="0"
         style="stop-color:#000000;stop-opacity:1;" />
      <stop
         style="stop-color:#333333;stop-opacity:1"
         offset="0.5"
         id="stop3841-2-7" />
      <stop
         id="stop3837-7-0"
         offset="1"
         style="stop-color:#000000;stop-opacity:1" />
    </linearGradient>
    <linearGradient
       y2="463.51562"
       x2="-281.15625"
       y1="463.51562"
       x1="-311.3125"
       gradientTransform="matrix(0.43846429,7.9081918e-4,-6.5324466e-4,0.53080568,927.12304,-3745.8025)"
       gradientUnits="userSpaceOnUse"
       id="linearGradient3088-8-8"
       xlink:href="#linearGradient3851-5-1"
       inkscape:collect="always" />
    <linearGradient
       id="linearGradient3851-5-1">
      <stop
         id="stop3853-1-8"
         offset="0"
         style="stop-color:#808080;stop-opacity:1;" />
      <stop
         style="stop-color:#ffffff;stop-opacity:1;"
         offset="0.5"
         id="stop3859-7-3" />
      <stop
         id="stop3855-1-0"
         offset="1"
         style="stop-color:#808080;stop-opacity:1;" />
    </linearGradient>
  </defs>
  <sodipodi:namedview
     id="base"
     pagecolor="#ffffff"
     bordercolor="#666666"
     borderopacity="1.0"
     inkscape:pageopacity="0.0"
     inkscape:pageshadow="2"
     inkscape:zoom="3.6055405"
     inkscape:cx="81.366674"
     inkscape:cy="180.29489"
     inkscape:document-units="px"
     inkscape:current-layer="g106797"
     showgrid="false"
     fit-margin-top="0"
     fit-margin-left="0"
     fit-margin-right="0"
     fit-margin-bottom="0"
     inkscape:window-width="824"
     inkscape:window-height="786"
     inkscape:window-x="6"
     inkscape:window-y="31"
     inkscape:window-maximized="0"
     inkscape:snap-global="true"
     inkscape:snap-bbox="true"
     inkscape:bbox-paths="true"
     inkscape:bbox-nodes="true"
     inkscape:snap-bbox-edge-midpoints="true"
     inkscape:snap-bbox-midpoints="true"
     inkscape:snap-object-midpoints="true"
     inkscape:snap-center="true" />
  <metadata
     id="metadata18952">
    <rdf:RDF>
      <cc:Work
         rdf:about="">
        <dc:format>image/svg+xml</dc:format>
        <dc:type
           rdf:resource="http://purl.org/dc/dcmitype/StillImage" />
        <dc:title />
      </cc:Work>
    </rdf:RDF>
  </metadata>
  <g
     inkscape:label="Layer 1"
     inkscape:groupmode="layer"
     id="layer1"
     transform="translate(-247.87401,-381.68621)">
    <g
       style="display:inline"
       id="g106797"
       transform="translate(-1385.0776,-290.08558)">
      <path
         inkscape:connector-curvature="0"
         style="fill:#000000;fill-opacity:1;display:inline"
         id="path7112-7"
         d="m 1645.5448,715.72575 c 0.1521,-4.1572 1.6822,-5.71805 4.6964,-7.8945 -2.4041,-1.70525 -3.4178,-4.2142 -3.2131,-6.35265 0.4955,-5.17465 4.5694,-7.7634 9.0108,-7.65035 4.4414,0.1121 8.2694,3.57485 8.5679,7.3359 0.2597,3.27085 -0.7319,4.8469 -3.0946,6.56925 2.8054,2.31895 4.5984,3.8475 4.5304,7.942 -0.068,4.0945 -3.6155,8.968 -9.7989,9.11715 -6.1833,0.1501 -10.851,-4.91055 -10.6989,-9.0668 z m 17.2639,0.01 c 0.2653,-3.7639 -3.1238,-6.3042 -6.9475,-6.34315 -3.7262,-0.038 -7.0597,3.08465 -7.0604,6.4638 0,3.62995 4.3355,5.6012 7.1355,5.61165 3.4032,0.01 6.644,-2.4909 6.8724,-5.7323 z m -1.2236,-13.4653 c 0.074,-3.17015 -2.904,-5.44255 -5.9741,-5.35135 -2.7316,0.0855 -5.625,2.12895 -5.6265,4.77945 0,3.3155 3.289,4.9704 6.0961,5.0331 2.5464,0.057 5.4486,-2.06625 5.5045,-4.4612 z" />
      <path
         inkscape:connector-curvature="0"
         style="fill:#000000;fill-opacity:1;display:inline"
         id="path7128-6"
         d="m 1844.6086,940.60025 c -0.1522,4.15625 -1.6822,5.71805 -4.6964,7.89355 2.404,1.7062 3.4177,4.21515 3.213,6.3536 -0.4954,5.17465 -4.5694,7.7634 -9.0108,7.65035 -4.4414,-0.11305 -8.2693,-3.5758 -8.5679,-7.3359 -0.2596,-3.27085 0.732,-4.8469 3.0946,-6.56925 -2.8053,-2.31895 -4.5983,-3.8475 -4.5303,-7.942 0.068,-4.0945 3.6154,-8.968 9.7988,-9.11715 6.1834,-0.1501 10.8511,4.91055 10.699,9.0668 z m -17.264,-0.01 c -0.2652,3.7639 3.1239,6.30325 6.9476,6.34315 3.7261,0.038 7.0597,-3.08465 7.0603,-6.4638 0,-3.62995 -4.3355,-5.6012 -7.1355,-5.61165 -3.4032,-0.01 -6.6439,2.4909 -6.8724,5.7323 z m 1.2236,13.46435 c -0.074,3.1711 2.9041,5.4435 5.9742,5.3523 2.7316,-0.0855 5.6249,-2.12895 5.6264,-4.77945 0,-3.3155 -3.2889,-4.97135 -6.096,-5.0331 -2.5465,-0.057 -5.4486,2.0653 -5.5046,4.46025 z" />
      <g
         transform="matrix(0.95,0,0,0.95,1657.2189,-9223.8987)"
         id="g10293">
        <path
           inkscape:connector-curvature="0"
           style="fill:#000000;fill-opacity:1;display:inline"
           id="path3222"
           d="m 35.804086,10493.131 c 0.015,-2.025 -1.5868,-2.064 -1.5686,-0.585 -0.1343,7.428 -6.4165,11.086 -10.9806,10.218 -7.0361,-1.337 -9.2818,-8.322 -9.2147,-12.435 0.2072,-12.696 12.9878,-22.058 24.5202,-38.335 8.4501,14.691 22.3972,26.23 23.2229,37.586 1.0977,15.098 -18.0089,20.73 -20.7369,3.133 -0.176,-1.243 -1.6397,-1.801 -1.5261,-0.07 0.4145,4.822 -0.1749,6.831 5.2657,18.719 l -14.2217,0 c 3.1497,-5.555 5.0254,-12.374 5.2398,-18.236 z" />
        <path
           inkscape:connector-curvature="0"
           style="fill:#000000;fill-opacity:1;display:inline"
           id="path3224"
           d="m 144.8892,10493.131 c 0.015,-2.025 -1.5868,-2.064 -1.5686,-0.585 -0.1343,7.428 -6.4165,11.086 -10.9806,10.219 -7.0361,-1.338 -9.2818,-8.323 -9.2147,-12.436 0.2072,-12.696 12.9878,-22.058 24.5202,-38.334 8.4501,14.69 22.3972,26.229 23.2229,37.585 1.0977,15.098 -18.0089,20.73 -20.7369,3.133 -0.176,-1.243 -1.6397,-1.801 -1.5261,-0.07 0.4145,4.823 -0.1749,6.831 5.2657,18.719 l -14.2217,0 c 3.1497,-5.555 5.0254,-12.374 5.2398,-18.235 z" />
        <path
           inkscape:connector-curvature="0"
           style="fill:#000000;fill-opacity:1;display:inline"
           id="path3226"
           d="m 90.37132,10543.256 c 0.015,-2.026 -1.5868,-2.065 -1.5686,-0.586 -0.1343,7.429 -6.4165,11.086 -10.9806,10.219 -7.0361,-1.338 -9.2818,-8.322 -9.2147,-12.436 0.2072,-12.696 12.9878,-22.058 24.5202,-38.334 8.4501,14.69 22.3972,26.229 23.2229,37.585 1.0977,15.099 -18.0089,20.73 -20.7369,3.133 -0.176,-1.243 -1.6397,-1.801 -1.5261,-0.06 0.4145,4.823 -0.1749,6.832 5.2657,18.72 l -14.2217,0 c 3.1497,-5.555 5.0254,-12.375 5.2398,-18.236 z" />
        <path
           inkscape:connector-curvature="0"
           style="fill:#000000;fill-opacity:1;display:inline"
           id="path3228"
           d="m 35.804086,10592.568 c 0.015,-2.026 -1.5868,-2.065 -1.5686,-0.586 -0.1343,7.429 -6.4165,11.086 -10.9806,10.219 -7.0361,-1.338 -9.2818,-8.322 -9.2147,-12.436 0.2072,-12.696 12.9878,-22.058 24.5202,-38.334 8.4501,14.69 22.3972,26.229 23.2229,37.585 1.0977,15.098 -18.0089,20.73 -20.7369,3.133 -0.176,-1.243 -1.6397,-1.801 -1.5261,-0.06 0.4145,4.823 -0.1749,6.832 5.2657,18.72 l -14.2217,0 c 3.1497,-5.555 5.0254,-12.375 5.2398,-18.236 z" />
        <path
           inkscape:connector-curvature="0"
           style="fill:#000000;fill-opacity:1;display:inline"
           id="path3230"
           d="m 144.8892,10592.568 c 0.015,-2.026 -1.5868,-2.065 -1.5686,-0.586 -0.1343,7.429 -6.4165,11.086 -10.9806,10.219 -7.0361,-1.338 -9.2818,-8.322 -9.2147,-12.436 0.2072,-12.696 12.9878,-22.058 24.5202,-38.334 8.4501,14.69 22.3972,26.229 23.2229,37.585 1.0977,15.098 -18.0089,20.73 -20.7369,3.133 -0.176,-1.243 -1.6397,-1.801 -1.5261,-0.06 0.4145,4.823 -0.1749,6.832 5.2657,18.72 l -14.2217,0 c 3.1497,-5.555 5.0254,-12.375 5.2398,-18.236 z" />
        <path
           inkscape:connector-curvature="0"
           style="fill:#000000;fill-opacity:1;display:inline"
           id="path3298"
           d="m 144.9,10669.103 c 0.015,2.026 -1.5868,2.064 -1.5686,0.586 -0.1343,-7.429 -6.4165,-11.087 -10.9806,-10.219 -7.0361,1.337 -9.2818,8.322 -9.2147,12.435 0.2072,12.697 12.9878,22.059 24.5202,38.335 8.4501,-14.691 22.3972,-26.23 23.2229,-37.586 1.0977,-15.098 -18.0089,-20.73 -20.7369,-3.133 -0.176,1.243 -1.6397,1.802 -1.5261,0.06 0.4145,-4.822 -0.1749,-6.831 5.2657,-18.719 l -14.2217,0 c 3.1497,5.555 5.0254,12.375 5.2398,18.236 z" />
        <path
           inkscape:connector-curvature="0"
           style="fill:#000000;fill-opacity:1;display:inline"
           id="path3300"
           d="m 90.37132,10619.804 c 0.015,2.025 -1.5868,2.064 -1.5686,0.585 -0.1343,-7.428 -6.4165,-11.086 -10.9806,-10.218 -7.0361,1.337 -9.2818,8.322 -9.2147,12.435 0.2072,12.696 12.9878,22.058 24.5202,38.335 8.4501,-14.691 22.3972,-26.23 23.2229,-37.586 1.0977,-15.098 -18.0089,-20.73 -20.7369,-3.133 -0.176,1.243 -1.6397,1.801 -1.5261,0.07 0.4145,-4.822 -0.1749,-6.831 5.2657,-18.719 l -14.2217,0 c 3.1497,5.554 5.0254,12.374 5.2398,18.235 z" />
        <path
           inkscape:connector-curvature="0"
           style="fill:#000000;fill-opacity:1;display:inline"
           id="path3302"
           d="m 35.804086,10669.103 c 0.015,2.026 -1.5868,2.064 -1.5686,0.586 -0.1343,-7.429 -6.4165,-11.087 -10.9806,-10.219 -7.0361,1.337 -9.2818,8.322 -9.2147,12.435 0.2072,12.697 12.9878,22.059 24.5202,38.335 8.4501,-14.691 22.3972,-26.23 23.2229,-37.586 1.0977,-15.098 -18.0089,-20.73 -20.7369,-3.133 -0.176,1.243 -1.6397,1.802 -1.5261,0.06 0.4145,-4.822 -0.1749,-6.831 5.2657,-18.719 l -14.2217,0 c 3.1497,5.555 5.0254,12.375 5.2398,18.236 z" />
      </g>
      <path
         d="m 1655.979,748.42 c 0.01,-0.82745 -0.8506,-0.4408 -0.967,-0.1805 -1.105,1.8867 -2.7215,2.3256 -4.3205,1.6454 -1.5839,-0.67355 -2.474,-2.16695 -2.3312,-4.2959 0.2947,-3.2661 2.8837,-6.84 4.1373,-8.8597 1.1894,-1.8335 2.4965,-4.01185 3.8728,-6.79725 1.6125,3.1958 2.4308,4.10495 4.185,7.0224 1.5447,2.5688 3.6979,5.08535 3.8641,8.1909 0,2.36075 -0.9937,4.5904 -3.2294,4.997 -1.2648,0.2299 -2.4498,-0.4199 -3.3286,-1.93515 -0.2677,-0.38665 -0.8064,-0.18525 -0.7974,0.3439 0.157,1.98835 0.9077,3.78385 2.6881,5.90045 l -6.5428,0 c 1.3396,-1.4972 2.7063,-3.51785 2.7696,-6.03155 z"
         id="path3322"
         style="fill:#000000;fill-opacity:1;display:inline"
         inkscape:connector-curvature="0" />
      <path
         d="m 1835.3535,912.5287 c 0.01,0.82745 -0.8505,0.44175 -0.9669,0.1805 -1.1051,-1.88575 -2.7216,-2.32465 -4.3205,-1.6454 -1.584,0.6745 -2.474,2.16695 -2.3312,4.29685 0.2947,3.26515 2.8836,6.83905 4.1372,8.8597 1.1894,1.8335 2.4965,4.0109 3.8729,6.7963 1.6123,-3.19485 2.4307,-4.10495 4.1848,-7.0224 1.5447,-2.5688 3.6979,-5.08535 3.8642,-8.1909 0,-2.36075 -0.9937,-4.5904 -3.2295,-4.99605 -1.2648,-0.2299 -2.4497,0.41895 -3.3286,1.93515 -0.2677,0.3857 -0.8063,0.1843 -0.7972,-0.3439 0.1568,-1.9893 0.9075,-3.7848 2.6879,-5.9014 l -6.5426,0 c 1.3395,1.4972 2.7062,3.5188 2.7695,6.03155 z"
         id="path3346"
         style="fill:#000000;fill-opacity:1;display:inline"
         inkscape:connector-curvature="0" />
      <path
         inkscape:connector-curvature="0"
         style="fill:#000000;fill-opacity:1;display:inline"
         id="path7112-7-0"
         d="m 1824.1124,715.72575 c 0.1521,-4.1572 1.6822,-5.71805 4.6964,-7.8945 -2.4041,-1.70525 -3.4178,-4.2142 -3.213,-6.35265 0.4954,-5.17465 4.5693,-7.7634 9.0107,-7.65035 4.4414,0.1121 8.2694,3.57485 8.5679,7.33495 0.2597,3.2718 -0.7319,4.84785 -3.0946,6.5702 2.8054,2.31895 4.5984,3.8475 4.5304,7.942 -0.068,4.0945 -3.6155,8.968 -9.7989,9.11715 -6.1833,0.1501 -10.851,-4.91055 -10.6989,-9.0668 z m 17.2639,0.01 c 0.2653,-3.7639 -3.1238,-6.30325 -6.9475,-6.34315 -3.7262,-0.038 -7.0597,3.08465 -7.0603,6.4638 0,3.62995 4.3354,5.60215 7.1354,5.6126 3.4032,0.01 6.644,-2.4909 6.8724,-5.73325 z m -1.2236,-13.46435 c 0.074,-3.1711 -2.904,-5.4435 -5.9741,-5.3523 -2.7316,0.0855 -5.625,2.12895 -5.6264,4.77945 0,3.3155 3.2889,4.97135 6.096,5.0331 2.5464,0.057 5.4486,-2.0653 5.5045,-4.46025 z" />
      <path
         inkscape:connector-curvature="0"
         style="fill:#000000;fill-opacity:1;display:inline"
         id="path7128-6-0"
         d="m 1666.0408,940.60025 c -0.1522,4.15625 -1.6822,5.7171 -4.6964,7.89355 2.404,1.7062 3.4177,4.21515 3.2131,6.3536 -0.4955,5.1737 -4.5695,7.7634 -9.0109,7.65035 -4.4414,-0.11305 -8.2693,-3.5758 -8.5679,-7.3359 -0.2596,-3.27085 0.732,-4.8469 3.0946,-6.56925 -2.8053,-2.3199 -4.5983,-3.8475 -4.5303,-7.942 0.068,-4.0945 3.6154,-8.968 9.7988,-9.1181 6.1834,-0.14915 10.8511,4.91055 10.699,9.06775 z m -17.264,-0.01 c -0.2652,3.7639 3.1239,6.30325 6.9476,6.34315 3.7261,0.038 7.0597,-3.08465 7.0603,-6.4638 0,-3.62995 -4.3355,-5.60215 -7.1355,-5.6126 -3.4032,-0.01 -6.6439,2.4909 -6.8724,5.73325 z m 1.2236,13.46435 c -0.074,3.1711 2.9041,5.4435 5.9742,5.3523 2.7316,-0.0855 5.6249,-2.12895 5.6265,-4.77945 0,-3.3155 -3.289,-4.97135 -6.0961,-5.0331 -2.5465,-0.057 -5.4486,2.0653 -5.5046,4.46025 z" />
      <path
         d="m 1834.1743,748.42 c -0.01,-0.82745 0.8506,-0.4408 0.967,-0.1805 1.105,1.8867 2.7215,2.3256 4.3205,1.6454 1.5839,-0.67355 2.474,-2.16695 2.3312,-4.2959 -0.2947,-3.2661 -2.8837,-6.84 -4.1373,-8.86065 -1.1894,-1.83255 -2.4965,-4.0109 -3.8728,-6.7963 -1.6125,3.1958 -2.4308,4.10495 -4.185,7.0224 -1.5447,2.5688 -3.6979,5.08535 -3.8641,8.1909 0,2.36075 0.9937,4.5904 3.2294,4.997 1.2648,0.22895 2.4498,-0.4199 3.3286,-1.93515 0.2677,-0.38665 0.8064,-0.18525 0.7974,0.3439 -0.157,1.98835 -0.9077,3.78385 -2.6881,5.90045 l 6.5428,0 c -1.3396,-1.4972 -2.7063,-3.51785 -2.7696,-6.03155 z"
         id="path3322-3"
         style="fill:#000000;fill-opacity:1;display:inline"
         inkscape:connector-curvature="0" />
      <path
         d="m 1654.7998,912.5287 c -0.01,0.82745 0.8505,0.4408 0.9669,0.1805 1.1051,-1.8867 2.7216,-2.3256 4.3205,-1.6454 1.584,0.6745 2.474,2.16695 2.3312,4.2959 -0.2947,3.2661 -2.8836,6.84 -4.1372,8.86065 -1.1894,1.8335 -2.4965,4.0109 -3.8729,6.7963 -1.6123,-3.19485 -2.4307,-4.10495 -4.1848,-7.0224 -1.5447,-2.5688 -3.6979,-5.08535 -3.8642,-8.1909 0,-2.36075 0.9937,-4.5904 3.2295,-4.99605 1.2648,-0.2299 2.4497,0.41895 3.3286,1.9342 0.2677,0.38665 0.8063,0.18525 0.7972,-0.34295 -0.1568,-1.9893 -0.9075,-3.7848 -2.6879,-5.9014 l 6.5426,0 c -1.3395,1.4972 -2.7062,3.5188 -2.7695,6.03155 z"
         id="path3346-9"
         style="fill:#000000;fill-opacity:1;display:inline"
         inkscape:connector-curvature="0" />
    </g>
  </g>
</svg>
