<?xml version="1.0" encoding="UTF-8" standalone="no"?>
<!-- Created with Inkscape (http://www.inkscape.org/) -->

<svg
   xmlns:dc="http://purl.org/dc/elements/1.1/"
   xmlns:cc="http://creativecommons.org/ns#"
   xmlns:rdf="http://www.w3.org/1999/02/22-rdf-syntax-ns#"
   xmlns:svg="http://www.w3.org/2000/svg"
   xmlns="http://www.w3.org/2000/svg"
   xmlns:xlink="http://www.w3.org/1999/xlink"
   xmlns:sodipodi="http://sodipodi.sourceforge.net/DTD/sodipodi-0.dtd"
   xmlns:inkscape="http://www.inkscape.org/namespaces/inkscape"
   width="224.25"
   height="312.78125"
   id="svg18947"
   version="1.1"
   inkscape:version="0.48.3.1 r9886"
   sodipodi:docname="63-Spade09.svg">
  <defs
     id="defs18949">
    <linearGradient
       id="linearGradient3006">
      <stop
         id="stop3008"
         offset="0"
         style="stop-color:#ffffff;stop-opacity:1;" />
      <stop
         style="stop-color:#7f7f7f;stop-opacity:1;"
         offset="0.37675071"
         id="stop3014" />
      <stop
         id="stop3016"
         offset="0.80194807"
         style="stop-color:#ffffff;stop-opacity:1;" />
      <stop
         id="stop3010"
         offset="1"
         style="stop-color:#cccccc;stop-opacity:1" />
    </linearGradient>
    <linearGradient
       id="linearGradient3804">
      <stop
         id="stop3806"
         offset="0"
         style="stop-color:#000000;stop-opacity:1;" />
      <stop
         style="stop-color:#333333;stop-opacity:1"
         offset="0.5"
         id="stop3812" />
      <stop
         id="stop3808"
         offset="1"
         style="stop-color:#000000;stop-opacity:1;" />
    </linearGradient>
    <linearGradient
       id="linearGradient3833">
      <stop
         id="stop3835"
         offset="0"
         style="stop-color:#000000;stop-opacity:1;" />
      <stop
         style="stop-color:#333333;stop-opacity:1"
         offset="0.5"
         id="stop3841" />
      <stop
         id="stop3837"
         offset="1"
         style="stop-color:#000000;stop-opacity:1" />
    </linearGradient>
    <linearGradient
       id="linearGradient3851">
      <stop
         id="stop3853"
         offset="0"
         style="stop-color:#808080;stop-opacity:1;" />
      <stop
         style="stop-color:#ffffff;stop-opacity:1;"
         offset="0.5"
         id="stop3859" />
      <stop
         id="stop3855"
         offset="1"
         style="stop-color:#808080;stop-opacity:1;" />
    </linearGradient>
    <radialGradient
       gradientUnits="userSpaceOnUse"
       gradientTransform="matrix(0.97241988,-0.00350785,0.00204639,0.40929875,4026.4071,-290.65137)"
       r="74.726646"
       fy="208.92761"
       fx="44.149761"
       cy="208.92761"
       cx="44.149761"
       id="radialGradient3939-7-7"
       xlink:href="#linearGradient3933-4-3"
       inkscape:collect="always" />
    <linearGradient
       id="linearGradient3933-4-3"
       inkscape:collect="always">
      <stop
         id="stop3935-0-7"
         offset="0"
         style="stop-color:#000000;stop-opacity:1;" />
      <stop
         id="stop3937-9-2"
         offset="1"
         style="stop-color:#000000;stop-opacity:0;" />
    </linearGradient>
    <linearGradient
       gradientTransform="translate(3914.848,-255.2825)"
       gradientUnits="userSpaceOnUse"
       y2="294.38422"
       x2="178.15625"
       y1="294.38422"
       x1="81.90625"
       id="linearGradient3012-2-7"
       xlink:href="#linearGradient3006-1-5"
       inkscape:collect="always" />
    <linearGradient
       id="linearGradient3006-1-5">
      <stop
         id="stop3008-6-4"
         offset="0"
         style="stop-color:#ffffff;stop-opacity:1;" />
      <stop
         style="stop-color:#7f7f7f;stop-opacity:1;"
         offset="0.37675071"
         id="stop3014-8-12" />
      <stop
         id="stop3016-5-0"
         offset="0.80194807"
         style="stop-color:#ffffff;stop-opacity:1;" />
      <stop
         id="stop3010-7-0"
         offset="1"
         style="stop-color:#cccccc;stop-opacity:1" />
    </linearGradient>
    <linearGradient
       gradientUnits="userSpaceOnUse"
       y2="394.69629"
       x2="156.7487"
       y1="394.69629"
       x1="65.223801"
       id="linearGradient3810-9-1"
       xlink:href="#linearGradient3804-6-4"
       inkscape:collect="always"
       gradientTransform="translate(3914.848,-376.2825)" />
    <linearGradient
       id="linearGradient3804-6-4">
      <stop
         id="stop3806-1-6"
         offset="0"
         style="stop-color:#000000;stop-opacity:1;" />
      <stop
         style="stop-color:#333333;stop-opacity:1"
         offset="0.5"
         id="stop3812-4-0" />
      <stop
         id="stop3808-2-7"
         offset="1"
         style="stop-color:#000000;stop-opacity:1;" />
    </linearGradient>
    <radialGradient
       gradientUnits="userSpaceOnUse"
       gradientTransform="matrix(0.79138519,4.4166814e-8,0,0.48100739,3940.8627,-177.7307)"
       r="43.141743"
       fy="428.49252"
       fx="114.59315"
       cy="428.49252"
       cx="114.59315"
       id="radialGradient3030-7-1"
       xlink:href="#linearGradient3024-3-7"
       inkscape:collect="always" />
    <linearGradient
       id="linearGradient3024-3-7"
       inkscape:collect="always">
      <stop
         style="stop-color:#000000;stop-opacity:1"
         offset="0"
         id="stop3028-2-7" />
      <stop
         style="stop-color:#242424;stop-opacity:1;"
         offset="1"
         id="stop3026-2-7" />
    </linearGradient>
    <linearGradient
       y2="390.78296"
       x2="183.7796"
       y1="375.92633"
       x1="145.60164"
       gradientUnits="userSpaceOnUse"
       id="linearGradient3113-4-7"
       xlink:href="#linearGradient3101-2-3"
       inkscape:collect="always"
       gradientTransform="translate(3914.848,-376.2825)" />
    <linearGradient
       id="linearGradient3101-2-3"
       inkscape:collect="always">
      <stop
         id="stop3103-4-3"
         offset="0"
         style="stop-color:#000000;stop-opacity:1;" />
      <stop
         id="stop3105-5-5"
         offset="1"
         style="stop-color:#000000;stop-opacity:0;" />
    </linearGradient>
    <linearGradient
       gradientUnits="userSpaceOnUse"
       y2="405.19611"
       x2="116.81388"
       y1="395.66125"
       x1="113.00574"
       id="linearGradient3107-7-9"
       xlink:href="#linearGradient3101-2-3"
       inkscape:collect="always"
       gradientTransform="translate(3914.848,-376.2825)" />
    <linearGradient
       y2="459.14062"
       x2="-128.625"
       y1="459.14062"
       x1="-158.78125"
       gradientTransform="matrix(0.43846429,7.9081918e-4,-6.5324466e-4,0.53080568,903.27012,-3758.3554)"
       gradientUnits="userSpaceOnUse"
       id="linearGradient3086-3-9"
       xlink:href="#linearGradient3833-1-81"
       inkscape:collect="always" />
    <linearGradient
       id="linearGradient3833-1-81">
      <stop
         id="stop3835-5-82"
         offset="0"
         style="stop-color:#000000;stop-opacity:1;" />
      <stop
         style="stop-color:#333333;stop-opacity:1"
         offset="0.5"
         id="stop3841-2-6" />
      <stop
         id="stop3837-7-6"
         offset="1"
         style="stop-color:#000000;stop-opacity:1" />
    </linearGradient>
    <linearGradient
       y2="463.51562"
       x2="-281.15625"
       y1="463.51562"
       x1="-311.3125"
       gradientTransform="matrix(0.43846429,7.9081918e-4,-6.5324466e-4,0.53080568,970.15112,-3759.4954)"
       gradientUnits="userSpaceOnUse"
       id="linearGradient3088-8-0"
       xlink:href="#linearGradient3851-5-38"
       inkscape:collect="always" />
    <linearGradient
       id="linearGradient3851-5-38">
      <stop
         id="stop3853-1-0"
         offset="0"
         style="stop-color:#808080;stop-opacity:1;" />
      <stop
         style="stop-color:#ffffff;stop-opacity:1;"
         offset="0.5"
         id="stop3859-7-1" />
      <stop
         id="stop3855-1-2"
         offset="1"
         style="stop-color:#808080;stop-opacity:1;" />
    </linearGradient>
    <radialGradient
       gradientUnits="userSpaceOnUse"
       gradientTransform="matrix(0.97241988,-0.00350785,0.00204639,0.40929875,4026.4073,-290.65147)"
       r="74.726646"
       fy="208.92761"
       fx="44.149761"
       cy="208.92761"
       cx="44.149761"
       id="radialGradient3939-7"
       xlink:href="#linearGradient3933-4"
       inkscape:collect="always" />
    <linearGradient
       id="linearGradient3933-4"
       inkscape:collect="always">
      <stop
         id="stop3935-0"
         offset="0"
         style="stop-color:#000000;stop-opacity:1;" />
      <stop
         id="stop3937-9"
         offset="1"
         style="stop-color:#000000;stop-opacity:0;" />
    </linearGradient>
    <linearGradient
       gradientTransform="translate(3914.8481,-255.28247)"
       gradientUnits="userSpaceOnUse"
       y2="294.38422"
       x2="178.15625"
       y1="294.38422"
       x1="81.90625"
       id="linearGradient3012-2"
       xlink:href="#linearGradient3006-1"
       inkscape:collect="always" />
    <linearGradient
       id="linearGradient3006-1">
      <stop
         id="stop3008-6"
         offset="0"
         style="stop-color:#ffffff;stop-opacity:1;" />
      <stop
         style="stop-color:#7f7f7f;stop-opacity:1;"
         offset="0.37675071"
         id="stop3014-8" />
      <stop
         id="stop3016-5"
         offset="0.80194807"
         style="stop-color:#ffffff;stop-opacity:1;" />
      <stop
         id="stop3010-7"
         offset="1"
         style="stop-color:#cccccc;stop-opacity:1" />
    </linearGradient>
    <linearGradient
       gradientUnits="userSpaceOnUse"
       y2="394.69629"
       x2="156.7487"
       y1="394.69629"
       x1="65.223801"
       id="linearGradient3810-9"
       xlink:href="#linearGradient3804-6"
       inkscape:collect="always"
       gradientTransform="translate(3914.8481,-376.28247)" />
    <linearGradient
       id="linearGradient3804-6">
      <stop
         id="stop3806-1"
         offset="0"
         style="stop-color:#000000;stop-opacity:1;" />
      <stop
         style="stop-color:#333333;stop-opacity:1"
         offset="0.5"
         id="stop3812-4" />
      <stop
         id="stop3808-2"
         offset="1"
         style="stop-color:#000000;stop-opacity:1;" />
    </linearGradient>
    <radialGradient
       gradientUnits="userSpaceOnUse"
       gradientTransform="matrix(0.79138519,4.4166814e-8,0,0.48100739,3940.8628,-177.73072)"
       r="43.141743"
       fy="428.49252"
       fx="114.59315"
       cy="428.49252"
       cx="114.59315"
       id="radialGradient3030-7"
       xlink:href="#linearGradient3024-3"
       inkscape:collect="always" />
    <linearGradient
       id="linearGradient3024-3"
       inkscape:collect="always">
      <stop
         style="stop-color:#000000;stop-opacity:1"
         offset="0"
         id="stop3028-2" />
      <stop
         style="stop-color:#242424;stop-opacity:1;"
         offset="1"
         id="stop3026-2" />
    </linearGradient>
    <linearGradient
       y2="390.78296"
       x2="183.7796"
       y1="375.92633"
       x1="145.60164"
       gradientUnits="userSpaceOnUse"
       id="linearGradient3113-4"
       xlink:href="#linearGradient3101-2"
       inkscape:collect="always"
       gradientTransform="translate(3914.8481,-376.28247)" />
    <linearGradient
       id="linearGradient3101-2"
       inkscape:collect="always">
      <stop
         id="stop3103-4"
         offset="0"
         style="stop-color:#000000;stop-opacity:1;" />
      <stop
         id="stop3105-5"
         offset="1"
         style="stop-color:#000000;stop-opacity:0;" />
    </linearGradient>
    <linearGradient
       gradientUnits="userSpaceOnUse"
       y2="405.19611"
       x2="116.81388"
       y1="395.66125"
       x1="113.00574"
       id="linearGradient3107-7"
       xlink:href="#linearGradient3101-2"
       inkscape:collect="always"
       gradientTransform="translate(3914.8481,-376.28247)" />
    <linearGradient
       y2="459.14062"
       x2="-128.625"
       y1="459.14062"
       x1="-158.78125"
       gradientTransform="matrix(0.43846429,7.9081918e-4,-6.5324466e-4,0.53080568,903.27012,-3758.3554)"
       gradientUnits="userSpaceOnUse"
       id="linearGradient3086-3"
       xlink:href="#linearGradient3833-1"
       inkscape:collect="always" />
    <linearGradient
       id="linearGradient3833-1">
      <stop
         id="stop3835-5"
         offset="0"
         style="stop-color:#000000;stop-opacity:1;" />
      <stop
         style="stop-color:#333333;stop-opacity:1"
         offset="0.5"
         id="stop3841-2" />
      <stop
         id="stop3837-7"
         offset="1"
         style="stop-color:#000000;stop-opacity:1" />
    </linearGradient>
    <linearGradient
       y2="463.51562"
       x2="-281.15625"
       y1="463.51562"
       x1="-311.3125"
       gradientTransform="matrix(0.43846429,7.9081918e-4,-6.5324466e-4,0.53080568,970.15119,-3759.4955)"
       gradientUnits="userSpaceOnUse"
       id="linearGradient3088-8"
       xlink:href="#linearGradient3851-5"
       inkscape:collect="always" />
    <linearGradient
       id="linearGradient3851-5">
      <stop
         id="stop3853-1"
         offset="0"
         style="stop-color:#808080;stop-opacity:1;" />
      <stop
         style="stop-color:#ffffff;stop-opacity:1;"
         offset="0.5"
         id="stop3859-7" />
      <stop
         id="stop3855-1"
         offset="1"
         style="stop-color:#808080;stop-opacity:1;" />
    </linearGradient>
    <radialGradient
       gradientUnits="userSpaceOnUse"
       gradientTransform="matrix(0.97241988,-0.00350785,0.00204639,0.40929875,3999.0996,-324.0036)"
       r="74.726646"
       fy="208.92761"
       fx="44.149761"
       cy="208.92761"
       cx="44.149761"
       id="radialGradient3939-7-9"
       xlink:href="#linearGradient3933-4-1"
       inkscape:collect="always" />
    <linearGradient
       id="linearGradient3933-4-1"
       inkscape:collect="always">
      <stop
         id="stop3935-0-5"
         offset="0"
         style="stop-color:#000000;stop-opacity:1;" />
      <stop
         id="stop3937-9-7"
         offset="1"
         style="stop-color:#000000;stop-opacity:0;" />
    </linearGradient>
    <linearGradient
       gradientTransform="translate(3889.1159,-292.38739)"
       gradientUnits="userSpaceOnUse"
       y2="294.38422"
       x2="178.15625"
       y1="294.38422"
       x1="81.90625"
       id="linearGradient3012-2-3"
       xlink:href="#linearGradient3006-1-3"
       inkscape:collect="always" />
    <linearGradient
       id="linearGradient3006-1-3">
      <stop
         id="stop3008-6-42"
         offset="0"
         style="stop-color:#ffffff;stop-opacity:1;" />
      <stop
         style="stop-color:#7f7f7f;stop-opacity:1;"
         offset="0.37675071"
         id="stop3014-8-2" />
      <stop
         id="stop3016-5-01"
         offset="0.80194807"
         style="stop-color:#ffffff;stop-opacity:1;" />
      <stop
         id="stop3010-7-2"
         offset="1"
         style="stop-color:#cccccc;stop-opacity:1" />
    </linearGradient>
    <linearGradient
       gradientUnits="userSpaceOnUse"
       y2="394.69629"
       x2="156.7487"
       y1="394.69629"
       x1="65.223801"
       id="linearGradient3810-9-7"
       xlink:href="#linearGradient3804-6-7"
       inkscape:collect="always"
       gradientTransform="translate(3889.1159,-413.38739)" />
    <linearGradient
       id="linearGradient3804-6-7">
      <stop
         id="stop3806-1-0"
         offset="0"
         style="stop-color:#000000;stop-opacity:1;" />
      <stop
         style="stop-color:#333333;stop-opacity:1"
         offset="0.5"
         id="stop3812-4-2" />
      <stop
         id="stop3808-2-4"
         offset="1"
         style="stop-color:#000000;stop-opacity:1;" />
    </linearGradient>
    <radialGradient
       gradientUnits="userSpaceOnUse"
       gradientTransform="matrix(0.79138519,4.4166814e-8,0,0.48100739,3915.1306,-214.83564)"
       r="43.141743"
       fy="428.49252"
       fx="114.59315"
       cy="428.49252"
       cx="114.59315"
       id="radialGradient3030-7-10"
       xlink:href="#linearGradient3024-3-3"
       inkscape:collect="always" />
    <linearGradient
       id="linearGradient3024-3-3"
       inkscape:collect="always">
      <stop
         style="stop-color:#000000;stop-opacity:1"
         offset="0"
         id="stop3028-2-73" />
      <stop
         style="stop-color:#242424;stop-opacity:1;"
         offset="1"
         id="stop3026-2-9" />
    </linearGradient>
    <linearGradient
       y2="390.78296"
       x2="183.7796"
       y1="375.92633"
       x1="145.60164"
       gradientUnits="userSpaceOnUse"
       id="linearGradient3113-4-5"
       xlink:href="#linearGradient3101-2-9"
       inkscape:collect="always"
       gradientTransform="translate(3889.1159,-413.38739)" />
    <linearGradient
       id="linearGradient3101-2-9"
       inkscape:collect="always">
      <stop
         id="stop3103-4-7"
         offset="0"
         style="stop-color:#000000;stop-opacity:1;" />
      <stop
         id="stop3105-5-2"
         offset="1"
         style="stop-color:#000000;stop-opacity:0;" />
    </linearGradient>
    <linearGradient
       gradientUnits="userSpaceOnUse"
       y2="405.19611"
       x2="116.81388"
       y1="395.66125"
       x1="113.00574"
       id="linearGradient3107-7-0"
       xlink:href="#linearGradient3101-2-9"
       inkscape:collect="always"
       gradientTransform="translate(3889.1159,-413.38739)" />
    <linearGradient
       y2="459.14062"
       x2="-128.625"
       y1="459.14062"
       x1="-158.78125"
       gradientTransform="matrix(0.43846429,7.9081918e-4,-6.5324466e-4,0.53080568,860.24197,-3744.6624)"
       gradientUnits="userSpaceOnUse"
       id="linearGradient3086-3-2"
       xlink:href="#linearGradient3833-1-8"
       inkscape:collect="always" />
    <linearGradient
       id="linearGradient3833-1-8">
      <stop
         id="stop3835-5-6"
         offset="0"
         style="stop-color:#000000;stop-opacity:1;" />
      <stop
         style="stop-color:#333333;stop-opacity:1"
         offset="0.5"
         id="stop3841-2-7" />
      <stop
         id="stop3837-7-0"
         offset="1"
         style="stop-color:#000000;stop-opacity:1" />
    </linearGradient>
    <linearGradient
       y2="463.51562"
       x2="-281.15625"
       y1="463.51562"
       x1="-311.3125"
       gradientTransform="matrix(0.43846429,7.9081918e-4,-6.5324466e-4,0.53080568,927.12304,-3745.8025)"
       gradientUnits="userSpaceOnUse"
       id="linearGradient3088-8-8"
       xlink:href="#linearGradient3851-5-1"
       inkscape:collect="always" />
    <linearGradient
       id="linearGradient3851-5-1">
      <stop
         id="stop3853-1-8"
         offset="0"
         style="stop-color:#808080;stop-opacity:1;" />
      <stop
         style="stop-color:#ffffff;stop-opacity:1;"
         offset="0.5"
         id="stop3859-7-3" />
      <stop
         id="stop3855-1-0"
         offset="1"
         style="stop-color:#808080;stop-opacity:1;" />
    </linearGradient>
  </defs>
  <sodipodi:namedview
     id="base"
     pagecolor="#ffffff"
     bordercolor="#666666"
     borderopacity="1.0"
     inkscape:pageopacity="0.0"
     inkscape:pageshadow="2"
     inkscape:zoom="3.6055405"
     inkscape:cx="82.029784"
     inkscape:cy="127.09314"
     inkscape:document-units="px"
     inkscape:current-layer="g11048"
     showgrid="false"
     fit-margin-top="0"
     fit-margin-left="0"
     fit-margin-right="0"
     fit-margin-bottom="0"
     inkscape:window-width="824"
     inkscape:window-height="786"
     inkscape:window-x="6"
     inkscape:window-y="31"
     inkscape:window-maximized="0"
     inkscape:snap-global="true"
     inkscape:snap-bbox="true"
     inkscape:bbox-paths="true"
     inkscape:bbox-nodes="true"
     inkscape:snap-bbox-edge-midpoints="true"
     inkscape:snap-bbox-midpoints="true"
     inkscape:snap-object-midpoints="true"
     inkscape:snap-center="true" />
  <metadata
     id="metadata18952">
    <rdf:RDF>
      <cc:Work
         rdf:about="">
        <dc:format>image/svg+xml</dc:format>
        <dc:type
           rdf:resource="http://purl.org/dc/dcmitype/StillImage" />
        <dc:title />
      </cc:Work>
    </rdf:RDF>
  </metadata>
  <g
     inkscape:label="Layer 1"
     inkscape:groupmode="layer"
     id="layer1"
     transform="translate(-247.87401,-381.68621)">
    <g
       style="display:inline"
       id="g11048"
       transform="translate(267.49799,-10365.934)"
       inkscape:export-filename="C:\Users\MXY\Documents\SVG Deck(4-19-2011)\Finalized\Colorized - SVG_Vector_Playing_Cards_Version_1.3\COMBINED TEST.png"
       inkscape:export-xdpi="70"
       inkscape:export-ydpi="70">
      <path
         d="m -5.6784886,10793.284 2.875365,-0.895 c 1.084615,2.845 3.27740503,3.685 5.596925,3.504 4.162995,-0.324 5.544675,-4.891 5.85694,-8.93 -1.622125,1.686 -4.060395,2.543 -6.13662,2.459 -6.633185,-0.351 -8.331025,-5.562 -8.392775,-11.021 -0.1843,-4.605 1.75522,-7.938 5.08098003,-9.466 1.759495,-0.775 5.78986997,-0.775 7.56142997,0.142 4.0679946,2.105 5.5734596,5.746 5.3003346,14.431 0,7.148 -1.543275,15.473 -9.3455296,15.651 -4.510315,0.612 -7.934875,-2.831 -8.39705,-5.875 z m 11.292935,-7.832 c 1.35356,-0.842 2.11755,-1.63 2.724315,-2.814 0.49799,-0.972 0.66652,-1.475 0.52459,-3.487 -0.36575,-5.183 -3.134335,-8.12 -7.14837,-7.537 -2.23876997,0.326 -3.460945,1.557 -4.163565,3.846 -1.29732,4.226 0.347225,9.174 3.42817003,10.314 1.38965997,0.514 3.52896497,0.366 4.63485997,-0.322 z"
         id="path7114-5"
         style="fill:#000000;fill-opacity:1;display:inline"
         inkscape:connector-curvature="0" />
      <path
         d="m 190.05562,11014.738 -2.87527,0.894 c -1.08462,-2.845 -3.27741,-3.684 -5.59702,-3.503 -4.163,0.323 -5.54468,4.89 -5.85685,8.929 1.62203,-1.686 4.0604,-2.543 6.13653,-2.459 6.63328,0.352 8.33102,5.562 8.39287,11.022 0.1842,4.604 -1.75532,7.937 -5.08098,9.465 -1.75959,0.775 -5.78987,0.776 -7.56143,-0.142 -4.068,-2.105 -5.57346,-5.745 -5.30043,-14.431 0,-7.147 1.54327,-15.473 9.34562,-15.651 4.51032,-0.612 7.93478,2.831 8.39696,5.876 z m -11.29294,7.831 c -1.35356,0.842 -2.11745,1.63 -2.72422,2.814 -0.49808,0.972 -0.66661,1.475 -0.52459,3.487 0.36575,5.183 3.13424,8.121 7.14828,7.537 2.23877,-0.325 3.46104,-1.556 4.16356,-3.846 1.29732,-4.226 -0.34722,-9.174 -3.42817,-10.314 -1.38956,-0.514 -3.52887,-0.365 -4.63486,0.322 z"
         id="path7130-9"
         style="fill:#000000;fill-opacity:1;display:inline"
         inkscape:connector-curvature="0" />
      <g
         transform="matrix(0.95,0,0,0.95,4.4969202,545.0148)"
         id="g10303">
        <path
           inkscape:connector-curvature="0"
           style="fill:#000000;fill-opacity:1;display:inline"
           id="path3232"
           d="m 35.804086,10816.978 c 0.015,-2.026 -1.5868,-2.065 -1.5686,-0.586 -0.1343,7.429 -6.4165,11.086 -10.9806,10.219 -7.0361,-1.338 -9.2818,-8.322 -9.2147,-12.436 0.2072,-12.696 12.9878,-22.058 24.5202,-38.334 8.4501,14.691 22.3972,26.229 23.2229,37.586 1.0977,15.098 -18.0089,20.729 -20.7369,3.132 -0.176,-1.243 -1.6397,-1.801 -1.5261,-0.06 0.4145,4.823 -0.1749,6.832 5.2657,18.72 l -14.2217,0 c 3.1497,-5.555 5.0254,-12.375 5.2398,-18.236 z" />
        <path
           inkscape:connector-curvature="0"
           style="fill:#000000;fill-opacity:1;display:inline"
           id="path3234"
           d="m 145.1807,10816.978 c 0.015,-2.026 -1.5868,-2.065 -1.5686,-0.586 -0.1343,7.429 -6.4165,11.086 -10.9806,10.219 -7.0361,-1.338 -9.2818,-8.322 -9.2147,-12.436 0.2072,-12.696 12.9878,-22.058 24.5202,-38.334 8.4501,14.691 22.3972,26.229 23.2229,37.586 1.0977,15.098 -18.0089,20.729 -20.7369,3.132 -0.176,-1.243 -1.6397,-1.801 -1.5261,-0.06 0.4145,4.823 -0.1749,6.832 5.2657,18.72 l -14.2217,0 c 3.1497,-5.555 5.0254,-12.375 5.2398,-18.236 z" />
        <path
           inkscape:connector-curvature="0"
           style="fill:#000000;fill-opacity:1;display:inline"
           id="path3236"
           d="m 145.1807,10882.764 c 0.015,-2.026 -1.5868,-2.064 -1.5686,-0.586 -0.1343,7.429 -6.4165,11.087 -10.9806,10.219 -7.0361,-1.338 -9.2818,-8.322 -9.2147,-12.436 0.2072,-12.696 12.9878,-22.058 24.5202,-38.334 8.4501,14.691 22.3972,26.23 23.2229,37.586 1.0977,15.098 -18.0089,20.729 -20.7369,3.132 -0.176,-1.243 -1.6397,-1.801 -1.5261,-0.06 0.4145,4.823 -0.1749,6.832 5.2657,18.72 l -14.2217,0 c 3.1497,-5.555 5.0254,-12.375 5.2398,-18.236 z" />
        <path
           inkscape:connector-curvature="0"
           style="fill:#000000;fill-opacity:1;display:inline"
           id="path3238"
           d="m 35.804086,10882.764 c 0.015,-2.026 -1.5868,-2.064 -1.5686,-0.586 -0.1343,7.429 -6.4165,11.087 -10.9806,10.219 -7.0361,-1.338 -9.2818,-8.322 -9.2147,-12.436 0.2072,-12.696 12.9878,-22.058 24.5202,-38.334 8.4501,14.691 22.3972,26.23 23.2229,37.586 1.0977,15.098 -18.0089,20.729 -20.7369,3.132 -0.176,-1.243 -1.6397,-1.801 -1.5261,-0.06 0.4145,4.823 -0.1749,6.832 5.2657,18.72 l -14.2217,0 c 3.1497,-5.555 5.0254,-12.375 5.2398,-18.236 z" />
        <path
           inkscape:connector-curvature="0"
           style="fill:#000000;fill-opacity:1;display:inline"
           id="path3288"
           d="m 145.1915,10991.435 c 0.015,2.026 -1.5868,2.064 -1.5686,0.586 -0.1343,-7.429 -6.4165,-11.087 -10.9806,-10.219 -7.0361,1.338 -9.2818,8.322 -9.2147,12.435 0.2072,12.697 12.9878,22.059 24.5202,38.335 8.4501,-14.691 22.3972,-26.23 23.2229,-37.586 1.0977,-15.098 -18.0089,-20.729 -20.7369,-3.132 -0.176,1.243 -1.6397,1.801 -1.5261,0.07 0.4145,-4.823 -0.1749,-6.832 5.2657,-18.72 l -14.2217,0 c 3.1497,5.555 5.0254,12.375 5.2398,18.236 z" />
        <path
           inkscape:connector-curvature="0"
           style="fill:#000000;fill-opacity:1;display:inline"
           id="path3290"
           d="m 145.1915,10925.649 c 0.015,2.026 -1.5868,2.064 -1.5686,0.586 -0.1343,-7.429 -6.4165,-11.087 -10.9806,-10.219 -7.0361,1.338 -9.2818,8.322 -9.2147,12.435 0.2072,12.697 12.9878,22.059 24.5202,38.335 8.4501,-14.691 22.3972,-26.23 23.2229,-37.586 1.0977,-15.098 -18.0089,-20.73 -20.7369,-3.132 -0.176,1.242 -1.6397,1.801 -1.5261,0.06 0.4145,-4.822 -0.1749,-6.831 5.2657,-18.719 l -14.2217,0 c 3.1497,5.555 5.0254,12.375 5.2398,18.236 z" />
        <path
           inkscape:connector-curvature="0"
           style="fill:#000000;fill-opacity:1;display:inline"
           id="path3292"
           d="m 90.37132,10892.56 c 0.015,2.026 -1.5868,2.064 -1.5686,0.586 -0.1343,-7.429 -6.4165,-11.087 -10.9806,-10.219 -7.0361,1.338 -9.2818,8.322 -9.2147,12.435 0.2072,12.697 12.9878,22.059 24.5202,38.335 8.4501,-14.691 22.3972,-26.23 23.2229,-37.586 1.0977,-15.098 -18.0089,-20.729 -20.7369,-3.132 -0.176,1.243 -1.6397,1.801 -1.5261,0.07 0.4145,-4.823 -0.1749,-6.832 5.2657,-18.72 l -14.2217,0 c 3.1497,5.555 5.0254,12.375 5.2398,18.236 z" />
        <path
           inkscape:connector-curvature="0"
           style="fill:#000000;fill-opacity:1;display:inline"
           id="path3294"
           d="m 35.804086,10925.649 c 0.015,2.026 -1.5868,2.064 -1.5686,0.586 -0.1343,-7.429 -6.4165,-11.087 -10.9806,-10.219 -7.0361,1.338 -9.2818,8.322 -9.2147,12.435 0.2072,12.697 12.9878,22.059 24.5202,38.335 8.4501,-14.691 22.3972,-26.23 23.2229,-37.586 1.0977,-15.098 -18.0089,-20.73 -20.7369,-3.132 -0.176,1.242 -1.6397,1.801 -1.5261,0.06 0.4145,-4.822 -0.1749,-6.831 5.2657,-18.719 l -14.2217,0 c 3.1497,5.555 5.0254,12.375 5.2398,18.236 z" />
        <path
           inkscape:connector-curvature="0"
           style="fill:#000000;fill-opacity:1;display:inline"
           id="path3296"
           d="m 35.804086,10991.435 c 0.015,2.026 -1.5868,2.064 -1.5686,0.586 -0.1343,-7.429 -6.4165,-11.087 -10.9806,-10.219 -7.0361,1.338 -9.2818,8.322 -9.2147,12.435 0.2072,12.697 12.9878,22.059 24.5202,38.335 8.4501,-14.691 22.3972,-26.23 23.2229,-37.586 1.0977,-15.098 -18.0089,-20.729 -20.7369,-3.132 -0.176,1.243 -1.6397,1.801 -1.5261,0.07 0.4145,-4.823 -0.1749,-6.832 5.2657,-18.72 l -14.2217,0 c 3.1497,5.555 5.0254,12.375 5.2398,18.236 z" />
      </g>
      <path
         d="m 2.4467664,10819.912 c 0.0095,-0.828 -0.850535,-0.441 -0.96691,-0.18 -1.10503997,1.885 -2.72156,2.325 -4.320505,1.645 -1.583935,-0.674 -2.47399,-2.167 -2.331205,-4.297 0.29469,-3.265 2.88363,-6.839 4.13725,-8.859 1.18940003,-1.834 2.496505,-4.011 3.872865,-6.797 1.612435,3.195 2.430765,4.105 4.18494,7.023 1.5447,2.568 3.6978746,5.085 3.8641246,8.191 0,2.36 -0.9936996,4.59 -3.2294296,4.996 -1.26483,0.23 -2.449765,-0.419 -3.32861,-1.935 -0.26771,-0.386 -0.80636,-0.185 -0.797335,0.343 0.15694,1.99 0.90763,3.785 2.688025,5.902 l -6.54274497,0 c 1.33959497,-1.497 2.70626497,-3.519 2.76953497,-6.032 z"
         id="path3320"
         style="fill:#000000;fill-opacity:1;display:inline"
         inkscape:connector-curvature="0" />
      <path
         d="m 181.8213,10984.021 c 0.01,0.827 -0.85053,0.441 -0.96691,0.18 -1.10504,-1.886 -2.72156,-2.325 -4.3205,-1.645 -1.58394,0.674 -2.47399,2.166 -2.33121,4.296 0.29469,3.266 2.88363,6.84 4.13725,8.861 1.1894,1.832 2.49651,4.01 3.87287,6.796 1.61234,-3.196 2.43067,-4.105 4.18484,-7.023 1.5447,-2.568 3.69788,-5.085 3.86413,-8.19 0,-2.361 -0.9937,-4.591 -3.22943,-4.997 -1.26483,-0.23 -2.44977,0.419 -3.32861,1.935 -0.26771,0.386 -0.80627,0.185 -0.79724,-0.344 0.15684,-1.989 0.90753,-3.784 2.68793,-5.901 l -6.54265,0 c 1.33959,1.498 2.70626,3.518 2.76953,6.032 z"
         id="path3344"
         style="fill:#000000;fill-opacity:1;display:inline"
         inkscape:connector-curvature="0" />
      <path
         d="m 172.79868,10793.284 2.87536,-0.895 c 1.08462,2.845 3.27741,3.685 5.59693,3.504 4.16299,-0.324 5.54467,-4.891 5.85694,-8.93 -1.62213,1.686 -4.0604,2.543 -6.13662,2.459 -6.63319,-0.351 -8.33103,-5.562 -8.39278,-11.021 -0.1843,-4.605 1.75522,-7.938 5.08098,-9.466 1.7595,-0.775 5.78987,-0.775 7.56143,0.142 4.068,2.105 5.57346,5.746 5.30034,14.431 0,7.148 -1.54328,15.473 -9.34553,15.651 -4.51032,0.612 -7.93488,-2.831 -8.39705,-5.875 z m 11.29293,-7.832 c 1.35356,-0.842 2.11755,-1.63 2.72432,-2.814 0.49799,-0.972 0.66652,-1.475 0.52459,-3.487 -0.36575,-5.183 -3.13434,-8.12 -7.14837,-7.537 -2.23877,0.326 -3.46095,1.556 -4.16357,3.846 -1.29732,4.226 0.34723,9.174 3.42817,10.314 1.38966,0.514 3.52897,0.366 4.63486,-0.322 z"
         id="path7114-5-1"
         style="fill:#000000;fill-opacity:1;display:inline"
         inkscape:connector-curvature="0" />
      <path
         d="m 12.187401,11014.737 -2.8752696,0.895 c -1.084615,-2.845 -3.277405,-3.684 -5.59702,-3.504 -4.16299497,0.324 -5.544675,4.891 -5.856845,8.93 1.62203003,-1.686 4.060395,-2.543 6.136525,-2.459 6.6332796,0.352 8.3310246,5.562 8.3928696,11.022 0.184205,4.604 -1.755315,7.937 -5.0809796,9.465 -1.75959,0.775 -5.78987,0.775 -7.56142997,-0.142 -4.06799503,-2.105 -5.57346003,-5.745 -5.30043003,-14.431 0,-7.147 1.543275,-15.473 9.345625,-15.651 4.510315,-0.612 7.9347796,2.831 8.3969546,5.875 z m -11.29293457,7.832 c -1.35356,0.842 -2.11745503,1.63 -2.72422003,2.814 -0.498085,0.972 -0.666615,1.475 -0.52459,3.487 0.36575,5.183 3.13424003,8.12 7.148275,7.537 2.23877,-0.326 3.46104,-1.556 4.163565,-3.846 1.2973196,-4.226 -0.347225,-9.174 -3.42817,-10.314 -1.389565,-0.514 -3.52887,-0.365 -4.63485997,0.322 z"
         id="path7130-9-8"
         style="fill:#000000;fill-opacity:1;display:inline"
         inkscape:connector-curvature="0" />
      <path
         d="m 182.23493,10819.912 c -0.01,-0.827 0.85054,-0.442 0.96691,-0.18 1.10504,1.885 2.72156,2.324 4.32051,1.645 1.58393,-0.674 2.47399,-2.167 2.3312,-4.297 -0.29469,-3.265 -2.88363,-6.839 -4.13725,-8.859 -1.1894,-1.834 -2.4965,-4.011 -3.87286,-6.797 -1.61244,3.195 -2.43077,4.105 -4.18494,7.023 -1.5447,2.568 -3.69788,5.085 -3.86413,8.191 0,2.36 0.9937,4.59 3.22943,4.996 1.26483,0.23 2.44977,-0.419 3.32861,-1.935 0.26771,-0.386 0.80636,-0.185 0.79734,0.343 -0.15694,1.99 -0.90763,3.785 -2.68803,5.902 l 6.54275,0 c -1.3396,-1.497 -2.70627,-3.519 -2.76954,-6.032 z"
         id="path3320-1"
         style="fill:#000000;fill-opacity:1;display:inline"
         inkscape:connector-curvature="0" />
      <path
         d="m 2.8603964,10984.021 c -0.0095,0.827 0.850535,0.441 0.96691,0.18 1.10504,-1.886 2.72156,-2.325 4.320505,-1.645 1.583935,0.674 2.4739896,2.166 2.3312046,4.296 -0.29469,3.266 -2.8836296,6.84 -4.1372496,8.86 -1.1894,1.833 -2.496505,4.011 -3.872865,6.797 -1.61233997,-3.196 -2.43066997,-4.105 -4.184845,-7.023 -1.5447,-2.568 -3.697875,-5.085 -3.864125,-8.19 0,-2.361 0.9937,-4.591 3.22943,-4.997 1.26483,-0.23 2.44976503,0.419 3.32861003,1.935 0.26770997,0.386 0.80626497,0.185 0.79723997,-0.344 -0.156845,-1.989 -0.90753497,-3.784 -2.68792997,-5.901 l 6.54264997,0 c -1.339595,1.498 -2.706265,3.518 -2.769535,6.032 z"
         id="path3344-9"
         style="fill:#000000;fill-opacity:1;display:inline"
         inkscape:connector-curvature="0" />
    </g>
  </g>
</svg>
