<?xml version="1.0" encoding="UTF-8" standalone="no"?>
<!-- Created with Inkscape (http://www.inkscape.org/) -->

<svg
   xmlns:dc="http://purl.org/dc/elements/1.1/"
   xmlns:cc="http://creativecommons.org/ns#"
   xmlns:rdf="http://www.w3.org/1999/02/22-rdf-syntax-ns#"
   xmlns:svg="http://www.w3.org/2000/svg"
   xmlns="http://www.w3.org/2000/svg"
   xmlns:sodipodi="http://sodipodi.sourceforge.net/DTD/sodipodi-0.dtd"
   xmlns:inkscape="http://www.inkscape.org/namespaces/inkscape"
   width="224.25"
   height="312.78125"
   id="svg18947"
   version="1.1"
   inkscape:version="0.48+devel r"
   sodipodi:docname="8-Club08.svg">
  <sodipodi:namedview
     id="base"
     pagecolor="#ffffff"
     bordercolor="#666666"
     borderopacity="1.0"
     inkscape:pageopacity="0.0"
     inkscape:pageshadow="2"
     inkscape:zoom="3.0512821"
     inkscape:cx="96.090937"
     inkscape:cy="156.39062"
     inkscape:document-units="px"
     inkscape:current-layer="layer1"
     showgrid="false"
     fit-margin-top="0"
     fit-margin-left="0"
     fit-margin-right="0"
     fit-margin-bottom="0"
     inkscape:window-width="1101"
     inkscape:window-height="1038"
     inkscape:window-x="240"
     inkscape:window-y="82"
     inkscape:window-maximized="0"
     inkscape:snap-global="true"
     inkscape:snap-bbox="true"
     inkscape:bbox-paths="true"
     inkscape:bbox-nodes="true"
     inkscape:snap-bbox-edge-midpoints="true"
     inkscape:snap-bbox-midpoints="true"
     inkscape:snap-object-midpoints="true"
     inkscape:snap-center="true">
    <sodipodi:guide
       id="guide41566"
       orientation="312.7813,0"
       position="0.0,0" />
    <sodipodi:guide
       id="guide41568"
       orientation="312.7813,0"
       position="28.0313,0" />
    <sodipodi:guide
       id="guide41570"
       orientation="312.7813,0"
       position="56.0625,0" />
    <sodipodi:guide
       id="guide41572"
       orientation="312.7813,0"
       position="84.0938,0" />
    <sodipodi:guide
       id="guide41574"
       orientation="312.7813,0"
       position="112.125,0" />
    <sodipodi:guide
       id="guide41576"
       orientation="312.7813,0"
       position="140.1563,0" />
    <sodipodi:guide
       id="guide41578"
       orientation="312.7813,0"
       position="168.1875,0" />
    <sodipodi:guide
       id="guide41580"
       orientation="312.7813,0"
       position="196.2188,0" />
    <sodipodi:guide
       id="guide41582"
       orientation="312.7813,0"
       position="224.25,0" />
    <sodipodi:guide
       id="guide41584"
       orientation="0,224.25"
       position="0,0.0" />
    <sodipodi:guide
       id="guide41586"
       orientation="0,224.25"
       position="0,156.3906" />
    <sodipodi:guide
       id="guide41588"
       orientation="0,224.25"
       position="0,312.7813" />
  </sodipodi:namedview>
  <defs
     id="defs18949" />
  <metadata
     id="metadata18952">
    <rdf:RDF>
      <cc:Work
         rdf:about="">
        <dc:format>image/svg+xml</dc:format>
        <dc:type
           rdf:resource="http://purl.org/dc/dcmitype/StillImage" />
        <dc:title />
      </cc:Work>
    </rdf:RDF>
  </metadata>
  <g
     transform="translate(-247.87401,-381.68621)"
     id="layer1"
     inkscape:groupmode="layer"
     inkscape:label="Layer 1">
    <g
       inkscape:export-ydpi="70"
       inkscape:export-xdpi="70"
       inkscape:export-filename="C:\Users\MXY\Documents\SVG Deck(4-19-2011)\Finalized\Colorized - SVG_Vector_Playing_Cards_Version_1.3\COMBINED TEST.png"
       transform="translate(267.49799,-1650.124)"
       id="g10547"
       style="display:inline">
      <path
         d="m -7.7413222,2075.7634 c 0.152095,-4.1567 1.682165,-5.7176 4.69642,-7.894 -2.404165,-1.7054 -3.417815,-4.2147 -3.21309,-6.3528 0.495425,-5.1746 4.56931,-7.7635 9.0107499,-7.6506 4.44144,0.1127 8.2693703,3.5754 8.5678603,7.3356 0.25973,3.2711 -0.73188,4.8473 -3.0945302,6.5694 2.8053502,2.3194 4.5983802,3.8476 4.5303602,7.9421 -0.0684,4.0947 -3.6155102,8.9679 -9.7988702,9.1175 -6.18336,0.1497 -10.8509951,-4.9106 -10.6989,-9.0672 z m 17.263875,0.014 c 0.265335,-3.764 -3.12379,-6.3035 -6.94754,-6.343 -3.726185,-0.039 -7.05964,3.0842 -7.060305,6.4636 0,3.6299 4.33541995,5.6017 7.13545,5.6124 3.403185,0.012 6.644015,-2.491 6.8723949,-5.7329 z m -1.2236,-13.4647 c 0.0741,-3.1707 -2.9039601,-5.443 -5.974075,-5.3517 -2.73163005,0.082 -5.625045,2.1288 -5.62647,4.7794 0,3.3155 3.28899495,4.9708 6.096055,5.0332 2.5463799,0.057 5.44863,-2.066 5.50449,-4.4609 z"
         id="path7112-0"
         style="fill:#008000;fill-opacity:1;display:inline"
         inkscape:connector-curvature="0" />
      <path
         d="m 191.32244,2300.6382 c -0.15219,4.1566 -1.68217,5.7176 -4.69642,7.894 2.40407,1.7054 3.41772,4.2147 3.21309,6.3527 -0.49543,5.1746 -4.56941,7.7635 -9.01085,7.6507 -4.44144,-0.1127 -8.26927,-3.5754 -8.56786,-7.3357 -0.25963,-3.271 0.73198,-4.8472 3.09453,-6.5693 -2.80525,-2.3194 -4.59828,-3.8476 -4.53026,-7.9421 0.0684,-4.0947 3.61541,-8.9679 9.79877,-9.1175 6.18346,-0.1497 10.85109,4.9104 10.699,9.0672 z m -17.26397,-0.013 c -0.26524,3.7641 3.12388,6.3036 6.94763,6.3431 3.72609,0.039 7.05964,-3.0843 7.06021,-6.4636 0,-3.63 -4.33542,-5.6018 -7.13545,-5.6123 -3.40318,-0.012 -6.64392,2.491 -6.87239,5.7328 z m 1.2236,13.4647 c -0.0741,3.1708 2.90405,5.4431 5.97417,5.3516 2.73163,-0.082 5.62495,-2.1287 5.62647,-4.7793 0,-3.3154 -3.289,-4.9707 -6.09606,-5.0331 -2.54647,-0.057 -5.44863,2.0659 -5.50458,4.4608 z"
         id="path7128-9"
         style="fill:#008000;fill-opacity:1;display:inline"
         inkscape:connector-curvature="0" />
      <g
         id="g8166"
         transform="matrix(0.95,0,0,0.95,4.9904755,107.45057)">
        <path
           inkscape:connector-curvature="0"
           style="fill:#008000;fill-opacity:1;display:inline"
           id="path3309"
           d="m 136.145,2117.5781 c 2.879,-5.7756 4.9759,-11.701 5.3481,-18.0373 0.3416,-2.3317 -1.0746,-2.3708 -1.2881,-0.7285 -4.0764,15.5927 -25.7627,11.3703 -25.0171,-3.2965 0.605,-11.8948 12.4195,-14.4538 18.5823,-10.5645 2.4336,1.4328 2.2961,0.5746 0.9679,-0.9118 -9.1548,-10.2114 -3.6101,-23.3617 8.7612,-23.6024 13.3796,0.7934 16.8512,14.8699 8.6442,23.1482 -1.0206,0.9946 -3.2835,4.1913 0.123,1.9563 8.2868,-5.888 19.7873,0.4427 19.5527,9.5207 -0.4327,16.7388 -20.8391,17.9872 -25.2032,4.0057 -0.4198,-1.5502 -1.6291,-2.3285 -1.295,0.3043 0.6049,4.7666 1.8565,11.9534 5.4374,18.2057 z" />
        <path
           inkscape:connector-curvature="0"
           style="fill:#008000;fill-opacity:1;display:inline"
           id="path3311"
           d="m 136.145,2216.9821 c 2.879,-5.7756 4.9759,-11.701 5.3481,-18.0373 0.3416,-2.3317 -1.0746,-2.3708 -1.2881,-0.7286 -4.0764,15.5928 -25.7627,11.3704 -25.0171,-3.2965 0.605,-11.8948 12.4195,-14.4538 18.5823,-10.5645 2.4336,1.4328 2.2961,0.5746 0.9679,-0.9118 -9.1548,-10.2114 -3.6101,-23.3617 8.7612,-23.6024 13.3796,0.7934 16.8512,14.8699 8.6442,23.1483 -1.0206,0.9946 -3.2835,4.1913 0.123,1.9563 8.2868,-5.888 19.7873,0.4427 19.5527,9.5207 -0.4327,16.7388 -20.8391,17.9872 -25.2032,4.0057 -0.4198,-1.5502 -1.6291,-2.3285 -1.295,0.3043 0.6049,4.7666 1.8565,11.9534 5.4374,18.2057 z" />
        <path
           inkscape:connector-curvature="0"
           style="fill:#008000;fill-opacity:1;display:inline"
           id="path3313"
           d="m 33.394,2216.9821 c 2.879,-5.7756 4.9759,-11.701 5.3481,-18.0373 0.3416,-2.3317 -1.0746,-2.3708 -1.2881,-0.7286 -4.0764,15.5928 -25.7627,11.3704 -25.0171,-3.2965 0.605,-11.8948 12.4195,-14.4538 18.5823,-10.5645 2.4336,1.4328 2.2961,0.5746 0.9679,-0.9118 -9.1548,-10.2114 -3.6101,-23.3617 8.7612,-23.6024 13.3796,0.7934 16.8512,14.8699 8.6442,23.1483 -1.0206,0.9946 -3.2835,4.1913 0.123,1.9563 8.2868,-5.888 19.7873,0.4427 19.5527,9.5207 -0.4327,16.7388 -20.8391,17.9872 -25.2032,4.0057 -0.4198,-1.5502 -1.6291,-2.3285 -1.295,0.3043 0.6049,4.7666 1.8565,11.9534 5.4374,18.2057 z" />
        <path
           inkscape:connector-curvature="0"
           style="fill:#008000;fill-opacity:1;display:inline"
           id="path3315"
           d="m 85.15006,2167.3737 c 2.879,-5.7756 4.9759,-11.701 5.3481,-18.0373 0.3416,-2.3318 -1.0746,-2.3709 -1.2881,-0.7286 -4.0764,15.5928 -25.7627,11.3704 -25.0171,-3.2965 0.605,-11.8948 12.4195,-14.4538 18.5823,-10.5645 2.4336,1.4328 2.2961,0.5746 0.9679,-0.9118 -9.1548,-10.2114 -3.6101,-23.3617 8.7612,-23.6024 13.3796,0.7934 16.8512,14.8699 8.6442,23.1483 -1.0206,0.9946 -3.2835,4.1913 0.123,1.9562 8.2868,-5.8879 19.7873,0.4428 19.5527,9.5207 -0.4327,16.7389 -20.8391,17.9873 -25.2032,4.0058 -0.4198,-1.5502 -1.6291,-2.3285 -1.295,0.3043 0.6049,4.7666 1.8565,11.9534 5.4374,18.2057 z" />
        <path
           inkscape:connector-curvature="0"
           style="fill:#008000;fill-opacity:1;display:inline"
           id="path3317"
           d="m 33.394,2117.5781 c 2.879,-5.7756 4.9759,-11.701 5.3481,-18.0373 0.3416,-2.3317 -1.0746,-2.3708 -1.2881,-0.7285 -4.0764,15.5927 -25.7627,11.3703 -25.0171,-3.2965 0.605,-11.8948 12.4195,-14.4538 18.5823,-10.5645 2.4336,1.4328 2.2961,0.5746 0.9679,-0.9118 -9.1548,-10.2114 -3.6101,-23.3617 8.7612,-23.6024 13.3796,0.7934 16.8512,14.8699 8.6442,23.1482 -1.0206,0.9946 -3.2835,4.1913 0.123,1.9563 8.2868,-5.888 19.7873,0.4427 19.5527,9.5207 -0.4327,16.7388 -20.8391,17.9872 -25.2032,4.0057 -0.4198,-1.5502 -1.6291,-2.3285 -1.295,0.3043 0.6049,4.7666 1.8565,11.9534 5.4374,18.2057 z" />
        <path
           inkscape:connector-curvature="0"
           style="fill:#008000;fill-opacity:1;display:inline"
           id="path3375"
           d="m 150.84686,2255.5412 c -2.879,6.5243 -4.9759,13.2178 -5.3481,20.3755 -0.3416,2.6341 1.0746,2.6783 1.2881,0.8231 4.0764,-17.6142 25.7627,-12.8443 25.0171,3.7238 -0.605,13.4368 -12.4195,16.3275 -18.5823,11.934 -2.4336,-1.6185 -2.2961,-0.649 -0.9679,1.03 9.1548,11.5352 3.6101,26.3902 -8.7612,26.6621 -13.3796,-0.8962 -16.8512,-16.7975 -8.6442,-26.1491 1.0206,-1.1235 3.2835,-4.7345 -0.123,-2.2098 -8.2868,6.6512 -19.7873,-0.5002 -19.5527,-10.7549 0.4327,-18.9088 20.8391,-20.319 25.2032,-4.5251 0.4198,1.7512 1.6291,2.6304 1.295,-0.3436 -0.6049,-5.3845 -1.8565,-13.503 -5.4374,-20.5658 z" />
        <path
           inkscape:connector-curvature="0"
           style="fill:#008000;fill-opacity:1;display:inline"
           id="path3377"
           d="m 99.851916,2209.6561 c -2.879,5.7755 -4.9759,11.701 -5.3481,18.0373 -0.3416,2.3317 1.0746,2.3708 1.2881,0.7286 4.0764,-15.5928 25.762704,-11.3704 25.017104,3.2964 -0.605,11.8948 -12.4195,14.4538 -18.5823,10.5645 -2.433604,-1.4328 -2.296104,-0.5746 -0.9679,0.9118 9.1548,10.2114 3.6101,23.3617 -8.761204,23.6024 -13.3796,-0.7934 -16.8512,-14.8699 -8.6442,-23.1482 1.0206,-0.9946 3.2835,-4.1913 -0.123,-1.9563 -8.2868,5.888 -19.7873,-0.4428 -19.5527,-9.5207 0.4327,-16.7389 20.8391,-17.9873 25.2032,-4.0058 0.4198,1.5502 1.6291,2.3286 1.295,-0.3043 -0.6049,-4.7666 -1.8565,-11.9534 -5.4374,-18.2057 z" />
        <path
           inkscape:connector-curvature="0"
           style="fill:#008000;fill-opacity:1;display:inline"
           id="path3379"
           d="m 48.096,2255.5412 c -2.879,6.5243 -4.9759,13.2178 -5.3481,20.3755 -0.3416,2.6341 1.0746,2.6783 1.2881,0.8231 4.0764,-17.6142 25.7627,-12.8443 25.0171,3.7238 -0.605,13.4368 -12.4195,16.3275 -18.5823,11.934 -2.4336,-1.6185 -2.2961,-0.649 -0.9679,1.03 9.1548,11.5352 3.6101,26.3902 -8.7612,26.6621 -13.3796,-0.8962 -16.8512,-16.7975 -8.6442,-26.1491 1.0206,-1.1235 3.2835,-4.7345 -0.123,-2.2098 -8.2868,6.6512 -19.7873,-0.5002 -19.5527,-10.7549 0.4327,-18.9088 20.8391,-20.319 25.2032,-4.5251 0.4198,1.7512 1.6291,2.6304 1.295,-0.3436 -0.6049,-5.3845 -1.8565,-13.503 -5.4374,-20.5658 z" />
      </g>
      <path
         d="m -0.74371725,2113.5609 c 1.132495,-2.3227 2.23459005,-4.4847 2.83508505,-7.0308 0.39824,-2.4013 -0.416385,-1.5091 -0.87894,0.065 -0.68514005,2.1824 -2.58647,3.1766 -4.351,3.2003 -3.202545,0.044 -4.800065,-2.474 -4.700505,-5.1812 -0.3496951,-2.8486 2.5374499,-4.8641 4.7136149,-4.7089 1.6361851,0.1167 3.06280005,0.9994 3.92625505,1.6865 0.56648505,0.2995 1.17230005,0.4319 0.32765505,-0.3406 -1.59372005,-1.7412 -2.92277,-2.816 -2.8937,-5.4252 0.02755,-2.4498 2.12182495,-5.0048 4.89763,-4.9247 3.468925,0.1003 5.0464,2.7456 5.038135,5.2065 -0.0095,1.794 -0.90592,3.445 -2.29083,4.4676 -0.89699,0.7278 -0.64543,1.2728 0.377815,0.584 0.983155,-0.8474 2.153745,-1.2183 3.36756,-1.2444 3.3159752,-0.052 4.6122502,2.8135 4.4223452,5.476 -0.17803,2.4944 -2.30166,5.062 -5.1005502,4.7712 -2.499165,-0.2864 -3.81235,-2.3844 -4.564845,-4.538 -0.249185,-0.6604 -0.6422,-0.8387 -0.631275,0.1454 0.577315,4.8045 2.36702,7.7942 2.380035,7.7914 z"
         id="path3468"
         style="fill:#008000;fill-opacity:1;display:inline"
         inkscape:connector-curvature="0" />
      <path
         d="m 185.75344,2266.5615 c -1.13249,2.3229 -2.23459,4.4849 -2.83508,7.031 -0.39824,2.4011 0.41638,1.509 0.87894,-0.065 0.68514,-2.1825 2.58647,-3.1766 4.351,-3.2005 3.20254,-0.043 4.80006,2.4741 4.7005,5.1812 0.3497,2.8487 -2.53745,4.8642 -4.71361,4.709 -1.63619,-0.1167 -3.0628,-0.9995 -3.92626,-1.6863 -0.56648,-0.2996 -1.1723,-0.4319 -0.32765,0.3405 1.59372,1.7412 2.92277,2.8159 2.8937,5.4252 -0.0275,2.4498 -2.12183,5.0047 -4.89763,4.9246 -3.46893,-0.1002 -5.0464,-2.7456 -5.03814,-5.2066 0.01,-1.7938 0.90592,-3.4449 2.29083,-4.4674 0.89699,-0.7278 0.64543,-1.2728 -0.37781,-0.5842 -0.98316,0.8474 -2.15375,1.2185 -3.36756,1.2445 -3.31598,0.052 -4.61225,-2.8134 -4.42235,-5.476 0.17803,-2.4944 2.30166,-5.062 5.10055,-4.7712 2.49917,0.2865 3.81235,2.3844 4.56485,4.5381 0.24918,0.6603 0.6422,0.8387 0.63127,-0.1454 -0.57731,-4.8046 -2.36702,-7.7942 -2.38003,-7.7916 z"
         id="path3490"
         style="fill:#008000;fill-opacity:1;display:inline"
         inkscape:connector-curvature="0" />
      <path
         d="m 172.25499,2075.7634 c 0.15209,-4.1567 1.68216,-5.7176 4.69642,-7.894 -2.40417,-1.7054 -3.41782,-4.2147 -3.21309,-6.3528 0.49542,-5.1746 4.56931,-7.7635 9.01075,-7.6507 4.44144,0.1127 8.26937,3.5754 8.56786,7.3357 0.25973,3.2711 -0.73188,4.8472 -3.09453,6.5694 2.80535,2.3194 4.59838,3.8475 4.53036,7.9421 -0.0684,4.0947 -3.61551,8.9679 -9.79887,9.1175 -6.18336,0.1497 -10.851,-4.9105 -10.6989,-9.0672 z m 17.26387,0.013 c 0.26534,-3.764 -3.12379,-6.3036 -6.94754,-6.3431 -3.72618,-0.039 -7.05964,3.0844 -7.0603,6.4637 0,3.6299 4.33542,5.6018 7.13545,5.6122 3.40318,0.012 6.64401,-2.491 6.87239,-5.7328 z m -1.2236,-13.4647 c 0.0741,-3.1707 -2.90396,-5.4431 -5.97407,-5.3516 -2.73163,0.082 -5.62505,2.1287 -5.62647,4.7792 0,3.3155 3.28899,4.9708 6.09605,5.0332 2.54638,0.057 5.44863,-2.0659 5.50449,-4.4608 z"
         id="path7112-0-5"
         style="fill:#008000;fill-opacity:1;display:inline"
         inkscape:connector-curvature="0" />
      <path
         d="m 14.183348,2300.6381 c -0.15219,4.1567 -1.682165,5.7176 -4.6964202,7.894 2.4040702,1.7054 3.4177202,4.2147 3.2130902,6.3528 -0.495425,5.1746 -4.5694052,7.7635 -9.0108452,7.6507 -4.44144005,-0.1127 -8.269275,-3.5754 -8.56786,-7.3357 -0.259635,-3.2711 0.731975,-4.8472 3.09453,-6.5694 -2.805255,-2.3194 -4.598285,-3.8475 -4.530265,-7.9421 0.0684,-4.0947 3.615415,-8.9679 9.798775,-9.1175 6.183455,-0.1497 10.8510902,4.9106 10.6989952,9.0672 z m -17.2639702,-0.013 c -0.26524,3.764 3.12388495,6.3036 6.947635,6.3431 3.72609,0.039 7.0596402,-3.0843 7.0602102,-6.4636 0,-3.63 -4.3354202,-5.6018 -7.1354502,-5.6122 -3.40318505,-0.012 -6.64392,2.491 -6.872395,5.7327 z m 1.2236,13.4648 c -0.0741,3.1707 2.904055,5.443 5.97417,5.3516 2.73163,-0.082 5.62495,-2.1288 5.62647,-4.7793 0,-3.3155 -3.288995,-4.9707 -6.096055,-5.0332 -2.546475,-0.057 -5.44863,2.0659 -5.504585,4.4609 z"
         id="path7128-9-2"
         style="fill:#008000;fill-opacity:1;display:inline"
         inkscape:connector-curvature="0" />
      <path
         d="m 185.75344,2113.5609 c -1.13249,-2.3228 -2.23459,-4.4847 -2.83508,-7.0308 -0.39824,-2.4012 0.41638,-1.5091 0.87894,0.065 0.68514,2.1825 2.58647,3.1766 4.351,3.2004 3.20254,0.043 4.80006,-2.474 4.7005,-5.1812 0.3497,-2.8487 -2.53745,-4.8642 -4.71361,-4.7089 -1.63619,0.1168 -3.0628,0.9994 -3.92626,1.6864 -0.56648,0.2995 -1.1723,0.4319 -0.32765,-0.3406 1.59372,-1.7412 2.92277,-2.8159 2.8937,-5.4252 -0.0275,-2.4498 -2.12183,-5.0047 -4.89763,-4.9247 -3.46893,0.1003 -5.0464,2.7456 -5.03814,5.2066 0.01,1.7939 0.90592,3.4449 2.29083,4.4675 0.89699,0.7278 0.64543,1.2728 -0.37781,0.5841 -0.98316,-0.8475 -2.15375,-1.2184 -3.36756,-1.2445 -3.31598,-0.052 -4.61225,2.8135 -4.42235,5.476 0.17803,2.4944 2.30166,5.062 5.10055,4.7712 2.49917,-0.2864 3.81235,-2.3844 4.56485,-4.538 0.24918,-0.6604 0.6422,-0.8387 0.63127,0.1454 -0.57731,4.8045 -2.36702,7.7942 -2.38003,7.7915 z"
         id="path3468-4"
         style="fill:#008000;fill-opacity:1;display:inline"
         inkscape:connector-curvature="0" />
      <path
         d="m -0.74371725,2266.5615 c 1.132495,2.3229 2.23459005,4.4848 2.83508505,7.0309 0.39824,2.4011 -0.416385,1.5091 -0.87894,-0.065 -0.68514005,-2.1825 -2.58647,-3.1766 -4.351,-3.2005 -3.202545,-0.043 -4.800065,2.474 -4.700505,5.1813 -0.3496951,2.8486 2.5374499,4.8641 4.7136149,4.7088 1.6361851,-0.1167 3.06280005,-0.9994 3.92625505,-1.6863 0.56648505,-0.2996 1.17230005,-0.4319 0.32765505,0.3405 -1.59372005,1.7413 -2.92277,2.8159 -2.8937,5.4253 0.02755,2.4498 2.12182495,5.0047 4.89763,4.9246 3.468925,-0.1002 5.0464,-2.7456 5.038135,-5.2066 -0.0095,-1.7938 -0.90592,-3.4449 -2.29083,-4.4674 -0.89699,-0.7278 -0.64543,-1.2728 0.377815,-0.5842 0.983155,0.8474 2.153745,1.2185 3.36756,1.2445 3.3159752,0.052 4.6122502,-2.8134 4.4223452,-5.476 -0.17803,-2.4944 -2.30166,-5.0619 -5.1005502,-4.7712 -2.499165,0.2865 -3.81235,2.3845 -4.564845,4.5381 -0.249185,0.6603 -0.6422,0.8387 -0.631275,-0.1454 0.577315,-4.8046 2.36702,-7.7942 2.380035,-7.7916 z"
         id="path3490-1"
         style="fill:#008000;fill-opacity:1;display:inline"
         inkscape:connector-curvature="0" />
    </g>
    <g
       transform="translate(-0.02084198,3.3503876e-5)"
       id="g73">
      <text
         inkscape:transform-center-y="-1.8280388e-05"
         inkscape:transform-center-x="15.803627"
         transform="matrix(0,1,-1,0,0,0)"
         xml:space="preserve"
         style="font-size:24.96722221px;font-style:normal;font-variant:normal;font-weight:normal;font-stretch:normal;text-align:start;line-height:125%;letter-spacing:0px;word-spacing:0px;writing-mode:lr-tb;text-anchor:start;fill:none;stroke:#000000;stroke-width:0.66144627;stroke-opacity:1;font-family:Card Characters;-inkscape-font-specification:'Card Characters, Normal'"
         x="521.39386"
         y="-260.38971"
         id="text70860-7"
         sodipodi:linespacing="125%"><tspan
           style="stroke-width:0.66144627"
           y="-260.38971"
           x="521.39386"
           id="tspan3766"
           sodipodi:role="line">18</tspan></text>
      <text
         inkscape:transform-center-y="-1.5008926e-05"
         sodipodi:linespacing="125%"
         id="text3768"
         y="459.64999"
         x="-554.75983"
         style="font-size:24.96725082px;font-style:normal;font-variant:normal;font-weight:normal;font-stretch:normal;text-align:start;line-height:125%;letter-spacing:0px;word-spacing:0px;writing-mode:lr-tb;text-anchor:start;fill:none;stroke:#000000;stroke-width:0.66144705;stroke-opacity:1;font-family:Card Characters;-inkscape-font-specification:'Card Characters, Normal'"
         xml:space="preserve"
         transform="matrix(0,-1,1,0,0,0)"
         inkscape:transform-center-x="-15.803641"><tspan
           style="stroke-width:0.66144705"
           sodipodi:role="line"
           id="tspan3770"
           x="-554.75983"
           y="459.64999">18</tspan></text>
    </g>
  </g>
</svg>
