<?xml version="1.0" encoding="UTF-8" standalone="no"?>
<!-- Created with Inkscape (http://www.inkscape.org/) -->

<svg
   xmlns:dc="http://purl.org/dc/elements/1.1/"
   xmlns:cc="http://creativecommons.org/ns#"
   xmlns:rdf="http://www.w3.org/1999/02/22-rdf-syntax-ns#"
   xmlns:svg="http://www.w3.org/2000/svg"
   xmlns="http://www.w3.org/2000/svg"
   xmlns:sodipodi="http://sodipodi.sourceforge.net/DTD/sodipodi-0.dtd"
   xmlns:inkscape="http://www.inkscape.org/namespaces/inkscape"
   width="224.25"
   height="312.78125"
   id="svg18947"
   version="1.1"
   inkscape:version="0.91 r13725"
   sodipodi:docname="9-Club09.svg">
  <sodipodi:namedview
     id="base"
     pagecolor="#ffffff"
     bordercolor="#666666"
     borderopacity="1.0"
     inkscape:pageopacity="0.0"
     inkscape:pageshadow="2"
     inkscape:zoom="2"
     inkscape:cx="105.13084"
     inkscape:cy="156.39062"
     inkscape:document-units="px"
     inkscape:current-layer="g73"
     showgrid="false"
     fit-margin-top="0"
     fit-margin-left="0"
     fit-margin-right="0"
     fit-margin-bottom="0"
     inkscape:window-width="1440"
     inkscape:window-height="790"
     inkscape:window-x="0"
     inkscape:window-y="0"
     inkscape:window-maximized="1"
     inkscape:snap-global="true"
     inkscape:snap-bbox="true"
     inkscape:bbox-paths="true"
     inkscape:bbox-nodes="true"
     inkscape:snap-bbox-edge-midpoints="true"
     inkscape:snap-bbox-midpoints="true"
     inkscape:snap-object-midpoints="true"
     inkscape:snap-center="true"
     showguides="true">
    <sodipodi:guide
       id="guide27001"
       orientation="312.7813,0"
       position="0.0,0" />
    <sodipodi:guide
       id="guide27003"
       orientation="312.7813,0"
       position="28.0313,0" />
    <sodipodi:guide
       id="guide27005"
       orientation="312.7813,0"
       position="56.0625,0" />
    <sodipodi:guide
       id="guide27007"
       orientation="312.7813,0"
       position="84.0938,0" />
    <sodipodi:guide
       id="guide27009"
       orientation="312.7813,0"
       position="112.125,0" />
    <sodipodi:guide
       id="guide27011"
       orientation="312.7813,0"
       position="140.1563,0" />
    <sodipodi:guide
       id="guide27013"
       orientation="312.7813,0"
       position="168.1875,0" />
    <sodipodi:guide
       id="guide27015"
       orientation="312.7813,0"
       position="196.2188,0" />
    <sodipodi:guide
       id="guide27017"
       orientation="312.7813,0"
       position="224.25,0" />
    <sodipodi:guide
       id="guide27019"
       orientation="0,224.25"
       position="0,0.0" />
    <sodipodi:guide
       id="guide27021"
       orientation="0,224.25"
       position="0,156.3906" />
    <sodipodi:guide
       id="guide27023"
       orientation="0,224.25"
       position="0,312.7813" />
  </sodipodi:namedview>
  <defs
     id="defs18949" />
  <metadata
     id="metadata18952">
    <rdf:RDF>
      <cc:Work
         rdf:about="">
        <dc:format>image/svg+xml</dc:format>
        <dc:type
           rdf:resource="http://purl.org/dc/dcmitype/StillImage" />
        <dc:title />
      </cc:Work>
    </rdf:RDF>
  </metadata>
  <g
     transform="translate(-247.87401,-381.68621)"
     id="layer1"
     inkscape:groupmode="layer"
     inkscape:label="Layer 1">
    <g
       inkscape:export-ydpi="70"
       inkscape:export-xdpi="70"
       inkscape:export-filename="C:\Users\MXY\Documents\SVG Deck(4-19-2011)\Finalized\Colorized - SVG_Vector_Playing_Cards_Version_1.3\COMBINED TEST.png"
       transform="translate(267.49802,-1972.9317)"
       id="g10567"
       style="display:inline">
      <path
         d="m -5.7091417,2400.2814 2.875365,-0.8949 c 1.084615,2.8457 3.27740505,3.6849 5.59702,3.5045 4.162995,-0.3237 5.54458,-4.8911 5.856845,-8.9294 -1.62203,1.6854 -4.060395,2.5418 -6.13662,2.4583 -6.633185,-0.3508 -8.33093,-5.5618 -8.392775,-11.0212 -0.184205,-4.604 1.75522,-7.938 5.08098005,-9.4653 1.75959,-0.7756 5.78986995,-0.7757 7.56142995,0.1412 4.0679947,2.1055 5.5734597,5.7464 5.3004297,14.4314 0,7.1477 -1.54337,15.473 -9.3456247,15.6513 -4.510315,0.612 -7.934875,-2.8308 -8.39705,-5.8759 z m 11.292935,-7.8315 c 1.35356,-0.8413 2.11755,-1.6304 2.724315,-2.814 0.49799,-0.9714 0.66652,-1.4755 0.52459,-3.4869 -0.36575,-5.1826 -3.134335,-8.1204 -7.14837,-7.5367 -2.23867495,0.3255 -3.460945,1.5564 -4.163565,3.8455 -1.29732,4.2267 0.347225,9.1745 3.42826505,10.3141 1.38956495,0.5139 3.52886995,0.3654 4.63476495,-0.322 z"
         id="path7114-1"
         style="fill:#008000;fill-opacity:1;display:inline"
         inkscape:connector-curvature="0" />
      <path
         d="m 190.02496,2621.7357 -2.87527,0.8949 c -1.08461,-2.8456 -3.2774,-3.6849 -5.59702,-3.5045 -4.16299,0.3238 -5.54467,4.8911 -5.85684,8.9294 1.62203,-1.6854 4.06039,-2.5418 6.13662,-2.4583 6.63318,0.3509 8.33093,5.5619 8.39277,11.0214 0.18421,4.6039 -1.75522,7.9378 -5.08098,9.4652 -1.75959,0.7756 -5.78987,0.7757 -7.56143,-0.1413 -4.06799,-2.1054 -5.57346,-5.7462 -5.30043,-14.4314 0,-7.1475 1.54328,-15.473 9.34563,-15.6513 4.51031,-0.6119 7.93478,2.8308 8.39695,5.8759 z m -11.29293,7.8316 c -1.35356,0.8412 -2.11746,1.6304 -2.72422,2.8139 -0.49809,0.9715 -0.66662,1.4755 -0.52459,3.4869 0.36575,5.1827 3.13424,8.1204 7.14837,7.5368 2.23867,-0.3255 3.46094,-1.5565 4.16347,-3.8455 1.29732,-4.2268 -0.34723,-9.1745 -3.42817,-10.3141 -1.38957,-0.514 -3.52887,-0.3654 -4.63486,0.322 z"
         id="path7130-3"
         style="fill:#008000;fill-opacity:1;display:inline"
         inkscape:connector-curvature="0" />
      <g
         id="g8155"
         transform="matrix(0.95,0,0,0.95,4.5228475,125.35021)">
        <path
           inkscape:connector-curvature="0"
           style="fill:#008000;fill-opacity:1;display:inline"
           id="path3299"
           d="m 135.9207,2506.6552 c 2.879,-5.7755 4.9759,-11.701 5.3481,-18.0373 0.3416,-2.3317 -1.0746,-2.3708 -1.2881,-0.7286 -4.0764,15.5928 -25.7627,11.3704 -25.0171,-3.2965 0.605,-11.8948 12.4195,-14.4538 18.5823,-10.5645 2.4336,1.4328 2.2961,0.5746 0.9679,-0.9118 -9.1548,-10.2114 -3.6101,-23.3617 8.7612,-23.6024 13.3796,0.7934 16.8512,14.8699 8.6442,23.1483 -1.0206,0.9946 -3.2835,4.1913 0.123,1.9563 8.2868,-5.888 19.7873,0.4428 19.5527,9.5207 -0.4327,16.7389 -20.8391,17.9873 -25.2032,4.0058 -0.4198,-1.5502 -1.6291,-2.3286 -1.295,0.3043 0.6049,4.7666 1.8565,11.9534 5.4374,18.2057 z" />
        <path
           inkscape:connector-curvature="0"
           style="fill:#008000;fill-opacity:1;display:inline"
           id="path3301"
           d="m 85.15006,2539.5792 c 2.879,-5.7755 4.9759,-11.701 5.3481,-18.0373 0.3416,-2.3317 -1.0746,-2.3708 -1.2881,-0.7286 -4.0764,15.5928 -25.7627,11.3704 -25.0171,-3.2965 0.605,-11.8948 12.4195,-14.4538 18.5823,-10.5645 2.4336,1.4328 2.2961,0.5746 0.9679,-0.9118 -9.1548,-10.2114 -3.6101,-23.3618 8.7612,-23.6025 13.3796,0.7935 16.8512,14.87 8.6442,23.1484 -1.0206,0.9946 -3.2835,4.1913 0.123,1.9563 8.2868,-5.888 19.7873,0.4428 19.5527,9.5207 -0.4327,16.7389 -20.8391,17.9873 -25.2032,4.0058 -0.4198,-1.5502 -1.6291,-2.3286 -1.295,0.3043 0.6049,4.7666 1.8565,11.9534 5.4374,18.2057 z" />
        <path
           inkscape:connector-curvature="0"
           style="fill:#008000;fill-opacity:1;display:inline"
           id="path3303"
           d="m 34.3879,2506.6552 c 2.879,-5.7755 4.9759,-11.701 5.3481,-18.0373 0.3416,-2.3317 -1.0746,-2.3708 -1.2881,-0.7286 -4.0764,15.5928 -25.7627,11.3704 -25.0171,-3.2965 0.605,-11.8948 12.4195,-14.4538 18.5823,-10.5645 2.4336,1.4328 2.2961,0.5746 0.9679,-0.9118 -9.1548,-10.2114 -3.6101,-23.3617 8.7612,-23.6024 13.3796,0.7934 16.8512,14.8699 8.6442,23.1483 -1.0206,0.9946 -3.2835,4.1913 0.123,1.9563 8.2868,-5.888 19.7873,0.4428 19.5527,9.5207 -0.4327,16.7389 -20.8391,17.9873 -25.2032,4.0058 -0.4198,-1.5502 -1.6291,-2.3286 -1.295,0.3043 0.6049,4.7666 1.8565,11.9534 5.4374,18.2057 z" />
        <path
           inkscape:connector-curvature="0"
           style="fill:#008000;fill-opacity:1;display:inline"
           id="path3305"
           d="m 136.145,2440.3858 c 2.879,-5.7755 4.9759,-11.701 5.3481,-18.0373 0.3416,-2.3317 -1.0746,-2.3708 -1.2881,-0.7285 -4.0764,15.5927 -25.7627,11.3703 -25.0171,-3.2965 0.605,-11.8948 12.4195,-14.4538 18.5823,-10.5645 2.4336,1.4328 2.2961,0.5746 0.9679,-0.9118 -9.1548,-10.2114 -3.6101,-23.3617 8.7612,-23.6024 13.3796,0.7934 16.8512,14.8699 8.6442,23.1482 -1.0206,0.9946 -3.2835,4.1913 0.123,1.9563 8.2868,-5.888 19.7873,0.4428 19.5527,9.5207 -0.4327,16.7389 -20.8391,17.9873 -25.2032,4.0058 -0.4198,-1.5502 -1.6291,-2.3286 -1.295,0.3043 0.6049,4.7666 1.8565,11.9534 5.4374,18.2057 z" />
        <path
           inkscape:connector-curvature="0"
           style="fill:#008000;fill-opacity:1;display:inline"
           id="path3307"
           d="m 34.3879,2440.3858 c 2.879,-5.7755 4.9759,-11.701 5.3481,-18.0373 0.3416,-2.3317 -1.0746,-2.3708 -1.2881,-0.7285 -4.0764,15.5927 -25.7627,11.3703 -25.0171,-3.2965 0.605,-11.8948 12.4195,-14.4538 18.5823,-10.5645 2.4336,1.4328 2.2961,0.5746 0.9679,-0.9118 -9.1548,-10.2114 -3.6101,-23.3617 8.7612,-23.6024 13.3796,0.7934 16.8512,14.8699 8.6442,23.1482 -1.0206,0.9946 -3.2835,4.1913 0.123,1.9563 8.2868,-5.888 19.7873,0.4428 19.5527,9.5207 -0.4327,16.7389 -20.8391,17.9873 -25.2032,4.0058 -0.4198,-1.5502 -1.6291,-2.3286 -1.295,0.3043 0.6049,4.7666 1.8565,11.9534 5.4374,18.2057 z" />
        <path
           inkscape:connector-curvature="0"
           style="fill:#008000;fill-opacity:1;display:inline"
           id="path3367"
           d="m 49.0899,2582.0527 c -2.879,5.7756 -4.9759,11.701 -5.3481,18.0373 -0.3416,2.3318 1.0746,2.3709 1.2881,0.7286 4.0764,-15.5928 25.7627,-11.3703 25.0171,3.2965 -0.605,11.8948 -12.4195,14.4538 -18.5823,10.5645 -2.4336,-1.4328 -2.2961,-0.5746 -0.9679,0.9118 9.1548,10.2114 3.6101,23.3617 -8.7612,23.6024 -13.3796,-0.7934 -16.8512,-14.8699 -8.6442,-23.1483 1.0206,-0.9946 3.2835,-4.1912 -0.123,-1.9563 -8.2868,5.888 -19.7873,-0.4428 -19.5527,-9.5207 0.4327,-16.7388 20.8391,-17.9873 25.2032,-4.0058 0.4198,1.5503 1.6291,2.3286 1.295,-0.3042 -0.6049,-4.7666 -1.8565,-11.9534 -5.4374,-18.2057 z" />
        <path
           inkscape:connector-curvature="0"
           style="fill:#008000;fill-opacity:1;display:inline"
           id="path3369"
           d="m 150.6227,2582.0527 c -2.879,5.7756 -4.9759,11.701 -5.3481,18.0373 -0.3416,2.3318 1.0746,2.3709 1.2881,0.7286 4.0764,-15.5928 25.7627,-11.3703 25.0171,3.2965 -0.605,11.8948 -12.4195,14.4538 -18.5823,10.5645 -2.4336,-1.4328 -2.2961,-0.5746 -0.9679,0.9118 9.1548,10.2114 3.6101,23.3617 -8.7612,23.6024 -13.3796,-0.7934 -16.8512,-14.8699 -8.6442,-23.1483 1.0206,-0.9946 3.2835,-4.1912 -0.123,-1.9563 -8.2868,5.888 -19.7873,-0.4428 -19.5527,-9.5207 0.4327,-16.7388 20.8391,-17.9873 25.2032,-4.0058 0.4198,1.5503 1.6291,2.3286 1.295,-0.3042 -0.6049,-4.7666 -1.8565,-11.9534 -5.4374,-18.2057 z" />
        <path
           inkscape:connector-curvature="0"
           style="fill:#008000;fill-opacity:1;display:inline"
           id="path3371"
           d="m 150.6227,2515.7833 c -2.879,5.7755 -4.9759,11.701 -5.3481,18.0373 -0.3416,2.3317 1.0746,2.3708 1.2881,0.7286 4.0764,-15.5928 25.7627,-11.3704 25.0171,3.2965 -0.605,11.8948 -12.4195,14.4538 -18.5823,10.5645 -2.4336,-1.4328 -2.2961,-0.5746 -0.9679,0.9118 9.1548,10.2114 3.6101,23.3617 -8.7612,23.6024 -13.3796,-0.7934 -16.8512,-14.8699 -8.6442,-23.1483 1.0206,-0.9946 3.2835,-4.1913 -0.123,-1.9563 -8.2868,5.888 -19.7873,-0.4428 -19.5527,-9.5207 0.4327,-16.7389 20.8391,-17.9873 25.2032,-4.0058 0.4198,1.5502 1.6291,2.3286 1.295,-0.3043 -0.6049,-4.7666 -1.8565,-11.9534 -5.4374,-18.2057 z" />
        <path
           inkscape:connector-curvature="0"
           style="fill:#008000;fill-opacity:1;display:inline"
           id="path3373"
           d="m 49.0899,2515.7833 c -2.879,5.7755 -4.9759,11.701 -5.3481,18.0373 -0.3416,2.3317 1.0746,2.3708 1.2881,0.7286 4.0764,-15.5928 25.7627,-11.3704 25.0171,3.2965 -0.605,11.8948 -12.4195,14.4538 -18.5823,10.5645 -2.4336,-1.4328 -2.2961,-0.5746 -0.9679,0.9118 9.1548,10.2114 3.6101,23.3617 -8.7612,23.6024 -13.3796,-0.7934 -16.8512,-14.8699 -8.6442,-23.1483 1.0206,-0.9946 3.2835,-4.1913 -0.123,-1.9563 -8.2868,5.888 -19.7873,-0.4428 -19.5527,-9.5207 0.4327,-16.7389 20.8391,-17.9873 25.2032,-4.0058 0.4198,1.5502 1.6291,2.3286 1.295,-0.3043 -0.6049,-4.7666 -1.8565,-11.9534 -5.4374,-18.2057 z" />
      </g>
      <path
         d="m -1.0204167,2432.013 c 1.13249505,-2.3229 2.23459,-4.4848 2.835085,-7.0309 0.39824,-2.4012 -0.416385,-1.5091 -0.87893995,0.065 -0.68514,2.1825 -2.58647005,3.1766 -4.35100005,3.2005 -3.202545,0.044 -4.800065,-2.4741 -4.700505,-5.1812 -0.349695,-2.8487 2.53745,-4.8642 4.713615,-4.709 1.636185,0.1168 3.06280005,0.9995 3.92625505,1.6864 0.56648495,0.2996 1.17229995,0.4319 0.327655,-0.3405 -1.59372,-1.7413 -2.92277005,-2.816 -2.89370005,-5.4253 0.02755,-2.4498 2.12182505,-5.0048 4.89763,-4.9246 3.468925,0.1002 5.0464,2.7456 5.038135,5.2065 -0.0095,1.794 -0.90592,3.445 -2.29083,4.4675 -0.89699,0.7278 -0.64543,1.2728 0.377815,0.5841 0.983155,-0.8474 2.153745,-1.2184 3.36756,-1.2444 3.3159747,-0.052 4.6122497,2.8134 4.4223447,5.476 -0.17803,2.4944 -2.30166,5.062 -5.1005497,4.7712 -2.499165,-0.2865 -3.81235,-2.3844 -4.564845,-4.5381 -0.249185,-0.6603 -0.6422,-0.8386 -0.631275,0.1455 0.577315,4.8045 2.36702,7.7941 2.380035,7.7914 z"
         id="path3466"
         style="fill:#008000;fill-opacity:1;display:inline"
         inkscape:connector-curvature="0" />
      <path
         d="m 186.03886,2588.4522 c -1.1325,2.3229 -2.23459,4.4848 -2.83509,7.0309 -0.39824,2.4012 0.41639,1.5091 0.87894,-0.065 0.68514,-2.1826 2.58647,-3.1766 4.351,-3.2005 3.20255,-0.043 4.80007,2.4741 4.70051,5.1812 0.34969,2.8487 -2.53745,4.8642 -4.71362,4.709 -1.63618,-0.1168 -3.0628,-0.9995 -3.92625,-1.6865 -0.56649,-0.2995 -1.1723,-0.4318 -0.32766,0.3406 1.59372,1.7413 2.92277,2.816 2.8937,5.4253 -0.0276,2.4497 -2.12182,5.0048 -4.89763,4.9246 -3.46892,-0.1002 -5.0464,-2.7456 -5.03813,-5.2065 0.01,-1.794 0.90592,-3.445 2.29083,-4.4675 0.89699,-0.7278 0.64543,-1.2729 -0.37782,-0.5841 -0.98315,0.8474 -2.15374,1.2184 -3.36756,1.2444 -3.31597,0.052 -4.61225,-2.8134 -4.42234,-5.476 0.17803,-2.4944 2.30166,-5.062 5.10055,-4.7712 2.49916,0.2864 3.81235,2.3844 4.56484,4.5381 0.24919,0.6603 0.6422,0.8386 0.63128,-0.1455 -0.57732,-4.8045 -2.36702,-7.7941 -2.38004,-7.7914 z"
         id="path3492"
         style="fill:#008000;fill-opacity:1;display:inline"
         inkscape:connector-curvature="0" />
      <path
         d="m 173.16617,2400.2815 2.87536,-0.8949 c 1.08462,2.8456 3.27741,3.6849 5.59702,3.5045 4.163,-0.3237 5.54458,-4.8911 5.85685,-8.9294 -1.62203,1.6854 -4.0604,2.5418 -6.13662,2.4583 -6.63319,-0.3509 -8.33093,-5.5618 -8.39278,-11.0213 -0.1842,-4.6039 1.75522,-7.9379 5.08098,-9.4652 1.75959,-0.7756 5.78987,-0.7757 7.56143,0.1412 4.068,2.1055 5.57346,5.7463 5.30043,14.4314 0,7.1476 -1.54337,15.473 -9.34562,15.6513 -4.51032,0.6119 -7.93488,-2.8308 -8.39705,-5.8759 z m 11.29293,-7.8316 c 1.35356,-0.8412 2.11755,-1.6303 2.72432,-2.8139 0.49799,-0.9714 0.66652,-1.4755 0.52459,-3.4869 -0.36575,-5.1826 -3.13434,-8.1204 -7.14837,-7.5368 -2.23868,0.3256 -3.46095,1.5565 -4.16357,3.8455 -1.29732,4.2268 0.34723,9.1746 3.42827,10.3142 1.38956,0.5139 3.52887,0.3654 4.63476,-0.3221 z"
         id="path7114-1-9"
         style="fill:#008000;fill-opacity:1;display:inline"
         inkscape:connector-curvature="0" />
      <path
         d="m 12.554893,2621.7358 -2.8752697,0.8949 c -1.084615,-2.8456 -3.277405,-3.6849 -5.59702,-3.5045 -4.16299495,0.3237 -5.544675,4.8911 -5.856845,8.9294 1.62203005,-1.6854 4.060395,-2.5418 6.13662,-2.4583 6.6331847,0.3509 8.3309297,5.5618 8.3927747,11.0213 0.184205,4.604 -1.75522,7.9379 -5.0809797,9.4652 -1.75959,0.7756 -5.78987,0.7758 -7.56142995,-0.1412 -4.06799505,-2.1054 -5.57346005,-5.7463 -5.30043005,-14.4314 0,-7.1476 1.543275,-15.473 9.345625,-15.6513 4.510315,-0.6119 7.9347797,2.8308 8.3969547,5.8759 z m -11.2929347,7.8316 c -1.35355995,0.8412 -2.11745495,1.6304 -2.72422,2.8139 -0.498085,0.9715 -0.666615,1.4755 -0.52459,3.4869 0.36575,5.1826 3.13424,8.1204 7.14837,7.5368 2.238675,-0.3256 3.460945,-1.5565 4.16347,-3.8455 1.2973197,-4.2268 -0.347225,-9.1745 -3.42817,-10.3141 -1.389565,-0.514 -3.52887,-0.3655 -4.63486,0.322 z"
         id="path7130-3-6"
         style="fill:#008000;fill-opacity:1;display:inline"
         inkscape:connector-curvature="0" />
      <path
         d="m 186.03895,2432.0131 c -1.13249,-2.3229 -2.23459,-4.4848 -2.83508,-7.0309 -0.39824,-2.4012 0.41638,-1.5091 0.87894,0.065 0.68514,2.1825 2.58647,3.1765 4.351,3.2005 3.20254,0.044 4.80006,-2.4741 4.7005,-5.1812 0.3497,-2.8487 -2.53745,-4.8642 -4.71361,-4.709 -1.63619,0.1168 -3.0628,0.9995 -3.92626,1.6864 -0.56648,0.2996 -1.1723,0.4319 -0.32765,-0.3405 1.59372,-1.7414 2.92277,-2.816 2.8937,-5.4254 -0.0275,-2.4498 -2.12183,-5.0047 -4.89763,-4.9245 -3.46893,0.1002 -5.0464,2.7456 -5.03814,5.2065 0.01,1.7939 0.90592,3.445 2.29083,4.4675 0.89699,0.7278 0.64543,1.2728 -0.37781,0.5841 -0.98316,-0.8474 -2.15375,-1.2184 -3.36756,-1.2444 -3.31598,-0.052 -4.61225,2.8133 -4.42235,5.4759 0.17803,2.4945 2.30166,5.062 5.10055,4.7713 2.49917,-0.2865 3.81235,-2.3845 4.56485,-4.5381 0.24918,-0.6603 0.6422,-0.8387 0.63127,0.1455 -0.57731,4.8045 -2.36702,7.7941 -2.38003,7.7914 z"
         id="path3466-9"
         style="fill:#008000;fill-opacity:1;display:inline"
         inkscape:connector-curvature="0" />
      <path
         d="m -1.0203217,2588.4523 c 1.13249505,2.3229 2.23459,4.4848 2.835085,7.0309 0.39824,2.4012 -0.416385,1.509 -0.87893995,-0.065 -0.68514,-2.1826 -2.58647005,-3.1766 -4.35100005,-3.2005 -3.202545,-0.043 -4.800065,2.474 -4.700505,5.1812 -0.349695,2.8487 2.53745,4.8642 4.713615,4.7089 1.636185,-0.1168 3.06280005,-0.9994 3.92625505,-1.6864 0.56648495,-0.2995 1.17229995,-0.4318 0.327655,0.3406 -1.59372,1.7413 -2.92277005,2.8159 -2.89370005,5.4253 0.02755,2.4497 2.12182505,5.0048 4.89763,4.9246 3.468925,-0.1002 5.0464,-2.7456 5.038135,-5.2065 -0.0095,-1.794 -0.90592,-3.445 -2.29083,-4.4676 -0.89699,-0.7277 -0.64543,-1.2728 0.377815,-0.584 0.983155,0.8474 2.153745,1.2184 3.36756,1.2444 3.3159747,0.052 4.6122497,-2.8134 4.4223447,-5.476 -0.17803,-2.4944 -2.30166,-5.062 -5.1005497,-4.7712 -2.499165,0.2864 -3.81235,2.3844 -4.564845,4.5381 -0.249185,0.6603 -0.6422,0.8386 -0.631275,-0.1455 0.577315,-4.8045 2.36702,-7.7942 2.380035,-7.7914 z"
         id="path3492-8"
         style="fill:#008000;fill-opacity:1;display:inline"
         inkscape:connector-curvature="0" />
    </g>
    <g
       transform="translate(-0.02084178,3.3503876e-5)"
       id="g73">
      <text
         inkscape:transform-center-y="15.803626"
         xml:space="preserve"
         style="font-style:normal;font-variant:normal;font-weight:normal;font-stretch:normal;font-size:24.96722221px;line-height:125%;font-family:'Card Characters';-inkscape-font-specification:'Card Characters, Normal';text-align:start;letter-spacing:0px;word-spacing:0px;writing-mode:lr-tb;text-anchor:start;fill:none;stroke:#000000;stroke-width:0.66144627;stroke-opacity:1"
         x="251.48259"
         y="549.16522"
         id="text70860-7"
         sodipodi:linespacing="125%"><tspan
           style="stroke-width:0.66144627"
           y="549.16522"
           x="251.48259"
           id="tspan3766"
           sodipodi:role="line">19</tspan></text>
      <text
         inkscape:transform-center-y="-15.80363"
         sodipodi:linespacing="125%"
         id="text3768"
         y="-528.9884"
         x="-468.5571"
         style="font-style:normal;font-variant:normal;font-weight:normal;font-stretch:normal;font-size:24.96725082px;line-height:125%;font-family:'Card Characters';-inkscape-font-specification:'Card Characters, Normal';text-align:start;letter-spacing:0px;word-spacing:0px;writing-mode:lr-tb;text-anchor:start;fill:none;stroke:#000000;stroke-width:0.66144705;stroke-opacity:1"
         xml:space="preserve"
         transform="scale(-1,-1)"
         inkscape:transform-center-x="2.0885671e-05"><tspan
           style="stroke-width:0.66144705"
           sodipodi:role="line"
           id="tspan3770"
           x="-468.5571"
           y="-528.9884">19</tspan></text>
    </g>
  </g>
</svg>
