<?xml version="1.0" encoding="UTF-8" standalone="no"?>
<!-- Created with Inkscape (http://www.inkscape.org/) -->

<svg
   xmlns:dc="http://purl.org/dc/elements/1.1/"
   xmlns:cc="http://creativecommons.org/ns#"
   xmlns:rdf="http://www.w3.org/1999/02/22-rdf-syntax-ns#"
   xmlns:svg="http://www.w3.org/2000/svg"
   xmlns="http://www.w3.org/2000/svg"
   xmlns:xlink="http://www.w3.org/1999/xlink"
   xmlns:sodipodi="http://sodipodi.sourceforge.net/DTD/sodipodi-0.dtd"
   xmlns:inkscape="http://www.inkscape.org/namespaces/inkscape"
   width="224.25"
   height="312.78125"
   id="svg18947"
   version="1.1"
   inkscape:version="0.48+devel r"
   sodipodi:docname="Mahjong.svg">
  <sodipodi:namedview
     id="base"
     pagecolor="#ffffff"
     bordercolor="#666666"
     borderopacity="1.0"
     inkscape:pageopacity="0.0"
     inkscape:pageshadow="2"
     inkscape:zoom="2"
     inkscape:cx="64.8096"
     inkscape:cy="110.5"
     inkscape:document-units="px"
     inkscape:current-layer="layer1"
     showgrid="false"
     fit-margin-top="0"
     fit-margin-left="0"
     fit-margin-right="0"
     fit-margin-bottom="0"
     inkscape:window-width="2560"
     inkscape:window-height="1606"
     inkscape:window-x="0"
     inkscape:window-y="31"
     inkscape:window-maximized="1"
     inkscape:snap-global="true"
     inkscape:snap-bbox="true"
     inkscape:bbox-paths="true"
     inkscape:bbox-nodes="true"
     inkscape:snap-bbox-edge-midpoints="true"
     inkscape:snap-bbox-midpoints="true"
     inkscape:snap-object-midpoints="true"
     inkscape:snap-center="true"
     showguides="true"
     inkscape:guide-bbox="true">
    <sodipodi:guide
       id="guide399464"
       orientation="312.7813,0"
       position="0.0,0" />
    <sodipodi:guide
       id="guide399466"
       orientation="312.7813,0"
       position="28.0313,0" />
    <sodipodi:guide
       id="guide399468"
       orientation="312.7813,0"
       position="56.0625,0" />
    <sodipodi:guide
       id="guide399470"
       orientation="312.7813,0"
       position="84.0938,0" />
    <sodipodi:guide
       id="guide399472"
       orientation="312.7813,0"
       position="112.125,0" />
    <sodipodi:guide
       id="guide399474"
       orientation="312.7813,0"
       position="140.1563,0" />
    <sodipodi:guide
       id="guide399476"
       orientation="312.7813,0"
       position="168.1875,0" />
    <sodipodi:guide
       id="guide399478"
       orientation="312.7813,0"
       position="196.2188,0" />
    <sodipodi:guide
       id="guide399480"
       orientation="312.7813,0"
       position="224.25,0" />
    <sodipodi:guide
       id="guide399482"
       orientation="0,224.25"
       position="0,0.0" />
    <sodipodi:guide
       id="guide399484"
       orientation="0,224.25"
       position="0,31.2781" />
    <sodipodi:guide
       id="guide399486"
       orientation="0,224.25"
       position="0,62.5562" />
    <sodipodi:guide
       id="guide399488"
       orientation="0,224.25"
       position="0,93.8344" />
    <sodipodi:guide
       id="guide399490"
       orientation="0,224.25"
       position="0,125.1125" />
    <sodipodi:guide
       id="guide399492"
       orientation="0,224.25"
       position="0,156.3906" />
    <sodipodi:guide
       id="guide399494"
       orientation="0,224.25"
       position="0,187.6687" />
    <sodipodi:guide
       id="guide399496"
       orientation="0,224.25"
       position="0,218.9469" />
    <sodipodi:guide
       id="guide399498"
       orientation="0,224.25"
       position="0,250.225" />
    <sodipodi:guide
       id="guide399500"
       orientation="0,224.25"
       position="0,281.5031" />
    <sodipodi:guide
       id="guide399502"
       orientation="0,224.25"
       position="0,312.7813" />
  </sodipodi:namedview>
  <defs
     id="defs18949">
    <linearGradient
       id="linearGradient3006">
      <stop
         style="stop-color:#ffffff;stop-opacity:1;"
         offset="0"
         id="stop3008" />
      <stop
         id="stop3014"
         offset="0.37675071"
         style="stop-color:#7f7f7f;stop-opacity:1;" />
      <stop
         style="stop-color:#ffffff;stop-opacity:1;"
         offset="0.80194807"
         id="stop3016" />
      <stop
         style="stop-color:#cccccc;stop-opacity:1"
         offset="1"
         id="stop3010" />
    </linearGradient>
    <linearGradient
       id="linearGradient3804">
      <stop
         style="stop-color:#000000;stop-opacity:1;"
         offset="0"
         id="stop3806" />
      <stop
         id="stop3812"
         offset="0.5"
         style="stop-color:#333333;stop-opacity:1" />
      <stop
         style="stop-color:#000000;stop-opacity:1;"
         offset="1"
         id="stop3808" />
    </linearGradient>
    <linearGradient
       id="linearGradient3833">
      <stop
         style="stop-color:#000000;stop-opacity:1;"
         offset="0"
         id="stop3835" />
      <stop
         id="stop3841"
         offset="0.5"
         style="stop-color:#333333;stop-opacity:1" />
      <stop
         style="stop-color:#000000;stop-opacity:1"
         offset="1"
         id="stop3837" />
    </linearGradient>
    <linearGradient
       id="linearGradient3851">
      <stop
         style="stop-color:#808080;stop-opacity:1;"
         offset="0"
         id="stop3853" />
      <stop
         id="stop3859"
         offset="0.5"
         style="stop-color:#ffffff;stop-opacity:1;" />
      <stop
         style="stop-color:#808080;stop-opacity:1;"
         offset="1"
         id="stop3855" />
    </linearGradient>
    <radialGradient
       inkscape:collect="always"
       xlink:href="#linearGradient3933-4-3"
       id="radialGradient3939-7-7"
       cx="44.149761"
       cy="208.92761"
       fx="44.149761"
       fy="208.92761"
       r="74.726646"
       gradientTransform="matrix(0.97241988,-0.00350785,0.00204639,0.40929875,4026.4071,-290.65137)"
       gradientUnits="userSpaceOnUse" />
    <linearGradient
       inkscape:collect="always"
       id="linearGradient3933-4-3">
      <stop
         style="stop-color:#000000;stop-opacity:1;"
         offset="0"
         id="stop3935-0-7" />
      <stop
         style="stop-color:#000000;stop-opacity:0;"
         offset="1"
         id="stop3937-9-2" />
    </linearGradient>
    <linearGradient
       inkscape:collect="always"
       xlink:href="#linearGradient3006-1-5"
       id="linearGradient3012-2-7"
       x1="81.90625"
       y1="294.38422"
       x2="178.15625"
       y2="294.38422"
       gradientUnits="userSpaceOnUse"
       gradientTransform="translate(3914.848,-255.2825)" />
    <linearGradient
       id="linearGradient3006-1-5">
      <stop
         style="stop-color:#ffffff;stop-opacity:1;"
         offset="0"
         id="stop3008-6-4" />
      <stop
         id="stop3014-8-12"
         offset="0.37675071"
         style="stop-color:#7f7f7f;stop-opacity:1;" />
      <stop
         style="stop-color:#ffffff;stop-opacity:1;"
         offset="0.80194807"
         id="stop3016-5-0" />
      <stop
         style="stop-color:#cccccc;stop-opacity:1"
         offset="1"
         id="stop3010-7-0" />
    </linearGradient>
    <linearGradient
       gradientTransform="translate(3914.848,-376.2825)"
       inkscape:collect="always"
       xlink:href="#linearGradient3804-6-4"
       id="linearGradient3810-9-1"
       x1="65.223801"
       y1="394.69629"
       x2="156.7487"
       y2="394.69629"
       gradientUnits="userSpaceOnUse" />
    <linearGradient
       id="linearGradient3804-6-4">
      <stop
         style="stop-color:#000000;stop-opacity:1;"
         offset="0"
         id="stop3806-1-6" />
      <stop
         id="stop3812-4-0"
         offset="0.5"
         style="stop-color:#333333;stop-opacity:1" />
      <stop
         style="stop-color:#000000;stop-opacity:1;"
         offset="1"
         id="stop3808-2-7" />
    </linearGradient>
    <radialGradient
       inkscape:collect="always"
       xlink:href="#linearGradient3024-3-7"
       id="radialGradient3030-7-1"
       cx="114.59315"
       cy="428.49252"
       fx="114.59315"
       fy="428.49252"
       r="43.141743"
       gradientTransform="matrix(0.79138519,4.4166814e-8,0,0.48100739,3940.8627,-177.7307)"
       gradientUnits="userSpaceOnUse" />
    <linearGradient
       inkscape:collect="always"
       id="linearGradient3024-3-7">
      <stop
         id="stop3028-2-7"
         offset="0"
         style="stop-color:#000000;stop-opacity:1" />
      <stop
         id="stop3026-2-7"
         offset="1"
         style="stop-color:#242424;stop-opacity:1;" />
    </linearGradient>
    <linearGradient
       gradientTransform="translate(3914.848,-376.2825)"
       inkscape:collect="always"
       xlink:href="#linearGradient3101-2-3"
       id="linearGradient3113-4-7"
       gradientUnits="userSpaceOnUse"
       x1="145.60164"
       y1="375.92633"
       x2="183.7796"
       y2="390.78296" />
    <linearGradient
       inkscape:collect="always"
       id="linearGradient3101-2-3">
      <stop
         style="stop-color:#000000;stop-opacity:1;"
         offset="0"
         id="stop3103-4-3" />
      <stop
         style="stop-color:#000000;stop-opacity:0;"
         offset="1"
         id="stop3105-5-5" />
    </linearGradient>
    <linearGradient
       gradientTransform="translate(3914.848,-376.2825)"
       inkscape:collect="always"
       xlink:href="#linearGradient3101-2-3"
       id="linearGradient3107-7-9"
       x1="113.00574"
       y1="395.66125"
       x2="116.81388"
       y2="405.19611"
       gradientUnits="userSpaceOnUse" />
    <linearGradient
       inkscape:collect="always"
       xlink:href="#linearGradient3833-1-81"
       id="linearGradient3086-3-9"
       gradientUnits="userSpaceOnUse"
       gradientTransform="matrix(0.43846429,7.9081918e-4,-6.5324466e-4,0.53080568,903.27012,-3758.3554)"
       x1="-158.78125"
       y1="459.14062"
       x2="-128.625"
       y2="459.14062" />
    <linearGradient
       id="linearGradient3833-1-81">
      <stop
         style="stop-color:#000000;stop-opacity:1;"
         offset="0"
         id="stop3835-5-82" />
      <stop
         id="stop3841-2-6"
         offset="0.5"
         style="stop-color:#333333;stop-opacity:1" />
      <stop
         style="stop-color:#000000;stop-opacity:1"
         offset="1"
         id="stop3837-7-6" />
    </linearGradient>
    <linearGradient
       inkscape:collect="always"
       xlink:href="#linearGradient3851-5-38"
       id="linearGradient3088-8-0"
       gradientUnits="userSpaceOnUse"
       gradientTransform="matrix(0.43846429,7.9081918e-4,-6.5324466e-4,0.53080568,970.15112,-3759.4954)"
       x1="-311.3125"
       y1="463.51562"
       x2="-281.15625"
       y2="463.51562" />
    <linearGradient
       id="linearGradient3851-5-38">
      <stop
         style="stop-color:#808080;stop-opacity:1;"
         offset="0"
         id="stop3853-1-0" />
      <stop
         id="stop3859-7-1"
         offset="0.5"
         style="stop-color:#ffffff;stop-opacity:1;" />
      <stop
         style="stop-color:#808080;stop-opacity:1;"
         offset="1"
         id="stop3855-1-2" />
    </linearGradient>
    <linearGradient
       id="linearGradient3006-1">
      <stop
         style="stop-color:#ffffff;stop-opacity:1;"
         offset="0"
         id="stop3008-6" />
      <stop
         id="stop3014-8"
         offset="0.37675071"
         style="stop-color:#7f7f7f;stop-opacity:1;" />
      <stop
         style="stop-color:#ffffff;stop-opacity:1;"
         offset="0.80194807"
         id="stop3016-5" />
      <stop
         style="stop-color:#cccccc;stop-opacity:1"
         offset="1"
         id="stop3010-7" />
    </linearGradient>
    <linearGradient
       id="linearGradient3804-6">
      <stop
         style="stop-color:#000000;stop-opacity:1;"
         offset="0"
         id="stop3806-1" />
      <stop
         id="stop3812-4"
         offset="0.5"
         style="stop-color:#333333;stop-opacity:1" />
      <stop
         style="stop-color:#000000;stop-opacity:1;"
         offset="1"
         id="stop3808-2" />
    </linearGradient>
    <linearGradient
       id="linearGradient3833-1">
      <stop
         style="stop-color:#000000;stop-opacity:1;"
         offset="0"
         id="stop3835-5" />
      <stop
         id="stop3841-2"
         offset="0.5"
         style="stop-color:#333333;stop-opacity:1" />
      <stop
         style="stop-color:#000000;stop-opacity:1"
         offset="1"
         id="stop3837-7" />
    </linearGradient>
    <linearGradient
       id="linearGradient3851-5">
      <stop
         style="stop-color:#808080;stop-opacity:1;"
         offset="0"
         id="stop3853-1" />
      <stop
         id="stop3859-7"
         offset="0.5"
         style="stop-color:#ffffff;stop-opacity:1;" />
      <stop
         style="stop-color:#808080;stop-opacity:1;"
         offset="1"
         id="stop3855-1" />
    </linearGradient>
    <linearGradient
       id="linearGradient3006-1-3">
      <stop
         style="stop-color:#ffffff;stop-opacity:1;"
         offset="0"
         id="stop3008-6-42" />
      <stop
         id="stop3014-8-2"
         offset="0.37675071"
         style="stop-color:#7f7f7f;stop-opacity:1;" />
      <stop
         style="stop-color:#ffffff;stop-opacity:1;"
         offset="0.80194807"
         id="stop3016-5-01" />
      <stop
         style="stop-color:#cccccc;stop-opacity:1"
         offset="1"
         id="stop3010-7-2" />
    </linearGradient>
    <linearGradient
       id="linearGradient3804-6-7">
      <stop
         style="stop-color:#000000;stop-opacity:1;"
         offset="0"
         id="stop3806-1-0" />
      <stop
         id="stop3812-4-2"
         offset="0.5"
         style="stop-color:#333333;stop-opacity:1" />
      <stop
         style="stop-color:#000000;stop-opacity:1;"
         offset="1"
         id="stop3808-2-4" />
    </linearGradient>
    <linearGradient
       id="linearGradient3833-1-8">
      <stop
         style="stop-color:#000000;stop-opacity:1;"
         offset="0"
         id="stop3835-5-6" />
      <stop
         id="stop3841-2-7"
         offset="0.5"
         style="stop-color:#333333;stop-opacity:1" />
      <stop
         style="stop-color:#000000;stop-opacity:1"
         offset="1"
         id="stop3837-7-0" />
    </linearGradient>
    <linearGradient
       id="linearGradient3851-5-1">
      <stop
         style="stop-color:#808080;stop-opacity:1;"
         offset="0"
         id="stop3853-1-8" />
      <stop
         id="stop3859-7-3"
         offset="0.5"
         style="stop-color:#ffffff;stop-opacity:1;" />
      <stop
         style="stop-color:#808080;stop-opacity:1;"
         offset="1"
         id="stop3855-1-0" />
    </linearGradient>
    <linearGradient
       id="linearGradient71722"
       inkscape:collect="always">
      <stop
         id="stop71724"
         offset="0"
         style="stop-color:#ffffff;stop-opacity:1;" />
      <stop
         id="stop71726"
         offset="1"
         style="stop-color:#ffffff;stop-opacity:0;" />
    </linearGradient>
    <linearGradient
       gradientUnits="userSpaceOnUse"
       y2="-71.453491"
       x2="204.61353"
       y1="-71.453491"
       x1="-19.611551"
       id="linearGradient71728"
       xlink:href="#linearGradient71722"
       inkscape:collect="always" />
  </defs>
  <metadata
     id="metadata18952">
    <rdf:RDF>
      <cc:Work
         rdf:about="">
        <dc:format>image/svg+xml</dc:format>
        <dc:type
           rdf:resource="http://purl.org/dc/dcmitype/StillImage" />
        <dc:title />
      </cc:Work>
    </rdf:RDF>
  </metadata>
  <g
     style="display:inline"
     transform="translate(-247.87401,-381.68621)"
     id="layer1"
     inkscape:groupmode="layer"
     inkscape:label="Layer 1">
    <g
       id="g28885"
       transform="matrix(1.4818248,0,0,1.4818248,-4456.9511,-5945.0972)">
      <g
         transform="translate(3218.6941,4331.1286)"
         id="use219">
        <path
           d="M 9,0 C 8.47,0 7.96,0.21 7.59,0.59 l -7,7 C 0.21,7.96 0,8.47 0,9 v 77 c 0,1.1 0.9,2 2,2 h 53 c 0.53,0 1.04,-0.21 1.41,-0.59 l 7,-7 C 63.79,80.04 64,79.53 64,79 V 2 C 64,0.9 63.1,0 62,0 H 9 z"
           id="path4435"
           inkscape:connector-curvature="0" />
        <path
           d="m 11.75,78.25 -9,9 h 9 H 55 c 0.33,0 0.65,-0.13 0.88,-0.37 l 7,-7 c 0.23,-0.23 0.37,-1.3 0.37,-1.63 h -51.5 z"
           id="path4437"
           style="fill:#9f9f9f"
           inkscape:connector-curvature="0" />
        <path
           d="m 8.12,1.12 -7,7 C 0.88,8.35 0.75,8.67 0.75,9 v 66.25 1 9 l 2,2 7,-7 v -4 -1 -74.5 c -0.33,0 -1.4,0.13 -1.63,0.37 z"
           id="path4439"
           style="fill:#d7d7d7"
           inkscape:connector-curvature="0" />
        <path
           d="M 1.61,86.89 11.75,76.75 v -0.5 L 1.34,86.66 c 0.08,0.09 0.17,0.16 0.27,0.23 z"
           id="path4441"
           style="fill:#bfbfbf"
           inkscape:connector-curvature="0" />
        <path
           d="m 1.93,87.07 9.82,-9.82 v -0.5 L 1.61,86.89 c 0.1,0.07 0.21,0.13 0.32,0.18 z"
           id="path4443"
           style="fill:#b7b7b7"
           inkscape:connector-curvature="0" />
        <path
           d="m 2.3,87.2 9.45,-9.45 v -0.5 l -9.82,9.82 c 0.12,0.05 0.24,0.1 0.37,0.13 z"
           id="path4445"
           style="fill:#afafaf"
           inkscape:connector-curvature="0" />
        <path
           d="M 11.75,77.75 2.3,87.2 c 0.14,0.03 0.29,0.05 0.45,0.05 l 9,-9 v -0.5 z"
           id="path4447"
           style="fill:#a7a7a7"
           inkscape:connector-curvature="0" />
        <path
           d="M 1.34,86.66 11.75,76.25 h -0.5 L 1.11,86.39 c 0.07,0.1 0.14,0.19 0.23,0.27 z"
           id="path4449"
           style="fill:#c7c7c7"
           inkscape:connector-curvature="0" />
        <path
           d="M 1.11,86.39 11.25,76.25 h -0.5 l -9.82,9.82 c 0.05,0.11 0.11,0.22 0.18,0.32 z"
           id="path4451"
           style="fill:#cdcdcd"
           inkscape:connector-curvature="0" />
        <path
           d="m 0.93,86.07 9.82,-9.82 h -0.5 L 0.8,85.7 c 0.03,0.13 0.08,0.25 0.13,0.37 z"
           id="path4453"
           style="fill:#d2d2d2"
           inkscape:connector-curvature="0" />
        <path
           d="m 10.25,76.25 h -0.5 l -9,9 c 0,0.15 0.02,0.3 0.05,0.45 l 9.45,-9.45 z"
           id="path4455"
           style="fill:#d7d7d7"
           inkscape:connector-curvature="0" />
        <path
           d="M 63.25,78.25 V 2.75 c 0,-1.1 -0.9,-2 -2,-2 h -50.5 c -1.1,0 -2,0.9 -2,2 v 75.5 c 0,1.1 0.9,2 2,2 h 50.5 c 1.1,0 2,-0.9 2,-2 z"
           id="path4457"
           style="fill:#f6f6f6"
           inkscape:connector-curvature="0" />
        <path
           d="M 8.75,78.25 V 2.75 c 0,-1.1 0.9,-2 2,-2 h -1 c -1.1,0 -2,0.9 -2,2 v 75.5 c 0,1.1 0.9,2 2,2 h 1 c -1.1,0 -2,-0.9 -2,-2 z"
           id="path4459"
           style="fill:#ffffff"
           inkscape:connector-curvature="0" />
      </g>
      <g
         transform="translate(3237.6941,4372.1286)"
         id="use361"
         style="fill:#000000;fill-opacity:1">
        <path
           d="m 18.01,0.14 c 0,0 -4.39,3.33 -4.78,3.63 C 12.91,3.44 10.03,0.5 10.03,0.5 l 2.22,8.92 0.6,-0.03 c 0.75,-4.76 4.35,-6.63 5.33,-7.05 0.14,0.2 0.26,0.42 0.26,0.72 0,0.09 -0.01,0.18 -0.02,0.28 -0.21,1.67 -2.39,4.64 -6.68,7.21 l -0.31,0.18 0.81,1.01 0.2,-0.06 C 12.5,11.66 19.03,9.62 22.8,9.8 L 23.94,9.85 22.98,9.22 C 22.9,9.17 21.03,7.97 19.05,8.19 19.33,7.56 21.31,5.63 23.2,4.03 L 23.51,3.77 18.19,0 18.01,0.14 z"
           id="path4429"
           style="fill:#000000;fill-opacity:1"
           inkscape:connector-curvature="0" />
        <path
           d="m 33.78,24.64 c -0.17,-0.17 -4.21,-4.28 -5.63,-5.01 -0.53,-0.27 -1.71,-0.18 -5.75,0.16 0,0 -0.17,0.01 -0.43,0.04 1.19,-2.79 2.72,-5.86 3.57,-6.25 l 0.55,-0.25 -2.13,-2.09 -0.21,0.03 c -5.11,0.87 -13.08,2.09 -14.11,1.9 L 9.29,13.1 9.17,13.43 c -0.2,0.56 0.32,4.93 0.86,7.37 C 5.45,21.2 0,21.66 0,21.66 l 0.3,0.56 0.68,1.27 0.32,-0.09 c 1.72,-0.51 2.52,-0.57 4.6,-0.54 0.19,0.49 2.6,6.77 2.6,6.77 l 0.79,-0.2 c 0,0 -0.69,-5.69 -0.8,-6.52 0.78,0.02 7.99,0.22 9.67,0.26 -1.09,0.92 -3.56,3.02 -3.56,3.02 L 15,26.9 c 0,0 5.15,-1.76 5.41,-1.85 0.25,0.1 4.3,1.65 4.3,1.65 0,0 -2.13,-2.57 -2.81,-3.38 3.78,0.2 4.75,0.42 5.01,0.74 0.33,0.39 0.5,0.96 0.5,1.6 0,1.16 -0.58,2.57 -1.8,3.73 -1.82,-0.46 -5.17,-2.34 -5.21,-2.36 l -0.52,0.62 5.08,6.35 0.24,-0.05 c 3.82,-0.78 8.44,-8.48 8.63,-8.81 L 34,24.87 33.78,24.64 z M 21.02,16.65 c -1.22,0.16 -2.77,0.37 -3.21,0.43 0,-0.33 0,-1.17 0,-2 1.62,-0.13 3.11,-0.25 3.49,-0.29 -0.05,0.27 -0.15,0.98 -0.28,1.86 z m -4.93,-1.43 c 0.02,0.84 0.04,1.75 0.05,2.06 -1.41,0.16 -2.6,0.26 -3.55,0.3 0.1,-0.62 0.19,-1.31 0.3,-2.1 0.24,-0.02 1.62,-0.13 3.2,-0.26 z m -4.06,5.43 c 0.08,-0.35 0.17,-0.76 0.26,-1.24 1.3,-0.24 2.61,-0.46 3.89,-0.63 0.01,0.48 0.03,1.1 0.04,1.52 -0.25,0.01 -1.96,0.16 -4.19,0.35 z m 5.77,-0.48 c 0,-0.48 0,-1.18 0,-1.6 0.98,-0.1 1.36,-0.08 1.96,-0.02 l 0.96,0.06 c -0.07,0.46 -0.14,0.92 -0.2,1.35 -1.09,0.08 -2.33,0.18 -2.72,0.21 z"
           id="path4431"
           style="fill:#000000;fill-opacity:1"
           inkscape:connector-curvature="0" />
      </g>
      <path
         id="path787"
         d="m 3262.4941,4349.2286 c -0.3,0.2 -0.4,0.5 -0.4,0.8 0,0.3001 0.1,0.5 0.1,0.7 -2.6,0.2 -19.7,1.8 -23.9,1.4 l -0.4,0 1.7,6 0.3,-0.1 c 3.3,-1.1 24.1,-2.4 29,-1.4 0.8,0.1 1.2,0 1.4,-0.4 0.5,-1 -1.9,-3.5 -3.4,-4.8 -0.9,-0.9 -3.4,-2.8 -4.4,-2.2 z"
         style="fill:#000000;fill-opacity:1"
         inkscape:connector-curvature="0" />
    </g>
    <text
       sodipodi:linespacing="125%"
       id="text28803"
       y="434.51645"
       x="258.95291"
       style="font-size:38px;font-style:normal;font-variant:normal;font-weight:normal;font-stretch:normal;text-align:start;line-height:125%;letter-spacing:0px;word-spacing:0px;writing-mode:lr-tb;text-anchor:start;fill:#000000;fill-opacity:1;stroke:none;font-family:Card Characters;-inkscape-font-specification:Card Characters"
       xml:space="preserve"><tspan
         y="434.51645"
         x="258.95291"
         id="tspan28805"
         sodipodi:role="line">1</tspan></text>
    <g
       transform="matrix(0.92303953,0,0,0.92303953,26.340639,36.901024)"
       id="g399405">
      <g
         style="display:inline"
         id="g29427"
         transform="matrix(0.49936327,0,0,0.49936327,223.7882,208.22264)">
        <path
           inkscape:transform-center-y="-2.274184"
           inkscape:transform-center-x="1.4609898"
           transform="matrix(0.76125063,0,0,0.76125063,216.80064,425.2074)"
           d="M 340.47192,18.271276 314.95069,6.6777437 305.36658,33.019491 295.51821,6.7753956 270.11479,18.62483 281.70832,-6.8963937 255.36658,-16.48051 l 26.24409,-9.848365 -11.84943,-25.403422 25.52122,11.593532 9.58412,-26.341747 9.84836,26.244095 25.40342,-11.849434 -11.59353,25.521223 26.34175,9.584117 L 328.62248,-7.1321461 Z"
           inkscape:randomized="0"
           inkscape:rounded="0"
           inkscape:flatsided="false"
           sodipodi:arg2="1.1730721"
           sodipodi:arg1="0.78037307"
           sodipodi:r2="25.390081"
           sodipodi:r1="49.750629"
           sodipodi:cy="-16.730511"
           sodipodi:cx="305.11658"
           sodipodi:sides="8"
           id="path28913"
           style="fill:#9f9f9f;fill-opacity:1;stroke:#f6f6f6;stroke-opacity:0.69644841;display:inline"
           sodipodi:type="star" />
      </g>
      <text
         xml:space="preserve"
         style="font-size:19.07244873px;font-style:normal;font-variant:normal;font-weight:normal;font-stretch:normal;text-align:start;line-height:125%;letter-spacing:0px;word-spacing:0px;writing-mode:lr-tb;text-anchor:start;fill:#000000;fill-opacity:1;stroke:none;display:inline;font-family:Card Characters;-inkscape-font-specification:Card Characters"
         x="441.83914"
         y="422.20609"
         id="text28905"
         sodipodi:linespacing="125%"><tspan
           sodipodi:role="line"
           id="tspan28907"
           x="441.83914"
           y="422.20609">?</tspan></text>
    </g>
    <g
       id="layer1-6-4"
       inkscape:label="Layer 1"
       transform="matrix(0.95,0,0,0.95,18.00803,27.599181)"
       style="fill:#881feb;fill-opacity:1;stroke:none">
      <text
         sodipodi:linespacing="125%"
         id="text70860-3"
         y="427.74597"
         x="334.64624"
         style="font-size:37.74588394px;font-style:normal;font-variant:normal;font-weight:normal;font-stretch:normal;text-align:start;line-height:125%;letter-spacing:0px;word-spacing:0px;writing-mode:lr-tb;text-anchor:start;fill:#881feb;fill-opacity:1;stroke:none;font-family:Card Characters;-inkscape-font-specification:Card Characters"
         xml:space="preserve"><tspan
           y="427.74597"
           x="334.64624"
           id="tspan399267"
           sodipodi:role="line">10</tspan></text>
    </g>
    <text
       transform="scale(-1,-1)"
       xml:space="preserve"
       style="font-size:38px;font-style:normal;font-variant:normal;font-weight:normal;font-stretch:normal;text-align:start;line-height:125%;letter-spacing:0px;word-spacing:0px;writing-mode:lr-tb;text-anchor:start;fill:#000000;fill-opacity:1;stroke:none;font-family:Card Characters;-inkscape-font-specification:Card Characters"
       x="-461.06308"
       y="-641.63727"
       id="text399432"
       sodipodi:linespacing="125%"><tspan
         sodipodi:role="line"
         id="tspan399434"
         x="-461.06308"
         y="-641.63727">1</tspan></text>
    <g
       style="fill:#881feb;fill-opacity:1;stroke:none"
       transform="matrix(-0.95,0,0,-0.95,702.00799,1048.5546)"
       inkscape:label="Layer 1"
       id="g399436">
      <text
         xml:space="preserve"
         style="font-size:37.74588394px;font-style:normal;font-variant:normal;font-weight:normal;font-stretch:normal;text-align:start;line-height:125%;letter-spacing:0px;word-spacing:0px;writing-mode:lr-tb;text-anchor:start;fill:#881feb;fill-opacity:1;stroke:none;font-family:Card Characters;-inkscape-font-specification:Card Characters"
         x="334.64624"
         y="427.74597"
         id="text399438"
         sodipodi:linespacing="125%"><tspan
           sodipodi:role="line"
           id="tspan399440"
           x="334.64624"
           y="427.74597">10</tspan></text>
    </g>
    <g
       id="g399442"
       transform="matrix(-0.92303953,0,0,-0.92303953,693.67549,1039.2527)">
      <g
         transform="matrix(0.49936327,0,0,0.49936327,223.7882,208.22264)"
         id="g399444"
         style="display:inline">
        <path
           sodipodi:type="star"
           style="fill:#9f9f9f;fill-opacity:1;stroke:#f6f6f6;stroke-opacity:0.69644841;display:inline"
           id="path399446"
           sodipodi:sides="8"
           sodipodi:cx="305.11658"
           sodipodi:cy="-16.730511"
           sodipodi:r1="49.750629"
           sodipodi:r2="25.390081"
           sodipodi:arg1="0.78037307"
           sodipodi:arg2="1.1730721"
           inkscape:flatsided="false"
           inkscape:rounded="0"
           inkscape:randomized="0"
           d="M 340.47192,18.271276 314.95069,6.6777437 305.36658,33.019491 295.51821,6.7753956 270.11479,18.62483 281.70832,-6.8963937 255.36658,-16.48051 l 26.24409,-9.848365 -11.84943,-25.403422 25.52122,11.593532 9.58412,-26.341747 9.84836,26.244095 25.40342,-11.849434 -11.59353,25.521223 26.34175,9.584117 L 328.62248,-7.1321461 Z"
           transform="matrix(0.76125063,0,0,0.76125063,216.80064,425.2074)"
           inkscape:transform-center-x="1.4609898"
           inkscape:transform-center-y="-2.274184" />
      </g>
      <text
         sodipodi:linespacing="125%"
         id="text399448"
         y="422.20609"
         x="441.83914"
         style="font-size:19.07244873px;font-style:normal;font-variant:normal;font-weight:normal;font-stretch:normal;text-align:start;line-height:125%;letter-spacing:0px;word-spacing:0px;writing-mode:lr-tb;text-anchor:start;fill:#000000;fill-opacity:1;stroke:none;display:inline;font-family:Card Characters;-inkscape-font-specification:Card Characters"
         xml:space="preserve"><tspan
           y="422.20609"
           x="441.83914"
           id="tspan399450"
           sodipodi:role="line">?</tspan></text>
    </g>
    <g
       transform="translate(-0.02084198,3.3503876e-5)"
       id="g73">
      <text
         inkscape:transform-center-y="-1.8280388e-05"
         inkscape:transform-center-x="15.803627"
         transform="matrix(0,1,-1,0,0,0)"
         xml:space="preserve"
         style="font-size:24.96722221px;font-style:normal;font-variant:normal;font-weight:normal;font-stretch:normal;text-align:start;line-height:125%;letter-spacing:0px;word-spacing:0px;writing-mode:lr-tb;text-anchor:start;fill:none;stroke:#000000;stroke-width:0.66144627;stroke-opacity:1;font-family:Card Characters;-inkscape-font-specification:'Card Characters, Normal'"
         x="521.39386"
         y="-260.38971"
         id="text70860-7"
         sodipodi:linespacing="125%"><tspan
           style="stroke-width:0.66144627"
           y="-260.38971"
           x="521.39386"
           id="tspan3766"
           sodipodi:role="line">10</tspan></text>
      <text
         inkscape:transform-center-y="-1.5008926e-05"
         sodipodi:linespacing="125%"
         id="text3768"
         y="459.64999"
         x="-554.75983"
         style="font-size:24.96725082px;font-style:normal;font-variant:normal;font-weight:normal;font-stretch:normal;text-align:start;line-height:125%;letter-spacing:0px;word-spacing:0px;writing-mode:lr-tb;text-anchor:start;fill:none;stroke:#000000;stroke-width:0.66144705;stroke-opacity:1;font-family:Card Characters;-inkscape-font-specification:'Card Characters, Normal'"
         xml:space="preserve"
         transform="matrix(0,-1,1,0,0,0)"
         inkscape:transform-center-x="-15.803641"><tspan
           style="stroke-width:0.66144705"
           sodipodi:role="line"
           id="tspan3770"
           x="-554.75983"
           y="459.64999">10</tspan></text>
    </g>
  </g>
</svg>
